G04 #@! TF.FileFunction,Other,User*
%FSLAX46Y46*%
G04 Gerber Fmt 4.6, Leading zero omitted, Abs format (unit mm)*
G04 Created by KiCad (PCBNEW 4.0.1-stable) date 7/17/2017 8:51:10 PM*
%MOMM*%
G01*
G04 APERTURE LIST*
%ADD10C,0.100000*%
%ADD11C,0.050000*%
G04 APERTURE END LIST*
D10*
D11*
X43600000Y-124210000D02*
X31100000Y-124210000D01*
X43600000Y-124210000D02*
X43600000Y-113600000D01*
X31100000Y-113600000D02*
X31100000Y-124210000D01*
X31100000Y-113600000D02*
X43600000Y-113600000D01*
X56500000Y-99120000D02*
X60000000Y-99120000D01*
X56500000Y-99120000D02*
X56500000Y-100870000D01*
X60000000Y-100870000D02*
X60000000Y-99120000D01*
X60000000Y-100870000D02*
X56500000Y-100870000D01*
X43600000Y-112710000D02*
X31100000Y-112710000D01*
X43600000Y-112710000D02*
X43600000Y-102100000D01*
X31100000Y-102100000D02*
X31100000Y-112710000D01*
X31100000Y-102100000D02*
X43600000Y-102100000D01*
X62400000Y-107880000D02*
X59600000Y-107880000D01*
X62400000Y-107880000D02*
X62400000Y-106580000D01*
X59600000Y-106580000D02*
X59600000Y-107880000D01*
X59600000Y-106580000D02*
X62400000Y-106580000D01*
X56600000Y-97600000D02*
X59400000Y-97600000D01*
X56600000Y-97600000D02*
X56600000Y-98900000D01*
X59400000Y-98900000D02*
X59400000Y-97600000D01*
X59400000Y-98900000D02*
X56600000Y-98900000D01*
X70850000Y-111150000D02*
X70850000Y-108350000D01*
X70850000Y-111150000D02*
X72150000Y-111150000D01*
X72150000Y-108350000D02*
X70850000Y-108350000D01*
X72150000Y-108350000D02*
X72150000Y-111150000D01*
X62400000Y-109650000D02*
X59600000Y-109650000D01*
X62400000Y-109650000D02*
X62400000Y-108350000D01*
X59600000Y-108350000D02*
X59600000Y-109650000D01*
X59600000Y-108350000D02*
X62400000Y-108350000D01*
X72750000Y-111350000D02*
X76250000Y-111350000D01*
X76250000Y-111350000D02*
X76250000Y-105650000D01*
X76250000Y-105650000D02*
X72750000Y-105650000D01*
X72750000Y-105650000D02*
X72750000Y-111350000D01*
X62500000Y-112380000D02*
X59000000Y-112380000D01*
X62500000Y-112380000D02*
X62500000Y-110630000D01*
X59000000Y-110630000D02*
X59000000Y-112380000D01*
X59000000Y-110630000D02*
X62500000Y-110630000D01*
X62850000Y-116500000D02*
X62850000Y-113000000D01*
X62850000Y-113000000D02*
X57150000Y-113000000D01*
X57150000Y-113000000D02*
X57150000Y-116500000D01*
X57150000Y-116500000D02*
X62850000Y-116500000D01*
X85600000Y-110900000D02*
X85600000Y-108100000D01*
X85600000Y-110900000D02*
X86900000Y-110900000D01*
X86900000Y-108100000D02*
X85600000Y-108100000D01*
X86900000Y-108100000D02*
X86900000Y-110900000D01*
X81150000Y-121650000D02*
X78350000Y-121650000D01*
X81150000Y-121650000D02*
X81150000Y-120350000D01*
X78350000Y-120350000D02*
X78350000Y-121650000D01*
X78350000Y-120350000D02*
X81150000Y-120350000D01*
X86600000Y-149850000D02*
X89400000Y-149850000D01*
X86600000Y-149850000D02*
X86600000Y-151150000D01*
X89400000Y-151150000D02*
X89400000Y-149850000D01*
X89400000Y-151150000D02*
X86600000Y-151150000D01*
X86600000Y-127850000D02*
X89400000Y-127850000D01*
X86600000Y-127850000D02*
X86600000Y-129150000D01*
X89400000Y-129150000D02*
X89400000Y-127850000D01*
X89400000Y-129150000D02*
X86600000Y-129150000D01*
X86600000Y-138350000D02*
X89400000Y-138350000D01*
X86600000Y-138350000D02*
X86600000Y-139650000D01*
X89400000Y-139650000D02*
X89400000Y-138350000D01*
X89400000Y-139650000D02*
X86600000Y-139650000D01*
X97400000Y-127900000D02*
X94600000Y-127900000D01*
X97400000Y-127900000D02*
X97400000Y-126600000D01*
X94600000Y-126600000D02*
X94600000Y-127900000D01*
X94600000Y-126600000D02*
X97400000Y-126600000D01*
X97400000Y-137900000D02*
X94600000Y-137900000D01*
X97400000Y-137900000D02*
X97400000Y-136600000D01*
X94600000Y-136600000D02*
X94600000Y-137900000D01*
X94600000Y-136600000D02*
X97400000Y-136600000D01*
X97650000Y-147900000D02*
X94850000Y-147900000D01*
X97650000Y-147900000D02*
X97650000Y-146600000D01*
X94850000Y-146600000D02*
X94850000Y-147900000D01*
X94850000Y-146600000D02*
X97650000Y-146600000D01*
X97400000Y-157900000D02*
X94600000Y-157900000D01*
X97400000Y-157900000D02*
X97400000Y-156600000D01*
X94600000Y-156600000D02*
X94600000Y-157900000D01*
X94600000Y-156600000D02*
X97400000Y-156600000D01*
X131550000Y-119000000D02*
X131550000Y-116200000D01*
X131550000Y-119000000D02*
X132850000Y-119000000D01*
X132850000Y-116200000D02*
X131550000Y-116200000D01*
X132850000Y-116200000D02*
X132850000Y-119000000D01*
X131550000Y-128800000D02*
X131550000Y-126000000D01*
X131550000Y-128800000D02*
X132850000Y-128800000D01*
X132850000Y-126000000D02*
X131550000Y-126000000D01*
X132850000Y-126000000D02*
X132850000Y-128800000D01*
X108850000Y-157100000D02*
X111650000Y-157100000D01*
X108850000Y-157100000D02*
X108850000Y-158400000D01*
X111650000Y-158400000D02*
X111650000Y-157100000D01*
X111650000Y-158400000D02*
X108850000Y-158400000D01*
X105100000Y-157100000D02*
X107900000Y-157100000D01*
X105100000Y-157100000D02*
X105100000Y-158400000D01*
X107900000Y-158400000D02*
X107900000Y-157100000D01*
X107900000Y-158400000D02*
X105100000Y-158400000D01*
X112600000Y-157100000D02*
X115400000Y-157100000D01*
X112600000Y-157100000D02*
X112600000Y-158400000D01*
X115400000Y-158400000D02*
X115400000Y-157100000D01*
X115400000Y-158400000D02*
X112600000Y-158400000D01*
X116350000Y-157100000D02*
X119150000Y-157100000D01*
X116350000Y-157100000D02*
X116350000Y-158400000D01*
X119150000Y-158400000D02*
X119150000Y-157100000D01*
X119150000Y-158400000D02*
X116350000Y-158400000D01*
X98400000Y-56350000D02*
X98400000Y-59150000D01*
X98400000Y-56350000D02*
X97100000Y-56350000D01*
X97100000Y-59150000D02*
X98400000Y-59150000D01*
X97100000Y-59150000D02*
X97100000Y-56350000D01*
X76100000Y-60900000D02*
X76100000Y-58100000D01*
X76100000Y-60900000D02*
X77400000Y-60900000D01*
X77400000Y-58100000D02*
X76100000Y-58100000D01*
X77400000Y-58100000D02*
X77400000Y-60900000D01*
X102600000Y-78650000D02*
X102600000Y-75850000D01*
X102600000Y-78650000D02*
X103900000Y-78650000D01*
X103900000Y-75850000D02*
X102600000Y-75850000D01*
X103900000Y-75850000D02*
X103900000Y-78650000D01*
X82600000Y-78650000D02*
X82600000Y-75850000D01*
X82600000Y-78650000D02*
X83900000Y-78650000D01*
X83900000Y-75850000D02*
X82600000Y-75850000D01*
X83900000Y-75850000D02*
X83900000Y-78650000D01*
X52100000Y-129350000D02*
X52100000Y-124650000D01*
X52100000Y-124650000D02*
X54400000Y-124650000D01*
X54400000Y-124650000D02*
X54400000Y-129350000D01*
X52100000Y-129350000D02*
X54400000Y-129350000D01*
X61650000Y-97400000D02*
X65050000Y-97400000D01*
X65050000Y-97400000D02*
X65050000Y-100900000D01*
X65050000Y-100900000D02*
X61650000Y-100900000D01*
X61650000Y-100900000D02*
X61650000Y-97400000D01*
X150770000Y-136550000D02*
X150770000Y-117700000D01*
X150770000Y-117700000D02*
X144620000Y-117700000D01*
X144620000Y-117700000D02*
X144620000Y-136550000D01*
X144620000Y-136550000D02*
X150770000Y-136550000D01*
X89450000Y-155500000D02*
X86050000Y-155500000D01*
X86050000Y-155500000D02*
X86050000Y-152000000D01*
X86050000Y-152000000D02*
X89450000Y-152000000D01*
X89450000Y-152000000D02*
X89450000Y-155500000D01*
X89450000Y-144250000D02*
X86050000Y-144250000D01*
X86050000Y-144250000D02*
X86050000Y-140750000D01*
X86050000Y-140750000D02*
X89450000Y-140750000D01*
X89450000Y-140750000D02*
X89450000Y-144250000D01*
X89700000Y-133500000D02*
X86300000Y-133500000D01*
X86300000Y-133500000D02*
X86300000Y-130000000D01*
X86300000Y-130000000D02*
X89700000Y-130000000D01*
X89700000Y-130000000D02*
X89700000Y-133500000D01*
X94050000Y-122250000D02*
X97450000Y-122250000D01*
X97450000Y-122250000D02*
X97450000Y-125750000D01*
X97450000Y-125750000D02*
X94050000Y-125750000D01*
X94050000Y-125750000D02*
X94050000Y-122250000D01*
X94050000Y-132250000D02*
X97450000Y-132250000D01*
X97450000Y-132250000D02*
X97450000Y-135750000D01*
X97450000Y-135750000D02*
X94050000Y-135750000D01*
X94050000Y-135750000D02*
X94050000Y-132250000D01*
X94050000Y-142250000D02*
X97450000Y-142250000D01*
X97450000Y-142250000D02*
X97450000Y-145750000D01*
X97450000Y-145750000D02*
X94050000Y-145750000D01*
X94050000Y-145750000D02*
X94050000Y-142250000D01*
X94050000Y-152250000D02*
X97450000Y-152250000D01*
X97450000Y-152250000D02*
X97450000Y-155750000D01*
X97450000Y-155750000D02*
X94050000Y-155750000D01*
X94050000Y-155750000D02*
X94050000Y-152250000D01*
X48150000Y-49900000D02*
X48150000Y-47400000D01*
X48150000Y-49900000D02*
X49550000Y-49900000D01*
X49550000Y-47400000D02*
X48150000Y-47400000D01*
X49550000Y-47400000D02*
X49550000Y-49900000D01*
X50650000Y-49900000D02*
X50650000Y-47400000D01*
X50650000Y-49900000D02*
X52050000Y-49900000D01*
X52050000Y-47400000D02*
X50650000Y-47400000D01*
X52050000Y-47400000D02*
X52050000Y-49900000D01*
X41100000Y-93100000D02*
X38600000Y-93100000D01*
X41100000Y-93100000D02*
X41100000Y-91700000D01*
X38600000Y-91700000D02*
X38600000Y-93100000D01*
X38600000Y-91700000D02*
X41100000Y-91700000D01*
X41600000Y-101100000D02*
X39100000Y-101100000D01*
X41600000Y-101100000D02*
X41600000Y-99700000D01*
X39100000Y-99700000D02*
X39100000Y-101100000D01*
X39100000Y-99700000D02*
X41600000Y-99700000D01*
X41600000Y-97350000D02*
X39100000Y-97350000D01*
X41600000Y-97350000D02*
X41600000Y-95950000D01*
X39100000Y-95950000D02*
X39100000Y-97350000D01*
X39100000Y-95950000D02*
X41600000Y-95950000D01*
X82000000Y-115300000D02*
X84500000Y-115300000D01*
X82000000Y-115300000D02*
X82000000Y-116700000D01*
X84500000Y-116700000D02*
X84500000Y-115300000D01*
X84500000Y-116700000D02*
X82000000Y-116700000D01*
X87550000Y-114250000D02*
X87550000Y-111750000D01*
X87550000Y-114250000D02*
X88950000Y-114250000D01*
X88950000Y-111750000D02*
X87550000Y-111750000D01*
X88950000Y-111750000D02*
X88950000Y-114250000D01*
X105700000Y-116500000D02*
X105700000Y-119000000D01*
X105700000Y-116500000D02*
X104300000Y-116500000D01*
X104300000Y-119000000D02*
X105700000Y-119000000D01*
X104300000Y-119000000D02*
X104300000Y-116500000D01*
X103700000Y-116500000D02*
X103700000Y-119000000D01*
X103700000Y-116500000D02*
X102300000Y-116500000D01*
X102300000Y-119000000D02*
X103700000Y-119000000D01*
X102300000Y-119000000D02*
X102300000Y-116500000D01*
X71300000Y-47650000D02*
X71300000Y-50150000D01*
X71300000Y-47650000D02*
X69900000Y-47650000D01*
X69900000Y-50150000D02*
X71300000Y-50150000D01*
X69900000Y-50150000D02*
X69900000Y-47650000D01*
X128500000Y-135450000D02*
X128500000Y-132950000D01*
X128500000Y-135450000D02*
X129900000Y-135450000D01*
X129900000Y-132950000D02*
X128500000Y-132950000D01*
X129900000Y-132950000D02*
X129900000Y-135450000D01*
X138050000Y-128700000D02*
X135550000Y-128700000D01*
X138050000Y-128700000D02*
X138050000Y-127300000D01*
X135550000Y-127300000D02*
X135550000Y-128700000D01*
X135550000Y-127300000D02*
X138050000Y-127300000D01*
X110650000Y-33890000D02*
X114950000Y-33890000D01*
X110650000Y-33890000D02*
X110650000Y-36100000D01*
X114950000Y-36100000D02*
X114950000Y-33890000D01*
X114950000Y-36100000D02*
X110650000Y-36100000D01*
X114800000Y-40500000D02*
X108400000Y-40500000D01*
X114800000Y-40500000D02*
X114800000Y-37500000D01*
X108400000Y-37500000D02*
X108400000Y-40500000D01*
X108400000Y-37500000D02*
X114800000Y-37500000D01*
X124350000Y-36910000D02*
X120050000Y-36910000D01*
X124350000Y-36910000D02*
X124350000Y-34700000D01*
X120050000Y-34700000D02*
X120050000Y-36910000D01*
X120050000Y-34700000D02*
X124350000Y-34700000D01*
X118000000Y-37700000D02*
X124400000Y-37700000D01*
X118000000Y-37700000D02*
X118000000Y-40700000D01*
X124400000Y-40700000D02*
X124400000Y-37700000D01*
X124400000Y-40700000D02*
X118000000Y-40700000D01*
X105050000Y-156750000D02*
X105050000Y-154250000D01*
X105050000Y-156750000D02*
X106450000Y-156750000D01*
X106450000Y-154250000D02*
X105050000Y-154250000D01*
X106450000Y-154250000D02*
X106450000Y-156750000D01*
X112550000Y-156750000D02*
X112550000Y-154250000D01*
X112550000Y-156750000D02*
X113950000Y-156750000D01*
X113950000Y-154250000D02*
X112550000Y-154250000D01*
X113950000Y-154250000D02*
X113950000Y-156750000D01*
X116300000Y-156750000D02*
X116300000Y-154250000D01*
X116300000Y-156750000D02*
X117700000Y-156750000D01*
X117700000Y-154250000D02*
X116300000Y-154250000D01*
X117700000Y-154250000D02*
X117700000Y-156750000D01*
X108800000Y-156750000D02*
X108800000Y-154250000D01*
X108800000Y-156750000D02*
X110200000Y-156750000D01*
X110200000Y-154250000D02*
X108800000Y-154250000D01*
X110200000Y-154250000D02*
X110200000Y-156750000D01*
X111700000Y-154250000D02*
X111700000Y-156750000D01*
X111700000Y-154250000D02*
X110300000Y-154250000D01*
X110300000Y-156750000D02*
X111700000Y-156750000D01*
X110300000Y-156750000D02*
X110300000Y-154250000D01*
X107950000Y-154250000D02*
X107950000Y-156750000D01*
X107950000Y-154250000D02*
X106550000Y-154250000D01*
X106550000Y-156750000D02*
X107950000Y-156750000D01*
X106550000Y-156750000D02*
X106550000Y-154250000D01*
X115200000Y-154250000D02*
X115200000Y-156750000D01*
X115200000Y-154250000D02*
X113800000Y-154250000D01*
X113800000Y-156750000D02*
X115200000Y-156750000D01*
X113800000Y-156750000D02*
X113800000Y-154250000D01*
X119200000Y-154250000D02*
X119200000Y-156750000D01*
X119200000Y-154250000D02*
X117800000Y-154250000D01*
X117800000Y-156750000D02*
X119200000Y-156750000D01*
X117800000Y-156750000D02*
X117800000Y-154250000D01*
X76600000Y-54050000D02*
X76600000Y-50950000D01*
X76600000Y-54050000D02*
X78400000Y-54050000D01*
X78400000Y-50950000D02*
X76600000Y-50950000D01*
X78400000Y-50950000D02*
X78400000Y-54050000D01*
X76600000Y-49300000D02*
X76600000Y-46200000D01*
X76600000Y-49300000D02*
X78400000Y-49300000D01*
X78400000Y-46200000D02*
X76600000Y-46200000D01*
X78400000Y-46200000D02*
X78400000Y-49300000D01*
X101350000Y-54050000D02*
X101350000Y-50950000D01*
X101350000Y-54050000D02*
X103150000Y-54050000D01*
X103150000Y-50950000D02*
X101350000Y-50950000D01*
X103150000Y-50950000D02*
X103150000Y-54050000D01*
X101350000Y-49050000D02*
X101350000Y-45950000D01*
X101350000Y-49050000D02*
X103150000Y-49050000D01*
X103150000Y-45950000D02*
X101350000Y-45950000D01*
X103150000Y-45950000D02*
X103150000Y-49050000D01*
X65600000Y-94950000D02*
X68100000Y-94950000D01*
X65600000Y-94950000D02*
X65600000Y-96350000D01*
X68100000Y-96350000D02*
X68100000Y-94950000D01*
X68100000Y-96350000D02*
X65600000Y-96350000D01*
X99550000Y-82250000D02*
X99550000Y-79750000D01*
X99550000Y-82250000D02*
X100950000Y-82250000D01*
X100950000Y-79750000D02*
X99550000Y-79750000D01*
X100950000Y-79750000D02*
X100950000Y-82250000D01*
X78800000Y-82000000D02*
X78800000Y-79500000D01*
X78800000Y-82000000D02*
X80200000Y-82000000D01*
X80200000Y-79500000D02*
X78800000Y-79500000D01*
X80200000Y-79500000D02*
X80200000Y-82000000D01*
X35350000Y-40950000D02*
X37850000Y-40950000D01*
X35350000Y-40950000D02*
X35350000Y-42350000D01*
X37850000Y-42350000D02*
X37850000Y-40950000D01*
X37850000Y-42350000D02*
X35350000Y-42350000D01*
X65000000Y-36500000D02*
X65000000Y-45300000D01*
X72200000Y-36500000D02*
X65000000Y-36500000D01*
X72200000Y-45300000D02*
X72200000Y-36500000D01*
X65000000Y-45300000D02*
X72200000Y-45300000D01*
X131100000Y-129150000D02*
X131100000Y-134800000D01*
X138500000Y-129150000D02*
X138500000Y-134800000D01*
X131100000Y-129150000D02*
X138500000Y-129150000D01*
X131100000Y-134800000D02*
X138500000Y-134800000D01*
X131100000Y-119350000D02*
X131100000Y-125000000D01*
X138500000Y-119350000D02*
X138500000Y-125000000D01*
X131100000Y-119350000D02*
X138500000Y-119350000D01*
X131100000Y-125000000D02*
X138500000Y-125000000D01*
X64300000Y-96650000D02*
X60900000Y-96650000D01*
X60900000Y-96650000D02*
X60900000Y-93150000D01*
X60900000Y-93150000D02*
X64300000Y-93150000D01*
X64300000Y-93150000D02*
X64300000Y-96650000D01*
X75400000Y-112650000D02*
X66600000Y-112650000D01*
X75400000Y-119850000D02*
X75400000Y-112650000D01*
X66600000Y-119850000D02*
X75400000Y-119850000D01*
X66600000Y-112650000D02*
X66600000Y-119850000D01*
X51700000Y-91200000D02*
X51700000Y-122750000D01*
X51700000Y-122750000D02*
X55300000Y-122750000D01*
X55300000Y-122750000D02*
X55300000Y-91200000D01*
X55300000Y-91200000D02*
X51700000Y-91200000D01*
X49700000Y-46850000D02*
X48000000Y-46850000D01*
X48000000Y-46850000D02*
X48000000Y-42950000D01*
X48000000Y-42950000D02*
X49700000Y-42950000D01*
X49700000Y-42950000D02*
X49700000Y-46850000D01*
X52200000Y-46850000D02*
X50500000Y-46850000D01*
X50500000Y-46850000D02*
X50500000Y-42950000D01*
X50500000Y-42950000D02*
X52200000Y-42950000D01*
X52200000Y-42950000D02*
X52200000Y-46850000D01*
X30400000Y-42750000D02*
X30400000Y-41050000D01*
X30400000Y-41050000D02*
X34300000Y-41050000D01*
X34300000Y-41050000D02*
X34300000Y-42750000D01*
X34300000Y-42750000D02*
X30400000Y-42750000D01*
X38050000Y-91550000D02*
X38050000Y-93250000D01*
X38050000Y-93250000D02*
X34150000Y-93250000D01*
X34150000Y-93250000D02*
X34150000Y-91550000D01*
X34150000Y-91550000D02*
X38050000Y-91550000D01*
X38050000Y-99550000D02*
X38050000Y-101250000D01*
X38050000Y-101250000D02*
X34150000Y-101250000D01*
X34150000Y-101250000D02*
X34150000Y-99550000D01*
X34150000Y-99550000D02*
X38050000Y-99550000D01*
X38050000Y-95800000D02*
X38050000Y-97500000D01*
X38050000Y-97500000D02*
X34150000Y-97500000D01*
X34150000Y-97500000D02*
X34150000Y-95800000D01*
X34150000Y-95800000D02*
X38050000Y-95800000D01*
X76440000Y-149810000D02*
X76440000Y-123410000D01*
X76440000Y-123410000D02*
X66840000Y-123410000D01*
X66840000Y-123410000D02*
X66840000Y-149810000D01*
X66840000Y-149810000D02*
X76440000Y-149810000D01*
X119620000Y-149810000D02*
X119620000Y-123410000D01*
X119620000Y-123410000D02*
X110020000Y-123410000D01*
X110020000Y-123410000D02*
X110020000Y-149810000D01*
X110020000Y-149810000D02*
X119620000Y-149810000D01*
X126780000Y-147300000D02*
X126780000Y-141150000D01*
X126780000Y-141150000D02*
X123180000Y-141150000D01*
X123180000Y-141150000D02*
X123180000Y-147300000D01*
X123180000Y-147300000D02*
X126780000Y-147300000D01*
X60450000Y-27800000D02*
X60450000Y-33700000D01*
X60450000Y-33700000D02*
X78800000Y-33700000D01*
X78800000Y-33700000D02*
X78800000Y-27800000D01*
X78800000Y-27800000D02*
X60450000Y-27800000D01*
X59900000Y-75950000D02*
X65800000Y-75950000D01*
X65800000Y-75950000D02*
X65800000Y-57600000D01*
X65800000Y-57600000D02*
X59900000Y-57600000D01*
X59900000Y-57600000D02*
X59900000Y-75950000D01*
X60150000Y-87400000D02*
X63550000Y-87400000D01*
X63550000Y-87400000D02*
X63550000Y-90900000D01*
X63550000Y-90900000D02*
X60150000Y-90900000D01*
X60150000Y-90900000D02*
X60150000Y-87400000D01*
X30400000Y-47500000D02*
X30400000Y-45800000D01*
X30400000Y-45800000D02*
X34300000Y-45800000D01*
X34300000Y-45800000D02*
X34300000Y-47500000D01*
X34300000Y-47500000D02*
X30400000Y-47500000D01*
X65600000Y-85200000D02*
X68100000Y-85200000D01*
X65600000Y-85200000D02*
X65600000Y-86600000D01*
X68100000Y-86600000D02*
X68100000Y-85200000D01*
X68100000Y-86600000D02*
X65600000Y-86600000D01*
X35350000Y-45950000D02*
X37850000Y-45950000D01*
X35350000Y-45950000D02*
X35350000Y-47350000D01*
X37850000Y-47350000D02*
X37850000Y-45950000D01*
X37850000Y-47350000D02*
X35350000Y-47350000D01*
X63550000Y-86650000D02*
X60150000Y-86650000D01*
X60150000Y-86650000D02*
X60150000Y-83150000D01*
X60150000Y-83150000D02*
X63550000Y-83150000D01*
X63550000Y-83150000D02*
X63550000Y-86650000D01*
X92650000Y-45430000D02*
X81350000Y-45430000D01*
X81350000Y-45430000D02*
X81350000Y-62070000D01*
X81350000Y-62070000D02*
X92650000Y-62070000D01*
X92650000Y-62070000D02*
X92650000Y-45430000D01*
X66400000Y-79950000D02*
X72300000Y-79950000D01*
X72300000Y-79950000D02*
X72300000Y-61600000D01*
X72300000Y-61600000D02*
X66400000Y-61600000D01*
X66400000Y-61600000D02*
X66400000Y-79950000D01*
X115400000Y-45180000D02*
X104100000Y-45180000D01*
X104100000Y-45180000D02*
X104100000Y-61820000D01*
X104100000Y-61820000D02*
X115400000Y-61820000D01*
X115400000Y-61820000D02*
X115400000Y-45180000D01*
M02*
