G04 #@! TF.FileFunction,Soldermask,Top*
%FSLAX46Y46*%
G04 Gerber Fmt 4.6, Leading zero omitted, Abs format (unit mm)*
G04 Created by KiCad (PCBNEW 4.0.1-stable) date 7/17/2017 8:51:10 PM*
%MOMM*%
G01*
G04 APERTURE LIST*
%ADD10C,0.100000*%
%ADD11C,7.000000*%
%ADD12C,1.200000*%
%ADD13C,3.400000*%
%ADD14R,0.908000X1.543000*%
%ADD15R,4.400000X2.900000*%
%ADD16R,1.400000X1.650000*%
%ADD17R,1.200000X1.150000*%
%ADD18R,1.150000X1.200000*%
%ADD19R,2.900000X2.350000*%
%ADD20R,2.350000X2.900000*%
%ADD21R,1.600000X1.300000*%
%ADD22R,1.300000X1.200000*%
%ADD23R,2.100000X2.100000*%
%ADD24O,2.100000X2.100000*%
%ADD25R,1.300000X0.900000*%
%ADD26R,0.900000X1.300000*%
%ADD27R,1.300000X2.100000*%
%ADD28R,1.400000X2.900000*%
%ADD29R,1.700000X1.100000*%
%ADD30R,4.200000X2.400000*%
%ADD31R,1.900000X2.400000*%
%ADD32R,2.000000X0.810000*%
%ADD33R,2.400000X4.200000*%
%ADD34R,2.400000X1.900000*%
%ADD35C,2.400000*%
%ADD36C,3.000000*%
%ADD37R,1.600000X1.600000*%
%ADD38O,0.700000X1.120000*%
%ADD39O,1.120000X0.700000*%
%ADD40R,2.550000X2.550000*%
%ADD41O,1.000000X1.500000*%
%ADD42C,2.900000*%
%ADD43C,2.000000*%
%ADD44R,3.400000X1.400000*%
%ADD45R,5.300000X5.200000*%
%ADD46R,1.900000X1.750000*%
%ADD47C,4.972000*%
%ADD48R,6.400000X6.400000*%
%ADD49C,6.400000*%
%ADD50R,5.700000X2.400000*%
%ADD51O,1.000000X2.200000*%
%ADD52O,1.000000X2.305000*%
%ADD53R,3.000000X3.000000*%
%ADD54O,3.000000X3.000000*%
%ADD55R,1.400000X3.800000*%
G04 APERTURE END LIST*
D10*
D11*
X206400000Y-174400000D03*
X29600000Y-174400000D03*
X29600000Y-17600000D03*
X206400000Y-17400000D03*
D12*
X75400000Y-23500000D03*
X79000000Y-23500000D03*
X77800000Y-23500000D03*
X76600000Y-23500000D03*
X78600000Y-168400000D03*
X82200000Y-168400000D03*
X81000000Y-168400000D03*
X79800000Y-168400000D03*
D13*
X22600000Y-17600000D03*
X213400000Y-17600000D03*
X213400000Y-174400000D03*
X22600000Y-174400000D03*
D12*
X28600000Y-104000000D03*
X28600000Y-102800000D03*
X28600000Y-101600000D03*
X28600000Y-105200000D03*
X162200000Y-168300000D03*
X163400000Y-168300000D03*
X164600000Y-168300000D03*
X161000000Y-168300000D03*
D14*
X99095000Y-140825000D03*
X100365000Y-140825000D03*
X101635000Y-140825000D03*
X102905000Y-140825000D03*
X102905000Y-147175000D03*
X101635000Y-147175000D03*
X100365000Y-147175000D03*
X99095000Y-147175000D03*
D15*
X41350000Y-118900000D03*
X33350000Y-118900000D03*
D16*
X57250000Y-100000000D03*
X59250000Y-100000000D03*
D15*
X41350000Y-107400000D03*
X33350000Y-107400000D03*
D17*
X61750000Y-107230000D03*
X60250000Y-107230000D03*
X57250000Y-98250000D03*
X58750000Y-98250000D03*
D18*
X71500000Y-110500000D03*
X71500000Y-109000000D03*
D17*
X61750000Y-109000000D03*
X60250000Y-109000000D03*
D19*
X74500000Y-110025000D03*
X74500000Y-106975000D03*
D16*
X61750000Y-111500000D03*
X59750000Y-111500000D03*
D20*
X61525000Y-114750000D03*
X58475000Y-114750000D03*
D18*
X86250000Y-110250000D03*
X86250000Y-108750000D03*
D17*
X80500000Y-121000000D03*
X79000000Y-121000000D03*
X87250000Y-150500000D03*
X88750000Y-150500000D03*
X87250000Y-128500000D03*
X88750000Y-128500000D03*
X87250000Y-139000000D03*
X88750000Y-139000000D03*
X96750000Y-127250000D03*
X95250000Y-127250000D03*
X96750000Y-137250000D03*
X95250000Y-137250000D03*
X97000000Y-147250000D03*
X95500000Y-147250000D03*
X96750000Y-157250000D03*
X95250000Y-157250000D03*
D18*
X132200000Y-118350000D03*
X132200000Y-116850000D03*
X132200000Y-128150000D03*
X132200000Y-126650000D03*
D17*
X109500000Y-157750000D03*
X111000000Y-157750000D03*
X105750000Y-157750000D03*
X107250000Y-157750000D03*
X113250000Y-157750000D03*
X114750000Y-157750000D03*
X117000000Y-157750000D03*
X118500000Y-157750000D03*
D18*
X97750000Y-57000000D03*
X97750000Y-58500000D03*
X76750000Y-60250000D03*
X76750000Y-58750000D03*
X103250000Y-78000000D03*
X103250000Y-76500000D03*
X83250000Y-78000000D03*
X83250000Y-76500000D03*
D21*
X53250000Y-128650000D03*
X53250000Y-125350000D03*
D22*
X62350000Y-98200000D03*
X62350000Y-100100000D03*
X64350000Y-99150000D03*
D23*
X148970000Y-134750000D03*
D24*
X146430000Y-134750000D03*
X148970000Y-132210000D03*
X146430000Y-132210000D03*
X148970000Y-129670000D03*
X146430000Y-129670000D03*
X148970000Y-127130000D03*
X146430000Y-127130000D03*
X148970000Y-124590000D03*
X146430000Y-124590000D03*
X148970000Y-122050000D03*
X146430000Y-122050000D03*
X148970000Y-119510000D03*
X146430000Y-119510000D03*
D22*
X88750000Y-154700000D03*
X88750000Y-152800000D03*
X86750000Y-153750000D03*
X88750000Y-143450000D03*
X88750000Y-141550000D03*
X86750000Y-142500000D03*
X89000000Y-132700000D03*
X89000000Y-130800000D03*
X87000000Y-131750000D03*
X94750000Y-123050000D03*
X94750000Y-124950000D03*
X96750000Y-124000000D03*
X94750000Y-133050000D03*
X94750000Y-134950000D03*
X96750000Y-134000000D03*
X94750000Y-143050000D03*
X94750000Y-144950000D03*
X96750000Y-144000000D03*
X94750000Y-153050000D03*
X94750000Y-154950000D03*
X96750000Y-154000000D03*
D25*
X48850000Y-49400000D03*
X48850000Y-47900000D03*
X51350000Y-49400000D03*
X51350000Y-47900000D03*
D26*
X40600000Y-92400000D03*
X39100000Y-92400000D03*
X41100000Y-100400000D03*
X39600000Y-100400000D03*
X41100000Y-96650000D03*
X39600000Y-96650000D03*
X82500000Y-116000000D03*
X84000000Y-116000000D03*
D25*
X88250000Y-113750000D03*
X88250000Y-112250000D03*
X105000000Y-117000000D03*
X105000000Y-118500000D03*
X103000000Y-117000000D03*
X103000000Y-118500000D03*
X70600000Y-48150000D03*
X70600000Y-49650000D03*
X129200000Y-134950000D03*
X129200000Y-133450000D03*
D26*
X137550000Y-128000000D03*
X136050000Y-128000000D03*
D27*
X111350000Y-35000000D03*
X114250000Y-35000000D03*
D28*
X114050000Y-39000000D03*
X109150000Y-39000000D03*
D27*
X123650000Y-35800000D03*
X120750000Y-35800000D03*
D28*
X118750000Y-39200000D03*
X123650000Y-39200000D03*
D25*
X105750000Y-156250000D03*
X105750000Y-154750000D03*
X113250000Y-156250000D03*
X113250000Y-154750000D03*
X117000000Y-156250000D03*
X117000000Y-154750000D03*
X109500000Y-156250000D03*
X109500000Y-154750000D03*
X111000000Y-154750000D03*
X111000000Y-156250000D03*
X107250000Y-154750000D03*
X107250000Y-156250000D03*
X114500000Y-154750000D03*
X114500000Y-156250000D03*
X118500000Y-154750000D03*
X118500000Y-156250000D03*
D29*
X77500000Y-53450000D03*
X77500000Y-51550000D03*
X77500000Y-48700000D03*
X77500000Y-46800000D03*
X102250000Y-53450000D03*
X102250000Y-51550000D03*
X102250000Y-48450000D03*
X102250000Y-46550000D03*
D26*
X66100000Y-95650000D03*
X67600000Y-95650000D03*
D25*
X100250000Y-81750000D03*
X100250000Y-80250000D03*
X79500000Y-81500000D03*
X79500000Y-80000000D03*
D26*
X35850000Y-41650000D03*
X37350000Y-41650000D03*
D14*
X84655000Y-156925000D03*
X83385000Y-156925000D03*
X82115000Y-156925000D03*
X80845000Y-156925000D03*
X80845000Y-150575000D03*
X82115000Y-150575000D03*
X83385000Y-150575000D03*
X84655000Y-150575000D03*
X84655000Y-145425000D03*
X83385000Y-145425000D03*
X82115000Y-145425000D03*
X80845000Y-145425000D03*
X80845000Y-139075000D03*
X82115000Y-139075000D03*
X83385000Y-139075000D03*
X84655000Y-139075000D03*
X84655000Y-134925000D03*
X83385000Y-134925000D03*
X82115000Y-134925000D03*
X80845000Y-134925000D03*
X80845000Y-128575000D03*
X82115000Y-128575000D03*
X83385000Y-128575000D03*
X84655000Y-128575000D03*
X99095000Y-120825000D03*
X100365000Y-120825000D03*
X101635000Y-120825000D03*
X102905000Y-120825000D03*
X102905000Y-127175000D03*
X101635000Y-127175000D03*
X100365000Y-127175000D03*
X99095000Y-127175000D03*
X99095000Y-130825000D03*
X100365000Y-130825000D03*
X101635000Y-130825000D03*
X102905000Y-130825000D03*
X102905000Y-137175000D03*
X101635000Y-137175000D03*
X100365000Y-137175000D03*
X99095000Y-137175000D03*
X99095000Y-150825000D03*
X100365000Y-150825000D03*
X101635000Y-150825000D03*
X102905000Y-150825000D03*
X102905000Y-157175000D03*
X101635000Y-157175000D03*
X100365000Y-157175000D03*
X99095000Y-157175000D03*
D30*
X68600000Y-37750000D03*
D31*
X68600000Y-44050000D03*
X70900000Y-44050000D03*
X66300000Y-44050000D03*
D32*
X132145700Y-129777500D03*
X132145700Y-130412500D03*
X132145700Y-131047500D03*
X132145700Y-131682500D03*
X132145700Y-132317500D03*
X132145700Y-132952500D03*
X132145700Y-133587500D03*
X132145700Y-134222500D03*
X137454300Y-134222500D03*
X137454300Y-133587500D03*
X137454300Y-132952500D03*
X137454300Y-132317500D03*
X137454300Y-131682500D03*
X137454300Y-131047500D03*
X137454300Y-130412500D03*
X137454300Y-129777500D03*
X132145700Y-119977500D03*
X132145700Y-120612500D03*
X132145700Y-121247500D03*
X132145700Y-121882500D03*
X132145700Y-122517500D03*
X132145700Y-123152500D03*
X132145700Y-123787500D03*
X132145700Y-124422500D03*
X137454300Y-124422500D03*
X137454300Y-123787500D03*
X137454300Y-123152500D03*
X137454300Y-122517500D03*
X137454300Y-121882500D03*
X137454300Y-121247500D03*
X137454300Y-120612500D03*
X137454300Y-119977500D03*
D22*
X63600000Y-95850000D03*
X63600000Y-93950000D03*
X61600000Y-94900000D03*
D33*
X74150000Y-116250000D03*
D34*
X67850000Y-116250000D03*
X67850000Y-118550000D03*
X67850000Y-113950000D03*
D35*
X55850000Y-85330000D03*
X48350000Y-85330000D03*
X48350000Y-65030000D03*
X48350000Y-59990000D03*
X55850000Y-59990000D03*
X55850000Y-65030000D03*
X55850000Y-70070000D03*
X48350000Y-70070000D03*
D36*
X44600000Y-35005000D03*
X44600000Y-46795000D03*
X44600000Y-38665000D03*
X44600000Y-43135000D03*
X55100000Y-35255000D03*
X55100000Y-47045000D03*
X55100000Y-38915000D03*
X55100000Y-43385000D03*
D23*
X53500000Y-93000000D03*
D24*
X53500000Y-95540000D03*
X53500000Y-98080000D03*
X53500000Y-100620000D03*
X53500000Y-103160000D03*
X53500000Y-105700000D03*
X53500000Y-108240000D03*
X53500000Y-110780000D03*
X53500000Y-113320000D03*
X53500000Y-115860000D03*
X53500000Y-118400000D03*
X53500000Y-120940000D03*
D37*
X48850000Y-46000000D03*
X48850000Y-43800000D03*
X51350000Y-46000000D03*
X51350000Y-43800000D03*
X31250000Y-41900000D03*
X33450000Y-41900000D03*
X37200000Y-92400000D03*
X35000000Y-92400000D03*
X37200000Y-100400000D03*
X35000000Y-100400000D03*
X37200000Y-96650000D03*
X35000000Y-96650000D03*
D38*
X82775000Y-118935000D03*
X84725000Y-118935000D03*
D39*
X85565000Y-121725000D03*
X85565000Y-119775000D03*
X81935000Y-119775000D03*
X81935000Y-121725000D03*
D38*
X82775000Y-122565000D03*
X84725000Y-122565000D03*
D39*
X81935000Y-120425000D03*
X81935000Y-121075000D03*
X85565000Y-120425000D03*
D38*
X83425000Y-118935000D03*
X84075000Y-118935000D03*
D39*
X85565000Y-121075000D03*
D38*
X83425000Y-122565000D03*
X84075000Y-122565000D03*
D40*
X83750000Y-120750000D03*
D41*
X86125000Y-114100000D03*
X84875000Y-114100000D03*
X83625000Y-114100000D03*
X82375000Y-114100000D03*
X82375000Y-111900000D03*
X86125000Y-111900000D03*
X83625000Y-111900000D03*
X84875000Y-111900000D03*
D42*
X42120000Y-27650000D03*
X46080000Y-27650000D03*
X52870000Y-27650000D03*
X56830000Y-27650000D03*
X100270000Y-28500000D03*
X104230000Y-28500000D03*
X120770000Y-28500000D03*
X124730000Y-28500000D03*
X110820000Y-28400000D03*
X114780000Y-28400000D03*
X33100000Y-38380000D03*
X33100000Y-34420000D03*
D43*
X45250000Y-131980000D03*
X45250000Y-134480000D03*
X45250000Y-136980000D03*
X45250000Y-129480000D03*
X36500000Y-131980000D03*
X36500000Y-134480000D03*
X36500000Y-136980000D03*
X36500000Y-129480000D03*
X54250000Y-145500000D03*
X56790000Y-145500000D03*
X51710000Y-145500000D03*
X45750000Y-145480000D03*
X48290000Y-145480000D03*
X43210000Y-145480000D03*
X37250000Y-145480000D03*
X39790000Y-145480000D03*
X34710000Y-145480000D03*
X54250000Y-157000000D03*
X56790000Y-157000000D03*
X51710000Y-157000000D03*
X45750000Y-156980000D03*
X48290000Y-156980000D03*
X43210000Y-156980000D03*
X37250000Y-156980000D03*
X39790000Y-156980000D03*
X34710000Y-156980000D03*
D44*
X74410000Y-148040000D03*
X68870000Y-148040000D03*
X74410000Y-145500000D03*
X68870000Y-145500000D03*
X74410000Y-142960000D03*
X68870000Y-142960000D03*
X74410000Y-140420000D03*
X68870000Y-140420000D03*
X74410000Y-137880000D03*
X68870000Y-137880000D03*
X74410000Y-135340000D03*
X68870000Y-135340000D03*
X74410000Y-132800000D03*
X68870000Y-132800000D03*
X74410000Y-130260000D03*
X68870000Y-130260000D03*
X74410000Y-127720000D03*
X68870000Y-127720000D03*
X74410000Y-125180000D03*
X68870000Y-125180000D03*
X117590000Y-148040000D03*
X112050000Y-148040000D03*
X117590000Y-145500000D03*
X112050000Y-145500000D03*
X117590000Y-142960000D03*
X112050000Y-142960000D03*
X117590000Y-140420000D03*
X112050000Y-140420000D03*
X117590000Y-137880000D03*
X112050000Y-137880000D03*
X117590000Y-135340000D03*
X112050000Y-135340000D03*
X117590000Y-132800000D03*
X112050000Y-132800000D03*
X117590000Y-130260000D03*
X112050000Y-130260000D03*
X117590000Y-127720000D03*
X112050000Y-127720000D03*
X117590000Y-125180000D03*
X112050000Y-125180000D03*
D45*
X44600000Y-53510000D03*
D46*
X45640000Y-49705000D03*
X43560000Y-49705000D03*
D45*
X55350000Y-53760000D03*
D46*
X56390000Y-49955000D03*
X54310000Y-49955000D03*
D47*
X66560000Y-151850000D03*
X66560000Y-51520000D03*
X119900000Y-51520000D03*
X119900000Y-151850000D03*
D48*
X33250000Y-163730000D03*
X33250000Y-27730000D03*
D49*
X138250000Y-32730000D03*
X202770000Y-56602000D03*
D48*
X202750000Y-163730000D03*
D49*
X202750000Y-152130000D03*
X187750000Y-152130000D03*
X142750000Y-152130000D03*
X202750000Y-102130000D03*
X142750000Y-102130000D03*
X187750000Y-102130000D03*
D43*
X53250000Y-134000000D03*
X55790000Y-134000000D03*
X50710000Y-134000000D03*
D50*
X62000000Y-138200000D03*
X62000000Y-144800000D03*
D23*
X124980000Y-145500000D03*
D24*
X124980000Y-142960000D03*
D51*
X101405000Y-76450000D03*
X100135000Y-76450000D03*
X98865000Y-76450000D03*
D52*
X97600000Y-76450000D03*
D51*
X97595000Y-65550000D03*
X98865000Y-65550000D03*
X100135000Y-65550000D03*
X101405000Y-65550000D03*
X80655000Y-76450000D03*
X79385000Y-76450000D03*
X78115000Y-76450000D03*
D52*
X76850000Y-76450000D03*
D51*
X76845000Y-65550000D03*
X78115000Y-65550000D03*
X79385000Y-65550000D03*
X80655000Y-65550000D03*
D12*
X145600000Y-23500000D03*
X146800000Y-23500000D03*
X148000000Y-23500000D03*
X144400000Y-23500000D03*
X207400000Y-81500000D03*
X207400000Y-80300000D03*
X207400000Y-79100000D03*
X207400000Y-82700000D03*
D53*
X62000000Y-30750000D03*
D54*
X77240000Y-30750000D03*
D53*
X62850000Y-74400000D03*
D54*
X62850000Y-59160000D03*
D22*
X60850000Y-88200000D03*
X60850000Y-90100000D03*
X62850000Y-89150000D03*
D37*
X31250000Y-46650000D03*
X33450000Y-46650000D03*
D42*
X33350000Y-54380000D03*
X33350000Y-50420000D03*
D26*
X66100000Y-85900000D03*
X67600000Y-85900000D03*
X35850000Y-46650000D03*
X37350000Y-46650000D03*
D22*
X62850000Y-85850000D03*
X62850000Y-83950000D03*
X60850000Y-84900000D03*
D35*
X41100000Y-85330000D03*
X33600000Y-85330000D03*
X33600000Y-65030000D03*
X33600000Y-59990000D03*
X41100000Y-59990000D03*
X41100000Y-65030000D03*
X41100000Y-70070000D03*
X33600000Y-70070000D03*
D55*
X89540000Y-46450000D03*
X87000000Y-46450000D03*
X84460000Y-46450000D03*
D53*
X69350000Y-78400000D03*
D54*
X69350000Y-63160000D03*
D55*
X112290000Y-46200000D03*
X109750000Y-46200000D03*
X107210000Y-46200000D03*
M02*
