M48
;DRILL file {KiCad 4.0.6} date 07/17/17 17:32:16
;FORMAT={-:-/ absolute / inch / decimal}
FMAT,2
INCH,TZ
T1C0.013
T2C0.031
T3C0.039
T4C0.051
T5C0.065
T6C0.070
T7C0.079
T8C0.094
T9C0.118
T10C0.138
%
G90
G05
M72
T1
X2.098Y-4.8882
X2.3031Y-4.3898
X2.3327Y-4.2217
X2.3327Y-4.2913
X2.3524Y-5.0295
X2.372Y-3.8681
X2.3917Y-3.937
X2.5039Y-3.6378
X2.5394Y-4.9213
X2.5433Y-3.3031
X2.5492Y-4.4882
X2.6378Y-4.0748
X2.7165Y-6.2795
X2.7514Y-6.2795
X2.7854Y-4.5177
X2.7863Y-6.2795
X2.815Y-4.2421
X2.8248Y-6.2795
X2.8642Y-6.2795
X2.9058Y-6.2796
X2.9528Y-6.2795
X3.0118Y-4.6752
X3.0125Y-3.0347
X3.0315Y-4.7638
X3.1102Y-5.1083
X3.1791Y-5.1476
X3.2283Y-4.8228
X3.248Y-5.4134
X3.248Y-5.9941
X3.2579Y-4.8819
X3.2677Y-5.7965
X3.2776Y-3.1201
X3.2776Y-6.2402
X3.2972Y-5.6693
X3.3268Y-5.
X3.3366Y-5.3937
X3.376Y-5.748
X3.4154Y-4.5472
X3.5433Y-5.4724
X3.5433Y-5.9638
X3.7008Y-6.1909
X3.7303Y-5.7579
X3.7992Y-2.9921
X3.7992Y-4.9705
X3.7992Y-5.1181
X3.8091Y-5.3445
X3.8091Y-5.7382
X3.8189Y-6.1319
X3.8287Y-5.9466
X3.8976Y-5.4921
X3.9764Y-5.0787
X3.9862Y-4.6063
X3.9862Y-5.7283
X3.9961Y-5.4528
X4.0059Y-6.25
X4.0453Y-5.6299
X4.065Y-3.1201
X4.0839Y-5.6857
X4.0846Y-6.3091
X4.1732Y-4.6161
X4.2224Y-6.25
X4.3701Y-6.25
X4.498Y-6.25
X4.5571Y-6.3287
X4.6654Y-6.2598
X4.8819Y-5.2126
X4.9633Y-5.1732
X4.9921Y-5.126
X5.0184Y-5.2441
X5.0472Y-4.811
X5.0945Y-4.7638
X5.0994Y-4.8364
X5.128Y-4.6555
X5.1339Y-5.2835
X5.2026Y-4.937
X5.2598Y-5.0394
X5.3307Y-4.9843
X5.4252Y-4.9449
X5.4803Y-5.0709
X5.6378Y-5.2362
X5.6929Y-5.252
X5.7008Y-5.1811
X5.865Y-4.8051
X5.9291Y-4.9685
T2
X1.126Y-4.
X1.126Y-4.0472
X1.126Y-4.0945
X1.126Y-4.1417
X2.9685Y-0.9252
X3.0157Y-0.9252
X3.063Y-0.9252
X3.0945Y-6.6299
X3.1102Y-0.9252
X3.1417Y-6.6299
X3.189Y-6.6299
X3.2362Y-6.6299
X5.685Y-0.9252
X5.7323Y-0.9252
X5.7795Y-0.9252
X5.8268Y-0.9252
X6.3386Y-6.626
X6.3858Y-6.626
X6.4331Y-6.626
X6.4803Y-6.626
X8.1654Y-3.1142
X8.1654Y-3.1614
X8.1654Y-3.2087
X8.1654Y-3.2559
T3
X1.3665Y-5.7276
X1.3665Y-6.1803
X1.437Y-5.0976
X1.437Y-5.1961
X1.437Y-5.2945
X1.437Y-5.3929
X1.4665Y-5.7276
X1.4665Y-6.1803
X1.5665Y-5.7276
X1.5665Y-6.1803
X1.7012Y-5.7276
X1.7012Y-6.1803
X1.7815Y-5.0976
X1.7815Y-5.1961
X1.7815Y-5.2945
X1.7815Y-5.3929
X1.8012Y-5.7276
X1.8012Y-6.1803
X1.9012Y-5.7276
X1.9012Y-6.1803
X1.9965Y-5.2756
X2.0358Y-5.7283
X2.0358Y-6.1811
X2.0965Y-5.2756
X2.1063Y-3.6614
X2.1063Y-3.7614
X2.1063Y-3.8614
X2.1063Y-3.9614
X2.1063Y-4.0614
X2.1063Y-4.1614
X2.1063Y-4.2614
X2.1063Y-4.3614
X2.1063Y-4.4614
X2.1063Y-4.5614
X2.1063Y-4.6614
X2.1063Y-4.7614
X2.1358Y-5.7283
X2.1358Y-6.1811
X2.1965Y-5.2756
X2.2358Y-5.7283
X2.2358Y-6.1811
X4.9205Y-5.6283
X4.9205Y-5.7283
X5.765Y-4.7051
X5.765Y-4.8051
X5.765Y-4.9051
X5.765Y-5.0051
X5.765Y-5.1051
X5.765Y-5.2051
X5.765Y-5.3051
X5.865Y-4.7051
X5.865Y-4.8051
X5.865Y-4.9051
X5.865Y-5.0051
X5.865Y-5.1051
X5.865Y-5.2051
X5.865Y-5.3051
T4
X1.3228Y-2.3618
X1.3228Y-2.5602
X1.3228Y-2.7587
X1.3228Y-3.3594
X1.6181Y-2.3618
X1.6181Y-2.5602
X1.6181Y-2.7587
X1.6181Y-3.3594
X1.9035Y-2.3618
X1.9035Y-2.5602
X1.9035Y-2.7587
X1.9035Y-3.3594
X2.1988Y-2.3618
X2.1988Y-2.5602
X2.1988Y-2.7587
X2.1988Y-3.3594
X2.4409Y-1.2106
X2.4744Y-2.3291
X2.4744Y-2.9291
X2.7303Y-2.4866
X2.7303Y-3.0866
X3.0409Y-1.2106
T5
X1.7559Y-1.3781
X1.7559Y-1.5222
X1.7559Y-1.6982
X1.7559Y-1.8423
X2.1693Y-1.388
X2.1693Y-1.5321
X2.1693Y-1.7081
X2.1693Y-1.8522
T6
X1.3031Y-1.3551
X1.3031Y-1.511
X1.313Y-1.985
X1.313Y-2.1409
X1.6583Y-1.0886
X1.8142Y-1.0886
X2.0815Y-1.0886
X2.2374Y-1.0886
X3.9476Y-1.122
X4.1035Y-1.122
X4.363Y-1.1181
X4.5189Y-1.1181
X4.7547Y-1.122
X4.9106Y-1.122
T7
X2.0709Y-3.2835
X2.5728Y-3.5098
X2.6378Y-6.1417
X2.7894Y-1.6201
X2.9193Y-4.7776
X4.2618Y-5.748
X4.2717Y-5.8858
T8
X2.6205Y-2.0283
X2.6205Y-5.9783
X4.7205Y-2.0283
X4.7205Y-5.9783
T9
X0.8898Y-0.6929
X0.8898Y-6.8661
X8.4016Y-0.6929
X8.4016Y-6.8661
T10
X1.3091Y-1.0917
X1.3091Y-6.4461
X5.4429Y-1.2886
X5.6201Y-4.0209
X5.6201Y-5.9894
X7.3917Y-4.0209
X7.3917Y-5.9894
X7.9823Y-4.0209
X7.9823Y-5.9894
X7.9823Y-6.4461
X7.9831Y-2.2284
T0
M30
