M48
;DRILL file {KiCad 4.0.6} date 07/17/17 17:27:58
;FORMAT={-:-/ absolute / inch / decimal}
FMAT,2
INCH,TZ
T1C0.008
T2C0.013
T3C0.031
T4C0.039
T5C0.043
T6C0.070
T7C0.083
T8C0.118
T9C0.138
%
G90
G05
M72
T1
X2.1457Y-5.7776
X2.1457Y-5.8287
X2.1457Y-5.8799
X2.1457Y-5.9311
X2.1457Y-5.9823
X2.1457Y-6.0335
X2.1969Y-5.7776
X2.1969Y-5.8287
X2.1969Y-5.8799
X2.1969Y-5.9311
X2.1969Y-5.9823
X2.1969Y-6.0335
X2.248Y-5.7776
X2.248Y-5.8287
X2.248Y-5.8799
X2.248Y-5.9311
X2.248Y-5.9823
X2.248Y-6.0335
X2.2835Y-2.3327
X2.2835Y-2.3839
X2.2835Y-2.435
X2.2835Y-2.4862
X2.2835Y-2.5374
X2.2835Y-2.5886
X2.2835Y-4.0354
X2.2835Y-4.0866
X2.2835Y-4.1378
X2.2835Y-4.189
X2.2835Y-4.2402
X2.2835Y-4.2913
X2.2992Y-5.7776
X2.2992Y-5.8287
X2.2992Y-5.8799
X2.2992Y-5.9311
X2.2992Y-5.9823
X2.2992Y-6.0335
X2.3346Y-2.3327
X2.3346Y-2.3839
X2.3346Y-2.435
X2.3346Y-2.4862
X2.3346Y-2.5374
X2.3346Y-2.5886
X2.3346Y-4.0354
X2.3346Y-4.0866
X2.3346Y-4.1378
X2.3346Y-4.189
X2.3346Y-4.2402
X2.3346Y-4.2913
X2.3504Y-5.7776
X2.3504Y-5.8287
X2.3504Y-5.8799
X2.3504Y-5.9311
X2.3504Y-5.9823
X2.3504Y-6.0335
X2.3858Y-2.3327
X2.3858Y-2.3839
X2.3858Y-2.435
X2.3858Y-2.4862
X2.3858Y-2.5374
X2.3858Y-2.5886
X2.3858Y-4.0354
X2.3858Y-4.0866
X2.3858Y-4.1378
X2.3858Y-4.189
X2.3858Y-4.2402
X2.3858Y-4.2913
X2.4016Y-5.7776
X2.4016Y-5.8287
X2.4016Y-5.8799
X2.4016Y-5.9311
X2.4016Y-5.9823
X2.4016Y-6.0335
X2.437Y-2.3327
X2.437Y-2.3839
X2.437Y-2.435
X2.437Y-2.4862
X2.437Y-2.5374
X2.437Y-2.5886
X2.437Y-4.0354
X2.437Y-4.0866
X2.437Y-4.1378
X2.437Y-4.189
X2.437Y-4.2402
X2.437Y-4.2913
X2.4882Y-2.3327
X2.4882Y-2.3839
X2.4882Y-2.435
X2.4882Y-2.4862
X2.4882Y-2.5374
X2.4882Y-2.5886
X2.4882Y-4.0354
X2.4882Y-4.0866
X2.4882Y-4.1378
X2.4882Y-4.189
X2.4882Y-4.2402
X2.4882Y-4.2913
X2.5394Y-2.3327
X2.5394Y-2.3839
X2.5394Y-2.435
X2.5394Y-2.4862
X2.5394Y-2.5374
X2.5394Y-2.5886
X2.5394Y-4.0354
X2.5394Y-4.0866
X2.5394Y-4.1378
X2.5394Y-4.189
X2.5394Y-4.2402
X2.5394Y-4.2913
T2
X2.0503Y-2.5295
X2.0551Y-2.3661
X2.0803Y-2.4816
X2.0827Y-2.6909
X2.0845Y-2.5923
X2.0867Y-2.6252
X2.0869Y-2.6582
X2.0914Y-5.2579
X2.0914Y-5.6693
X2.0914Y-5.7283
X2.0914Y-6.1809
X2.0991Y-2.5092
X2.1055Y-5.228
X2.1063Y-2.2047
X2.1063Y-3.9173
X2.112Y-2.4718
X2.124Y-4.1417
X2.126Y-2.3327
X2.126Y-4.0354
X2.126Y-4.3012
X2.126Y-5.4823
X2.126Y-6.1909
X2.1299Y-3.7559
X2.1358Y-5.5709
X2.1407Y-2.6198
X2.1496Y-3.7283
X2.1594Y-4.5276
X2.1662Y-5.6111
X2.1752Y-5.2874
X2.1811Y-2.6476
X2.185Y-3.9764
X2.191Y-3.8424
X2.2146Y-3.8681
X2.2165Y-4.4114
X2.2175Y-3.6526
X2.2209Y-4.7288
X2.2244Y-2.6961
X2.2301Y-5.424
X2.2402Y-4.811
X2.2441Y-2.7461
X2.2441Y-6.1909
X2.2657Y-4.7579
X2.2795Y-3.7657
X2.3155Y-2.8568
X2.3839Y-2.1181
X2.3976Y-5.3642
X2.409Y-4.5291
X2.4114Y-6.1909
X2.4213Y-5.4528
X2.435Y-2.8504
X2.439Y-6.2303
X2.4508Y-5.6004
X2.4587Y-6.4311
X2.4705Y-3.002
X2.4803Y-3.3839
X2.5197Y-2.1654
X2.5197Y-3.7795
X2.5336Y-6.2115
X2.5413Y-6.1181
X2.558Y-6.2824
X2.5787Y-2.8642
X2.5886Y-5.8051
X2.5945Y-5.378
X2.5984Y-3.9272
X2.6201Y-4.4094
X2.6201Y-6.4193
X2.6299Y-5.561
X2.6476Y-1.9488
X2.6476Y-2.0079
X2.6476Y-3.7303
X2.6543Y-5.502
X2.6772Y-3.7894
X2.687Y-2.0669
X2.687Y-2.126
X2.6969Y-4.0256
X2.7067Y-3.8583
X2.7165Y-2.3524
X2.7854Y-3.3957
X2.8248Y-2.3819
X2.8248Y-4.8524
X2.8642Y-4.2913
X2.874Y-2.9232
X2.874Y-3.9961
X2.874Y-4.5669
X2.874Y-5.137
X2.874Y-6.4961
X2.874Y-6.7717
X2.8839Y-2.628
X2.8937Y-3.2087
X2.9134Y-6.2106
X2.924Y-5.939
X2.9272Y-5.6693
X2.9331Y-6.7815
X2.9724Y-5.1339
X3.0059Y-3.4488
T3
X1.8799Y-3.0748
X1.8799Y-3.122
X1.8799Y-3.1693
X1.8799Y-3.2165
X1.8799Y-5.4232
X1.8799Y-5.4705
X1.8799Y-5.5177
X1.8799Y-5.565
X3.4724Y-6.9587
X3.5197Y-6.9587
X3.5669Y-6.9587
X3.5689Y-1.6634
X3.6142Y-6.9587
X3.6161Y-1.6634
X3.6634Y-1.6634
X3.7106Y-1.6634
X5.0492Y-3.0197
X5.0492Y-3.0669
X5.0492Y-3.1142
X5.0492Y-3.1614
X5.0492Y-5.3524
X5.0492Y-5.3996
X5.0492Y-5.4469
X5.0492Y-5.4941
T4
X2.3902Y-5.
X2.4902Y-5.
X2.5902Y-5.
T5
X3.522Y-4.5925
X3.5496Y-6.5177
X3.5614Y-1.8169
X3.5614Y-2.3681
X3.5614Y-2.6437
X3.5614Y-2.9193
X3.5614Y-3.1949
X3.5614Y-3.4705
X3.5614Y-3.7461
X3.5614Y-4.0217
X3.5614Y-4.2972
X3.5614Y-4.8681
X3.5614Y-5.1437
X3.5614Y-5.4193
X3.5614Y-5.6949
X3.5614Y-5.9705
X3.5614Y-6.2461
X3.5634Y-2.0925
X3.722Y-4.5925
X3.7496Y-6.5177
X3.7614Y-1.8169
X3.7614Y-2.3681
X3.7614Y-2.6437
X3.7614Y-2.9193
X3.7614Y-3.1949
X3.7614Y-3.4705
X3.7614Y-3.7461
X3.7614Y-4.0217
X3.7614Y-4.2972
X3.7614Y-4.8681
X3.7614Y-5.1437
X3.7614Y-5.4193
X3.7614Y-5.6949
X3.7614Y-5.9705
X3.7614Y-6.2461
X3.7634Y-2.0925
T6
X4.5177Y-3.4618
X4.5177Y-3.6177
X4.5177Y-3.7736
X4.5177Y-3.9295
X4.5177Y-4.0854
X4.5177Y-4.2413
X4.5177Y-4.3972
X4.5177Y-4.5531
X4.5177Y-4.7091
X4.5177Y-4.865
X4.5177Y-5.0563
X4.5177Y-5.2122
X4.5177Y-5.3681
X4.5177Y-5.524
X4.5177Y-5.6799
X4.5177Y-5.8358
X4.5177Y-5.9917
X4.5177Y-6.1476
X4.5177Y-6.3035
X4.5177Y-6.4594
T7
X3.272Y-4.7205
X3.2957Y-6.6457
X3.3114Y-1.9449
X3.3114Y-2.2205
X3.3114Y-2.4961
X3.3114Y-2.7717
X3.3114Y-3.0472
X3.3114Y-3.3228
X3.3114Y-3.5984
X3.3114Y-3.874
X3.3114Y-4.1496
X3.3114Y-4.4252
X3.3114Y-4.9961
X3.3114Y-5.2717
X3.3114Y-5.5472
X3.3114Y-5.8228
X3.3114Y-6.0984
X3.3114Y-6.374
X3.972Y-4.7205
X3.9957Y-6.6457
X4.0114Y-1.9449
X4.0114Y-2.2205
X4.0114Y-2.4961
X4.0114Y-2.7717
X4.0114Y-3.0472
X4.0114Y-3.3228
X4.0114Y-3.5984
X4.0114Y-3.874
X4.0114Y-4.1496
X4.0114Y-4.4252
X4.0114Y-4.9961
X4.0114Y-5.2717
X4.0114Y-5.5472
X4.0114Y-5.8228
X4.0114Y-6.0984
X4.0114Y-6.374
T8
X1.6732Y-1.4567
X1.6732Y-7.1654
X5.2559Y-1.4567
X5.2559Y-7.1654
T9
X2.2539Y-2.0315
X2.4311Y-4.7638
X2.4311Y-6.7323
X4.2028Y-4.7638
X4.2028Y-6.7323
X4.7933Y-4.7638
X4.7933Y-6.7323
X4.7941Y-2.9713
T0
M30
