G04 #@! TF.FileFunction,Paste,Top*
%FSLAX46Y46*%
G04 Gerber Fmt 4.6, Leading zero omitted, Abs format (unit mm)*
G04 Created by KiCad (PCBNEW 4.0.6) date 07/19/17 23:08:42*
%MOMM*%
%LPD*%
G01*
G04 APERTURE LIST*
%ADD10C,0.100000*%
%ADD11C,7.000000*%
%ADD12O,1.500000X0.300000*%
%ADD13O,0.300000X1.500000*%
%ADD14O,0.400000X1.260000*%
%ADD15R,0.900000X0.500000*%
%ADD16R,0.500000X0.900000*%
%ADD17R,0.600000X0.700000*%
%ADD18R,0.800000X0.750000*%
%ADD19R,0.750000X0.800000*%
%ADD20O,0.900000X1.250000*%
%ADD21R,1.200000X1.200000*%
%ADD22R,1.200000X0.900000*%
%ADD23R,1.000000X1.400000*%
%ADD24C,0.254000*%
G04 APERTURE END LIST*
D10*
D11*
X121500000Y-37000000D03*
X54500000Y-37000000D03*
X54500000Y-182000000D03*
D12*
X63450000Y-153750000D03*
X63450000Y-153250000D03*
X63450000Y-152750000D03*
X63450000Y-152250000D03*
X63450000Y-151750000D03*
X63450000Y-151250000D03*
X63450000Y-150750000D03*
X63450000Y-150250000D03*
X63450000Y-149750000D03*
X63450000Y-149250000D03*
X63450000Y-148750000D03*
X63450000Y-148250000D03*
X63450000Y-147750000D03*
X63450000Y-147250000D03*
X63450000Y-146750000D03*
X63450000Y-146250000D03*
D13*
X61500000Y-144300000D03*
X61000000Y-144300000D03*
X60500000Y-144300000D03*
X60000000Y-144300000D03*
X59500000Y-144300000D03*
X59000000Y-144300000D03*
X58500000Y-144300000D03*
X58000000Y-144300000D03*
X57500000Y-144300000D03*
X57000000Y-144300000D03*
X56500000Y-144300000D03*
X56000000Y-144300000D03*
X55500000Y-144300000D03*
X55000000Y-144300000D03*
X54500000Y-144300000D03*
X54000000Y-144300000D03*
D12*
X52050000Y-146250000D03*
X52050000Y-146750000D03*
X52050000Y-147250000D03*
X52050000Y-147750000D03*
X52050000Y-148250000D03*
X52050000Y-148750000D03*
X52050000Y-149250000D03*
X52050000Y-149750000D03*
X52050000Y-150250000D03*
X52050000Y-150750000D03*
X52050000Y-151250000D03*
X52050000Y-151750000D03*
X52050000Y-152250000D03*
X52050000Y-152750000D03*
X52050000Y-153250000D03*
X52050000Y-153750000D03*
D13*
X54000000Y-155700000D03*
X54500000Y-155700000D03*
X55000000Y-155700000D03*
X55500000Y-155700000D03*
X56000000Y-155700000D03*
X56500000Y-155700000D03*
X57000000Y-155700000D03*
X57500000Y-155700000D03*
X58000000Y-155700000D03*
X58500000Y-155700000D03*
X59000000Y-155700000D03*
X59500000Y-155700000D03*
X60000000Y-155700000D03*
X60500000Y-155700000D03*
X61000000Y-155700000D03*
X61500000Y-155700000D03*
D14*
X113025000Y-173960000D03*
X113675000Y-173960000D03*
X114325000Y-173960000D03*
X114975000Y-173960000D03*
X114975000Y-171040000D03*
X114325000Y-171040000D03*
X113675000Y-171040000D03*
X113025000Y-171040000D03*
D15*
X62950000Y-49550000D03*
X62950000Y-48050000D03*
D16*
X64500000Y-91500000D03*
X63000000Y-91500000D03*
D15*
X72000000Y-69450000D03*
X72000000Y-70950000D03*
X72000000Y-146250000D03*
X72000000Y-147750000D03*
D17*
X79150000Y-140200000D03*
X77250000Y-140200000D03*
X78200000Y-141900000D03*
X79350000Y-69700000D03*
X77450000Y-69700000D03*
X78400000Y-71400000D03*
X79150000Y-48300000D03*
X77250000Y-48300000D03*
X78200000Y-50000000D03*
X79250000Y-55400000D03*
X77350000Y-55400000D03*
X78300000Y-57100000D03*
D15*
X71800000Y-54850000D03*
X71800000Y-56350000D03*
D18*
X64750000Y-136750000D03*
X63250000Y-136750000D03*
X63250000Y-139500000D03*
X64750000Y-139500000D03*
D19*
X67750000Y-55750000D03*
X67750000Y-57250000D03*
D18*
X70200000Y-132650000D03*
X71700000Y-132650000D03*
D19*
X71800000Y-128650000D03*
X71800000Y-130150000D03*
X70400000Y-121450000D03*
X70400000Y-122950000D03*
X71800000Y-113850000D03*
X71800000Y-115350000D03*
X71600000Y-106850000D03*
X71600000Y-108350000D03*
X71800000Y-99650000D03*
X71800000Y-101150000D03*
D18*
X70250000Y-89000000D03*
X71750000Y-89000000D03*
D19*
X71800000Y-85850000D03*
X71800000Y-87350000D03*
X72200000Y-79450000D03*
X72200000Y-80950000D03*
X72000000Y-72250000D03*
X72000000Y-73750000D03*
X72000000Y-65250000D03*
X72000000Y-66750000D03*
X71750000Y-57500000D03*
X71750000Y-59000000D03*
D18*
X64000000Y-156500000D03*
X62500000Y-156500000D03*
X77000000Y-172000000D03*
X75500000Y-172000000D03*
D19*
X71800000Y-170050000D03*
X71800000Y-171550000D03*
X71800000Y-163050000D03*
X71800000Y-164550000D03*
X72000000Y-156050000D03*
X72000000Y-157550000D03*
X72000000Y-149050000D03*
X72000000Y-150550000D03*
X72000000Y-142050000D03*
X72000000Y-143550000D03*
D15*
X54000000Y-136750000D03*
X54000000Y-135250000D03*
X56250000Y-135250000D03*
X56250000Y-136750000D03*
X57750000Y-136750000D03*
X57750000Y-135250000D03*
X59250000Y-136750000D03*
X59250000Y-135250000D03*
X55250000Y-92000000D03*
X55250000Y-93500000D03*
X57500000Y-92000000D03*
X57500000Y-93500000D03*
X59000000Y-92000000D03*
X59000000Y-93500000D03*
X60500000Y-92000000D03*
X60500000Y-93500000D03*
X51750000Y-118250000D03*
X51750000Y-116750000D03*
X53250000Y-118250000D03*
X53250000Y-116750000D03*
X55250000Y-118250000D03*
X55250000Y-116750000D03*
D16*
X58000000Y-117000000D03*
X59500000Y-117000000D03*
D15*
X56000000Y-75000000D03*
X56000000Y-73500000D03*
X57500000Y-75000000D03*
X57500000Y-73500000D03*
X59750000Y-75000000D03*
X59750000Y-73500000D03*
X62500000Y-75000000D03*
X62500000Y-73500000D03*
X75800000Y-127550000D03*
X75800000Y-126050000D03*
X74400000Y-120350000D03*
X74400000Y-118850000D03*
X75800000Y-112550000D03*
X75800000Y-111050000D03*
D16*
X76950000Y-170400000D03*
X75450000Y-170400000D03*
X76950000Y-163600000D03*
X75450000Y-163600000D03*
X77150000Y-156600000D03*
X75650000Y-156600000D03*
X76950000Y-149600000D03*
X75450000Y-149600000D03*
X76950000Y-142800000D03*
X75450000Y-142800000D03*
X76950000Y-135800000D03*
X75450000Y-135800000D03*
X94750000Y-171500000D03*
X93250000Y-171500000D03*
D15*
X72000000Y-167250000D03*
X72000000Y-168750000D03*
X71800000Y-160250000D03*
X71800000Y-161750000D03*
X72000000Y-153250000D03*
X72000000Y-154750000D03*
X72000000Y-139250000D03*
X72000000Y-140750000D03*
X75600000Y-105900000D03*
X75600000Y-104400000D03*
D16*
X95250000Y-163750000D03*
X93750000Y-163750000D03*
X95250000Y-156750000D03*
X93750000Y-156750000D03*
X95750000Y-149750000D03*
X94250000Y-149750000D03*
X95250000Y-142750000D03*
X93750000Y-142750000D03*
X95250000Y-135750000D03*
X93750000Y-135750000D03*
X95250000Y-128750000D03*
X93750000Y-128750000D03*
X77050000Y-129200000D03*
X75550000Y-129200000D03*
X75750000Y-121800000D03*
X74250000Y-121800000D03*
X76950000Y-114000000D03*
X75450000Y-114000000D03*
X76750000Y-107400000D03*
X75250000Y-107400000D03*
X76900000Y-100200000D03*
X75400000Y-100200000D03*
X77150000Y-93200000D03*
X75650000Y-93200000D03*
X71650000Y-134250000D03*
X70150000Y-134250000D03*
D15*
X71800000Y-125850000D03*
X71800000Y-127350000D03*
X70400000Y-118650000D03*
X70400000Y-120150000D03*
X71800000Y-111200000D03*
X71800000Y-112700000D03*
X71600000Y-104100000D03*
X71600000Y-105600000D03*
X71800000Y-96900000D03*
X71800000Y-98400000D03*
X75800000Y-98700000D03*
X75800000Y-97200000D03*
D16*
X95250000Y-121750000D03*
X93750000Y-121750000D03*
X95750000Y-114250000D03*
X94250000Y-114250000D03*
X95750000Y-107250000D03*
X94250000Y-107250000D03*
X95500000Y-100250000D03*
X94000000Y-100250000D03*
X95500000Y-93250000D03*
X94000000Y-93250000D03*
X95500000Y-86250000D03*
X94000000Y-86250000D03*
X76950000Y-86400000D03*
X75450000Y-86400000D03*
X77150000Y-79600000D03*
X75650000Y-79600000D03*
X77150000Y-72600000D03*
X75650000Y-72600000D03*
X77150000Y-65400000D03*
X75650000Y-65400000D03*
X77000000Y-58200000D03*
X75500000Y-58200000D03*
X76950000Y-51000000D03*
X75450000Y-51000000D03*
X71500000Y-90500000D03*
X70000000Y-90500000D03*
D15*
X71800000Y-83200000D03*
X71800000Y-84700000D03*
X72200000Y-76650000D03*
X72200000Y-78150000D03*
X72000000Y-62450000D03*
X72000000Y-63950000D03*
X75800000Y-91950000D03*
X75800000Y-90450000D03*
D16*
X95500000Y-79250000D03*
X94000000Y-79250000D03*
X95500000Y-72250000D03*
X94000000Y-72250000D03*
X95500000Y-65250000D03*
X94000000Y-65250000D03*
X95750000Y-58250000D03*
X94250000Y-58250000D03*
X96000000Y-51000000D03*
X94500000Y-51000000D03*
X86650000Y-46200000D03*
X85150000Y-46200000D03*
D15*
X75600000Y-168950000D03*
X75600000Y-167450000D03*
D17*
X79350000Y-76900000D03*
X77450000Y-76900000D03*
X78400000Y-78600000D03*
X79150000Y-83800000D03*
X77250000Y-83800000D03*
X78200000Y-85500000D03*
X79250000Y-90600000D03*
X77350000Y-90600000D03*
X78300000Y-92300000D03*
X79150000Y-97700000D03*
X77250000Y-97700000D03*
X78200000Y-99400000D03*
X79050000Y-104700000D03*
X77150000Y-104700000D03*
X78100000Y-106400000D03*
X79150000Y-111400000D03*
X77250000Y-111400000D03*
X78200000Y-113100000D03*
X77950000Y-119150000D03*
X76050000Y-119150000D03*
X77000000Y-120850000D03*
X79150000Y-126200000D03*
X77250000Y-126200000D03*
X78200000Y-127900000D03*
X79150000Y-133100000D03*
X77250000Y-133100000D03*
X78200000Y-134800000D03*
X79250000Y-147000000D03*
X77350000Y-147000000D03*
X78300000Y-148700000D03*
X79150000Y-154100000D03*
X77250000Y-154100000D03*
X78200000Y-155800000D03*
X79150000Y-161000000D03*
X77250000Y-161000000D03*
X78200000Y-162700000D03*
X78950000Y-167950000D03*
X77050000Y-167950000D03*
X78000000Y-169650000D03*
X79250000Y-62600000D03*
X77350000Y-62600000D03*
X78300000Y-64300000D03*
D18*
X66000000Y-94750000D03*
X64500000Y-94750000D03*
X66000000Y-93500000D03*
X64500000Y-93500000D03*
D15*
X75800000Y-162150000D03*
X75800000Y-160650000D03*
X75800000Y-154950000D03*
X75800000Y-153450000D03*
X75800000Y-147950000D03*
X75800000Y-146450000D03*
X75800000Y-141350000D03*
X75800000Y-139850000D03*
X75600000Y-134350000D03*
X75600000Y-132850000D03*
X75800000Y-84950000D03*
X75800000Y-83450000D03*
X76000000Y-78100000D03*
X76000000Y-76600000D03*
X76000000Y-70950000D03*
X76000000Y-69450000D03*
X75800000Y-64150000D03*
X75800000Y-62650000D03*
X75800000Y-56950000D03*
X75800000Y-55450000D03*
X75800000Y-49550000D03*
X75800000Y-48050000D03*
D18*
X63250000Y-141000000D03*
X64750000Y-141000000D03*
X64750000Y-138000000D03*
X63250000Y-138000000D03*
X65500000Y-97750000D03*
X67000000Y-97750000D03*
X65500000Y-96250000D03*
X67000000Y-96250000D03*
X66750000Y-54000000D03*
X65250000Y-54000000D03*
X64500000Y-51000000D03*
X66000000Y-51000000D03*
X66750000Y-52500000D03*
X65250000Y-52500000D03*
X64500000Y-49500000D03*
X66000000Y-49500000D03*
X54500000Y-56000000D03*
X56000000Y-56000000D03*
D19*
X65500000Y-70000000D03*
X65500000Y-71500000D03*
D16*
X51000000Y-141500000D03*
X52500000Y-141500000D03*
D15*
X53250000Y-108000000D03*
X53250000Y-106500000D03*
D16*
X53900000Y-68600000D03*
X55400000Y-68600000D03*
D19*
X64450000Y-145150000D03*
X64450000Y-143650000D03*
X68000000Y-100750000D03*
X68000000Y-99250000D03*
D18*
X66500000Y-113400000D03*
X65000000Y-113400000D03*
X54000000Y-142750000D03*
X52500000Y-142750000D03*
X56000000Y-99500000D03*
X54500000Y-99500000D03*
D16*
X51750000Y-139250000D03*
X53250000Y-139250000D03*
D15*
X51750000Y-107250000D03*
X51750000Y-105750000D03*
D19*
X61950000Y-132250000D03*
X61950000Y-130750000D03*
X59000000Y-163000000D03*
X59000000Y-161500000D03*
X63150000Y-88550000D03*
X63150000Y-87050000D03*
X66350000Y-117750000D03*
X66350000Y-116250000D03*
X61350000Y-48050000D03*
X61350000Y-49550000D03*
X65500000Y-76950000D03*
X65500000Y-78450000D03*
D16*
X62000000Y-133700000D03*
X63500000Y-133700000D03*
X63500000Y-135250000D03*
X62000000Y-135250000D03*
X59000000Y-160000000D03*
X57500000Y-160000000D03*
X57500000Y-158500000D03*
X59000000Y-158500000D03*
X63000000Y-90000000D03*
X64500000Y-90000000D03*
D15*
X64950000Y-116250000D03*
X64950000Y-117750000D03*
X63350000Y-115750000D03*
X63350000Y-114250000D03*
D16*
X61400000Y-51000000D03*
X62900000Y-51000000D03*
X62900000Y-52600000D03*
X61400000Y-52600000D03*
X65500000Y-75550000D03*
X64000000Y-75550000D03*
X64000000Y-74000000D03*
X65500000Y-74000000D03*
D15*
X63500000Y-132500000D03*
X63500000Y-131000000D03*
X57500000Y-163000000D03*
X57500000Y-161500000D03*
X64550000Y-88550000D03*
X64550000Y-87050000D03*
X66350000Y-119050000D03*
X66350000Y-120550000D03*
X64000000Y-78350000D03*
X64000000Y-76850000D03*
D19*
X111650000Y-172550000D03*
X111650000Y-171050000D03*
X116500000Y-173150000D03*
X116500000Y-171650000D03*
D16*
X66750000Y-164600000D03*
X68250000Y-164600000D03*
D20*
X67015000Y-173225000D03*
X68285000Y-173225000D03*
X67015000Y-166975000D03*
X68285000Y-166975000D03*
D19*
X58300000Y-123450000D03*
X58300000Y-124950000D03*
X56900000Y-123450000D03*
X56900000Y-124950000D03*
D12*
X66950000Y-66250000D03*
X66950000Y-65750000D03*
X66950000Y-65250000D03*
X66950000Y-64750000D03*
X66950000Y-64250000D03*
X66950000Y-63750000D03*
X66950000Y-63250000D03*
X66950000Y-62750000D03*
X66950000Y-62250000D03*
X66950000Y-61750000D03*
X66950000Y-61250000D03*
X66950000Y-60750000D03*
X66950000Y-60250000D03*
X66950000Y-59750000D03*
X66950000Y-59250000D03*
X66950000Y-58750000D03*
D13*
X65000000Y-56800000D03*
X64500000Y-56800000D03*
X64000000Y-56800000D03*
X63500000Y-56800000D03*
X63000000Y-56800000D03*
X62500000Y-56800000D03*
X62000000Y-56800000D03*
X61500000Y-56800000D03*
X61000000Y-56800000D03*
X60500000Y-56800000D03*
X60000000Y-56800000D03*
X59500000Y-56800000D03*
X59000000Y-56800000D03*
X58500000Y-56800000D03*
X58000000Y-56800000D03*
X57500000Y-56800000D03*
D12*
X55550000Y-58750000D03*
X55550000Y-59250000D03*
X55550000Y-59750000D03*
X55550000Y-60250000D03*
X55550000Y-60750000D03*
X55550000Y-61250000D03*
X55550000Y-61750000D03*
X55550000Y-62250000D03*
X55550000Y-62750000D03*
X55550000Y-63250000D03*
X55550000Y-63750000D03*
X55550000Y-64250000D03*
X55550000Y-64750000D03*
X55550000Y-65250000D03*
X55550000Y-65750000D03*
X55550000Y-66250000D03*
D13*
X57500000Y-68200000D03*
X58000000Y-68200000D03*
X58500000Y-68200000D03*
X59000000Y-68200000D03*
X59500000Y-68200000D03*
X60000000Y-68200000D03*
X60500000Y-68200000D03*
X61000000Y-68200000D03*
X61500000Y-68200000D03*
X62000000Y-68200000D03*
X62500000Y-68200000D03*
X63000000Y-68200000D03*
X63500000Y-68200000D03*
X64000000Y-68200000D03*
X64500000Y-68200000D03*
X65000000Y-68200000D03*
D12*
X66950000Y-109500000D03*
X66950000Y-109000000D03*
X66950000Y-108500000D03*
X66950000Y-108000000D03*
X66950000Y-107500000D03*
X66950000Y-107000000D03*
X66950000Y-106500000D03*
X66950000Y-106000000D03*
X66950000Y-105500000D03*
X66950000Y-105000000D03*
X66950000Y-104500000D03*
X66950000Y-104000000D03*
X66950000Y-103500000D03*
X66950000Y-103000000D03*
X66950000Y-102500000D03*
X66950000Y-102000000D03*
D13*
X65000000Y-100050000D03*
X64500000Y-100050000D03*
X64000000Y-100050000D03*
X63500000Y-100050000D03*
X63000000Y-100050000D03*
X62500000Y-100050000D03*
X62000000Y-100050000D03*
X61500000Y-100050000D03*
X61000000Y-100050000D03*
X60500000Y-100050000D03*
X60000000Y-100050000D03*
X59500000Y-100050000D03*
X59000000Y-100050000D03*
X58500000Y-100050000D03*
X58000000Y-100050000D03*
X57500000Y-100050000D03*
D12*
X55550000Y-102000000D03*
X55550000Y-102500000D03*
X55550000Y-103000000D03*
X55550000Y-103500000D03*
X55550000Y-104000000D03*
X55550000Y-104500000D03*
X55550000Y-105000000D03*
X55550000Y-105500000D03*
X55550000Y-106000000D03*
X55550000Y-106500000D03*
X55550000Y-107000000D03*
X55550000Y-107500000D03*
X55550000Y-108000000D03*
X55550000Y-108500000D03*
X55550000Y-109000000D03*
X55550000Y-109500000D03*
D13*
X57500000Y-111450000D03*
X58000000Y-111450000D03*
X58500000Y-111450000D03*
X59000000Y-111450000D03*
X59500000Y-111450000D03*
X60000000Y-111450000D03*
X60500000Y-111450000D03*
X61000000Y-111450000D03*
X61500000Y-111450000D03*
X62000000Y-111450000D03*
X62500000Y-111450000D03*
X63000000Y-111450000D03*
X63500000Y-111450000D03*
X64000000Y-111450000D03*
X64500000Y-111450000D03*
X65000000Y-111450000D03*
D21*
X80600000Y-167500000D03*
X80600000Y-169700000D03*
X80900000Y-160450000D03*
X80900000Y-162650000D03*
X80900000Y-153550000D03*
X80900000Y-155750000D03*
X81000000Y-146550000D03*
X81000000Y-148750000D03*
X80900000Y-139650000D03*
X80900000Y-141850000D03*
X80900000Y-132550000D03*
X80900000Y-134750000D03*
X80900000Y-125550000D03*
X80900000Y-127750000D03*
X79600000Y-118500000D03*
X79600000Y-120700000D03*
X80900000Y-111050000D03*
X80900000Y-113250000D03*
X80900000Y-104150000D03*
X80900000Y-106350000D03*
X80900000Y-97150000D03*
X80900000Y-99350000D03*
X81000000Y-90150000D03*
X81000000Y-92350000D03*
X80900000Y-83150000D03*
X80900000Y-85350000D03*
X81000000Y-76250000D03*
X81000000Y-78450000D03*
X81000000Y-69250000D03*
X81000000Y-71450000D03*
X80900000Y-62150000D03*
X80900000Y-64350000D03*
X80900000Y-55150000D03*
X80900000Y-57350000D03*
X80800000Y-47250000D03*
X80800000Y-49450000D03*
D22*
X73800000Y-129250000D03*
X73800000Y-125950000D03*
X72400000Y-122050000D03*
X72400000Y-118750000D03*
X73800000Y-114650000D03*
X73800000Y-111350000D03*
X73600000Y-107400000D03*
X73600000Y-104100000D03*
X73800000Y-100200000D03*
X73800000Y-96900000D03*
X73800000Y-93850000D03*
X73800000Y-90550000D03*
X73800000Y-170450000D03*
X73800000Y-167150000D03*
X73800000Y-163650000D03*
X73800000Y-160350000D03*
X74000000Y-156650000D03*
X74000000Y-153350000D03*
X73800000Y-149650000D03*
X73800000Y-146350000D03*
X73800000Y-142850000D03*
X73800000Y-139550000D03*
X73600000Y-136050000D03*
X73600000Y-132750000D03*
X73800000Y-86850000D03*
X73800000Y-83550000D03*
X74000000Y-80100000D03*
X74000000Y-76800000D03*
X74000000Y-72850000D03*
X74000000Y-69550000D03*
X74000000Y-65650000D03*
X74000000Y-62350000D03*
X73800000Y-58450000D03*
X73800000Y-55150000D03*
X73800000Y-51000000D03*
X73800000Y-47700000D03*
D23*
X65450000Y-163650000D03*
X63550000Y-163650000D03*
X64500000Y-165850000D03*
D11*
X121500000Y-182000000D03*
D24*
G36*
X64373000Y-65623000D02*
X58127000Y-65623000D01*
X58127000Y-59377000D01*
X64373000Y-59377000D01*
X64373000Y-65623000D01*
X64373000Y-65623000D01*
G37*
X64373000Y-65623000D02*
X58127000Y-65623000D01*
X58127000Y-59377000D01*
X64373000Y-59377000D01*
X64373000Y-65623000D01*
G36*
X64373000Y-108873000D02*
X58127000Y-108873000D01*
X58127000Y-102627000D01*
X64373000Y-102627000D01*
X64373000Y-108873000D01*
X64373000Y-108873000D01*
G37*
X64373000Y-108873000D02*
X58127000Y-108873000D01*
X58127000Y-102627000D01*
X64373000Y-102627000D01*
X64373000Y-108873000D01*
G36*
X60873000Y-153123000D02*
X54627000Y-153123000D01*
X54627000Y-146877000D01*
X60873000Y-146877000D01*
X60873000Y-153123000D01*
X60873000Y-153123000D01*
G37*
X60873000Y-153123000D02*
X54627000Y-153123000D01*
X54627000Y-146877000D01*
X60873000Y-146877000D01*
X60873000Y-153123000D01*
M02*
