G04 #@! TF.FileFunction,Legend,Bot*
%FSLAX46Y46*%
G04 Gerber Fmt 4.6, Leading zero omitted, Abs format (unit mm)*
G04 Created by KiCad (PCBNEW 4.0.6) date 07/19/17 23:08:42*
%MOMM*%
%LPD*%
G01*
G04 APERTURE LIST*
%ADD10C,0.100000*%
%ADD11C,0.250000*%
%ADD12C,0.300000*%
%ADD13C,0.200000*%
%ADD14C,0.120000*%
%ADD15C,0.150000*%
G04 APERTURE END LIST*
D10*
D11*
X62990476Y-137002381D02*
X63561905Y-137002381D01*
X63276191Y-137002381D02*
X63276191Y-136002381D01*
X63371429Y-136145238D01*
X63466667Y-136240476D01*
X63561905Y-136288095D01*
X62133333Y-136335714D02*
X62133333Y-137002381D01*
X62371429Y-135954762D02*
X62609524Y-136669048D01*
X61990476Y-136669048D01*
X70890476Y-137152381D02*
X71461905Y-137152381D01*
X71176191Y-137152381D02*
X71176191Y-136152381D01*
X71271429Y-136295238D01*
X71366667Y-136390476D01*
X71461905Y-136438095D01*
X70557143Y-136152381D02*
X69938095Y-136152381D01*
X70271429Y-136533333D01*
X70128571Y-136533333D01*
X70033333Y-136580952D01*
X69985714Y-136628571D01*
X69938095Y-136723810D01*
X69938095Y-136961905D01*
X69985714Y-137057143D01*
X70033333Y-137104762D01*
X70128571Y-137152381D01*
X70414286Y-137152381D01*
X70509524Y-137104762D01*
X70557143Y-137057143D01*
D12*
X63678571Y-155121429D02*
X63607142Y-155050000D01*
X63464285Y-154978571D01*
X63107142Y-154978571D01*
X62964285Y-155050000D01*
X62892856Y-155121429D01*
X62821428Y-155264286D01*
X62821428Y-155407143D01*
X62892856Y-155621429D01*
X63749999Y-156478571D01*
X62821428Y-156478571D01*
X69421428Y-156428571D02*
X70278571Y-156428571D01*
X69849999Y-156428571D02*
X69849999Y-154928571D01*
X69992856Y-155142857D01*
X70135714Y-155285714D01*
X70278571Y-155357143D01*
D13*
X61180952Y-153578571D02*
X61038095Y-153626190D01*
X60990476Y-153673810D01*
X60942857Y-153769048D01*
X60942857Y-153911905D01*
X60990476Y-154007143D01*
X61038095Y-154054762D01*
X61133333Y-154102381D01*
X61514286Y-154102381D01*
X61514286Y-153102381D01*
X61180952Y-153102381D01*
X61085714Y-153150000D01*
X61038095Y-153197619D01*
X60990476Y-153292857D01*
X60990476Y-153388095D01*
X61038095Y-153483333D01*
X61085714Y-153530952D01*
X61180952Y-153578571D01*
X61514286Y-153578571D01*
X60514286Y-154102381D02*
X60514286Y-153102381D01*
X60180952Y-153816667D01*
X59847619Y-153102381D01*
X59847619Y-154102381D01*
X59419048Y-154054762D02*
X59276191Y-154102381D01*
X59038095Y-154102381D01*
X58942857Y-154054762D01*
X58895238Y-154007143D01*
X58847619Y-153911905D01*
X58847619Y-153816667D01*
X58895238Y-153721429D01*
X58942857Y-153673810D01*
X59038095Y-153626190D01*
X59228572Y-153578571D01*
X59323810Y-153530952D01*
X59371429Y-153483333D01*
X59419048Y-153388095D01*
X59419048Y-153292857D01*
X59371429Y-153197619D01*
X59323810Y-153150000D01*
X59228572Y-153102381D01*
X58990476Y-153102381D01*
X58847619Y-153150000D01*
X58657143Y-154197619D02*
X57895238Y-154197619D01*
X57133333Y-153150000D02*
X57228571Y-153102381D01*
X57371428Y-153102381D01*
X57514286Y-153150000D01*
X57609524Y-153245238D01*
X57657143Y-153340476D01*
X57704762Y-153530952D01*
X57704762Y-153673810D01*
X57657143Y-153864286D01*
X57609524Y-153959524D01*
X57514286Y-154054762D01*
X57371428Y-154102381D01*
X57276190Y-154102381D01*
X57133333Y-154054762D01*
X57085714Y-154007143D01*
X57085714Y-153673810D01*
X57276190Y-153673810D01*
X56657143Y-154102381D02*
X56657143Y-153102381D01*
X56085714Y-154102381D01*
X56085714Y-153102381D01*
X55609524Y-154102381D02*
X55609524Y-153102381D01*
X55371429Y-153102381D01*
X55228571Y-153150000D01*
X55133333Y-153245238D01*
X55085714Y-153340476D01*
X55038095Y-153530952D01*
X55038095Y-153673810D01*
X55085714Y-153864286D01*
X55133333Y-153959524D01*
X55228571Y-154054762D01*
X55371429Y-154102381D01*
X55609524Y-154102381D01*
X61540476Y-151602381D02*
X61540476Y-150602381D01*
X61302381Y-150602381D01*
X61159523Y-150650000D01*
X61064285Y-150745238D01*
X61016666Y-150840476D01*
X60969047Y-151030952D01*
X60969047Y-151173810D01*
X61016666Y-151364286D01*
X61064285Y-151459524D01*
X61159523Y-151554762D01*
X61302381Y-151602381D01*
X61540476Y-151602381D01*
X59969047Y-151602381D02*
X60302381Y-151126190D01*
X60540476Y-151602381D02*
X60540476Y-150602381D01*
X60159523Y-150602381D01*
X60064285Y-150650000D01*
X60016666Y-150697619D01*
X59969047Y-150792857D01*
X59969047Y-150935714D01*
X60016666Y-151030952D01*
X60064285Y-151078571D01*
X60159523Y-151126190D01*
X60540476Y-151126190D01*
X59540476Y-151602381D02*
X59540476Y-150602381D01*
X59302381Y-150602381D01*
X59159523Y-150650000D01*
X59064285Y-150745238D01*
X59016666Y-150840476D01*
X58969047Y-151030952D01*
X58969047Y-151173810D01*
X59016666Y-151364286D01*
X59064285Y-151459524D01*
X59159523Y-151554762D01*
X59302381Y-151602381D01*
X59540476Y-151602381D01*
X58350000Y-151126190D02*
X58350000Y-151602381D01*
X58683333Y-150602381D02*
X58350000Y-151126190D01*
X58016666Y-150602381D01*
X61633333Y-149002381D02*
X61633333Y-148002381D01*
X61061904Y-149002381D01*
X61061904Y-148002381D01*
X60395238Y-148002381D02*
X60204761Y-148002381D01*
X60109523Y-148050000D01*
X60014285Y-148145238D01*
X59966666Y-148335714D01*
X59966666Y-148669048D01*
X60014285Y-148859524D01*
X60109523Y-148954762D01*
X60204761Y-149002381D01*
X60395238Y-149002381D01*
X60490476Y-148954762D01*
X60585714Y-148859524D01*
X60633333Y-148669048D01*
X60633333Y-148335714D01*
X60585714Y-148145238D01*
X60490476Y-148050000D01*
X60395238Y-148002381D01*
X59538095Y-149002381D02*
X59538095Y-148002381D01*
X59300000Y-148002381D01*
X59157142Y-148050000D01*
X59061904Y-148145238D01*
X59014285Y-148240476D01*
X58966666Y-148430952D01*
X58966666Y-148573810D01*
X59014285Y-148764286D01*
X59061904Y-148859524D01*
X59157142Y-148954762D01*
X59300000Y-149002381D01*
X59538095Y-149002381D01*
X58538095Y-148478571D02*
X58204761Y-148478571D01*
X58061904Y-149002381D02*
X58538095Y-149002381D01*
X58538095Y-148002381D01*
X58061904Y-148002381D01*
X57871428Y-149097619D02*
X57109523Y-149097619D01*
X56966666Y-148002381D02*
X56347618Y-148002381D01*
X56680952Y-148383333D01*
X56538094Y-148383333D01*
X56442856Y-148430952D01*
X56395237Y-148478571D01*
X56347618Y-148573810D01*
X56347618Y-148811905D01*
X56395237Y-148907143D01*
X56442856Y-148954762D01*
X56538094Y-149002381D01*
X56823809Y-149002381D01*
X56919047Y-148954762D01*
X56966666Y-148907143D01*
X55919047Y-148907143D02*
X55871428Y-148954762D01*
X55919047Y-149002381D01*
X55966666Y-148954762D01*
X55919047Y-148907143D01*
X55919047Y-149002381D01*
X55538095Y-148002381D02*
X54919047Y-148002381D01*
X55252381Y-148383333D01*
X55109523Y-148383333D01*
X55014285Y-148430952D01*
X54966666Y-148478571D01*
X54919047Y-148573810D01*
X54919047Y-148811905D01*
X54966666Y-148907143D01*
X55014285Y-148954762D01*
X55109523Y-149002381D01*
X55395238Y-149002381D01*
X55490476Y-148954762D01*
X55538095Y-148907143D01*
X61576191Y-146216667D02*
X61100000Y-146216667D01*
X61671429Y-146502381D02*
X61338096Y-145502381D01*
X61004762Y-146502381D01*
X60195238Y-146502381D02*
X60671429Y-146502381D01*
X60671429Y-145502381D01*
X59861905Y-145978571D02*
X59528571Y-145978571D01*
X59385714Y-146502381D02*
X59861905Y-146502381D01*
X59861905Y-145502381D01*
X59385714Y-145502381D01*
X58385714Y-146502381D02*
X58719048Y-146026190D01*
X58957143Y-146502381D02*
X58957143Y-145502381D01*
X58576190Y-145502381D01*
X58480952Y-145550000D01*
X58433333Y-145597619D01*
X58385714Y-145692857D01*
X58385714Y-145835714D01*
X58433333Y-145930952D01*
X58480952Y-145978571D01*
X58576190Y-146026190D01*
X58957143Y-146026190D01*
X58100000Y-145502381D02*
X57528571Y-145502381D01*
X57814286Y-146502381D02*
X57814286Y-145502381D01*
X61145238Y-143578571D02*
X61478572Y-143578571D01*
X61478572Y-144102381D02*
X61478572Y-143102381D01*
X61002381Y-143102381D01*
X60669048Y-143816667D02*
X60192857Y-143816667D01*
X60764286Y-144102381D02*
X60430953Y-143102381D01*
X60097619Y-144102381D01*
X59764286Y-143102381D02*
X59764286Y-143911905D01*
X59716667Y-144007143D01*
X59669048Y-144054762D01*
X59573810Y-144102381D01*
X59383333Y-144102381D01*
X59288095Y-144054762D01*
X59240476Y-144007143D01*
X59192857Y-143911905D01*
X59192857Y-143102381D01*
X58240476Y-144102381D02*
X58716667Y-144102381D01*
X58716667Y-143102381D01*
X58050000Y-143102381D02*
X57478571Y-143102381D01*
X57764286Y-144102381D02*
X57764286Y-143102381D01*
X60980952Y-141202381D02*
X61552381Y-141202381D01*
X61266667Y-141202381D02*
X61266667Y-140202381D01*
X61361905Y-140345238D01*
X61457143Y-140440476D01*
X61552381Y-140488095D01*
X60552381Y-140821429D02*
X59790476Y-140821429D01*
X59409524Y-140202381D02*
X59171429Y-141202381D01*
X58980952Y-140488095D01*
X58790476Y-141202381D01*
X58552381Y-140202381D01*
X58171429Y-141202381D02*
X58171429Y-140535714D01*
X58171429Y-140202381D02*
X58219048Y-140250000D01*
X58171429Y-140297619D01*
X58123810Y-140250000D01*
X58171429Y-140202381D01*
X58171429Y-140297619D01*
X57695239Y-141202381D02*
X57695239Y-140535714D01*
X57695239Y-140726190D02*
X57647620Y-140630952D01*
X57600001Y-140583333D01*
X57504763Y-140535714D01*
X57409524Y-140535714D01*
X56695238Y-141154762D02*
X56790476Y-141202381D01*
X56980953Y-141202381D01*
X57076191Y-141154762D01*
X57123810Y-141059524D01*
X57123810Y-140678571D01*
X57076191Y-140583333D01*
X56980953Y-140535714D01*
X56790476Y-140535714D01*
X56695238Y-140583333D01*
X56647619Y-140678571D01*
X56647619Y-140773810D01*
X57123810Y-140869048D01*
X61111904Y-138328571D02*
X60969047Y-138376190D01*
X60921428Y-138423810D01*
X60873809Y-138519048D01*
X60873809Y-138661905D01*
X60921428Y-138757143D01*
X60969047Y-138804762D01*
X61064285Y-138852381D01*
X61445238Y-138852381D01*
X61445238Y-137852381D01*
X61111904Y-137852381D01*
X61016666Y-137900000D01*
X60969047Y-137947619D01*
X60921428Y-138042857D01*
X60921428Y-138138095D01*
X60969047Y-138233333D01*
X61016666Y-138280952D01*
X61111904Y-138328571D01*
X61445238Y-138328571D01*
X60445238Y-138852381D02*
X60445238Y-137852381D01*
X60111904Y-138566667D01*
X59778571Y-137852381D01*
X59778571Y-138852381D01*
X59350000Y-138804762D02*
X59207143Y-138852381D01*
X58969047Y-138852381D01*
X58873809Y-138804762D01*
X58826190Y-138757143D01*
X58778571Y-138661905D01*
X58778571Y-138566667D01*
X58826190Y-138471429D01*
X58873809Y-138423810D01*
X58969047Y-138376190D01*
X59159524Y-138328571D01*
X59254762Y-138280952D01*
X59302381Y-138233333D01*
X59350000Y-138138095D01*
X59350000Y-138042857D01*
X59302381Y-137947619D01*
X59254762Y-137900000D01*
X59159524Y-137852381D01*
X58921428Y-137852381D01*
X58778571Y-137900000D01*
X58588095Y-138947619D02*
X57826190Y-138947619D01*
X57111904Y-137852381D02*
X57588095Y-137852381D01*
X57635714Y-138328571D01*
X57588095Y-138280952D01*
X57492857Y-138233333D01*
X57254761Y-138233333D01*
X57159523Y-138280952D01*
X57111904Y-138328571D01*
X57064285Y-138423810D01*
X57064285Y-138661905D01*
X57111904Y-138757143D01*
X57159523Y-138804762D01*
X57254761Y-138852381D01*
X57492857Y-138852381D01*
X57588095Y-138804762D01*
X57635714Y-138757143D01*
X56778571Y-137852381D02*
X56445238Y-138852381D01*
X56111904Y-137852381D01*
X75071428Y-154102381D02*
X75071428Y-153102381D01*
X74738094Y-153816667D01*
X74404761Y-153102381D01*
X74404761Y-154102381D01*
X73928571Y-154102381D02*
X73928571Y-153102381D01*
X73500000Y-154054762D02*
X73357143Y-154102381D01*
X73119047Y-154102381D01*
X73023809Y-154054762D01*
X72976190Y-154007143D01*
X72928571Y-153911905D01*
X72928571Y-153816667D01*
X72976190Y-153721429D01*
X73023809Y-153673810D01*
X73119047Y-153626190D01*
X73309524Y-153578571D01*
X73404762Y-153530952D01*
X73452381Y-153483333D01*
X73500000Y-153388095D01*
X73500000Y-153292857D01*
X73452381Y-153197619D01*
X73404762Y-153150000D01*
X73309524Y-153102381D01*
X73071428Y-153102381D01*
X72928571Y-153150000D01*
X72309524Y-153102381D02*
X72119047Y-153102381D01*
X72023809Y-153150000D01*
X71928571Y-153245238D01*
X71880952Y-153435714D01*
X71880952Y-153769048D01*
X71928571Y-153959524D01*
X72023809Y-154054762D01*
X72119047Y-154102381D01*
X72309524Y-154102381D01*
X72404762Y-154054762D01*
X72500000Y-153959524D01*
X72547619Y-153769048D01*
X72547619Y-153435714D01*
X72500000Y-153245238D01*
X72404762Y-153150000D01*
X72309524Y-153102381D01*
X75121428Y-151452381D02*
X75121428Y-150452381D01*
X74788094Y-151166667D01*
X74454761Y-150452381D01*
X74454761Y-151452381D01*
X73788095Y-150452381D02*
X73597618Y-150452381D01*
X73502380Y-150500000D01*
X73407142Y-150595238D01*
X73359523Y-150785714D01*
X73359523Y-151119048D01*
X73407142Y-151309524D01*
X73502380Y-151404762D01*
X73597618Y-151452381D01*
X73788095Y-151452381D01*
X73883333Y-151404762D01*
X73978571Y-151309524D01*
X74026190Y-151119048D01*
X74026190Y-150785714D01*
X73978571Y-150595238D01*
X73883333Y-150500000D01*
X73788095Y-150452381D01*
X72978571Y-151404762D02*
X72835714Y-151452381D01*
X72597618Y-151452381D01*
X72502380Y-151404762D01*
X72454761Y-151357143D01*
X72407142Y-151261905D01*
X72407142Y-151166667D01*
X72454761Y-151071429D01*
X72502380Y-151023810D01*
X72597618Y-150976190D01*
X72788095Y-150928571D01*
X72883333Y-150880952D01*
X72930952Y-150833333D01*
X72978571Y-150738095D01*
X72978571Y-150642857D01*
X72930952Y-150547619D01*
X72883333Y-150500000D01*
X72788095Y-150452381D01*
X72549999Y-150452381D01*
X72407142Y-150500000D01*
X71978571Y-151452381D02*
X71978571Y-150452381D01*
X74435714Y-148954762D02*
X74292857Y-149002381D01*
X74054761Y-149002381D01*
X73959523Y-148954762D01*
X73911904Y-148907143D01*
X73864285Y-148811905D01*
X73864285Y-148716667D01*
X73911904Y-148621429D01*
X73959523Y-148573810D01*
X74054761Y-148526190D01*
X74245238Y-148478571D01*
X74340476Y-148430952D01*
X74388095Y-148383333D01*
X74435714Y-148288095D01*
X74435714Y-148192857D01*
X74388095Y-148097619D01*
X74340476Y-148050000D01*
X74245238Y-148002381D01*
X74007142Y-148002381D01*
X73864285Y-148050000D01*
X72864285Y-148907143D02*
X72911904Y-148954762D01*
X73054761Y-149002381D01*
X73149999Y-149002381D01*
X73292857Y-148954762D01*
X73388095Y-148859524D01*
X73435714Y-148764286D01*
X73483333Y-148573810D01*
X73483333Y-148430952D01*
X73435714Y-148240476D01*
X73388095Y-148145238D01*
X73292857Y-148050000D01*
X73149999Y-148002381D01*
X73054761Y-148002381D01*
X72911904Y-148050000D01*
X72864285Y-148097619D01*
X72435714Y-149002381D02*
X72435714Y-148002381D01*
X71864285Y-149002381D02*
X72292857Y-148430952D01*
X71864285Y-148002381D02*
X72435714Y-148573810D01*
X72916666Y-146457143D02*
X72964285Y-146504762D01*
X73107142Y-146552381D01*
X73202380Y-146552381D01*
X73345238Y-146504762D01*
X73440476Y-146409524D01*
X73488095Y-146314286D01*
X73535714Y-146123810D01*
X73535714Y-145980952D01*
X73488095Y-145790476D01*
X73440476Y-145695238D01*
X73345238Y-145600000D01*
X73202380Y-145552381D01*
X73107142Y-145552381D01*
X72964285Y-145600000D01*
X72916666Y-145647619D01*
X72535714Y-146504762D02*
X72392857Y-146552381D01*
X72154761Y-146552381D01*
X72059523Y-146504762D01*
X72011904Y-146457143D01*
X71964285Y-146361905D01*
X71964285Y-146266667D01*
X72011904Y-146171429D01*
X72059523Y-146123810D01*
X72154761Y-146076190D01*
X72345238Y-146028571D01*
X72440476Y-145980952D01*
X72488095Y-145933333D01*
X72535714Y-145838095D01*
X72535714Y-145742857D01*
X72488095Y-145647619D01*
X72440476Y-145600000D01*
X72345238Y-145552381D01*
X72107142Y-145552381D01*
X71964285Y-145600000D01*
X74866666Y-144007143D02*
X74914285Y-144054762D01*
X75057142Y-144102381D01*
X75152380Y-144102381D01*
X75295238Y-144054762D01*
X75390476Y-143959524D01*
X75438095Y-143864286D01*
X75485714Y-143673810D01*
X75485714Y-143530952D01*
X75438095Y-143340476D01*
X75390476Y-143245238D01*
X75295238Y-143150000D01*
X75152380Y-143102381D01*
X75057142Y-143102381D01*
X74914285Y-143150000D01*
X74866666Y-143197619D01*
X74247619Y-143102381D02*
X74057142Y-143102381D01*
X73961904Y-143150000D01*
X73866666Y-143245238D01*
X73819047Y-143435714D01*
X73819047Y-143769048D01*
X73866666Y-143959524D01*
X73961904Y-144054762D01*
X74057142Y-144102381D01*
X74247619Y-144102381D01*
X74342857Y-144054762D01*
X74438095Y-143959524D01*
X74485714Y-143769048D01*
X74485714Y-143435714D01*
X74438095Y-143245238D01*
X74342857Y-143150000D01*
X74247619Y-143102381D01*
X73390476Y-144102381D02*
X73390476Y-143102381D01*
X72819047Y-144102381D01*
X72819047Y-143102381D01*
X72485714Y-143102381D02*
X72152381Y-144102381D01*
X71819047Y-143102381D01*
X79116667Y-141552381D02*
X79116667Y-140552381D01*
X78545238Y-141552381D01*
X78545238Y-140552381D01*
X77878572Y-140552381D02*
X77688095Y-140552381D01*
X77592857Y-140600000D01*
X77497619Y-140695238D01*
X77450000Y-140885714D01*
X77450000Y-141219048D01*
X77497619Y-141409524D01*
X77592857Y-141504762D01*
X77688095Y-141552381D01*
X77878572Y-141552381D01*
X77973810Y-141504762D01*
X78069048Y-141409524D01*
X78116667Y-141219048D01*
X78116667Y-140885714D01*
X78069048Y-140695238D01*
X77973810Y-140600000D01*
X77878572Y-140552381D01*
X77021429Y-141552381D02*
X77021429Y-140552381D01*
X76783334Y-140552381D01*
X76640476Y-140600000D01*
X76545238Y-140695238D01*
X76497619Y-140790476D01*
X76450000Y-140980952D01*
X76450000Y-141123810D01*
X76497619Y-141314286D01*
X76545238Y-141409524D01*
X76640476Y-141504762D01*
X76783334Y-141552381D01*
X77021429Y-141552381D01*
X76021429Y-141028571D02*
X75688095Y-141028571D01*
X75545238Y-141552381D02*
X76021429Y-141552381D01*
X76021429Y-140552381D01*
X75545238Y-140552381D01*
X75354762Y-141647619D02*
X74592857Y-141647619D01*
X73830952Y-140600000D02*
X73926190Y-140552381D01*
X74069047Y-140552381D01*
X74211905Y-140600000D01*
X74307143Y-140695238D01*
X74354762Y-140790476D01*
X74402381Y-140980952D01*
X74402381Y-141123810D01*
X74354762Y-141314286D01*
X74307143Y-141409524D01*
X74211905Y-141504762D01*
X74069047Y-141552381D01*
X73973809Y-141552381D01*
X73830952Y-141504762D01*
X73783333Y-141457143D01*
X73783333Y-141123810D01*
X73973809Y-141123810D01*
X73354762Y-141552381D02*
X73354762Y-140552381D01*
X72783333Y-141552381D01*
X72783333Y-140552381D01*
X72307143Y-141552381D02*
X72307143Y-140552381D01*
X72069048Y-140552381D01*
X71926190Y-140600000D01*
X71830952Y-140695238D01*
X71783333Y-140790476D01*
X71735714Y-140980952D01*
X71735714Y-141123810D01*
X71783333Y-141314286D01*
X71830952Y-141409524D01*
X71926190Y-141504762D01*
X72069048Y-141552381D01*
X72307143Y-141552381D01*
X78840476Y-138807143D02*
X78888095Y-138854762D01*
X79030952Y-138902381D01*
X79126190Y-138902381D01*
X79269048Y-138854762D01*
X79364286Y-138759524D01*
X79411905Y-138664286D01*
X79459524Y-138473810D01*
X79459524Y-138330952D01*
X79411905Y-138140476D01*
X79364286Y-138045238D01*
X79269048Y-137950000D01*
X79126190Y-137902381D01*
X79030952Y-137902381D01*
X78888095Y-137950000D01*
X78840476Y-137997619D01*
X78221429Y-137902381D02*
X78030952Y-137902381D01*
X77935714Y-137950000D01*
X77840476Y-138045238D01*
X77792857Y-138235714D01*
X77792857Y-138569048D01*
X77840476Y-138759524D01*
X77935714Y-138854762D01*
X78030952Y-138902381D01*
X78221429Y-138902381D01*
X78316667Y-138854762D01*
X78411905Y-138759524D01*
X78459524Y-138569048D01*
X78459524Y-138235714D01*
X78411905Y-138045238D01*
X78316667Y-137950000D01*
X78221429Y-137902381D01*
X77364286Y-138902381D02*
X77364286Y-137902381D01*
X77030952Y-138616667D01*
X76697619Y-137902381D01*
X76697619Y-138902381D01*
X76221429Y-138902381D02*
X76221429Y-137902381D01*
X75888095Y-138616667D01*
X75554762Y-137902381D01*
X75554762Y-138902381D01*
X75126191Y-138854762D02*
X74983334Y-138902381D01*
X74745238Y-138902381D01*
X74650000Y-138854762D01*
X74602381Y-138807143D01*
X74554762Y-138711905D01*
X74554762Y-138616667D01*
X74602381Y-138521429D01*
X74650000Y-138473810D01*
X74745238Y-138426190D01*
X74935715Y-138378571D01*
X75030953Y-138330952D01*
X75078572Y-138283333D01*
X75126191Y-138188095D01*
X75126191Y-138092857D01*
X75078572Y-137997619D01*
X75030953Y-137950000D01*
X74935715Y-137902381D01*
X74697619Y-137902381D01*
X74554762Y-137950000D01*
X74364286Y-138997619D02*
X73602381Y-138997619D01*
X73364286Y-138378571D02*
X73030952Y-138378571D01*
X72888095Y-138902381D02*
X73364286Y-138902381D01*
X73364286Y-137902381D01*
X72888095Y-137902381D01*
X72459524Y-138902381D02*
X72459524Y-137902381D01*
X71888095Y-138902381D01*
X71888095Y-137902381D01*
D14*
X118100000Y-136100000D02*
X118100000Y-135400000D01*
X116900000Y-135400000D02*
X116900000Y-136100000D01*
X118100000Y-131850000D02*
X118100000Y-131150000D01*
X116900000Y-131150000D02*
X116900000Y-131850000D01*
X118100000Y-128100000D02*
X118100000Y-127400000D01*
X116900000Y-127400000D02*
X116900000Y-128100000D01*
X118100000Y-124100000D02*
X118100000Y-123400000D01*
X116900000Y-123400000D02*
X116900000Y-124100000D01*
X118100000Y-159350000D02*
X118100000Y-158650000D01*
X116900000Y-158650000D02*
X116900000Y-159350000D01*
X118100000Y-155600000D02*
X118100000Y-154900000D01*
X116900000Y-154900000D02*
X116900000Y-155600000D01*
X118100000Y-151600000D02*
X118100000Y-150900000D01*
X116900000Y-150900000D02*
X116900000Y-151600000D01*
X118100000Y-147600000D02*
X118100000Y-146900000D01*
X116900000Y-146900000D02*
X116900000Y-147600000D01*
X118100000Y-143600000D02*
X118100000Y-142900000D01*
X116900000Y-142900000D02*
X116900000Y-143600000D01*
X118350000Y-107350000D02*
X118350000Y-106650000D01*
X117150000Y-106650000D02*
X117150000Y-107350000D01*
X118350000Y-103350000D02*
X118350000Y-102650000D01*
X117150000Y-102650000D02*
X117150000Y-103350000D01*
X118350000Y-99350000D02*
X118350000Y-98650000D01*
X117150000Y-98650000D02*
X117150000Y-99350000D01*
X118350000Y-95350000D02*
X118350000Y-94650000D01*
X117150000Y-94650000D02*
X117150000Y-95350000D01*
X64100000Y-154420000D02*
X64100000Y-154950000D01*
X64100000Y-154950000D02*
X69300000Y-154950000D01*
X69300000Y-154950000D02*
X69300000Y-154420000D01*
X64100000Y-137580000D02*
X64100000Y-137050000D01*
X64100000Y-137050000D02*
X69300000Y-137050000D01*
X69300000Y-137050000D02*
X69300000Y-137580000D01*
X62430000Y-154420000D02*
X64100000Y-154420000D01*
X117850000Y-118350000D02*
X117850000Y-117650000D01*
X116650000Y-117650000D02*
X116650000Y-118350000D01*
X118350000Y-115100000D02*
X118350000Y-114400000D01*
X117150000Y-114400000D02*
X117150000Y-115100000D01*
X118100000Y-139850000D02*
X118100000Y-139150000D01*
X116900000Y-139150000D02*
X116900000Y-139850000D01*
X118350000Y-110850000D02*
X118350000Y-110150000D01*
X117150000Y-110150000D02*
X117150000Y-110850000D01*
X118350000Y-91600000D02*
X118350000Y-90900000D01*
X117150000Y-90900000D02*
X117150000Y-91600000D01*
X66450000Y-123650000D02*
X66450000Y-122950000D01*
X65250000Y-122950000D02*
X65250000Y-123650000D01*
X55150000Y-133750000D02*
X55850000Y-133750000D01*
X55850000Y-132550000D02*
X55150000Y-132550000D01*
X54000000Y-131200000D02*
X54000000Y-130500000D01*
X52800000Y-130500000D02*
X52800000Y-131200000D01*
X56600000Y-134900000D02*
X57300000Y-134900000D01*
X57300000Y-133700000D02*
X56600000Y-133700000D01*
X64550000Y-82350000D02*
X64550000Y-81650000D01*
X63350000Y-81650000D02*
X63350000Y-82350000D01*
X55600000Y-96550000D02*
X56300000Y-96550000D01*
X56300000Y-95350000D02*
X55600000Y-95350000D01*
X55700000Y-94650000D02*
X56400000Y-94650000D01*
X56400000Y-93450000D02*
X55700000Y-93450000D01*
X54950000Y-92250000D02*
X54250000Y-92250000D01*
X54250000Y-93450000D02*
X54950000Y-93450000D01*
X56600000Y-71550000D02*
X55900000Y-71550000D01*
X55900000Y-72750000D02*
X56600000Y-72750000D01*
X56600000Y-70300000D02*
X55900000Y-70300000D01*
X55900000Y-71500000D02*
X56600000Y-71500000D01*
X123500000Y-138000000D02*
X121500000Y-138000000D01*
X121500000Y-138000000D02*
X121500000Y-134100000D01*
X123500000Y-138000000D02*
X123500000Y-134100000D01*
X120750000Y-135250000D02*
X118750000Y-135250000D01*
X118750000Y-135250000D02*
X118750000Y-131350000D01*
X120750000Y-135250000D02*
X120750000Y-131350000D01*
X123500000Y-131750000D02*
X121500000Y-131750000D01*
X121500000Y-131750000D02*
X121500000Y-127850000D01*
X123500000Y-131750000D02*
X123500000Y-127850000D01*
X121000000Y-128750000D02*
X119000000Y-128750000D01*
X119000000Y-128750000D02*
X119000000Y-124850000D01*
X121000000Y-128750000D02*
X121000000Y-124850000D01*
X123000000Y-116750000D02*
X121000000Y-116750000D01*
X121000000Y-116750000D02*
X121000000Y-112850000D01*
X123000000Y-116750000D02*
X123000000Y-112850000D01*
X120750000Y-114750000D02*
X118750000Y-114750000D01*
X118750000Y-114750000D02*
X118750000Y-110850000D01*
X120750000Y-114750000D02*
X120750000Y-110850000D01*
X123500000Y-159750000D02*
X121500000Y-159750000D01*
X121500000Y-159750000D02*
X121500000Y-155850000D01*
X123500000Y-159750000D02*
X123500000Y-155850000D01*
X120750000Y-156250000D02*
X118750000Y-156250000D01*
X118750000Y-156250000D02*
X118750000Y-152350000D01*
X120750000Y-156250000D02*
X120750000Y-152350000D01*
X123500000Y-152500000D02*
X121500000Y-152500000D01*
X121500000Y-152500000D02*
X121500000Y-148600000D01*
X123500000Y-152500000D02*
X123500000Y-148600000D01*
X120750000Y-148250000D02*
X118750000Y-148250000D01*
X118750000Y-148250000D02*
X118750000Y-144350000D01*
X120750000Y-148250000D02*
X120750000Y-144350000D01*
X123500000Y-145500000D02*
X121500000Y-145500000D01*
X121500000Y-145500000D02*
X121500000Y-141600000D01*
X123500000Y-145500000D02*
X123500000Y-141600000D01*
X120750000Y-140500000D02*
X118750000Y-140500000D01*
X118750000Y-140500000D02*
X118750000Y-136600000D01*
X120750000Y-140500000D02*
X120750000Y-136600000D01*
X123000000Y-111250000D02*
X121000000Y-111250000D01*
X121000000Y-111250000D02*
X121000000Y-107350000D01*
X123000000Y-111250000D02*
X123000000Y-107350000D01*
X118750000Y-105500000D02*
X120750000Y-105500000D01*
X120750000Y-105500000D02*
X120750000Y-109400000D01*
X118750000Y-105500000D02*
X118750000Y-109400000D01*
X123000000Y-106000000D02*
X121000000Y-106000000D01*
X121000000Y-106000000D02*
X121000000Y-102100000D01*
X123000000Y-106000000D02*
X123000000Y-102100000D01*
X120750000Y-102500000D02*
X118750000Y-102500000D01*
X118750000Y-102500000D02*
X118750000Y-98600000D01*
X120750000Y-102500000D02*
X120750000Y-98600000D01*
X123000000Y-98500000D02*
X121000000Y-98500000D01*
X121000000Y-98500000D02*
X121000000Y-94600000D01*
X123000000Y-98500000D02*
X123000000Y-94600000D01*
X120750000Y-94500000D02*
X118750000Y-94500000D01*
X118750000Y-94500000D02*
X118750000Y-90600000D01*
X120750000Y-94500000D02*
X120750000Y-90600000D01*
D15*
X116507143Y-135433334D02*
X116554762Y-135385715D01*
X116602381Y-135242858D01*
X116602381Y-135147620D01*
X116554762Y-135004762D01*
X116459524Y-134909524D01*
X116364286Y-134861905D01*
X116173810Y-134814286D01*
X116030952Y-134814286D01*
X115840476Y-134861905D01*
X115745238Y-134909524D01*
X115650000Y-135004762D01*
X115602381Y-135147620D01*
X115602381Y-135242858D01*
X115650000Y-135385715D01*
X115697619Y-135433334D01*
X115602381Y-136290477D02*
X115602381Y-136100000D01*
X115650000Y-136004762D01*
X115697619Y-135957143D01*
X115840476Y-135861905D01*
X116030952Y-135814286D01*
X116411905Y-135814286D01*
X116507143Y-135861905D01*
X116554762Y-135909524D01*
X116602381Y-136004762D01*
X116602381Y-136195239D01*
X116554762Y-136290477D01*
X116507143Y-136338096D01*
X116411905Y-136385715D01*
X116173810Y-136385715D01*
X116078571Y-136338096D01*
X116030952Y-136290477D01*
X115983333Y-136195239D01*
X115983333Y-136004762D01*
X116030952Y-135909524D01*
X116078571Y-135861905D01*
X116173810Y-135814286D01*
X116507143Y-130633334D02*
X116554762Y-130585715D01*
X116602381Y-130442858D01*
X116602381Y-130347620D01*
X116554762Y-130204762D01*
X116459524Y-130109524D01*
X116364286Y-130061905D01*
X116173810Y-130014286D01*
X116030952Y-130014286D01*
X115840476Y-130061905D01*
X115745238Y-130109524D01*
X115650000Y-130204762D01*
X115602381Y-130347620D01*
X115602381Y-130442858D01*
X115650000Y-130585715D01*
X115697619Y-130633334D01*
X115602381Y-130966667D02*
X115602381Y-131633334D01*
X116602381Y-131204762D01*
X116557143Y-127057143D02*
X116604762Y-127009524D01*
X116652381Y-126866667D01*
X116652381Y-126771429D01*
X116604762Y-126628571D01*
X116509524Y-126533333D01*
X116414286Y-126485714D01*
X116223810Y-126438095D01*
X116080952Y-126438095D01*
X115890476Y-126485714D01*
X115795238Y-126533333D01*
X115700000Y-126628571D01*
X115652381Y-126771429D01*
X115652381Y-126866667D01*
X115700000Y-127009524D01*
X115747619Y-127057143D01*
X116652381Y-128009524D02*
X116652381Y-127438095D01*
X116652381Y-127723809D02*
X115652381Y-127723809D01*
X115795238Y-127628571D01*
X115890476Y-127533333D01*
X115938095Y-127438095D01*
X115985714Y-128866667D02*
X116652381Y-128866667D01*
X115604762Y-128628571D02*
X116319048Y-128390476D01*
X116319048Y-129009524D01*
X116507143Y-123007143D02*
X116554762Y-122959524D01*
X116602381Y-122816667D01*
X116602381Y-122721429D01*
X116554762Y-122578571D01*
X116459524Y-122483333D01*
X116364286Y-122435714D01*
X116173810Y-122388095D01*
X116030952Y-122388095D01*
X115840476Y-122435714D01*
X115745238Y-122483333D01*
X115650000Y-122578571D01*
X115602381Y-122721429D01*
X115602381Y-122816667D01*
X115650000Y-122959524D01*
X115697619Y-123007143D01*
X116602381Y-123959524D02*
X116602381Y-123388095D01*
X116602381Y-123673809D02*
X115602381Y-123673809D01*
X115745238Y-123578571D01*
X115840476Y-123483333D01*
X115888095Y-123388095D01*
X115602381Y-124864286D02*
X115602381Y-124388095D01*
X116078571Y-124340476D01*
X116030952Y-124388095D01*
X115983333Y-124483333D01*
X115983333Y-124721429D01*
X116030952Y-124816667D01*
X116078571Y-124864286D01*
X116173810Y-124911905D01*
X116411905Y-124911905D01*
X116507143Y-124864286D01*
X116554762Y-124816667D01*
X116602381Y-124721429D01*
X116602381Y-124483333D01*
X116554762Y-124388095D01*
X116507143Y-124340476D01*
X117907143Y-161507143D02*
X117954762Y-161459524D01*
X118002381Y-161316667D01*
X118002381Y-161221429D01*
X117954762Y-161078571D01*
X117859524Y-160983333D01*
X117764286Y-160935714D01*
X117573810Y-160888095D01*
X117430952Y-160888095D01*
X117240476Y-160935714D01*
X117145238Y-160983333D01*
X117050000Y-161078571D01*
X117002381Y-161221429D01*
X117002381Y-161316667D01*
X117050000Y-161459524D01*
X117097619Y-161507143D01*
X118002381Y-162459524D02*
X118002381Y-161888095D01*
X118002381Y-162173809D02*
X117002381Y-162173809D01*
X117145238Y-162078571D01*
X117240476Y-161983333D01*
X117288095Y-161888095D01*
X117430952Y-163030952D02*
X117383333Y-162935714D01*
X117335714Y-162888095D01*
X117240476Y-162840476D01*
X117192857Y-162840476D01*
X117097619Y-162888095D01*
X117050000Y-162935714D01*
X117002381Y-163030952D01*
X117002381Y-163221429D01*
X117050000Y-163316667D01*
X117097619Y-163364286D01*
X117192857Y-163411905D01*
X117240476Y-163411905D01*
X117335714Y-163364286D01*
X117383333Y-163316667D01*
X117430952Y-163221429D01*
X117430952Y-163030952D01*
X117478571Y-162935714D01*
X117526190Y-162888095D01*
X117621429Y-162840476D01*
X117811905Y-162840476D01*
X117907143Y-162888095D01*
X117954762Y-162935714D01*
X118002381Y-163030952D01*
X118002381Y-163221429D01*
X117954762Y-163316667D01*
X117907143Y-163364286D01*
X117811905Y-163411905D01*
X117621429Y-163411905D01*
X117526190Y-163364286D01*
X117478571Y-163316667D01*
X117430952Y-163221429D01*
X116457143Y-153907143D02*
X116504762Y-153859524D01*
X116552381Y-153716667D01*
X116552381Y-153621429D01*
X116504762Y-153478571D01*
X116409524Y-153383333D01*
X116314286Y-153335714D01*
X116123810Y-153288095D01*
X115980952Y-153288095D01*
X115790476Y-153335714D01*
X115695238Y-153383333D01*
X115600000Y-153478571D01*
X115552381Y-153621429D01*
X115552381Y-153716667D01*
X115600000Y-153859524D01*
X115647619Y-153907143D01*
X116552381Y-154859524D02*
X116552381Y-154288095D01*
X116552381Y-154573809D02*
X115552381Y-154573809D01*
X115695238Y-154478571D01*
X115790476Y-154383333D01*
X115838095Y-154288095D01*
X116552381Y-155335714D02*
X116552381Y-155526190D01*
X116504762Y-155621429D01*
X116457143Y-155669048D01*
X116314286Y-155764286D01*
X116123810Y-155811905D01*
X115742857Y-155811905D01*
X115647619Y-155764286D01*
X115600000Y-155716667D01*
X115552381Y-155621429D01*
X115552381Y-155430952D01*
X115600000Y-155335714D01*
X115647619Y-155288095D01*
X115742857Y-155240476D01*
X115980952Y-155240476D01*
X116076190Y-155288095D01*
X116123810Y-155335714D01*
X116171429Y-155430952D01*
X116171429Y-155621429D01*
X116123810Y-155716667D01*
X116076190Y-155764286D01*
X115980952Y-155811905D01*
X116557143Y-149857143D02*
X116604762Y-149809524D01*
X116652381Y-149666667D01*
X116652381Y-149571429D01*
X116604762Y-149428571D01*
X116509524Y-149333333D01*
X116414286Y-149285714D01*
X116223810Y-149238095D01*
X116080952Y-149238095D01*
X115890476Y-149285714D01*
X115795238Y-149333333D01*
X115700000Y-149428571D01*
X115652381Y-149571429D01*
X115652381Y-149666667D01*
X115700000Y-149809524D01*
X115747619Y-149857143D01*
X115747619Y-150238095D02*
X115700000Y-150285714D01*
X115652381Y-150380952D01*
X115652381Y-150619048D01*
X115700000Y-150714286D01*
X115747619Y-150761905D01*
X115842857Y-150809524D01*
X115938095Y-150809524D01*
X116080952Y-150761905D01*
X116652381Y-150190476D01*
X116652381Y-150809524D01*
X115652381Y-151428571D02*
X115652381Y-151523810D01*
X115700000Y-151619048D01*
X115747619Y-151666667D01*
X115842857Y-151714286D01*
X116033333Y-151761905D01*
X116271429Y-151761905D01*
X116461905Y-151714286D01*
X116557143Y-151666667D01*
X116604762Y-151619048D01*
X116652381Y-151523810D01*
X116652381Y-151428571D01*
X116604762Y-151333333D01*
X116557143Y-151285714D01*
X116461905Y-151238095D01*
X116271429Y-151190476D01*
X116033333Y-151190476D01*
X115842857Y-151238095D01*
X115747619Y-151285714D01*
X115700000Y-151333333D01*
X115652381Y-151428571D01*
X116607143Y-145407143D02*
X116654762Y-145359524D01*
X116702381Y-145216667D01*
X116702381Y-145121429D01*
X116654762Y-144978571D01*
X116559524Y-144883333D01*
X116464286Y-144835714D01*
X116273810Y-144788095D01*
X116130952Y-144788095D01*
X115940476Y-144835714D01*
X115845238Y-144883333D01*
X115750000Y-144978571D01*
X115702381Y-145121429D01*
X115702381Y-145216667D01*
X115750000Y-145359524D01*
X115797619Y-145407143D01*
X115797619Y-145788095D02*
X115750000Y-145835714D01*
X115702381Y-145930952D01*
X115702381Y-146169048D01*
X115750000Y-146264286D01*
X115797619Y-146311905D01*
X115892857Y-146359524D01*
X115988095Y-146359524D01*
X116130952Y-146311905D01*
X116702381Y-145740476D01*
X116702381Y-146359524D01*
X115702381Y-146692857D02*
X115702381Y-147359524D01*
X116702381Y-146930952D01*
X116607143Y-142407143D02*
X116654762Y-142359524D01*
X116702381Y-142216667D01*
X116702381Y-142121429D01*
X116654762Y-141978571D01*
X116559524Y-141883333D01*
X116464286Y-141835714D01*
X116273810Y-141788095D01*
X116130952Y-141788095D01*
X115940476Y-141835714D01*
X115845238Y-141883333D01*
X115750000Y-141978571D01*
X115702381Y-142121429D01*
X115702381Y-142216667D01*
X115750000Y-142359524D01*
X115797619Y-142407143D01*
X115797619Y-142788095D02*
X115750000Y-142835714D01*
X115702381Y-142930952D01*
X115702381Y-143169048D01*
X115750000Y-143264286D01*
X115797619Y-143311905D01*
X115892857Y-143359524D01*
X115988095Y-143359524D01*
X116130952Y-143311905D01*
X116702381Y-142740476D01*
X116702381Y-143359524D01*
X116130952Y-143930952D02*
X116083333Y-143835714D01*
X116035714Y-143788095D01*
X115940476Y-143740476D01*
X115892857Y-143740476D01*
X115797619Y-143788095D01*
X115750000Y-143835714D01*
X115702381Y-143930952D01*
X115702381Y-144121429D01*
X115750000Y-144216667D01*
X115797619Y-144264286D01*
X115892857Y-144311905D01*
X115940476Y-144311905D01*
X116035714Y-144264286D01*
X116083333Y-144216667D01*
X116130952Y-144121429D01*
X116130952Y-143930952D01*
X116178571Y-143835714D01*
X116226190Y-143788095D01*
X116321429Y-143740476D01*
X116511905Y-143740476D01*
X116607143Y-143788095D01*
X116654762Y-143835714D01*
X116702381Y-143930952D01*
X116702381Y-144121429D01*
X116654762Y-144216667D01*
X116607143Y-144264286D01*
X116511905Y-144311905D01*
X116321429Y-144311905D01*
X116226190Y-144264286D01*
X116178571Y-144216667D01*
X116130952Y-144121429D01*
X116857143Y-106507143D02*
X116904762Y-106459524D01*
X116952381Y-106316667D01*
X116952381Y-106221429D01*
X116904762Y-106078571D01*
X116809524Y-105983333D01*
X116714286Y-105935714D01*
X116523810Y-105888095D01*
X116380952Y-105888095D01*
X116190476Y-105935714D01*
X116095238Y-105983333D01*
X116000000Y-106078571D01*
X115952381Y-106221429D01*
X115952381Y-106316667D01*
X116000000Y-106459524D01*
X116047619Y-106507143D01*
X115952381Y-106840476D02*
X115952381Y-107459524D01*
X116333333Y-107126190D01*
X116333333Y-107269048D01*
X116380952Y-107364286D01*
X116428571Y-107411905D01*
X116523810Y-107459524D01*
X116761905Y-107459524D01*
X116857143Y-107411905D01*
X116904762Y-107364286D01*
X116952381Y-107269048D01*
X116952381Y-106983333D01*
X116904762Y-106888095D01*
X116857143Y-106840476D01*
X116952381Y-108411905D02*
X116952381Y-107840476D01*
X116952381Y-108126190D02*
X115952381Y-108126190D01*
X116095238Y-108030952D01*
X116190476Y-107935714D01*
X116238095Y-107840476D01*
X116557143Y-102607143D02*
X116604762Y-102559524D01*
X116652381Y-102416667D01*
X116652381Y-102321429D01*
X116604762Y-102178571D01*
X116509524Y-102083333D01*
X116414286Y-102035714D01*
X116223810Y-101988095D01*
X116080952Y-101988095D01*
X115890476Y-102035714D01*
X115795238Y-102083333D01*
X115700000Y-102178571D01*
X115652381Y-102321429D01*
X115652381Y-102416667D01*
X115700000Y-102559524D01*
X115747619Y-102607143D01*
X115652381Y-102940476D02*
X115652381Y-103559524D01*
X116033333Y-103226190D01*
X116033333Y-103369048D01*
X116080952Y-103464286D01*
X116128571Y-103511905D01*
X116223810Y-103559524D01*
X116461905Y-103559524D01*
X116557143Y-103511905D01*
X116604762Y-103464286D01*
X116652381Y-103369048D01*
X116652381Y-103083333D01*
X116604762Y-102988095D01*
X116557143Y-102940476D01*
X115652381Y-103892857D02*
X115652381Y-104511905D01*
X116033333Y-104178571D01*
X116033333Y-104321429D01*
X116080952Y-104416667D01*
X116128571Y-104464286D01*
X116223810Y-104511905D01*
X116461905Y-104511905D01*
X116557143Y-104464286D01*
X116604762Y-104416667D01*
X116652381Y-104321429D01*
X116652381Y-104035714D01*
X116604762Y-103940476D01*
X116557143Y-103892857D01*
X116757143Y-98357143D02*
X116804762Y-98309524D01*
X116852381Y-98166667D01*
X116852381Y-98071429D01*
X116804762Y-97928571D01*
X116709524Y-97833333D01*
X116614286Y-97785714D01*
X116423810Y-97738095D01*
X116280952Y-97738095D01*
X116090476Y-97785714D01*
X115995238Y-97833333D01*
X115900000Y-97928571D01*
X115852381Y-98071429D01*
X115852381Y-98166667D01*
X115900000Y-98309524D01*
X115947619Y-98357143D01*
X116185714Y-99214286D02*
X116852381Y-99214286D01*
X115804762Y-98976190D02*
X116519048Y-98738095D01*
X116519048Y-99357143D01*
X115852381Y-99928571D02*
X115852381Y-100023810D01*
X115900000Y-100119048D01*
X115947619Y-100166667D01*
X116042857Y-100214286D01*
X116233333Y-100261905D01*
X116471429Y-100261905D01*
X116661905Y-100214286D01*
X116757143Y-100166667D01*
X116804762Y-100119048D01*
X116852381Y-100023810D01*
X116852381Y-99928571D01*
X116804762Y-99833333D01*
X116757143Y-99785714D01*
X116661905Y-99738095D01*
X116471429Y-99690476D01*
X116233333Y-99690476D01*
X116042857Y-99738095D01*
X115947619Y-99785714D01*
X115900000Y-99833333D01*
X115852381Y-99928571D01*
X116857143Y-94407143D02*
X116904762Y-94359524D01*
X116952381Y-94216667D01*
X116952381Y-94121429D01*
X116904762Y-93978571D01*
X116809524Y-93883333D01*
X116714286Y-93835714D01*
X116523810Y-93788095D01*
X116380952Y-93788095D01*
X116190476Y-93835714D01*
X116095238Y-93883333D01*
X116000000Y-93978571D01*
X115952381Y-94121429D01*
X115952381Y-94216667D01*
X116000000Y-94359524D01*
X116047619Y-94407143D01*
X116285714Y-95264286D02*
X116952381Y-95264286D01*
X115904762Y-95026190D02*
X116619048Y-94788095D01*
X116619048Y-95407143D01*
X116952381Y-96311905D02*
X116952381Y-95740476D01*
X116952381Y-96026190D02*
X115952381Y-96026190D01*
X116095238Y-95930952D01*
X116190476Y-95835714D01*
X116238095Y-95740476D01*
X67033333Y-155402381D02*
X67033333Y-156116667D01*
X67080953Y-156259524D01*
X67176191Y-156354762D01*
X67319048Y-156402381D01*
X67414286Y-156402381D01*
X66033333Y-156402381D02*
X66604762Y-156402381D01*
X66319048Y-156402381D02*
X66319048Y-155402381D01*
X66414286Y-155545238D01*
X66509524Y-155640476D01*
X66604762Y-155688095D01*
X116257143Y-117007143D02*
X116304762Y-116959524D01*
X116352381Y-116816667D01*
X116352381Y-116721429D01*
X116304762Y-116578571D01*
X116209524Y-116483333D01*
X116114286Y-116435714D01*
X115923810Y-116388095D01*
X115780952Y-116388095D01*
X115590476Y-116435714D01*
X115495238Y-116483333D01*
X115400000Y-116578571D01*
X115352381Y-116721429D01*
X115352381Y-116816667D01*
X115400000Y-116959524D01*
X115447619Y-117007143D01*
X116352381Y-117959524D02*
X116352381Y-117388095D01*
X116352381Y-117673809D02*
X115352381Y-117673809D01*
X115495238Y-117578571D01*
X115590476Y-117483333D01*
X115638095Y-117388095D01*
X115352381Y-118816667D02*
X115352381Y-118626190D01*
X115400000Y-118530952D01*
X115447619Y-118483333D01*
X115590476Y-118388095D01*
X115780952Y-118340476D01*
X116161905Y-118340476D01*
X116257143Y-118388095D01*
X116304762Y-118435714D01*
X116352381Y-118530952D01*
X116352381Y-118721429D01*
X116304762Y-118816667D01*
X116257143Y-118864286D01*
X116161905Y-118911905D01*
X115923810Y-118911905D01*
X115828571Y-118864286D01*
X115780952Y-118816667D01*
X115733333Y-118721429D01*
X115733333Y-118530952D01*
X115780952Y-118435714D01*
X115828571Y-118388095D01*
X115923810Y-118340476D01*
X116807143Y-113757143D02*
X116854762Y-113709524D01*
X116902381Y-113566667D01*
X116902381Y-113471429D01*
X116854762Y-113328571D01*
X116759524Y-113233333D01*
X116664286Y-113185714D01*
X116473810Y-113138095D01*
X116330952Y-113138095D01*
X116140476Y-113185714D01*
X116045238Y-113233333D01*
X115950000Y-113328571D01*
X115902381Y-113471429D01*
X115902381Y-113566667D01*
X115950000Y-113709524D01*
X115997619Y-113757143D01*
X116902381Y-114709524D02*
X116902381Y-114138095D01*
X116902381Y-114423809D02*
X115902381Y-114423809D01*
X116045238Y-114328571D01*
X116140476Y-114233333D01*
X116188095Y-114138095D01*
X115902381Y-115042857D02*
X115902381Y-115709524D01*
X116902381Y-115280952D01*
X116607143Y-138157143D02*
X116654762Y-138109524D01*
X116702381Y-137966667D01*
X116702381Y-137871429D01*
X116654762Y-137728571D01*
X116559524Y-137633333D01*
X116464286Y-137585714D01*
X116273810Y-137538095D01*
X116130952Y-137538095D01*
X115940476Y-137585714D01*
X115845238Y-137633333D01*
X115750000Y-137728571D01*
X115702381Y-137871429D01*
X115702381Y-137966667D01*
X115750000Y-138109524D01*
X115797619Y-138157143D01*
X115797619Y-138538095D02*
X115750000Y-138585714D01*
X115702381Y-138680952D01*
X115702381Y-138919048D01*
X115750000Y-139014286D01*
X115797619Y-139061905D01*
X115892857Y-139109524D01*
X115988095Y-139109524D01*
X116130952Y-139061905D01*
X116702381Y-138490476D01*
X116702381Y-139109524D01*
X116702381Y-139585714D02*
X116702381Y-139776190D01*
X116654762Y-139871429D01*
X116607143Y-139919048D01*
X116464286Y-140014286D01*
X116273810Y-140061905D01*
X115892857Y-140061905D01*
X115797619Y-140014286D01*
X115750000Y-139966667D01*
X115702381Y-139871429D01*
X115702381Y-139680952D01*
X115750000Y-139585714D01*
X115797619Y-139538095D01*
X115892857Y-139490476D01*
X116130952Y-139490476D01*
X116226190Y-139538095D01*
X116273810Y-139585714D01*
X116321429Y-139680952D01*
X116321429Y-139871429D01*
X116273810Y-139966667D01*
X116226190Y-140014286D01*
X116130952Y-140061905D01*
X116757143Y-109707143D02*
X116804762Y-109659524D01*
X116852381Y-109516667D01*
X116852381Y-109421429D01*
X116804762Y-109278571D01*
X116709524Y-109183333D01*
X116614286Y-109135714D01*
X116423810Y-109088095D01*
X116280952Y-109088095D01*
X116090476Y-109135714D01*
X115995238Y-109183333D01*
X115900000Y-109278571D01*
X115852381Y-109421429D01*
X115852381Y-109516667D01*
X115900000Y-109659524D01*
X115947619Y-109707143D01*
X115852381Y-110040476D02*
X115852381Y-110659524D01*
X116233333Y-110326190D01*
X116233333Y-110469048D01*
X116280952Y-110564286D01*
X116328571Y-110611905D01*
X116423810Y-110659524D01*
X116661905Y-110659524D01*
X116757143Y-110611905D01*
X116804762Y-110564286D01*
X116852381Y-110469048D01*
X116852381Y-110183333D01*
X116804762Y-110088095D01*
X116757143Y-110040476D01*
X115852381Y-111278571D02*
X115852381Y-111373810D01*
X115900000Y-111469048D01*
X115947619Y-111516667D01*
X116042857Y-111564286D01*
X116233333Y-111611905D01*
X116471429Y-111611905D01*
X116661905Y-111564286D01*
X116757143Y-111516667D01*
X116804762Y-111469048D01*
X116852381Y-111373810D01*
X116852381Y-111278571D01*
X116804762Y-111183333D01*
X116757143Y-111135714D01*
X116661905Y-111088095D01*
X116471429Y-111040476D01*
X116233333Y-111040476D01*
X116042857Y-111088095D01*
X115947619Y-111135714D01*
X115900000Y-111183333D01*
X115852381Y-111278571D01*
X116907143Y-90757143D02*
X116954762Y-90709524D01*
X117002381Y-90566667D01*
X117002381Y-90471429D01*
X116954762Y-90328571D01*
X116859524Y-90233333D01*
X116764286Y-90185714D01*
X116573810Y-90138095D01*
X116430952Y-90138095D01*
X116240476Y-90185714D01*
X116145238Y-90233333D01*
X116050000Y-90328571D01*
X116002381Y-90471429D01*
X116002381Y-90566667D01*
X116050000Y-90709524D01*
X116097619Y-90757143D01*
X116335714Y-91614286D02*
X117002381Y-91614286D01*
X115954762Y-91376190D02*
X116669048Y-91138095D01*
X116669048Y-91757143D01*
X116097619Y-92090476D02*
X116050000Y-92138095D01*
X116002381Y-92233333D01*
X116002381Y-92471429D01*
X116050000Y-92566667D01*
X116097619Y-92614286D01*
X116192857Y-92661905D01*
X116288095Y-92661905D01*
X116430952Y-92614286D01*
X117002381Y-92042857D01*
X117002381Y-92661905D01*
X67707143Y-122657143D02*
X67754762Y-122609524D01*
X67802381Y-122466667D01*
X67802381Y-122371429D01*
X67754762Y-122228571D01*
X67659524Y-122133333D01*
X67564286Y-122085714D01*
X67373810Y-122038095D01*
X67230952Y-122038095D01*
X67040476Y-122085714D01*
X66945238Y-122133333D01*
X66850000Y-122228571D01*
X66802381Y-122371429D01*
X66802381Y-122466667D01*
X66850000Y-122609524D01*
X66897619Y-122657143D01*
X66802381Y-123514286D02*
X66802381Y-123323809D01*
X66850000Y-123228571D01*
X66897619Y-123180952D01*
X67040476Y-123085714D01*
X67230952Y-123038095D01*
X67611905Y-123038095D01*
X67707143Y-123085714D01*
X67754762Y-123133333D01*
X67802381Y-123228571D01*
X67802381Y-123419048D01*
X67754762Y-123514286D01*
X67707143Y-123561905D01*
X67611905Y-123609524D01*
X67373810Y-123609524D01*
X67278571Y-123561905D01*
X67230952Y-123514286D01*
X67183333Y-123419048D01*
X67183333Y-123228571D01*
X67230952Y-123133333D01*
X67278571Y-123085714D01*
X67373810Y-123038095D01*
X66802381Y-124466667D02*
X66802381Y-124276190D01*
X66850000Y-124180952D01*
X66897619Y-124133333D01*
X67040476Y-124038095D01*
X67230952Y-123990476D01*
X67611905Y-123990476D01*
X67707143Y-124038095D01*
X67754762Y-124085714D01*
X67802381Y-124180952D01*
X67802381Y-124371429D01*
X67754762Y-124466667D01*
X67707143Y-124514286D01*
X67611905Y-124561905D01*
X67373810Y-124561905D01*
X67278571Y-124514286D01*
X67230952Y-124466667D01*
X67183333Y-124371429D01*
X67183333Y-124180952D01*
X67230952Y-124085714D01*
X67278571Y-124038095D01*
X67373810Y-123990476D01*
X56892857Y-132207143D02*
X56940476Y-132254762D01*
X57083333Y-132302381D01*
X57178571Y-132302381D01*
X57321429Y-132254762D01*
X57416667Y-132159524D01*
X57464286Y-132064286D01*
X57511905Y-131873810D01*
X57511905Y-131730952D01*
X57464286Y-131540476D01*
X57416667Y-131445238D01*
X57321429Y-131350000D01*
X57178571Y-131302381D01*
X57083333Y-131302381D01*
X56940476Y-131350000D01*
X56892857Y-131397619D01*
X56035714Y-131302381D02*
X56226191Y-131302381D01*
X56321429Y-131350000D01*
X56369048Y-131397619D01*
X56464286Y-131540476D01*
X56511905Y-131730952D01*
X56511905Y-132111905D01*
X56464286Y-132207143D01*
X56416667Y-132254762D01*
X56321429Y-132302381D01*
X56130952Y-132302381D01*
X56035714Y-132254762D01*
X55988095Y-132207143D01*
X55940476Y-132111905D01*
X55940476Y-131873810D01*
X55988095Y-131778571D01*
X56035714Y-131730952D01*
X56130952Y-131683333D01*
X56321429Y-131683333D01*
X56416667Y-131730952D01*
X56464286Y-131778571D01*
X56511905Y-131873810D01*
X55607143Y-131302381D02*
X54940476Y-131302381D01*
X55369048Y-132302381D01*
X53807143Y-127257143D02*
X53854762Y-127209524D01*
X53902381Y-127066667D01*
X53902381Y-126971429D01*
X53854762Y-126828571D01*
X53759524Y-126733333D01*
X53664286Y-126685714D01*
X53473810Y-126638095D01*
X53330952Y-126638095D01*
X53140476Y-126685714D01*
X53045238Y-126733333D01*
X52950000Y-126828571D01*
X52902381Y-126971429D01*
X52902381Y-127066667D01*
X52950000Y-127209524D01*
X52997619Y-127257143D01*
X52902381Y-128114286D02*
X52902381Y-127923809D01*
X52950000Y-127828571D01*
X52997619Y-127780952D01*
X53140476Y-127685714D01*
X53330952Y-127638095D01*
X53711905Y-127638095D01*
X53807143Y-127685714D01*
X53854762Y-127733333D01*
X53902381Y-127828571D01*
X53902381Y-128019048D01*
X53854762Y-128114286D01*
X53807143Y-128161905D01*
X53711905Y-128209524D01*
X53473810Y-128209524D01*
X53378571Y-128161905D01*
X53330952Y-128114286D01*
X53283333Y-128019048D01*
X53283333Y-127828571D01*
X53330952Y-127733333D01*
X53378571Y-127685714D01*
X53473810Y-127638095D01*
X53330952Y-128780952D02*
X53283333Y-128685714D01*
X53235714Y-128638095D01*
X53140476Y-128590476D01*
X53092857Y-128590476D01*
X52997619Y-128638095D01*
X52950000Y-128685714D01*
X52902381Y-128780952D01*
X52902381Y-128971429D01*
X52950000Y-129066667D01*
X52997619Y-129114286D01*
X53092857Y-129161905D01*
X53140476Y-129161905D01*
X53235714Y-129114286D01*
X53283333Y-129066667D01*
X53330952Y-128971429D01*
X53330952Y-128780952D01*
X53378571Y-128685714D01*
X53426190Y-128638095D01*
X53521429Y-128590476D01*
X53711905Y-128590476D01*
X53807143Y-128638095D01*
X53854762Y-128685714D01*
X53902381Y-128780952D01*
X53902381Y-128971429D01*
X53854762Y-129066667D01*
X53807143Y-129114286D01*
X53711905Y-129161905D01*
X53521429Y-129161905D01*
X53426190Y-129114286D01*
X53378571Y-129066667D01*
X53330952Y-128971429D01*
X57592857Y-136157143D02*
X57640476Y-136204762D01*
X57783333Y-136252381D01*
X57878571Y-136252381D01*
X58021429Y-136204762D01*
X58116667Y-136109524D01*
X58164286Y-136014286D01*
X58211905Y-135823810D01*
X58211905Y-135680952D01*
X58164286Y-135490476D01*
X58116667Y-135395238D01*
X58021429Y-135300000D01*
X57878571Y-135252381D01*
X57783333Y-135252381D01*
X57640476Y-135300000D01*
X57592857Y-135347619D01*
X56735714Y-135252381D02*
X56926191Y-135252381D01*
X57021429Y-135300000D01*
X57069048Y-135347619D01*
X57164286Y-135490476D01*
X57211905Y-135680952D01*
X57211905Y-136061905D01*
X57164286Y-136157143D01*
X57116667Y-136204762D01*
X57021429Y-136252381D01*
X56830952Y-136252381D01*
X56735714Y-136204762D01*
X56688095Y-136157143D01*
X56640476Y-136061905D01*
X56640476Y-135823810D01*
X56688095Y-135728571D01*
X56735714Y-135680952D01*
X56830952Y-135633333D01*
X57021429Y-135633333D01*
X57116667Y-135680952D01*
X57164286Y-135728571D01*
X57211905Y-135823810D01*
X56164286Y-136252381D02*
X55973810Y-136252381D01*
X55878571Y-136204762D01*
X55830952Y-136157143D01*
X55735714Y-136014286D01*
X55688095Y-135823810D01*
X55688095Y-135442857D01*
X55735714Y-135347619D01*
X55783333Y-135300000D01*
X55878571Y-135252381D01*
X56069048Y-135252381D01*
X56164286Y-135300000D01*
X56211905Y-135347619D01*
X56259524Y-135442857D01*
X56259524Y-135680952D01*
X56211905Y-135776190D01*
X56164286Y-135823810D01*
X56069048Y-135871429D01*
X55878571Y-135871429D01*
X55783333Y-135823810D01*
X55735714Y-135776190D01*
X55688095Y-135680952D01*
X65807143Y-81357143D02*
X65854762Y-81309524D01*
X65902381Y-81166667D01*
X65902381Y-81071429D01*
X65854762Y-80928571D01*
X65759524Y-80833333D01*
X65664286Y-80785714D01*
X65473810Y-80738095D01*
X65330952Y-80738095D01*
X65140476Y-80785714D01*
X65045238Y-80833333D01*
X64950000Y-80928571D01*
X64902381Y-81071429D01*
X64902381Y-81166667D01*
X64950000Y-81309524D01*
X64997619Y-81357143D01*
X64902381Y-81690476D02*
X64902381Y-82357143D01*
X65902381Y-81928571D01*
X64902381Y-82928571D02*
X64902381Y-83023810D01*
X64950000Y-83119048D01*
X64997619Y-83166667D01*
X65092857Y-83214286D01*
X65283333Y-83261905D01*
X65521429Y-83261905D01*
X65711905Y-83214286D01*
X65807143Y-83166667D01*
X65854762Y-83119048D01*
X65902381Y-83023810D01*
X65902381Y-82928571D01*
X65854762Y-82833333D01*
X65807143Y-82785714D01*
X65711905Y-82738095D01*
X65521429Y-82690476D01*
X65283333Y-82690476D01*
X65092857Y-82738095D01*
X64997619Y-82785714D01*
X64950000Y-82833333D01*
X64902381Y-82928571D01*
X56792857Y-97707143D02*
X56840476Y-97754762D01*
X56983333Y-97802381D01*
X57078571Y-97802381D01*
X57221429Y-97754762D01*
X57316667Y-97659524D01*
X57364286Y-97564286D01*
X57411905Y-97373810D01*
X57411905Y-97230952D01*
X57364286Y-97040476D01*
X57316667Y-96945238D01*
X57221429Y-96850000D01*
X57078571Y-96802381D01*
X56983333Y-96802381D01*
X56840476Y-96850000D01*
X56792857Y-96897619D01*
X56459524Y-96802381D02*
X55792857Y-96802381D01*
X56221429Y-97802381D01*
X54888095Y-97802381D02*
X55459524Y-97802381D01*
X55173810Y-97802381D02*
X55173810Y-96802381D01*
X55269048Y-96945238D01*
X55364286Y-97040476D01*
X55459524Y-97088095D01*
X59592857Y-94357143D02*
X59640476Y-94404762D01*
X59783333Y-94452381D01*
X59878571Y-94452381D01*
X60021429Y-94404762D01*
X60116667Y-94309524D01*
X60164286Y-94214286D01*
X60211905Y-94023810D01*
X60211905Y-93880952D01*
X60164286Y-93690476D01*
X60116667Y-93595238D01*
X60021429Y-93500000D01*
X59878571Y-93452381D01*
X59783333Y-93452381D01*
X59640476Y-93500000D01*
X59592857Y-93547619D01*
X59259524Y-93452381D02*
X58592857Y-93452381D01*
X59021429Y-94452381D01*
X58259524Y-93547619D02*
X58211905Y-93500000D01*
X58116667Y-93452381D01*
X57878571Y-93452381D01*
X57783333Y-93500000D01*
X57735714Y-93547619D01*
X57688095Y-93642857D01*
X57688095Y-93738095D01*
X57735714Y-93880952D01*
X58307143Y-94452381D01*
X57688095Y-94452381D01*
X55242857Y-91607143D02*
X55290476Y-91654762D01*
X55433333Y-91702381D01*
X55528571Y-91702381D01*
X55671429Y-91654762D01*
X55766667Y-91559524D01*
X55814286Y-91464286D01*
X55861905Y-91273810D01*
X55861905Y-91130952D01*
X55814286Y-90940476D01*
X55766667Y-90845238D01*
X55671429Y-90750000D01*
X55528571Y-90702381D01*
X55433333Y-90702381D01*
X55290476Y-90750000D01*
X55242857Y-90797619D01*
X54909524Y-90702381D02*
X54242857Y-90702381D01*
X54671429Y-91702381D01*
X53957143Y-90702381D02*
X53338095Y-90702381D01*
X53671429Y-91083333D01*
X53528571Y-91083333D01*
X53433333Y-91130952D01*
X53385714Y-91178571D01*
X53338095Y-91273810D01*
X53338095Y-91511905D01*
X53385714Y-91607143D01*
X53433333Y-91654762D01*
X53528571Y-91702381D01*
X53814286Y-91702381D01*
X53909524Y-91654762D01*
X53957143Y-91607143D01*
X57092857Y-74107143D02*
X57140476Y-74154762D01*
X57283333Y-74202381D01*
X57378571Y-74202381D01*
X57521429Y-74154762D01*
X57616667Y-74059524D01*
X57664286Y-73964286D01*
X57711905Y-73773810D01*
X57711905Y-73630952D01*
X57664286Y-73440476D01*
X57616667Y-73345238D01*
X57521429Y-73250000D01*
X57378571Y-73202381D01*
X57283333Y-73202381D01*
X57140476Y-73250000D01*
X57092857Y-73297619D01*
X56759524Y-73202381D02*
X56092857Y-73202381D01*
X56521429Y-74202381D01*
X55283333Y-73202381D02*
X55473810Y-73202381D01*
X55569048Y-73250000D01*
X55616667Y-73297619D01*
X55711905Y-73440476D01*
X55759524Y-73630952D01*
X55759524Y-74011905D01*
X55711905Y-74107143D01*
X55664286Y-74154762D01*
X55569048Y-74202381D01*
X55378571Y-74202381D01*
X55283333Y-74154762D01*
X55235714Y-74107143D01*
X55188095Y-74011905D01*
X55188095Y-73773810D01*
X55235714Y-73678571D01*
X55283333Y-73630952D01*
X55378571Y-73583333D01*
X55569048Y-73583333D01*
X55664286Y-73630952D01*
X55711905Y-73678571D01*
X55759524Y-73773810D01*
X53992857Y-71357143D02*
X54040476Y-71404762D01*
X54183333Y-71452381D01*
X54278571Y-71452381D01*
X54421429Y-71404762D01*
X54516667Y-71309524D01*
X54564286Y-71214286D01*
X54611905Y-71023810D01*
X54611905Y-70880952D01*
X54564286Y-70690476D01*
X54516667Y-70595238D01*
X54421429Y-70500000D01*
X54278571Y-70452381D01*
X54183333Y-70452381D01*
X54040476Y-70500000D01*
X53992857Y-70547619D01*
X53659524Y-70452381D02*
X52992857Y-70452381D01*
X53421429Y-71452381D01*
X52707143Y-70452381D02*
X52040476Y-70452381D01*
X52469048Y-71452381D01*
X124952381Y-134535714D02*
X123952381Y-134535714D01*
X123952381Y-134773809D01*
X124000000Y-134916667D01*
X124095238Y-135011905D01*
X124190476Y-135059524D01*
X124380952Y-135107143D01*
X124523810Y-135107143D01*
X124714286Y-135059524D01*
X124809524Y-135011905D01*
X124904762Y-134916667D01*
X124952381Y-134773809D01*
X124952381Y-134535714D01*
X124047619Y-135488095D02*
X124000000Y-135535714D01*
X123952381Y-135630952D01*
X123952381Y-135869048D01*
X124000000Y-135964286D01*
X124047619Y-136011905D01*
X124142857Y-136059524D01*
X124238095Y-136059524D01*
X124380952Y-136011905D01*
X124952381Y-135440476D01*
X124952381Y-136059524D01*
X123952381Y-136964286D02*
X123952381Y-136488095D01*
X124428571Y-136440476D01*
X124380952Y-136488095D01*
X124333333Y-136583333D01*
X124333333Y-136821429D01*
X124380952Y-136916667D01*
X124428571Y-136964286D01*
X124523810Y-137011905D01*
X124761905Y-137011905D01*
X124857143Y-136964286D01*
X124904762Y-136916667D01*
X124952381Y-136821429D01*
X124952381Y-136583333D01*
X124904762Y-136488095D01*
X124857143Y-136440476D01*
X122202381Y-131785714D02*
X121202381Y-131785714D01*
X121202381Y-132023809D01*
X121250000Y-132166667D01*
X121345238Y-132261905D01*
X121440476Y-132309524D01*
X121630952Y-132357143D01*
X121773810Y-132357143D01*
X121964286Y-132309524D01*
X122059524Y-132261905D01*
X122154762Y-132166667D01*
X122202381Y-132023809D01*
X122202381Y-131785714D01*
X121297619Y-132738095D02*
X121250000Y-132785714D01*
X121202381Y-132880952D01*
X121202381Y-133119048D01*
X121250000Y-133214286D01*
X121297619Y-133261905D01*
X121392857Y-133309524D01*
X121488095Y-133309524D01*
X121630952Y-133261905D01*
X122202381Y-132690476D01*
X122202381Y-133309524D01*
X121202381Y-134166667D02*
X121202381Y-133976190D01*
X121250000Y-133880952D01*
X121297619Y-133833333D01*
X121440476Y-133738095D01*
X121630952Y-133690476D01*
X122011905Y-133690476D01*
X122107143Y-133738095D01*
X122154762Y-133785714D01*
X122202381Y-133880952D01*
X122202381Y-134071429D01*
X122154762Y-134166667D01*
X122107143Y-134214286D01*
X122011905Y-134261905D01*
X121773810Y-134261905D01*
X121678571Y-134214286D01*
X121630952Y-134166667D01*
X121583333Y-134071429D01*
X121583333Y-133880952D01*
X121630952Y-133785714D01*
X121678571Y-133738095D01*
X121773810Y-133690476D01*
X124952381Y-128285714D02*
X123952381Y-128285714D01*
X123952381Y-128523809D01*
X124000000Y-128666667D01*
X124095238Y-128761905D01*
X124190476Y-128809524D01*
X124380952Y-128857143D01*
X124523810Y-128857143D01*
X124714286Y-128809524D01*
X124809524Y-128761905D01*
X124904762Y-128666667D01*
X124952381Y-128523809D01*
X124952381Y-128285714D01*
X124047619Y-129238095D02*
X124000000Y-129285714D01*
X123952381Y-129380952D01*
X123952381Y-129619048D01*
X124000000Y-129714286D01*
X124047619Y-129761905D01*
X124142857Y-129809524D01*
X124238095Y-129809524D01*
X124380952Y-129761905D01*
X124952381Y-129190476D01*
X124952381Y-129809524D01*
X123952381Y-130142857D02*
X123952381Y-130809524D01*
X124952381Y-130380952D01*
X122452381Y-125285714D02*
X121452381Y-125285714D01*
X121452381Y-125523809D01*
X121500000Y-125666667D01*
X121595238Y-125761905D01*
X121690476Y-125809524D01*
X121880952Y-125857143D01*
X122023810Y-125857143D01*
X122214286Y-125809524D01*
X122309524Y-125761905D01*
X122404762Y-125666667D01*
X122452381Y-125523809D01*
X122452381Y-125285714D01*
X121547619Y-126238095D02*
X121500000Y-126285714D01*
X121452381Y-126380952D01*
X121452381Y-126619048D01*
X121500000Y-126714286D01*
X121547619Y-126761905D01*
X121642857Y-126809524D01*
X121738095Y-126809524D01*
X121880952Y-126761905D01*
X122452381Y-126190476D01*
X122452381Y-126809524D01*
X121880952Y-127380952D02*
X121833333Y-127285714D01*
X121785714Y-127238095D01*
X121690476Y-127190476D01*
X121642857Y-127190476D01*
X121547619Y-127238095D01*
X121500000Y-127285714D01*
X121452381Y-127380952D01*
X121452381Y-127571429D01*
X121500000Y-127666667D01*
X121547619Y-127714286D01*
X121642857Y-127761905D01*
X121690476Y-127761905D01*
X121785714Y-127714286D01*
X121833333Y-127666667D01*
X121880952Y-127571429D01*
X121880952Y-127380952D01*
X121928571Y-127285714D01*
X121976190Y-127238095D01*
X122071429Y-127190476D01*
X122261905Y-127190476D01*
X122357143Y-127238095D01*
X122404762Y-127285714D01*
X122452381Y-127380952D01*
X122452381Y-127571429D01*
X122404762Y-127666667D01*
X122357143Y-127714286D01*
X122261905Y-127761905D01*
X122071429Y-127761905D01*
X121976190Y-127714286D01*
X121928571Y-127666667D01*
X121880952Y-127571429D01*
X124452381Y-113285714D02*
X123452381Y-113285714D01*
X123452381Y-113523809D01*
X123500000Y-113666667D01*
X123595238Y-113761905D01*
X123690476Y-113809524D01*
X123880952Y-113857143D01*
X124023810Y-113857143D01*
X124214286Y-113809524D01*
X124309524Y-113761905D01*
X124404762Y-113666667D01*
X124452381Y-113523809D01*
X124452381Y-113285714D01*
X123547619Y-114238095D02*
X123500000Y-114285714D01*
X123452381Y-114380952D01*
X123452381Y-114619048D01*
X123500000Y-114714286D01*
X123547619Y-114761905D01*
X123642857Y-114809524D01*
X123738095Y-114809524D01*
X123880952Y-114761905D01*
X124452381Y-114190476D01*
X124452381Y-114809524D01*
X124452381Y-115285714D02*
X124452381Y-115476190D01*
X124404762Y-115571429D01*
X124357143Y-115619048D01*
X124214286Y-115714286D01*
X124023810Y-115761905D01*
X123642857Y-115761905D01*
X123547619Y-115714286D01*
X123500000Y-115666667D01*
X123452381Y-115571429D01*
X123452381Y-115380952D01*
X123500000Y-115285714D01*
X123547619Y-115238095D01*
X123642857Y-115190476D01*
X123880952Y-115190476D01*
X123976190Y-115238095D01*
X124023810Y-115285714D01*
X124071429Y-115380952D01*
X124071429Y-115571429D01*
X124023810Y-115666667D01*
X123976190Y-115714286D01*
X123880952Y-115761905D01*
X122202381Y-111285714D02*
X121202381Y-111285714D01*
X121202381Y-111523809D01*
X121250000Y-111666667D01*
X121345238Y-111761905D01*
X121440476Y-111809524D01*
X121630952Y-111857143D01*
X121773810Y-111857143D01*
X121964286Y-111809524D01*
X122059524Y-111761905D01*
X122154762Y-111666667D01*
X122202381Y-111523809D01*
X122202381Y-111285714D01*
X121202381Y-112190476D02*
X121202381Y-112809524D01*
X121583333Y-112476190D01*
X121583333Y-112619048D01*
X121630952Y-112714286D01*
X121678571Y-112761905D01*
X121773810Y-112809524D01*
X122011905Y-112809524D01*
X122107143Y-112761905D01*
X122154762Y-112714286D01*
X122202381Y-112619048D01*
X122202381Y-112333333D01*
X122154762Y-112238095D01*
X122107143Y-112190476D01*
X121202381Y-113428571D02*
X121202381Y-113523810D01*
X121250000Y-113619048D01*
X121297619Y-113666667D01*
X121392857Y-113714286D01*
X121583333Y-113761905D01*
X121821429Y-113761905D01*
X122011905Y-113714286D01*
X122107143Y-113666667D01*
X122154762Y-113619048D01*
X122202381Y-113523810D01*
X122202381Y-113428571D01*
X122154762Y-113333333D01*
X122107143Y-113285714D01*
X122011905Y-113238095D01*
X121821429Y-113190476D01*
X121583333Y-113190476D01*
X121392857Y-113238095D01*
X121297619Y-113285714D01*
X121250000Y-113333333D01*
X121202381Y-113428571D01*
X124952381Y-156285714D02*
X123952381Y-156285714D01*
X123952381Y-156523809D01*
X124000000Y-156666667D01*
X124095238Y-156761905D01*
X124190476Y-156809524D01*
X124380952Y-156857143D01*
X124523810Y-156857143D01*
X124714286Y-156809524D01*
X124809524Y-156761905D01*
X124904762Y-156666667D01*
X124952381Y-156523809D01*
X124952381Y-156285714D01*
X123952381Y-157190476D02*
X123952381Y-157809524D01*
X124333333Y-157476190D01*
X124333333Y-157619048D01*
X124380952Y-157714286D01*
X124428571Y-157761905D01*
X124523810Y-157809524D01*
X124761905Y-157809524D01*
X124857143Y-157761905D01*
X124904762Y-157714286D01*
X124952381Y-157619048D01*
X124952381Y-157333333D01*
X124904762Y-157238095D01*
X124857143Y-157190476D01*
X123952381Y-158142857D02*
X123952381Y-158809524D01*
X124952381Y-158380952D01*
X122202381Y-152785714D02*
X121202381Y-152785714D01*
X121202381Y-153023809D01*
X121250000Y-153166667D01*
X121345238Y-153261905D01*
X121440476Y-153309524D01*
X121630952Y-153357143D01*
X121773810Y-153357143D01*
X121964286Y-153309524D01*
X122059524Y-153261905D01*
X122154762Y-153166667D01*
X122202381Y-153023809D01*
X122202381Y-152785714D01*
X121202381Y-153690476D02*
X121202381Y-154309524D01*
X121583333Y-153976190D01*
X121583333Y-154119048D01*
X121630952Y-154214286D01*
X121678571Y-154261905D01*
X121773810Y-154309524D01*
X122011905Y-154309524D01*
X122107143Y-154261905D01*
X122154762Y-154214286D01*
X122202381Y-154119048D01*
X122202381Y-153833333D01*
X122154762Y-153738095D01*
X122107143Y-153690476D01*
X121630952Y-154880952D02*
X121583333Y-154785714D01*
X121535714Y-154738095D01*
X121440476Y-154690476D01*
X121392857Y-154690476D01*
X121297619Y-154738095D01*
X121250000Y-154785714D01*
X121202381Y-154880952D01*
X121202381Y-155071429D01*
X121250000Y-155166667D01*
X121297619Y-155214286D01*
X121392857Y-155261905D01*
X121440476Y-155261905D01*
X121535714Y-155214286D01*
X121583333Y-155166667D01*
X121630952Y-155071429D01*
X121630952Y-154880952D01*
X121678571Y-154785714D01*
X121726190Y-154738095D01*
X121821429Y-154690476D01*
X122011905Y-154690476D01*
X122107143Y-154738095D01*
X122154762Y-154785714D01*
X122202381Y-154880952D01*
X122202381Y-155071429D01*
X122154762Y-155166667D01*
X122107143Y-155214286D01*
X122011905Y-155261905D01*
X121821429Y-155261905D01*
X121726190Y-155214286D01*
X121678571Y-155166667D01*
X121630952Y-155071429D01*
X124952381Y-149035714D02*
X123952381Y-149035714D01*
X123952381Y-149273809D01*
X124000000Y-149416667D01*
X124095238Y-149511905D01*
X124190476Y-149559524D01*
X124380952Y-149607143D01*
X124523810Y-149607143D01*
X124714286Y-149559524D01*
X124809524Y-149511905D01*
X124904762Y-149416667D01*
X124952381Y-149273809D01*
X124952381Y-149035714D01*
X123952381Y-149940476D02*
X123952381Y-150559524D01*
X124333333Y-150226190D01*
X124333333Y-150369048D01*
X124380952Y-150464286D01*
X124428571Y-150511905D01*
X124523810Y-150559524D01*
X124761905Y-150559524D01*
X124857143Y-150511905D01*
X124904762Y-150464286D01*
X124952381Y-150369048D01*
X124952381Y-150083333D01*
X124904762Y-149988095D01*
X124857143Y-149940476D01*
X124952381Y-151035714D02*
X124952381Y-151226190D01*
X124904762Y-151321429D01*
X124857143Y-151369048D01*
X124714286Y-151464286D01*
X124523810Y-151511905D01*
X124142857Y-151511905D01*
X124047619Y-151464286D01*
X124000000Y-151416667D01*
X123952381Y-151321429D01*
X123952381Y-151130952D01*
X124000000Y-151035714D01*
X124047619Y-150988095D01*
X124142857Y-150940476D01*
X124380952Y-150940476D01*
X124476190Y-150988095D01*
X124523810Y-151035714D01*
X124571429Y-151130952D01*
X124571429Y-151321429D01*
X124523810Y-151416667D01*
X124476190Y-151464286D01*
X124380952Y-151511905D01*
X122202381Y-144785714D02*
X121202381Y-144785714D01*
X121202381Y-145023809D01*
X121250000Y-145166667D01*
X121345238Y-145261905D01*
X121440476Y-145309524D01*
X121630952Y-145357143D01*
X121773810Y-145357143D01*
X121964286Y-145309524D01*
X122059524Y-145261905D01*
X122154762Y-145166667D01*
X122202381Y-145023809D01*
X122202381Y-144785714D01*
X121535714Y-146214286D02*
X122202381Y-146214286D01*
X121154762Y-145976190D02*
X121869048Y-145738095D01*
X121869048Y-146357143D01*
X121202381Y-146928571D02*
X121202381Y-147023810D01*
X121250000Y-147119048D01*
X121297619Y-147166667D01*
X121392857Y-147214286D01*
X121583333Y-147261905D01*
X121821429Y-147261905D01*
X122011905Y-147214286D01*
X122107143Y-147166667D01*
X122154762Y-147119048D01*
X122202381Y-147023810D01*
X122202381Y-146928571D01*
X122154762Y-146833333D01*
X122107143Y-146785714D01*
X122011905Y-146738095D01*
X121821429Y-146690476D01*
X121583333Y-146690476D01*
X121392857Y-146738095D01*
X121297619Y-146785714D01*
X121250000Y-146833333D01*
X121202381Y-146928571D01*
X124952381Y-142035714D02*
X123952381Y-142035714D01*
X123952381Y-142273809D01*
X124000000Y-142416667D01*
X124095238Y-142511905D01*
X124190476Y-142559524D01*
X124380952Y-142607143D01*
X124523810Y-142607143D01*
X124714286Y-142559524D01*
X124809524Y-142511905D01*
X124904762Y-142416667D01*
X124952381Y-142273809D01*
X124952381Y-142035714D01*
X124285714Y-143464286D02*
X124952381Y-143464286D01*
X123904762Y-143226190D02*
X124619048Y-142988095D01*
X124619048Y-143607143D01*
X124952381Y-144511905D02*
X124952381Y-143940476D01*
X124952381Y-144226190D02*
X123952381Y-144226190D01*
X124095238Y-144130952D01*
X124190476Y-144035714D01*
X124238095Y-143940476D01*
X122202381Y-137035714D02*
X121202381Y-137035714D01*
X121202381Y-137273809D01*
X121250000Y-137416667D01*
X121345238Y-137511905D01*
X121440476Y-137559524D01*
X121630952Y-137607143D01*
X121773810Y-137607143D01*
X121964286Y-137559524D01*
X122059524Y-137511905D01*
X122154762Y-137416667D01*
X122202381Y-137273809D01*
X122202381Y-137035714D01*
X121535714Y-138464286D02*
X122202381Y-138464286D01*
X121154762Y-138226190D02*
X121869048Y-137988095D01*
X121869048Y-138607143D01*
X121297619Y-138940476D02*
X121250000Y-138988095D01*
X121202381Y-139083333D01*
X121202381Y-139321429D01*
X121250000Y-139416667D01*
X121297619Y-139464286D01*
X121392857Y-139511905D01*
X121488095Y-139511905D01*
X121630952Y-139464286D01*
X122202381Y-138892857D01*
X122202381Y-139511905D01*
X124452381Y-107785714D02*
X123452381Y-107785714D01*
X123452381Y-108023809D01*
X123500000Y-108166667D01*
X123595238Y-108261905D01*
X123690476Y-108309524D01*
X123880952Y-108357143D01*
X124023810Y-108357143D01*
X124214286Y-108309524D01*
X124309524Y-108261905D01*
X124404762Y-108166667D01*
X124452381Y-108023809D01*
X124452381Y-107785714D01*
X123785714Y-109214286D02*
X124452381Y-109214286D01*
X123404762Y-108976190D02*
X124119048Y-108738095D01*
X124119048Y-109357143D01*
X124452381Y-109785714D02*
X124452381Y-109976190D01*
X124404762Y-110071429D01*
X124357143Y-110119048D01*
X124214286Y-110214286D01*
X124023810Y-110261905D01*
X123642857Y-110261905D01*
X123547619Y-110214286D01*
X123500000Y-110166667D01*
X123452381Y-110071429D01*
X123452381Y-109880952D01*
X123500000Y-109785714D01*
X123547619Y-109738095D01*
X123642857Y-109690476D01*
X123880952Y-109690476D01*
X123976190Y-109738095D01*
X124023810Y-109785714D01*
X124071429Y-109880952D01*
X124071429Y-110071429D01*
X124023810Y-110166667D01*
X123976190Y-110214286D01*
X123880952Y-110261905D01*
X118202381Y-106535714D02*
X117202381Y-106535714D01*
X117202381Y-106773809D01*
X117250000Y-106916667D01*
X117345238Y-107011905D01*
X117440476Y-107059524D01*
X117630952Y-107107143D01*
X117773810Y-107107143D01*
X117964286Y-107059524D01*
X118059524Y-107011905D01*
X118154762Y-106916667D01*
X118202381Y-106773809D01*
X118202381Y-106535714D01*
X117202381Y-108011905D02*
X117202381Y-107535714D01*
X117678571Y-107488095D01*
X117630952Y-107535714D01*
X117583333Y-107630952D01*
X117583333Y-107869048D01*
X117630952Y-107964286D01*
X117678571Y-108011905D01*
X117773810Y-108059524D01*
X118011905Y-108059524D01*
X118107143Y-108011905D01*
X118154762Y-107964286D01*
X118202381Y-107869048D01*
X118202381Y-107630952D01*
X118154762Y-107535714D01*
X118107143Y-107488095D01*
X117202381Y-108678571D02*
X117202381Y-108773810D01*
X117250000Y-108869048D01*
X117297619Y-108916667D01*
X117392857Y-108964286D01*
X117583333Y-109011905D01*
X117821429Y-109011905D01*
X118011905Y-108964286D01*
X118107143Y-108916667D01*
X118154762Y-108869048D01*
X118202381Y-108773810D01*
X118202381Y-108678571D01*
X118154762Y-108583333D01*
X118107143Y-108535714D01*
X118011905Y-108488095D01*
X117821429Y-108440476D01*
X117583333Y-108440476D01*
X117392857Y-108488095D01*
X117297619Y-108535714D01*
X117250000Y-108583333D01*
X117202381Y-108678571D01*
X124452381Y-102535714D02*
X123452381Y-102535714D01*
X123452381Y-102773809D01*
X123500000Y-102916667D01*
X123595238Y-103011905D01*
X123690476Y-103059524D01*
X123880952Y-103107143D01*
X124023810Y-103107143D01*
X124214286Y-103059524D01*
X124309524Y-103011905D01*
X124404762Y-102916667D01*
X124452381Y-102773809D01*
X124452381Y-102535714D01*
X123452381Y-104011905D02*
X123452381Y-103535714D01*
X123928571Y-103488095D01*
X123880952Y-103535714D01*
X123833333Y-103630952D01*
X123833333Y-103869048D01*
X123880952Y-103964286D01*
X123928571Y-104011905D01*
X124023810Y-104059524D01*
X124261905Y-104059524D01*
X124357143Y-104011905D01*
X124404762Y-103964286D01*
X124452381Y-103869048D01*
X124452381Y-103630952D01*
X124404762Y-103535714D01*
X124357143Y-103488095D01*
X124452381Y-105011905D02*
X124452381Y-104440476D01*
X124452381Y-104726190D02*
X123452381Y-104726190D01*
X123595238Y-104630952D01*
X123690476Y-104535714D01*
X123738095Y-104440476D01*
X122202381Y-99035714D02*
X121202381Y-99035714D01*
X121202381Y-99273809D01*
X121250000Y-99416667D01*
X121345238Y-99511905D01*
X121440476Y-99559524D01*
X121630952Y-99607143D01*
X121773810Y-99607143D01*
X121964286Y-99559524D01*
X122059524Y-99511905D01*
X122154762Y-99416667D01*
X122202381Y-99273809D01*
X122202381Y-99035714D01*
X121202381Y-100511905D02*
X121202381Y-100035714D01*
X121678571Y-99988095D01*
X121630952Y-100035714D01*
X121583333Y-100130952D01*
X121583333Y-100369048D01*
X121630952Y-100464286D01*
X121678571Y-100511905D01*
X121773810Y-100559524D01*
X122011905Y-100559524D01*
X122107143Y-100511905D01*
X122154762Y-100464286D01*
X122202381Y-100369048D01*
X122202381Y-100130952D01*
X122154762Y-100035714D01*
X122107143Y-99988095D01*
X121297619Y-100940476D02*
X121250000Y-100988095D01*
X121202381Y-101083333D01*
X121202381Y-101321429D01*
X121250000Y-101416667D01*
X121297619Y-101464286D01*
X121392857Y-101511905D01*
X121488095Y-101511905D01*
X121630952Y-101464286D01*
X122202381Y-100892857D01*
X122202381Y-101511905D01*
X124452381Y-95035714D02*
X123452381Y-95035714D01*
X123452381Y-95273809D01*
X123500000Y-95416667D01*
X123595238Y-95511905D01*
X123690476Y-95559524D01*
X123880952Y-95607143D01*
X124023810Y-95607143D01*
X124214286Y-95559524D01*
X124309524Y-95511905D01*
X124404762Y-95416667D01*
X124452381Y-95273809D01*
X124452381Y-95035714D01*
X123452381Y-96511905D02*
X123452381Y-96035714D01*
X123928571Y-95988095D01*
X123880952Y-96035714D01*
X123833333Y-96130952D01*
X123833333Y-96369048D01*
X123880952Y-96464286D01*
X123928571Y-96511905D01*
X124023810Y-96559524D01*
X124261905Y-96559524D01*
X124357143Y-96511905D01*
X124404762Y-96464286D01*
X124452381Y-96369048D01*
X124452381Y-96130952D01*
X124404762Y-96035714D01*
X124357143Y-95988095D01*
X123452381Y-96892857D02*
X123452381Y-97511905D01*
X123833333Y-97178571D01*
X123833333Y-97321429D01*
X123880952Y-97416667D01*
X123928571Y-97464286D01*
X124023810Y-97511905D01*
X124261905Y-97511905D01*
X124357143Y-97464286D01*
X124404762Y-97416667D01*
X124452381Y-97321429D01*
X124452381Y-97035714D01*
X124404762Y-96940476D01*
X124357143Y-96892857D01*
X122202381Y-91035714D02*
X121202381Y-91035714D01*
X121202381Y-91273809D01*
X121250000Y-91416667D01*
X121345238Y-91511905D01*
X121440476Y-91559524D01*
X121630952Y-91607143D01*
X121773810Y-91607143D01*
X121964286Y-91559524D01*
X122059524Y-91511905D01*
X122154762Y-91416667D01*
X122202381Y-91273809D01*
X122202381Y-91035714D01*
X121202381Y-92511905D02*
X121202381Y-92035714D01*
X121678571Y-91988095D01*
X121630952Y-92035714D01*
X121583333Y-92130952D01*
X121583333Y-92369048D01*
X121630952Y-92464286D01*
X121678571Y-92511905D01*
X121773810Y-92559524D01*
X122011905Y-92559524D01*
X122107143Y-92511905D01*
X122154762Y-92464286D01*
X122202381Y-92369048D01*
X122202381Y-92130952D01*
X122154762Y-92035714D01*
X122107143Y-91988095D01*
X121535714Y-93416667D02*
X122202381Y-93416667D01*
X121154762Y-93178571D02*
X121869048Y-92940476D01*
X121869048Y-93559524D01*
M02*
