G04 #@! TF.FileFunction,Soldermask,Bot*
%FSLAX46Y46*%
G04 Gerber Fmt 4.6, Leading zero omitted, Abs format (unit mm)*
G04 Created by KiCad (PCBNEW 4.0.6) date 07/17/17 17:26:29*
%MOMM*%
%LPD*%
G01*
G04 APERTURE LIST*
%ADD10C,0.100000*%
%ADD11C,7.000000*%
%ADD12C,3.400000*%
%ADD13C,1.200000*%
%ADD14C,0.610000*%
%ADD15C,0.700000*%
%ADD16C,0.620000*%
%ADD17R,1.150000X1.200000*%
%ADD18C,6.400000*%
%ADD19O,3.600000X1.670000*%
%ADD20R,1.200000X1.150000*%
%ADD21R,1.600000X1.300000*%
%ADD22C,2.000000*%
%ADD23C,2.200000*%
G04 APERTURE END LIST*
D10*
D11*
X121500000Y-37000000D03*
X54500000Y-37000000D03*
X54500000Y-182000000D03*
X121500000Y-182000000D03*
D12*
X133500000Y-182000000D03*
X42500000Y-182000000D03*
X42500000Y-37000000D03*
D13*
X47750000Y-81700000D03*
X47750000Y-78100000D03*
X47750000Y-79300000D03*
X47750000Y-80500000D03*
X47750000Y-141350000D03*
X47750000Y-137750000D03*
X47750000Y-138950000D03*
X47750000Y-140150000D03*
X94250000Y-42250000D03*
X90650000Y-42250000D03*
X91850000Y-42250000D03*
X93050000Y-42250000D03*
X128250000Y-139550000D03*
X128250000Y-135950000D03*
X128250000Y-137150000D03*
X128250000Y-138350000D03*
X91800000Y-176750000D03*
X88200000Y-176750000D03*
X89400000Y-176750000D03*
X90600000Y-176750000D03*
D14*
X64500000Y-65750000D03*
X63200000Y-65750000D03*
X61900000Y-65750000D03*
X60600000Y-65750000D03*
X59300000Y-65750000D03*
X58000000Y-65750000D03*
X64500000Y-64450000D03*
X63200000Y-64450000D03*
X61900000Y-64450000D03*
X60600000Y-64450000D03*
X59300000Y-64450000D03*
X58000000Y-64450000D03*
X64500000Y-63150000D03*
X63200000Y-63150000D03*
X61900000Y-63150000D03*
X60600000Y-63150000D03*
X59300000Y-63150000D03*
X58000000Y-63150000D03*
X64500000Y-61850000D03*
X63200000Y-61850000D03*
X61900000Y-61850000D03*
X60600000Y-61850000D03*
X59300000Y-61850000D03*
X58000000Y-61850000D03*
X64500000Y-60550000D03*
X63200000Y-60550000D03*
X61900000Y-60550000D03*
X60600000Y-60550000D03*
X59300000Y-60550000D03*
X58000000Y-60550000D03*
X64500000Y-59250000D03*
X63200000Y-59250000D03*
X61900000Y-59250000D03*
X60600000Y-59250000D03*
X59300000Y-59250000D03*
D15*
X64500000Y-109000000D03*
X63200000Y-109000000D03*
X61900000Y-109000000D03*
X60600000Y-109000000D03*
X59300000Y-109000000D03*
X58000000Y-109000000D03*
X64500000Y-107700000D03*
X63200000Y-107700000D03*
X61900000Y-107700000D03*
X60600000Y-107700000D03*
X59300000Y-107700000D03*
X58000000Y-107700000D03*
X64500000Y-106400000D03*
X63200000Y-106400000D03*
X61900000Y-106400000D03*
X60600000Y-106400000D03*
X59300000Y-106400000D03*
X58000000Y-106400000D03*
X64500000Y-105100000D03*
X63200000Y-105100000D03*
X61900000Y-105100000D03*
X60600000Y-105100000D03*
X59300000Y-105100000D03*
X58000000Y-105100000D03*
X64500000Y-103800000D03*
X63200000Y-103800000D03*
X61900000Y-103800000D03*
X60600000Y-103800000D03*
X59300000Y-103800000D03*
X58000000Y-103800000D03*
X64500000Y-102500000D03*
X63200000Y-102500000D03*
X61900000Y-102500000D03*
X60600000Y-102500000D03*
X59300000Y-102500000D03*
D16*
X61000000Y-153250000D03*
X59700000Y-153250000D03*
X58400000Y-153250000D03*
X57100000Y-153250000D03*
X55800000Y-153250000D03*
X54500000Y-153250000D03*
X61000000Y-151950000D03*
X59700000Y-151950000D03*
X58400000Y-151950000D03*
X57100000Y-151950000D03*
X55800000Y-151950000D03*
X54500000Y-151950000D03*
X61000000Y-150650000D03*
X59700000Y-150650000D03*
X58400000Y-150650000D03*
X57100000Y-150650000D03*
X55800000Y-150650000D03*
X54500000Y-150650000D03*
X61000000Y-149350000D03*
X59700000Y-149350000D03*
X58400000Y-149350000D03*
X57100000Y-149350000D03*
X55800000Y-149350000D03*
X54500000Y-149350000D03*
X61000000Y-148050000D03*
X59700000Y-148050000D03*
X58400000Y-148050000D03*
X57100000Y-148050000D03*
X55800000Y-148050000D03*
X54500000Y-148050000D03*
X61000000Y-146750000D03*
X59700000Y-146750000D03*
X58400000Y-146750000D03*
X57100000Y-146750000D03*
X55800000Y-146750000D03*
D12*
X100890000Y-119900000D03*
X83110000Y-119900000D03*
D17*
X117500000Y-136500000D03*
X117500000Y-135000000D03*
X117500000Y-132250000D03*
X117500000Y-130750000D03*
X117500000Y-128500000D03*
X117500000Y-127000000D03*
X117500000Y-124500000D03*
X117500000Y-123000000D03*
X117500000Y-159750000D03*
X117500000Y-158250000D03*
X117500000Y-156000000D03*
X117500000Y-154500000D03*
X117500000Y-152000000D03*
X117500000Y-150500000D03*
X117500000Y-148000000D03*
X117500000Y-146500000D03*
X117500000Y-144000000D03*
X117500000Y-142500000D03*
X117750000Y-107750000D03*
X117750000Y-106250000D03*
X117750000Y-103750000D03*
X117750000Y-102250000D03*
X117750000Y-99750000D03*
X117750000Y-98250000D03*
X117750000Y-95750000D03*
X117750000Y-94250000D03*
D18*
X121770000Y-75472000D03*
X57250000Y-51600000D03*
X61750000Y-121000000D03*
X106750000Y-121000000D03*
X121750000Y-121000000D03*
X106750000Y-171000000D03*
X121750000Y-171000000D03*
X61750000Y-171000000D03*
D12*
X101890000Y-84400000D03*
X84110000Y-84400000D03*
X101890000Y-91400000D03*
X84110000Y-91400000D03*
X101890000Y-98400000D03*
X84110000Y-98400000D03*
X101890000Y-105400000D03*
X84110000Y-105400000D03*
X101890000Y-112400000D03*
X84110000Y-112400000D03*
X101890000Y-126900000D03*
X84110000Y-126900000D03*
X101890000Y-77400000D03*
X84110000Y-77400000D03*
X101890000Y-70400000D03*
X84110000Y-70400000D03*
X101890000Y-49400000D03*
X84110000Y-49400000D03*
X101890000Y-56400000D03*
X84110000Y-56400000D03*
X101890000Y-63400000D03*
X84110000Y-63400000D03*
X101890000Y-147900000D03*
X84110000Y-147900000D03*
X101890000Y-154900000D03*
X84110000Y-154900000D03*
X101890000Y-133900000D03*
X84110000Y-133900000D03*
X101890000Y-140900000D03*
X84110000Y-140900000D03*
X101890000Y-161900000D03*
X84110000Y-161900000D03*
X101490000Y-168800000D03*
X83710000Y-168800000D03*
D19*
X63930000Y-153620000D03*
X69470000Y-153620000D03*
X63930000Y-151080000D03*
X69470000Y-151080000D03*
X63930000Y-148540000D03*
X69470000Y-148540000D03*
X63930000Y-146000000D03*
X69470000Y-146000000D03*
X63930000Y-143460000D03*
X69470000Y-143460000D03*
X63930000Y-140920000D03*
X69470000Y-140920000D03*
X63930000Y-138380000D03*
X69470000Y-138380000D03*
D17*
X117250000Y-118750000D03*
X117250000Y-117250000D03*
X117750000Y-115500000D03*
X117750000Y-114000000D03*
X117500000Y-140250000D03*
X117500000Y-138750000D03*
X117750000Y-111250000D03*
X117750000Y-109750000D03*
X117750000Y-92000000D03*
X117750000Y-90500000D03*
X65850000Y-124050000D03*
X65850000Y-122550000D03*
D20*
X54750000Y-133150000D03*
X56250000Y-133150000D03*
D17*
X53400000Y-131600000D03*
X53400000Y-130100000D03*
D20*
X56200000Y-134300000D03*
X57700000Y-134300000D03*
D17*
X63950000Y-82750000D03*
X63950000Y-81250000D03*
D20*
X55200000Y-95950000D03*
X56700000Y-95950000D03*
X55300000Y-94050000D03*
X56800000Y-94050000D03*
X55350000Y-92850000D03*
X53850000Y-92850000D03*
X57000000Y-72150000D03*
X55500000Y-72150000D03*
X57000000Y-70900000D03*
X55500000Y-70900000D03*
D16*
X54500000Y-146750000D03*
D15*
X58000000Y-102500000D03*
D14*
X58000000Y-59250000D03*
D21*
X122500000Y-137400000D03*
X122500000Y-134100000D03*
X119750000Y-134650000D03*
X119750000Y-131350000D03*
X122500000Y-131150000D03*
X122500000Y-127850000D03*
X120000000Y-128150000D03*
X120000000Y-124850000D03*
X122000000Y-116150000D03*
X122000000Y-112850000D03*
X119750000Y-114150000D03*
X119750000Y-110850000D03*
X122500000Y-159150000D03*
X122500000Y-155850000D03*
X119750000Y-155650000D03*
X119750000Y-152350000D03*
X122500000Y-151900000D03*
X122500000Y-148600000D03*
X119750000Y-147650000D03*
X119750000Y-144350000D03*
X122500000Y-144900000D03*
X122500000Y-141600000D03*
X119750000Y-139900000D03*
X119750000Y-136600000D03*
X122000000Y-110650000D03*
X122000000Y-107350000D03*
X119750000Y-106100000D03*
X119750000Y-109400000D03*
X122000000Y-105400000D03*
X122000000Y-102100000D03*
X119750000Y-101900000D03*
X119750000Y-98600000D03*
X122000000Y-97900000D03*
X122000000Y-94600000D03*
X119750000Y-93900000D03*
X119750000Y-90600000D03*
D22*
X63250000Y-127000000D03*
X65790000Y-127000000D03*
X60710000Y-127000000D03*
D12*
X114750000Y-87930000D03*
X114750000Y-91890000D03*
X114750000Y-95850000D03*
X114750000Y-99810000D03*
X114750000Y-103770000D03*
X114750000Y-107730000D03*
X114750000Y-111690000D03*
X114750000Y-115650000D03*
X114750000Y-119610000D03*
X114750000Y-123570000D03*
X114750000Y-128430000D03*
X114750000Y-132390000D03*
X114750000Y-136350000D03*
X114750000Y-140310000D03*
X114750000Y-144270000D03*
X114750000Y-148230000D03*
X114750000Y-152190000D03*
X114750000Y-156150000D03*
X114750000Y-160110000D03*
X114750000Y-164070000D03*
D23*
X95240000Y-165550000D03*
X90160000Y-165550000D03*
X95540000Y-158650000D03*
X90460000Y-158650000D03*
X95540000Y-151650000D03*
X90460000Y-151650000D03*
X95540000Y-144650000D03*
X90460000Y-144650000D03*
X95540000Y-137650000D03*
X90460000Y-137650000D03*
X95540000Y-130650000D03*
X90460000Y-130650000D03*
X95540000Y-123650000D03*
X90460000Y-123650000D03*
X94540000Y-116650000D03*
X89460000Y-116650000D03*
X95540000Y-109150000D03*
X90460000Y-109150000D03*
X95540000Y-102150000D03*
X90460000Y-102150000D03*
X95540000Y-95150000D03*
X90460000Y-95150000D03*
X95540000Y-88150000D03*
X90460000Y-88150000D03*
X95540000Y-81150000D03*
X90460000Y-81150000D03*
X95540000Y-74150000D03*
X90460000Y-74150000D03*
X95540000Y-67150000D03*
X90460000Y-67150000D03*
X95540000Y-60150000D03*
X90460000Y-60150000D03*
X95590000Y-53150000D03*
X90510000Y-53150000D03*
X95540000Y-46150000D03*
X90460000Y-46150000D03*
D13*
X128250000Y-80300000D03*
X128250000Y-76700000D03*
X128250000Y-77900000D03*
X128250000Y-79100000D03*
D12*
X133500000Y-37000000D03*
M02*
