G04 #@! TF.FileFunction,Paste,Bot*
%FSLAX46Y46*%
G04 Gerber Fmt 4.6, Leading zero omitted, Abs format (unit mm)*
G04 Created by KiCad (PCBNEW 4.0.6) date 07/19/17 23:08:42*
%MOMM*%
%LPD*%
G01*
G04 APERTURE LIST*
%ADD10C,0.100000*%
%ADD11C,7.000000*%
%ADD12R,0.750000X0.800000*%
%ADD13O,3.200000X1.270000*%
%ADD14R,0.800000X0.750000*%
%ADD15R,1.200000X0.900000*%
G04 APERTURE END LIST*
D10*
D11*
X121500000Y-37000000D03*
X54500000Y-37000000D03*
X54500000Y-182000000D03*
X121500000Y-182000000D03*
D12*
X117500000Y-136500000D03*
X117500000Y-135000000D03*
X117500000Y-132250000D03*
X117500000Y-130750000D03*
X117500000Y-128500000D03*
X117500000Y-127000000D03*
X117500000Y-124500000D03*
X117500000Y-123000000D03*
X117500000Y-159750000D03*
X117500000Y-158250000D03*
X117500000Y-156000000D03*
X117500000Y-154500000D03*
X117500000Y-152000000D03*
X117500000Y-150500000D03*
X117500000Y-148000000D03*
X117500000Y-146500000D03*
X117500000Y-144000000D03*
X117500000Y-142500000D03*
X117750000Y-107750000D03*
X117750000Y-106250000D03*
X117750000Y-103750000D03*
X117750000Y-102250000D03*
X117750000Y-99750000D03*
X117750000Y-98250000D03*
X117750000Y-95750000D03*
X117750000Y-94250000D03*
D13*
X63930000Y-153620000D03*
X69470000Y-153620000D03*
X63930000Y-151080000D03*
X69470000Y-151080000D03*
X63930000Y-148540000D03*
X69470000Y-148540000D03*
X63930000Y-146000000D03*
X69470000Y-146000000D03*
X63930000Y-143460000D03*
X69470000Y-143460000D03*
X63930000Y-140920000D03*
X69470000Y-140920000D03*
X63930000Y-138380000D03*
X69470000Y-138380000D03*
D12*
X117250000Y-118750000D03*
X117250000Y-117250000D03*
X117750000Y-115500000D03*
X117750000Y-114000000D03*
X117500000Y-140250000D03*
X117500000Y-138750000D03*
X117750000Y-111250000D03*
X117750000Y-109750000D03*
X117750000Y-92000000D03*
X117750000Y-90500000D03*
X65850000Y-124050000D03*
X65850000Y-122550000D03*
D14*
X54750000Y-133150000D03*
X56250000Y-133150000D03*
D12*
X53400000Y-131600000D03*
X53400000Y-130100000D03*
D14*
X56200000Y-134300000D03*
X57700000Y-134300000D03*
D12*
X63950000Y-82750000D03*
X63950000Y-81250000D03*
D14*
X55200000Y-95950000D03*
X56700000Y-95950000D03*
X55300000Y-94050000D03*
X56800000Y-94050000D03*
X55350000Y-92850000D03*
X53850000Y-92850000D03*
X57000000Y-72150000D03*
X55500000Y-72150000D03*
X57000000Y-70900000D03*
X55500000Y-70900000D03*
D15*
X122500000Y-137400000D03*
X122500000Y-134100000D03*
X119750000Y-134650000D03*
X119750000Y-131350000D03*
X122500000Y-131150000D03*
X122500000Y-127850000D03*
X120000000Y-128150000D03*
X120000000Y-124850000D03*
X122000000Y-116150000D03*
X122000000Y-112850000D03*
X119750000Y-114150000D03*
X119750000Y-110850000D03*
X122500000Y-159150000D03*
X122500000Y-155850000D03*
X119750000Y-155650000D03*
X119750000Y-152350000D03*
X122500000Y-151900000D03*
X122500000Y-148600000D03*
X119750000Y-147650000D03*
X119750000Y-144350000D03*
X122500000Y-144900000D03*
X122500000Y-141600000D03*
X119750000Y-139900000D03*
X119750000Y-136600000D03*
X122000000Y-110650000D03*
X122000000Y-107350000D03*
X119750000Y-106100000D03*
X119750000Y-109400000D03*
X122000000Y-105400000D03*
X122000000Y-102100000D03*
X119750000Y-101900000D03*
X119750000Y-98600000D03*
X122000000Y-97900000D03*
X122000000Y-94600000D03*
X119750000Y-93900000D03*
X119750000Y-90600000D03*
M02*
