G04 #@! TF.FileFunction,Other,User*
%FSLAX46Y46*%
G04 Gerber Fmt 4.6, Leading zero omitted, Abs format (unit mm)*
G04 Created by KiCad (PCBNEW 4.0.6) date 07/19/17 23:08:42*
%MOMM*%
%LPD*%
G01*
G04 APERTURE LIST*
%ADD10C,0.100000*%
%ADD11C,0.050000*%
G04 APERTURE END LIST*
D10*
D11*
X62250000Y-50050000D02*
X62250000Y-47550000D01*
X62250000Y-50050000D02*
X63650000Y-50050000D01*
X63650000Y-47550000D02*
X62250000Y-47550000D01*
X63650000Y-47550000D02*
X63650000Y-50050000D01*
X65000000Y-92200000D02*
X62500000Y-92200000D01*
X65000000Y-92200000D02*
X65000000Y-90800000D01*
X62500000Y-90800000D02*
X62500000Y-92200000D01*
X62500000Y-90800000D02*
X65000000Y-90800000D01*
X72700000Y-68950000D02*
X72700000Y-71450000D01*
X72700000Y-68950000D02*
X71300000Y-68950000D01*
X71300000Y-71450000D02*
X72700000Y-71450000D01*
X71300000Y-71450000D02*
X71300000Y-68950000D01*
X72700000Y-145750000D02*
X72700000Y-148250000D01*
X72700000Y-145750000D02*
X71300000Y-145750000D01*
X71300000Y-148250000D02*
X72700000Y-148250000D01*
X71300000Y-148250000D02*
X71300000Y-145750000D01*
X72500000Y-54350000D02*
X72500000Y-56850000D01*
X72500000Y-54350000D02*
X71100000Y-54350000D01*
X71100000Y-56850000D02*
X72500000Y-56850000D01*
X71100000Y-56850000D02*
X71100000Y-54350000D01*
X65400000Y-137400000D02*
X62600000Y-137400000D01*
X65400000Y-137400000D02*
X65400000Y-136100000D01*
X62600000Y-136100000D02*
X62600000Y-137400000D01*
X62600000Y-136100000D02*
X65400000Y-136100000D01*
X62600000Y-138850000D02*
X65400000Y-138850000D01*
X62600000Y-138850000D02*
X62600000Y-140150000D01*
X65400000Y-140150000D02*
X65400000Y-138850000D01*
X65400000Y-140150000D02*
X62600000Y-140150000D01*
X68400000Y-55100000D02*
X68400000Y-57900000D01*
X68400000Y-55100000D02*
X67100000Y-55100000D01*
X67100000Y-57900000D02*
X68400000Y-57900000D01*
X67100000Y-57900000D02*
X67100000Y-55100000D01*
X69550000Y-132000000D02*
X72350000Y-132000000D01*
X69550000Y-132000000D02*
X69550000Y-133300000D01*
X72350000Y-133300000D02*
X72350000Y-132000000D01*
X72350000Y-133300000D02*
X69550000Y-133300000D01*
X72450000Y-128000000D02*
X72450000Y-130800000D01*
X72450000Y-128000000D02*
X71150000Y-128000000D01*
X71150000Y-130800000D02*
X72450000Y-130800000D01*
X71150000Y-130800000D02*
X71150000Y-128000000D01*
X71050000Y-120800000D02*
X71050000Y-123600000D01*
X71050000Y-120800000D02*
X69750000Y-120800000D01*
X69750000Y-123600000D02*
X71050000Y-123600000D01*
X69750000Y-123600000D02*
X69750000Y-120800000D01*
X72450000Y-113200000D02*
X72450000Y-116000000D01*
X72450000Y-113200000D02*
X71150000Y-113200000D01*
X71150000Y-116000000D02*
X72450000Y-116000000D01*
X71150000Y-116000000D02*
X71150000Y-113200000D01*
X72250000Y-106200000D02*
X72250000Y-109000000D01*
X72250000Y-106200000D02*
X70950000Y-106200000D01*
X70950000Y-109000000D02*
X72250000Y-109000000D01*
X70950000Y-109000000D02*
X70950000Y-106200000D01*
X72450000Y-99000000D02*
X72450000Y-101800000D01*
X72450000Y-99000000D02*
X71150000Y-99000000D01*
X71150000Y-101800000D02*
X72450000Y-101800000D01*
X71150000Y-101800000D02*
X71150000Y-99000000D01*
X69600000Y-88350000D02*
X72400000Y-88350000D01*
X69600000Y-88350000D02*
X69600000Y-89650000D01*
X72400000Y-89650000D02*
X72400000Y-88350000D01*
X72400000Y-89650000D02*
X69600000Y-89650000D01*
X72450000Y-85200000D02*
X72450000Y-88000000D01*
X72450000Y-85200000D02*
X71150000Y-85200000D01*
X71150000Y-88000000D02*
X72450000Y-88000000D01*
X71150000Y-88000000D02*
X71150000Y-85200000D01*
X72850000Y-78800000D02*
X72850000Y-81600000D01*
X72850000Y-78800000D02*
X71550000Y-78800000D01*
X71550000Y-81600000D02*
X72850000Y-81600000D01*
X71550000Y-81600000D02*
X71550000Y-78800000D01*
X72650000Y-71600000D02*
X72650000Y-74400000D01*
X72650000Y-71600000D02*
X71350000Y-71600000D01*
X71350000Y-74400000D02*
X72650000Y-74400000D01*
X71350000Y-74400000D02*
X71350000Y-71600000D01*
X72650000Y-64600000D02*
X72650000Y-67400000D01*
X72650000Y-64600000D02*
X71350000Y-64600000D01*
X71350000Y-67400000D02*
X72650000Y-67400000D01*
X71350000Y-67400000D02*
X71350000Y-64600000D01*
X72400000Y-56850000D02*
X72400000Y-59650000D01*
X72400000Y-56850000D02*
X71100000Y-56850000D01*
X71100000Y-59650000D02*
X72400000Y-59650000D01*
X71100000Y-59650000D02*
X71100000Y-56850000D01*
X64650000Y-157150000D02*
X61850000Y-157150000D01*
X64650000Y-157150000D02*
X64650000Y-155850000D01*
X61850000Y-155850000D02*
X61850000Y-157150000D01*
X61850000Y-155850000D02*
X64650000Y-155850000D01*
X77650000Y-172650000D02*
X74850000Y-172650000D01*
X77650000Y-172650000D02*
X77650000Y-171350000D01*
X74850000Y-171350000D02*
X74850000Y-172650000D01*
X74850000Y-171350000D02*
X77650000Y-171350000D01*
X72450000Y-169400000D02*
X72450000Y-172200000D01*
X72450000Y-169400000D02*
X71150000Y-169400000D01*
X71150000Y-172200000D02*
X72450000Y-172200000D01*
X71150000Y-172200000D02*
X71150000Y-169400000D01*
X72450000Y-162400000D02*
X72450000Y-165200000D01*
X72450000Y-162400000D02*
X71150000Y-162400000D01*
X71150000Y-165200000D02*
X72450000Y-165200000D01*
X71150000Y-165200000D02*
X71150000Y-162400000D01*
X72650000Y-155400000D02*
X72650000Y-158200000D01*
X72650000Y-155400000D02*
X71350000Y-155400000D01*
X71350000Y-158200000D02*
X72650000Y-158200000D01*
X71350000Y-158200000D02*
X71350000Y-155400000D01*
X72650000Y-148400000D02*
X72650000Y-151200000D01*
X72650000Y-148400000D02*
X71350000Y-148400000D01*
X71350000Y-151200000D02*
X72650000Y-151200000D01*
X71350000Y-151200000D02*
X71350000Y-148400000D01*
X72650000Y-141400000D02*
X72650000Y-144200000D01*
X72650000Y-141400000D02*
X71350000Y-141400000D01*
X71350000Y-144200000D02*
X72650000Y-144200000D01*
X71350000Y-144200000D02*
X71350000Y-141400000D01*
X53300000Y-137250000D02*
X53300000Y-134750000D01*
X53300000Y-137250000D02*
X54700000Y-137250000D01*
X54700000Y-134750000D02*
X53300000Y-134750000D01*
X54700000Y-134750000D02*
X54700000Y-137250000D01*
X56950000Y-134750000D02*
X56950000Y-137250000D01*
X56950000Y-134750000D02*
X55550000Y-134750000D01*
X55550000Y-137250000D02*
X56950000Y-137250000D01*
X55550000Y-137250000D02*
X55550000Y-134750000D01*
X57050000Y-137250000D02*
X57050000Y-134750000D01*
X57050000Y-137250000D02*
X58450000Y-137250000D01*
X58450000Y-134750000D02*
X57050000Y-134750000D01*
X58450000Y-134750000D02*
X58450000Y-137250000D01*
X58550000Y-137250000D02*
X58550000Y-134750000D01*
X58550000Y-137250000D02*
X59950000Y-137250000D01*
X59950000Y-134750000D02*
X58550000Y-134750000D01*
X59950000Y-134750000D02*
X59950000Y-137250000D01*
X55950000Y-91500000D02*
X55950000Y-94000000D01*
X55950000Y-91500000D02*
X54550000Y-91500000D01*
X54550000Y-94000000D02*
X55950000Y-94000000D01*
X54550000Y-94000000D02*
X54550000Y-91500000D01*
X58200000Y-91500000D02*
X58200000Y-94000000D01*
X58200000Y-91500000D02*
X56800000Y-91500000D01*
X56800000Y-94000000D02*
X58200000Y-94000000D01*
X56800000Y-94000000D02*
X56800000Y-91500000D01*
X59700000Y-91500000D02*
X59700000Y-94000000D01*
X59700000Y-91500000D02*
X58300000Y-91500000D01*
X58300000Y-94000000D02*
X59700000Y-94000000D01*
X58300000Y-94000000D02*
X58300000Y-91500000D01*
X61200000Y-91500000D02*
X61200000Y-94000000D01*
X61200000Y-91500000D02*
X59800000Y-91500000D01*
X59800000Y-94000000D02*
X61200000Y-94000000D01*
X59800000Y-94000000D02*
X59800000Y-91500000D01*
X51050000Y-118750000D02*
X51050000Y-116250000D01*
X51050000Y-118750000D02*
X52450000Y-118750000D01*
X52450000Y-116250000D02*
X51050000Y-116250000D01*
X52450000Y-116250000D02*
X52450000Y-118750000D01*
X52550000Y-118750000D02*
X52550000Y-116250000D01*
X52550000Y-118750000D02*
X53950000Y-118750000D01*
X53950000Y-116250000D02*
X52550000Y-116250000D01*
X53950000Y-116250000D02*
X53950000Y-118750000D01*
X54550000Y-118750000D02*
X54550000Y-116250000D01*
X54550000Y-118750000D02*
X55950000Y-118750000D01*
X55950000Y-116250000D02*
X54550000Y-116250000D01*
X55950000Y-116250000D02*
X55950000Y-118750000D01*
X57500000Y-116300000D02*
X60000000Y-116300000D01*
X57500000Y-116300000D02*
X57500000Y-117700000D01*
X60000000Y-117700000D02*
X60000000Y-116300000D01*
X60000000Y-117700000D02*
X57500000Y-117700000D01*
X55300000Y-75500000D02*
X55300000Y-73000000D01*
X55300000Y-75500000D02*
X56700000Y-75500000D01*
X56700000Y-73000000D02*
X55300000Y-73000000D01*
X56700000Y-73000000D02*
X56700000Y-75500000D01*
X56800000Y-75500000D02*
X56800000Y-73000000D01*
X56800000Y-75500000D02*
X58200000Y-75500000D01*
X58200000Y-73000000D02*
X56800000Y-73000000D01*
X58200000Y-73000000D02*
X58200000Y-75500000D01*
X59050000Y-75500000D02*
X59050000Y-73000000D01*
X59050000Y-75500000D02*
X60450000Y-75500000D01*
X60450000Y-73000000D02*
X59050000Y-73000000D01*
X60450000Y-73000000D02*
X60450000Y-75500000D01*
X61800000Y-75500000D02*
X61800000Y-73000000D01*
X61800000Y-75500000D02*
X63200000Y-75500000D01*
X63200000Y-73000000D02*
X61800000Y-73000000D01*
X63200000Y-73000000D02*
X63200000Y-75500000D01*
X75100000Y-128050000D02*
X75100000Y-125550000D01*
X75100000Y-128050000D02*
X76500000Y-128050000D01*
X76500000Y-125550000D02*
X75100000Y-125550000D01*
X76500000Y-125550000D02*
X76500000Y-128050000D01*
X73700000Y-120850000D02*
X73700000Y-118350000D01*
X73700000Y-120850000D02*
X75100000Y-120850000D01*
X75100000Y-118350000D02*
X73700000Y-118350000D01*
X75100000Y-118350000D02*
X75100000Y-120850000D01*
X75100000Y-113050000D02*
X75100000Y-110550000D01*
X75100000Y-113050000D02*
X76500000Y-113050000D01*
X76500000Y-110550000D02*
X75100000Y-110550000D01*
X76500000Y-110550000D02*
X76500000Y-113050000D01*
X77450000Y-171100000D02*
X74950000Y-171100000D01*
X77450000Y-171100000D02*
X77450000Y-169700000D01*
X74950000Y-169700000D02*
X74950000Y-171100000D01*
X74950000Y-169700000D02*
X77450000Y-169700000D01*
X77450000Y-164300000D02*
X74950000Y-164300000D01*
X77450000Y-164300000D02*
X77450000Y-162900000D01*
X74950000Y-162900000D02*
X74950000Y-164300000D01*
X74950000Y-162900000D02*
X77450000Y-162900000D01*
X77650000Y-157300000D02*
X75150000Y-157300000D01*
X77650000Y-157300000D02*
X77650000Y-155900000D01*
X75150000Y-155900000D02*
X75150000Y-157300000D01*
X75150000Y-155900000D02*
X77650000Y-155900000D01*
X77450000Y-150300000D02*
X74950000Y-150300000D01*
X77450000Y-150300000D02*
X77450000Y-148900000D01*
X74950000Y-148900000D02*
X74950000Y-150300000D01*
X74950000Y-148900000D02*
X77450000Y-148900000D01*
X77450000Y-143500000D02*
X74950000Y-143500000D01*
X77450000Y-143500000D02*
X77450000Y-142100000D01*
X74950000Y-142100000D02*
X74950000Y-143500000D01*
X74950000Y-142100000D02*
X77450000Y-142100000D01*
X77450000Y-136500000D02*
X74950000Y-136500000D01*
X77450000Y-136500000D02*
X77450000Y-135100000D01*
X74950000Y-135100000D02*
X74950000Y-136500000D01*
X74950000Y-135100000D02*
X77450000Y-135100000D01*
X95250000Y-172200000D02*
X92750000Y-172200000D01*
X95250000Y-172200000D02*
X95250000Y-170800000D01*
X92750000Y-170800000D02*
X92750000Y-172200000D01*
X92750000Y-170800000D02*
X95250000Y-170800000D01*
X72700000Y-166750000D02*
X72700000Y-169250000D01*
X72700000Y-166750000D02*
X71300000Y-166750000D01*
X71300000Y-169250000D02*
X72700000Y-169250000D01*
X71300000Y-169250000D02*
X71300000Y-166750000D01*
X72500000Y-159750000D02*
X72500000Y-162250000D01*
X72500000Y-159750000D02*
X71100000Y-159750000D01*
X71100000Y-162250000D02*
X72500000Y-162250000D01*
X71100000Y-162250000D02*
X71100000Y-159750000D01*
X72700000Y-152750000D02*
X72700000Y-155250000D01*
X72700000Y-152750000D02*
X71300000Y-152750000D01*
X71300000Y-155250000D02*
X72700000Y-155250000D01*
X71300000Y-155250000D02*
X71300000Y-152750000D01*
X72700000Y-138750000D02*
X72700000Y-141250000D01*
X72700000Y-138750000D02*
X71300000Y-138750000D01*
X71300000Y-141250000D02*
X72700000Y-141250000D01*
X71300000Y-141250000D02*
X71300000Y-138750000D01*
X74900000Y-106400000D02*
X74900000Y-103900000D01*
X74900000Y-106400000D02*
X76300000Y-106400000D01*
X76300000Y-103900000D02*
X74900000Y-103900000D01*
X76300000Y-103900000D02*
X76300000Y-106400000D01*
X95750000Y-164450000D02*
X93250000Y-164450000D01*
X95750000Y-164450000D02*
X95750000Y-163050000D01*
X93250000Y-163050000D02*
X93250000Y-164450000D01*
X93250000Y-163050000D02*
X95750000Y-163050000D01*
X95750000Y-157450000D02*
X93250000Y-157450000D01*
X95750000Y-157450000D02*
X95750000Y-156050000D01*
X93250000Y-156050000D02*
X93250000Y-157450000D01*
X93250000Y-156050000D02*
X95750000Y-156050000D01*
X96250000Y-150450000D02*
X93750000Y-150450000D01*
X96250000Y-150450000D02*
X96250000Y-149050000D01*
X93750000Y-149050000D02*
X93750000Y-150450000D01*
X93750000Y-149050000D02*
X96250000Y-149050000D01*
X95750000Y-143450000D02*
X93250000Y-143450000D01*
X95750000Y-143450000D02*
X95750000Y-142050000D01*
X93250000Y-142050000D02*
X93250000Y-143450000D01*
X93250000Y-142050000D02*
X95750000Y-142050000D01*
X95750000Y-136450000D02*
X93250000Y-136450000D01*
X95750000Y-136450000D02*
X95750000Y-135050000D01*
X93250000Y-135050000D02*
X93250000Y-136450000D01*
X93250000Y-135050000D02*
X95750000Y-135050000D01*
X95750000Y-129450000D02*
X93250000Y-129450000D01*
X95750000Y-129450000D02*
X95750000Y-128050000D01*
X93250000Y-128050000D02*
X93250000Y-129450000D01*
X93250000Y-128050000D02*
X95750000Y-128050000D01*
X77550000Y-129900000D02*
X75050000Y-129900000D01*
X77550000Y-129900000D02*
X77550000Y-128500000D01*
X75050000Y-128500000D02*
X75050000Y-129900000D01*
X75050000Y-128500000D02*
X77550000Y-128500000D01*
X76250000Y-122500000D02*
X73750000Y-122500000D01*
X76250000Y-122500000D02*
X76250000Y-121100000D01*
X73750000Y-121100000D02*
X73750000Y-122500000D01*
X73750000Y-121100000D02*
X76250000Y-121100000D01*
X77450000Y-114700000D02*
X74950000Y-114700000D01*
X77450000Y-114700000D02*
X77450000Y-113300000D01*
X74950000Y-113300000D02*
X74950000Y-114700000D01*
X74950000Y-113300000D02*
X77450000Y-113300000D01*
X77250000Y-108100000D02*
X74750000Y-108100000D01*
X77250000Y-108100000D02*
X77250000Y-106700000D01*
X74750000Y-106700000D02*
X74750000Y-108100000D01*
X74750000Y-106700000D02*
X77250000Y-106700000D01*
X77400000Y-100900000D02*
X74900000Y-100900000D01*
X77400000Y-100900000D02*
X77400000Y-99500000D01*
X74900000Y-99500000D02*
X74900000Y-100900000D01*
X74900000Y-99500000D02*
X77400000Y-99500000D01*
X77650000Y-93900000D02*
X75150000Y-93900000D01*
X77650000Y-93900000D02*
X77650000Y-92500000D01*
X75150000Y-92500000D02*
X75150000Y-93900000D01*
X75150000Y-92500000D02*
X77650000Y-92500000D01*
X72150000Y-134950000D02*
X69650000Y-134950000D01*
X72150000Y-134950000D02*
X72150000Y-133550000D01*
X69650000Y-133550000D02*
X69650000Y-134950000D01*
X69650000Y-133550000D02*
X72150000Y-133550000D01*
X72500000Y-125350000D02*
X72500000Y-127850000D01*
X72500000Y-125350000D02*
X71100000Y-125350000D01*
X71100000Y-127850000D02*
X72500000Y-127850000D01*
X71100000Y-127850000D02*
X71100000Y-125350000D01*
X71100000Y-118150000D02*
X71100000Y-120650000D01*
X71100000Y-118150000D02*
X69700000Y-118150000D01*
X69700000Y-120650000D02*
X71100000Y-120650000D01*
X69700000Y-120650000D02*
X69700000Y-118150000D01*
X72500000Y-110700000D02*
X72500000Y-113200000D01*
X72500000Y-110700000D02*
X71100000Y-110700000D01*
X71100000Y-113200000D02*
X72500000Y-113200000D01*
X71100000Y-113200000D02*
X71100000Y-110700000D01*
X72300000Y-103600000D02*
X72300000Y-106100000D01*
X72300000Y-103600000D02*
X70900000Y-103600000D01*
X70900000Y-106100000D02*
X72300000Y-106100000D01*
X70900000Y-106100000D02*
X70900000Y-103600000D01*
X72500000Y-96400000D02*
X72500000Y-98900000D01*
X72500000Y-96400000D02*
X71100000Y-96400000D01*
X71100000Y-98900000D02*
X72500000Y-98900000D01*
X71100000Y-98900000D02*
X71100000Y-96400000D01*
X75100000Y-99200000D02*
X75100000Y-96700000D01*
X75100000Y-99200000D02*
X76500000Y-99200000D01*
X76500000Y-96700000D02*
X75100000Y-96700000D01*
X76500000Y-96700000D02*
X76500000Y-99200000D01*
X95750000Y-122450000D02*
X93250000Y-122450000D01*
X95750000Y-122450000D02*
X95750000Y-121050000D01*
X93250000Y-121050000D02*
X93250000Y-122450000D01*
X93250000Y-121050000D02*
X95750000Y-121050000D01*
X96250000Y-114950000D02*
X93750000Y-114950000D01*
X96250000Y-114950000D02*
X96250000Y-113550000D01*
X93750000Y-113550000D02*
X93750000Y-114950000D01*
X93750000Y-113550000D02*
X96250000Y-113550000D01*
X96250000Y-107950000D02*
X93750000Y-107950000D01*
X96250000Y-107950000D02*
X96250000Y-106550000D01*
X93750000Y-106550000D02*
X93750000Y-107950000D01*
X93750000Y-106550000D02*
X96250000Y-106550000D01*
X96000000Y-100950000D02*
X93500000Y-100950000D01*
X96000000Y-100950000D02*
X96000000Y-99550000D01*
X93500000Y-99550000D02*
X93500000Y-100950000D01*
X93500000Y-99550000D02*
X96000000Y-99550000D01*
X96000000Y-93950000D02*
X93500000Y-93950000D01*
X96000000Y-93950000D02*
X96000000Y-92550000D01*
X93500000Y-92550000D02*
X93500000Y-93950000D01*
X93500000Y-92550000D02*
X96000000Y-92550000D01*
X96000000Y-86950000D02*
X93500000Y-86950000D01*
X96000000Y-86950000D02*
X96000000Y-85550000D01*
X93500000Y-85550000D02*
X93500000Y-86950000D01*
X93500000Y-85550000D02*
X96000000Y-85550000D01*
X77450000Y-87100000D02*
X74950000Y-87100000D01*
X77450000Y-87100000D02*
X77450000Y-85700000D01*
X74950000Y-85700000D02*
X74950000Y-87100000D01*
X74950000Y-85700000D02*
X77450000Y-85700000D01*
X77650000Y-80300000D02*
X75150000Y-80300000D01*
X77650000Y-80300000D02*
X77650000Y-78900000D01*
X75150000Y-78900000D02*
X75150000Y-80300000D01*
X75150000Y-78900000D02*
X77650000Y-78900000D01*
X77650000Y-73300000D02*
X75150000Y-73300000D01*
X77650000Y-73300000D02*
X77650000Y-71900000D01*
X75150000Y-71900000D02*
X75150000Y-73300000D01*
X75150000Y-71900000D02*
X77650000Y-71900000D01*
X77650000Y-66100000D02*
X75150000Y-66100000D01*
X77650000Y-66100000D02*
X77650000Y-64700000D01*
X75150000Y-64700000D02*
X75150000Y-66100000D01*
X75150000Y-64700000D02*
X77650000Y-64700000D01*
X77500000Y-58900000D02*
X75000000Y-58900000D01*
X77500000Y-58900000D02*
X77500000Y-57500000D01*
X75000000Y-57500000D02*
X75000000Y-58900000D01*
X75000000Y-57500000D02*
X77500000Y-57500000D01*
X77450000Y-51700000D02*
X74950000Y-51700000D01*
X77450000Y-51700000D02*
X77450000Y-50300000D01*
X74950000Y-50300000D02*
X74950000Y-51700000D01*
X74950000Y-50300000D02*
X77450000Y-50300000D01*
X72000000Y-91200000D02*
X69500000Y-91200000D01*
X72000000Y-91200000D02*
X72000000Y-89800000D01*
X69500000Y-89800000D02*
X69500000Y-91200000D01*
X69500000Y-89800000D02*
X72000000Y-89800000D01*
X72500000Y-82700000D02*
X72500000Y-85200000D01*
X72500000Y-82700000D02*
X71100000Y-82700000D01*
X71100000Y-85200000D02*
X72500000Y-85200000D01*
X71100000Y-85200000D02*
X71100000Y-82700000D01*
X72900000Y-76150000D02*
X72900000Y-78650000D01*
X72900000Y-76150000D02*
X71500000Y-76150000D01*
X71500000Y-78650000D02*
X72900000Y-78650000D01*
X71500000Y-78650000D02*
X71500000Y-76150000D01*
X72700000Y-61950000D02*
X72700000Y-64450000D01*
X72700000Y-61950000D02*
X71300000Y-61950000D01*
X71300000Y-64450000D02*
X72700000Y-64450000D01*
X71300000Y-64450000D02*
X71300000Y-61950000D01*
X75100000Y-92450000D02*
X75100000Y-89950000D01*
X75100000Y-92450000D02*
X76500000Y-92450000D01*
X76500000Y-89950000D02*
X75100000Y-89950000D01*
X76500000Y-89950000D02*
X76500000Y-92450000D01*
X96000000Y-79950000D02*
X93500000Y-79950000D01*
X96000000Y-79950000D02*
X96000000Y-78550000D01*
X93500000Y-78550000D02*
X93500000Y-79950000D01*
X93500000Y-78550000D02*
X96000000Y-78550000D01*
X96000000Y-72950000D02*
X93500000Y-72950000D01*
X96000000Y-72950000D02*
X96000000Y-71550000D01*
X93500000Y-71550000D02*
X93500000Y-72950000D01*
X93500000Y-71550000D02*
X96000000Y-71550000D01*
X96000000Y-65950000D02*
X93500000Y-65950000D01*
X96000000Y-65950000D02*
X96000000Y-64550000D01*
X93500000Y-64550000D02*
X93500000Y-65950000D01*
X93500000Y-64550000D02*
X96000000Y-64550000D01*
X96250000Y-58950000D02*
X93750000Y-58950000D01*
X96250000Y-58950000D02*
X96250000Y-57550000D01*
X93750000Y-57550000D02*
X93750000Y-58950000D01*
X93750000Y-57550000D02*
X96250000Y-57550000D01*
X96500000Y-51700000D02*
X94000000Y-51700000D01*
X96500000Y-51700000D02*
X96500000Y-50300000D01*
X94000000Y-50300000D02*
X94000000Y-51700000D01*
X94000000Y-50300000D02*
X96500000Y-50300000D01*
X87150000Y-46900000D02*
X84650000Y-46900000D01*
X87150000Y-46900000D02*
X87150000Y-45500000D01*
X84650000Y-45500000D02*
X84650000Y-46900000D01*
X84650000Y-45500000D02*
X87150000Y-45500000D01*
X74900000Y-169450000D02*
X74900000Y-166950000D01*
X74900000Y-169450000D02*
X76300000Y-169450000D01*
X76300000Y-166950000D02*
X74900000Y-166950000D01*
X76300000Y-166950000D02*
X76300000Y-169450000D01*
X66650000Y-95400000D02*
X63850000Y-95400000D01*
X66650000Y-95400000D02*
X66650000Y-94100000D01*
X63850000Y-94100000D02*
X63850000Y-95400000D01*
X63850000Y-94100000D02*
X66650000Y-94100000D01*
X66650000Y-94150000D02*
X63850000Y-94150000D01*
X66650000Y-94150000D02*
X66650000Y-92850000D01*
X63850000Y-92850000D02*
X63850000Y-94150000D01*
X63850000Y-92850000D02*
X66650000Y-92850000D01*
X75100000Y-162650000D02*
X75100000Y-160150000D01*
X75100000Y-162650000D02*
X76500000Y-162650000D01*
X76500000Y-160150000D02*
X75100000Y-160150000D01*
X76500000Y-160150000D02*
X76500000Y-162650000D01*
X75100000Y-155450000D02*
X75100000Y-152950000D01*
X75100000Y-155450000D02*
X76500000Y-155450000D01*
X76500000Y-152950000D02*
X75100000Y-152950000D01*
X76500000Y-152950000D02*
X76500000Y-155450000D01*
X75100000Y-148450000D02*
X75100000Y-145950000D01*
X75100000Y-148450000D02*
X76500000Y-148450000D01*
X76500000Y-145950000D02*
X75100000Y-145950000D01*
X76500000Y-145950000D02*
X76500000Y-148450000D01*
X75100000Y-141850000D02*
X75100000Y-139350000D01*
X75100000Y-141850000D02*
X76500000Y-141850000D01*
X76500000Y-139350000D02*
X75100000Y-139350000D01*
X76500000Y-139350000D02*
X76500000Y-141850000D01*
X74900000Y-134850000D02*
X74900000Y-132350000D01*
X74900000Y-134850000D02*
X76300000Y-134850000D01*
X76300000Y-132350000D02*
X74900000Y-132350000D01*
X76300000Y-132350000D02*
X76300000Y-134850000D01*
X75100000Y-85450000D02*
X75100000Y-82950000D01*
X75100000Y-85450000D02*
X76500000Y-85450000D01*
X76500000Y-82950000D02*
X75100000Y-82950000D01*
X76500000Y-82950000D02*
X76500000Y-85450000D01*
X75300000Y-78600000D02*
X75300000Y-76100000D01*
X75300000Y-78600000D02*
X76700000Y-78600000D01*
X76700000Y-76100000D02*
X75300000Y-76100000D01*
X76700000Y-76100000D02*
X76700000Y-78600000D01*
X75300000Y-71450000D02*
X75300000Y-68950000D01*
X75300000Y-71450000D02*
X76700000Y-71450000D01*
X76700000Y-68950000D02*
X75300000Y-68950000D01*
X76700000Y-68950000D02*
X76700000Y-71450000D01*
X75100000Y-64650000D02*
X75100000Y-62150000D01*
X75100000Y-64650000D02*
X76500000Y-64650000D01*
X76500000Y-62150000D02*
X75100000Y-62150000D01*
X76500000Y-62150000D02*
X76500000Y-64650000D01*
X75100000Y-57450000D02*
X75100000Y-54950000D01*
X75100000Y-57450000D02*
X76500000Y-57450000D01*
X76500000Y-54950000D02*
X75100000Y-54950000D01*
X76500000Y-54950000D02*
X76500000Y-57450000D01*
X75100000Y-50050000D02*
X75100000Y-47550000D01*
X75100000Y-50050000D02*
X76500000Y-50050000D01*
X76500000Y-47550000D02*
X75100000Y-47550000D01*
X76500000Y-47550000D02*
X76500000Y-50050000D01*
X62600000Y-140350000D02*
X65400000Y-140350000D01*
X62600000Y-140350000D02*
X62600000Y-141650000D01*
X65400000Y-141650000D02*
X65400000Y-140350000D01*
X65400000Y-141650000D02*
X62600000Y-141650000D01*
X65400000Y-138650000D02*
X62600000Y-138650000D01*
X65400000Y-138650000D02*
X65400000Y-137350000D01*
X62600000Y-137350000D02*
X62600000Y-138650000D01*
X62600000Y-137350000D02*
X65400000Y-137350000D01*
X64850000Y-97100000D02*
X67650000Y-97100000D01*
X64850000Y-97100000D02*
X64850000Y-98400000D01*
X67650000Y-98400000D02*
X67650000Y-97100000D01*
X67650000Y-98400000D02*
X64850000Y-98400000D01*
X64850000Y-95600000D02*
X67650000Y-95600000D01*
X64850000Y-95600000D02*
X64850000Y-96900000D01*
X67650000Y-96900000D02*
X67650000Y-95600000D01*
X67650000Y-96900000D02*
X64850000Y-96900000D01*
X67400000Y-54650000D02*
X64600000Y-54650000D01*
X67400000Y-54650000D02*
X67400000Y-53350000D01*
X64600000Y-53350000D02*
X64600000Y-54650000D01*
X64600000Y-53350000D02*
X67400000Y-53350000D01*
X63850000Y-50350000D02*
X66650000Y-50350000D01*
X63850000Y-50350000D02*
X63850000Y-51650000D01*
X66650000Y-51650000D02*
X66650000Y-50350000D01*
X66650000Y-51650000D02*
X63850000Y-51650000D01*
X67400000Y-53150000D02*
X64600000Y-53150000D01*
X67400000Y-53150000D02*
X67400000Y-51850000D01*
X64600000Y-51850000D02*
X64600000Y-53150000D01*
X64600000Y-51850000D02*
X67400000Y-51850000D01*
X63850000Y-48850000D02*
X66650000Y-48850000D01*
X63850000Y-48850000D02*
X63850000Y-50150000D01*
X66650000Y-50150000D02*
X66650000Y-48850000D01*
X66650000Y-50150000D02*
X63850000Y-50150000D01*
X53850000Y-55350000D02*
X56650000Y-55350000D01*
X53850000Y-55350000D02*
X53850000Y-56650000D01*
X56650000Y-56650000D02*
X56650000Y-55350000D01*
X56650000Y-56650000D02*
X53850000Y-56650000D01*
X66150000Y-69350000D02*
X66150000Y-72150000D01*
X66150000Y-69350000D02*
X64850000Y-69350000D01*
X64850000Y-72150000D02*
X66150000Y-72150000D01*
X64850000Y-72150000D02*
X64850000Y-69350000D01*
X50500000Y-140800000D02*
X53000000Y-140800000D01*
X50500000Y-140800000D02*
X50500000Y-142200000D01*
X53000000Y-142200000D02*
X53000000Y-140800000D01*
X53000000Y-142200000D02*
X50500000Y-142200000D01*
X52550000Y-108500000D02*
X52550000Y-106000000D01*
X52550000Y-108500000D02*
X53950000Y-108500000D01*
X53950000Y-106000000D02*
X52550000Y-106000000D01*
X53950000Y-106000000D02*
X53950000Y-108500000D01*
X53400000Y-67900000D02*
X55900000Y-67900000D01*
X53400000Y-67900000D02*
X53400000Y-69300000D01*
X55900000Y-69300000D02*
X55900000Y-67900000D01*
X55900000Y-69300000D02*
X53400000Y-69300000D01*
X63800000Y-145800000D02*
X63800000Y-143000000D01*
X63800000Y-145800000D02*
X65100000Y-145800000D01*
X65100000Y-143000000D02*
X63800000Y-143000000D01*
X65100000Y-143000000D02*
X65100000Y-145800000D01*
X67350000Y-101400000D02*
X67350000Y-98600000D01*
X67350000Y-101400000D02*
X68650000Y-101400000D01*
X68650000Y-98600000D02*
X67350000Y-98600000D01*
X68650000Y-98600000D02*
X68650000Y-101400000D01*
X67150000Y-114050000D02*
X64350000Y-114050000D01*
X67150000Y-114050000D02*
X67150000Y-112750000D01*
X64350000Y-112750000D02*
X64350000Y-114050000D01*
X64350000Y-112750000D02*
X67150000Y-112750000D01*
X54650000Y-143400000D02*
X51850000Y-143400000D01*
X54650000Y-143400000D02*
X54650000Y-142100000D01*
X51850000Y-142100000D02*
X51850000Y-143400000D01*
X51850000Y-142100000D02*
X54650000Y-142100000D01*
X56650000Y-100150000D02*
X53850000Y-100150000D01*
X56650000Y-100150000D02*
X56650000Y-98850000D01*
X53850000Y-98850000D02*
X53850000Y-100150000D01*
X53850000Y-98850000D02*
X56650000Y-98850000D01*
X51250000Y-138550000D02*
X53750000Y-138550000D01*
X51250000Y-138550000D02*
X51250000Y-139950000D01*
X53750000Y-139950000D02*
X53750000Y-138550000D01*
X53750000Y-139950000D02*
X51250000Y-139950000D01*
X51050000Y-107750000D02*
X51050000Y-105250000D01*
X51050000Y-107750000D02*
X52450000Y-107750000D01*
X52450000Y-105250000D02*
X51050000Y-105250000D01*
X52450000Y-105250000D02*
X52450000Y-107750000D01*
X61300000Y-132900000D02*
X61300000Y-130100000D01*
X61300000Y-132900000D02*
X62600000Y-132900000D01*
X62600000Y-130100000D02*
X61300000Y-130100000D01*
X62600000Y-130100000D02*
X62600000Y-132900000D01*
X58350000Y-163650000D02*
X58350000Y-160850000D01*
X58350000Y-163650000D02*
X59650000Y-163650000D01*
X59650000Y-160850000D02*
X58350000Y-160850000D01*
X59650000Y-160850000D02*
X59650000Y-163650000D01*
X62500000Y-89200000D02*
X62500000Y-86400000D01*
X62500000Y-89200000D02*
X63800000Y-89200000D01*
X63800000Y-86400000D02*
X62500000Y-86400000D01*
X63800000Y-86400000D02*
X63800000Y-89200000D01*
X65700000Y-118400000D02*
X65700000Y-115600000D01*
X65700000Y-118400000D02*
X67000000Y-118400000D01*
X67000000Y-115600000D02*
X65700000Y-115600000D01*
X67000000Y-115600000D02*
X67000000Y-118400000D01*
X62000000Y-47400000D02*
X62000000Y-50200000D01*
X62000000Y-47400000D02*
X60700000Y-47400000D01*
X60700000Y-50200000D02*
X62000000Y-50200000D01*
X60700000Y-50200000D02*
X60700000Y-47400000D01*
X66150000Y-76300000D02*
X66150000Y-79100000D01*
X66150000Y-76300000D02*
X64850000Y-76300000D01*
X64850000Y-79100000D02*
X66150000Y-79100000D01*
X64850000Y-79100000D02*
X64850000Y-76300000D01*
X61500000Y-133000000D02*
X64000000Y-133000000D01*
X61500000Y-133000000D02*
X61500000Y-134400000D01*
X64000000Y-134400000D02*
X64000000Y-133000000D01*
X64000000Y-134400000D02*
X61500000Y-134400000D01*
X64000000Y-135950000D02*
X61500000Y-135950000D01*
X64000000Y-135950000D02*
X64000000Y-134550000D01*
X61500000Y-134550000D02*
X61500000Y-135950000D01*
X61500000Y-134550000D02*
X64000000Y-134550000D01*
X59500000Y-160700000D02*
X57000000Y-160700000D01*
X59500000Y-160700000D02*
X59500000Y-159300000D01*
X57000000Y-159300000D02*
X57000000Y-160700000D01*
X57000000Y-159300000D02*
X59500000Y-159300000D01*
X57000000Y-157800000D02*
X59500000Y-157800000D01*
X57000000Y-157800000D02*
X57000000Y-159200000D01*
X59500000Y-159200000D02*
X59500000Y-157800000D01*
X59500000Y-159200000D02*
X57000000Y-159200000D01*
X62500000Y-89300000D02*
X65000000Y-89300000D01*
X62500000Y-89300000D02*
X62500000Y-90700000D01*
X65000000Y-90700000D02*
X65000000Y-89300000D01*
X65000000Y-90700000D02*
X62500000Y-90700000D01*
X65650000Y-115750000D02*
X65650000Y-118250000D01*
X65650000Y-115750000D02*
X64250000Y-115750000D01*
X64250000Y-118250000D02*
X65650000Y-118250000D01*
X64250000Y-118250000D02*
X64250000Y-115750000D01*
X62650000Y-116250000D02*
X62650000Y-113750000D01*
X62650000Y-116250000D02*
X64050000Y-116250000D01*
X64050000Y-113750000D02*
X62650000Y-113750000D01*
X64050000Y-113750000D02*
X64050000Y-116250000D01*
X60900000Y-50300000D02*
X63400000Y-50300000D01*
X60900000Y-50300000D02*
X60900000Y-51700000D01*
X63400000Y-51700000D02*
X63400000Y-50300000D01*
X63400000Y-51700000D02*
X60900000Y-51700000D01*
X63400000Y-53300000D02*
X60900000Y-53300000D01*
X63400000Y-53300000D02*
X63400000Y-51900000D01*
X60900000Y-51900000D02*
X60900000Y-53300000D01*
X60900000Y-51900000D02*
X63400000Y-51900000D01*
X66000000Y-76250000D02*
X63500000Y-76250000D01*
X66000000Y-76250000D02*
X66000000Y-74850000D01*
X63500000Y-74850000D02*
X63500000Y-76250000D01*
X63500000Y-74850000D02*
X66000000Y-74850000D01*
X63500000Y-73300000D02*
X66000000Y-73300000D01*
X63500000Y-73300000D02*
X63500000Y-74700000D01*
X66000000Y-74700000D02*
X66000000Y-73300000D01*
X66000000Y-74700000D02*
X63500000Y-74700000D01*
X62800000Y-133000000D02*
X62800000Y-130500000D01*
X62800000Y-133000000D02*
X64200000Y-133000000D01*
X64200000Y-130500000D02*
X62800000Y-130500000D01*
X64200000Y-130500000D02*
X64200000Y-133000000D01*
X56800000Y-163500000D02*
X56800000Y-161000000D01*
X56800000Y-163500000D02*
X58200000Y-163500000D01*
X58200000Y-161000000D02*
X56800000Y-161000000D01*
X58200000Y-161000000D02*
X58200000Y-163500000D01*
X63850000Y-89050000D02*
X63850000Y-86550000D01*
X63850000Y-89050000D02*
X65250000Y-89050000D01*
X65250000Y-86550000D02*
X63850000Y-86550000D01*
X65250000Y-86550000D02*
X65250000Y-89050000D01*
X67050000Y-118550000D02*
X67050000Y-121050000D01*
X67050000Y-118550000D02*
X65650000Y-118550000D01*
X65650000Y-121050000D02*
X67050000Y-121050000D01*
X65650000Y-121050000D02*
X65650000Y-118550000D01*
X63300000Y-78850000D02*
X63300000Y-76350000D01*
X63300000Y-78850000D02*
X64700000Y-78850000D01*
X64700000Y-76350000D02*
X63300000Y-76350000D01*
X64700000Y-76350000D02*
X64700000Y-78850000D01*
X111000000Y-173200000D02*
X111000000Y-170400000D01*
X111000000Y-173200000D02*
X112300000Y-173200000D01*
X112300000Y-170400000D02*
X111000000Y-170400000D01*
X112300000Y-170400000D02*
X112300000Y-173200000D01*
X115850000Y-173800000D02*
X115850000Y-171000000D01*
X115850000Y-173800000D02*
X117150000Y-173800000D01*
X117150000Y-171000000D02*
X115850000Y-171000000D01*
X117150000Y-171000000D02*
X117150000Y-173800000D01*
X66250000Y-163900000D02*
X68750000Y-163900000D01*
X66250000Y-163900000D02*
X66250000Y-165300000D01*
X68750000Y-165300000D02*
X68750000Y-163900000D01*
X68750000Y-165300000D02*
X66250000Y-165300000D01*
X58950000Y-122800000D02*
X58950000Y-125600000D01*
X58950000Y-122800000D02*
X57650000Y-122800000D01*
X57650000Y-125600000D02*
X58950000Y-125600000D01*
X57650000Y-125600000D02*
X57650000Y-122800000D01*
X57550000Y-122800000D02*
X57550000Y-125600000D01*
X57550000Y-122800000D02*
X56250000Y-122800000D01*
X56250000Y-125600000D02*
X57550000Y-125600000D01*
X56250000Y-125600000D02*
X56250000Y-122800000D01*
X79750000Y-166650000D02*
X81450000Y-166650000D01*
X81450000Y-166650000D02*
X81450000Y-170550000D01*
X81450000Y-170550000D02*
X79750000Y-170550000D01*
X79750000Y-170550000D02*
X79750000Y-166650000D01*
X80050000Y-159600000D02*
X81750000Y-159600000D01*
X81750000Y-159600000D02*
X81750000Y-163500000D01*
X81750000Y-163500000D02*
X80050000Y-163500000D01*
X80050000Y-163500000D02*
X80050000Y-159600000D01*
X80050000Y-152700000D02*
X81750000Y-152700000D01*
X81750000Y-152700000D02*
X81750000Y-156600000D01*
X81750000Y-156600000D02*
X80050000Y-156600000D01*
X80050000Y-156600000D02*
X80050000Y-152700000D01*
X80150000Y-145700000D02*
X81850000Y-145700000D01*
X81850000Y-145700000D02*
X81850000Y-149600000D01*
X81850000Y-149600000D02*
X80150000Y-149600000D01*
X80150000Y-149600000D02*
X80150000Y-145700000D01*
X80050000Y-138800000D02*
X81750000Y-138800000D01*
X81750000Y-138800000D02*
X81750000Y-142700000D01*
X81750000Y-142700000D02*
X80050000Y-142700000D01*
X80050000Y-142700000D02*
X80050000Y-138800000D01*
X80050000Y-131700000D02*
X81750000Y-131700000D01*
X81750000Y-131700000D02*
X81750000Y-135600000D01*
X81750000Y-135600000D02*
X80050000Y-135600000D01*
X80050000Y-135600000D02*
X80050000Y-131700000D01*
X80050000Y-124700000D02*
X81750000Y-124700000D01*
X81750000Y-124700000D02*
X81750000Y-128600000D01*
X81750000Y-128600000D02*
X80050000Y-128600000D01*
X80050000Y-128600000D02*
X80050000Y-124700000D01*
X78750000Y-117650000D02*
X80450000Y-117650000D01*
X80450000Y-117650000D02*
X80450000Y-121550000D01*
X80450000Y-121550000D02*
X78750000Y-121550000D01*
X78750000Y-121550000D02*
X78750000Y-117650000D01*
X80050000Y-110200000D02*
X81750000Y-110200000D01*
X81750000Y-110200000D02*
X81750000Y-114100000D01*
X81750000Y-114100000D02*
X80050000Y-114100000D01*
X80050000Y-114100000D02*
X80050000Y-110200000D01*
X80050000Y-103300000D02*
X81750000Y-103300000D01*
X81750000Y-103300000D02*
X81750000Y-107200000D01*
X81750000Y-107200000D02*
X80050000Y-107200000D01*
X80050000Y-107200000D02*
X80050000Y-103300000D01*
X80050000Y-96300000D02*
X81750000Y-96300000D01*
X81750000Y-96300000D02*
X81750000Y-100200000D01*
X81750000Y-100200000D02*
X80050000Y-100200000D01*
X80050000Y-100200000D02*
X80050000Y-96300000D01*
X80150000Y-89300000D02*
X81850000Y-89300000D01*
X81850000Y-89300000D02*
X81850000Y-93200000D01*
X81850000Y-93200000D02*
X80150000Y-93200000D01*
X80150000Y-93200000D02*
X80150000Y-89300000D01*
X80050000Y-82300000D02*
X81750000Y-82300000D01*
X81750000Y-82300000D02*
X81750000Y-86200000D01*
X81750000Y-86200000D02*
X80050000Y-86200000D01*
X80050000Y-86200000D02*
X80050000Y-82300000D01*
X80150000Y-75400000D02*
X81850000Y-75400000D01*
X81850000Y-75400000D02*
X81850000Y-79300000D01*
X81850000Y-79300000D02*
X80150000Y-79300000D01*
X80150000Y-79300000D02*
X80150000Y-75400000D01*
X80150000Y-68400000D02*
X81850000Y-68400000D01*
X81850000Y-68400000D02*
X81850000Y-72300000D01*
X81850000Y-72300000D02*
X80150000Y-72300000D01*
X80150000Y-72300000D02*
X80150000Y-68400000D01*
X80050000Y-61300000D02*
X81750000Y-61300000D01*
X81750000Y-61300000D02*
X81750000Y-65200000D01*
X81750000Y-65200000D02*
X80050000Y-65200000D01*
X80050000Y-65200000D02*
X80050000Y-61300000D01*
X80050000Y-54300000D02*
X81750000Y-54300000D01*
X81750000Y-54300000D02*
X81750000Y-58200000D01*
X81750000Y-58200000D02*
X80050000Y-58200000D01*
X80050000Y-58200000D02*
X80050000Y-54300000D01*
X79950000Y-46400000D02*
X81650000Y-46400000D01*
X81650000Y-46400000D02*
X81650000Y-50300000D01*
X81650000Y-50300000D02*
X79950000Y-50300000D01*
X79950000Y-50300000D02*
X79950000Y-46400000D01*
X72650000Y-129950000D02*
X72650000Y-125250000D01*
X72650000Y-125250000D02*
X74950000Y-125250000D01*
X74950000Y-125250000D02*
X74950000Y-129950000D01*
X72650000Y-129950000D02*
X74950000Y-129950000D01*
X71250000Y-122750000D02*
X71250000Y-118050000D01*
X71250000Y-118050000D02*
X73550000Y-118050000D01*
X73550000Y-118050000D02*
X73550000Y-122750000D01*
X71250000Y-122750000D02*
X73550000Y-122750000D01*
X72650000Y-115350000D02*
X72650000Y-110650000D01*
X72650000Y-110650000D02*
X74950000Y-110650000D01*
X74950000Y-110650000D02*
X74950000Y-115350000D01*
X72650000Y-115350000D02*
X74950000Y-115350000D01*
X72450000Y-108100000D02*
X72450000Y-103400000D01*
X72450000Y-103400000D02*
X74750000Y-103400000D01*
X74750000Y-103400000D02*
X74750000Y-108100000D01*
X72450000Y-108100000D02*
X74750000Y-108100000D01*
X72650000Y-100900000D02*
X72650000Y-96200000D01*
X72650000Y-96200000D02*
X74950000Y-96200000D01*
X74950000Y-96200000D02*
X74950000Y-100900000D01*
X72650000Y-100900000D02*
X74950000Y-100900000D01*
X72650000Y-94550000D02*
X72650000Y-89850000D01*
X72650000Y-89850000D02*
X74950000Y-89850000D01*
X74950000Y-89850000D02*
X74950000Y-94550000D01*
X72650000Y-94550000D02*
X74950000Y-94550000D01*
X72650000Y-171150000D02*
X72650000Y-166450000D01*
X72650000Y-166450000D02*
X74950000Y-166450000D01*
X74950000Y-166450000D02*
X74950000Y-171150000D01*
X72650000Y-171150000D02*
X74950000Y-171150000D01*
X72650000Y-164350000D02*
X72650000Y-159650000D01*
X72650000Y-159650000D02*
X74950000Y-159650000D01*
X74950000Y-159650000D02*
X74950000Y-164350000D01*
X72650000Y-164350000D02*
X74950000Y-164350000D01*
X72850000Y-157350000D02*
X72850000Y-152650000D01*
X72850000Y-152650000D02*
X75150000Y-152650000D01*
X75150000Y-152650000D02*
X75150000Y-157350000D01*
X72850000Y-157350000D02*
X75150000Y-157350000D01*
X72650000Y-150350000D02*
X72650000Y-145650000D01*
X72650000Y-145650000D02*
X74950000Y-145650000D01*
X74950000Y-145650000D02*
X74950000Y-150350000D01*
X72650000Y-150350000D02*
X74950000Y-150350000D01*
X72650000Y-143550000D02*
X72650000Y-138850000D01*
X72650000Y-138850000D02*
X74950000Y-138850000D01*
X74950000Y-138850000D02*
X74950000Y-143550000D01*
X72650000Y-143550000D02*
X74950000Y-143550000D01*
X72450000Y-136750000D02*
X72450000Y-132050000D01*
X72450000Y-132050000D02*
X74750000Y-132050000D01*
X74750000Y-132050000D02*
X74750000Y-136750000D01*
X72450000Y-136750000D02*
X74750000Y-136750000D01*
X72650000Y-87550000D02*
X72650000Y-82850000D01*
X72650000Y-82850000D02*
X74950000Y-82850000D01*
X74950000Y-82850000D02*
X74950000Y-87550000D01*
X72650000Y-87550000D02*
X74950000Y-87550000D01*
X72850000Y-80800000D02*
X72850000Y-76100000D01*
X72850000Y-76100000D02*
X75150000Y-76100000D01*
X75150000Y-76100000D02*
X75150000Y-80800000D01*
X72850000Y-80800000D02*
X75150000Y-80800000D01*
X72850000Y-73550000D02*
X72850000Y-68850000D01*
X72850000Y-68850000D02*
X75150000Y-68850000D01*
X75150000Y-68850000D02*
X75150000Y-73550000D01*
X72850000Y-73550000D02*
X75150000Y-73550000D01*
X72850000Y-66350000D02*
X72850000Y-61650000D01*
X72850000Y-61650000D02*
X75150000Y-61650000D01*
X75150000Y-61650000D02*
X75150000Y-66350000D01*
X72850000Y-66350000D02*
X75150000Y-66350000D01*
X72650000Y-59150000D02*
X72650000Y-54450000D01*
X72650000Y-54450000D02*
X74950000Y-54450000D01*
X74950000Y-54450000D02*
X74950000Y-59150000D01*
X72650000Y-59150000D02*
X74950000Y-59150000D01*
X72650000Y-51700000D02*
X72650000Y-47000000D01*
X72650000Y-47000000D02*
X74950000Y-47000000D01*
X74950000Y-47000000D02*
X74950000Y-51700000D01*
X72650000Y-51700000D02*
X74950000Y-51700000D01*
X66200000Y-162700000D02*
X66200000Y-166800000D01*
X66200000Y-162700000D02*
X62800000Y-162700000D01*
X62800000Y-166800000D02*
X66200000Y-166800000D01*
X62800000Y-166800000D02*
X62800000Y-162700000D01*
M02*
