G04 #@! TF.FileFunction,Copper,L2,Bot,Signal*
%FSLAX46Y46*%
G04 Gerber Fmt 4.6, Leading zero omitted, Abs format (unit mm)*
G04 Created by KiCad (PCBNEW 4.0.6) date 07/17/17 17:26:29*
%MOMM*%
%LPD*%
G01*
G04 APERTURE LIST*
%ADD10C,0.100000*%
%ADD11C,1.000000*%
%ADD12C,3.000000*%
%ADD13C,0.800000*%
%ADD14C,0.210000*%
%ADD15C,0.300000*%
%ADD16C,0.220000*%
%ADD17R,0.750000X0.800000*%
%ADD18C,6.000000*%
%ADD19O,3.200000X1.270000*%
%ADD20R,0.800000X0.750000*%
%ADD21R,1.200000X0.900000*%
%ADD22C,1.600000*%
%ADD23C,1.800000*%
%ADD24C,0.685800*%
%ADD25C,0.250000*%
%ADD26C,1.200000*%
%ADD27C,0.254000*%
G04 APERTURE END LIST*
D10*
D11*
X121500000Y-37000000D03*
X54500000Y-37000000D03*
X54500000Y-182000000D03*
X121500000Y-182000000D03*
D12*
X133500000Y-182000000D03*
X42500000Y-182000000D03*
X42500000Y-37000000D03*
D13*
X47750000Y-81700000D03*
X47750000Y-78100000D03*
X47750000Y-79300000D03*
X47750000Y-80500000D03*
X47750000Y-141350000D03*
X47750000Y-137750000D03*
X47750000Y-138950000D03*
X47750000Y-140150000D03*
X94250000Y-42250000D03*
X90650000Y-42250000D03*
X91850000Y-42250000D03*
X93050000Y-42250000D03*
X128250000Y-139550000D03*
X128250000Y-135950000D03*
X128250000Y-137150000D03*
X128250000Y-138350000D03*
X91800000Y-176750000D03*
X88200000Y-176750000D03*
X89400000Y-176750000D03*
X90600000Y-176750000D03*
D14*
X64500000Y-65750000D03*
X63200000Y-65750000D03*
X61900000Y-65750000D03*
X60600000Y-65750000D03*
X59300000Y-65750000D03*
X58000000Y-65750000D03*
X64500000Y-64450000D03*
X63200000Y-64450000D03*
X61900000Y-64450000D03*
X60600000Y-64450000D03*
X59300000Y-64450000D03*
X58000000Y-64450000D03*
X64500000Y-63150000D03*
X63200000Y-63150000D03*
X61900000Y-63150000D03*
X60600000Y-63150000D03*
X59300000Y-63150000D03*
X58000000Y-63150000D03*
X64500000Y-61850000D03*
X63200000Y-61850000D03*
X61900000Y-61850000D03*
X60600000Y-61850000D03*
X59300000Y-61850000D03*
X58000000Y-61850000D03*
X64500000Y-60550000D03*
X63200000Y-60550000D03*
X61900000Y-60550000D03*
X60600000Y-60550000D03*
X59300000Y-60550000D03*
X58000000Y-60550000D03*
X64500000Y-59250000D03*
X63200000Y-59250000D03*
X61900000Y-59250000D03*
X60600000Y-59250000D03*
X59300000Y-59250000D03*
D15*
X64500000Y-109000000D03*
X63200000Y-109000000D03*
X61900000Y-109000000D03*
X60600000Y-109000000D03*
X59300000Y-109000000D03*
X58000000Y-109000000D03*
X64500000Y-107700000D03*
X63200000Y-107700000D03*
X61900000Y-107700000D03*
X60600000Y-107700000D03*
X59300000Y-107700000D03*
X58000000Y-107700000D03*
X64500000Y-106400000D03*
X63200000Y-106400000D03*
X61900000Y-106400000D03*
X60600000Y-106400000D03*
X59300000Y-106400000D03*
X58000000Y-106400000D03*
X64500000Y-105100000D03*
X63200000Y-105100000D03*
X61900000Y-105100000D03*
X60600000Y-105100000D03*
X59300000Y-105100000D03*
X58000000Y-105100000D03*
X64500000Y-103800000D03*
X63200000Y-103800000D03*
X61900000Y-103800000D03*
X60600000Y-103800000D03*
X59300000Y-103800000D03*
X58000000Y-103800000D03*
X64500000Y-102500000D03*
X63200000Y-102500000D03*
X61900000Y-102500000D03*
X60600000Y-102500000D03*
X59300000Y-102500000D03*
D16*
X61000000Y-153250000D03*
X59700000Y-153250000D03*
X58400000Y-153250000D03*
X57100000Y-153250000D03*
X55800000Y-153250000D03*
X54500000Y-153250000D03*
X61000000Y-151950000D03*
X59700000Y-151950000D03*
X58400000Y-151950000D03*
X57100000Y-151950000D03*
X55800000Y-151950000D03*
X54500000Y-151950000D03*
X61000000Y-150650000D03*
X59700000Y-150650000D03*
X58400000Y-150650000D03*
X57100000Y-150650000D03*
X55800000Y-150650000D03*
X54500000Y-150650000D03*
X61000000Y-149350000D03*
X59700000Y-149350000D03*
X58400000Y-149350000D03*
X57100000Y-149350000D03*
X55800000Y-149350000D03*
X54500000Y-149350000D03*
X61000000Y-148050000D03*
X59700000Y-148050000D03*
X58400000Y-148050000D03*
X57100000Y-148050000D03*
X55800000Y-148050000D03*
X54500000Y-148050000D03*
X61000000Y-146750000D03*
X59700000Y-146750000D03*
X58400000Y-146750000D03*
X57100000Y-146750000D03*
X55800000Y-146750000D03*
D12*
X100890000Y-119900000D03*
X83110000Y-119900000D03*
D17*
X117500000Y-136500000D03*
X117500000Y-135000000D03*
X117500000Y-132250000D03*
X117500000Y-130750000D03*
X117500000Y-128500000D03*
X117500000Y-127000000D03*
X117500000Y-124500000D03*
X117500000Y-123000000D03*
X117500000Y-159750000D03*
X117500000Y-158250000D03*
X117500000Y-156000000D03*
X117500000Y-154500000D03*
X117500000Y-152000000D03*
X117500000Y-150500000D03*
X117500000Y-148000000D03*
X117500000Y-146500000D03*
X117500000Y-144000000D03*
X117500000Y-142500000D03*
X117750000Y-107750000D03*
X117750000Y-106250000D03*
X117750000Y-103750000D03*
X117750000Y-102250000D03*
X117750000Y-99750000D03*
X117750000Y-98250000D03*
X117750000Y-95750000D03*
X117750000Y-94250000D03*
D18*
X121770000Y-75472000D03*
X57250000Y-51600000D03*
X61750000Y-121000000D03*
X106750000Y-121000000D03*
X121750000Y-121000000D03*
X106750000Y-171000000D03*
X121750000Y-171000000D03*
X61750000Y-171000000D03*
D12*
X101890000Y-84400000D03*
X84110000Y-84400000D03*
X101890000Y-91400000D03*
X84110000Y-91400000D03*
X101890000Y-98400000D03*
X84110000Y-98400000D03*
X101890000Y-105400000D03*
X84110000Y-105400000D03*
X101890000Y-112400000D03*
X84110000Y-112400000D03*
X101890000Y-126900000D03*
X84110000Y-126900000D03*
X101890000Y-77400000D03*
X84110000Y-77400000D03*
X101890000Y-70400000D03*
X84110000Y-70400000D03*
X101890000Y-49400000D03*
X84110000Y-49400000D03*
X101890000Y-56400000D03*
X84110000Y-56400000D03*
X101890000Y-63400000D03*
X84110000Y-63400000D03*
X101890000Y-147900000D03*
X84110000Y-147900000D03*
X101890000Y-154900000D03*
X84110000Y-154900000D03*
X101890000Y-133900000D03*
X84110000Y-133900000D03*
X101890000Y-140900000D03*
X84110000Y-140900000D03*
X101890000Y-161900000D03*
X84110000Y-161900000D03*
X101490000Y-168800000D03*
X83710000Y-168800000D03*
D19*
X63930000Y-153620000D03*
X69470000Y-153620000D03*
X63930000Y-151080000D03*
X69470000Y-151080000D03*
X63930000Y-148540000D03*
X69470000Y-148540000D03*
X63930000Y-146000000D03*
X69470000Y-146000000D03*
X63930000Y-143460000D03*
X69470000Y-143460000D03*
X63930000Y-140920000D03*
X69470000Y-140920000D03*
X63930000Y-138380000D03*
X69470000Y-138380000D03*
D17*
X117250000Y-118750000D03*
X117250000Y-117250000D03*
X117750000Y-115500000D03*
X117750000Y-114000000D03*
X117500000Y-140250000D03*
X117500000Y-138750000D03*
X117750000Y-111250000D03*
X117750000Y-109750000D03*
X117750000Y-92000000D03*
X117750000Y-90500000D03*
X65850000Y-124050000D03*
X65850000Y-122550000D03*
D20*
X54750000Y-133150000D03*
X56250000Y-133150000D03*
D17*
X53400000Y-131600000D03*
X53400000Y-130100000D03*
D20*
X56200000Y-134300000D03*
X57700000Y-134300000D03*
D17*
X63950000Y-82750000D03*
X63950000Y-81250000D03*
D20*
X55200000Y-95950000D03*
X56700000Y-95950000D03*
X55300000Y-94050000D03*
X56800000Y-94050000D03*
X55350000Y-92850000D03*
X53850000Y-92850000D03*
X57000000Y-72150000D03*
X55500000Y-72150000D03*
X57000000Y-70900000D03*
X55500000Y-70900000D03*
D16*
X54500000Y-146750000D03*
D15*
X58000000Y-102500000D03*
D14*
X58000000Y-59250000D03*
D21*
X122500000Y-137400000D03*
X122500000Y-134100000D03*
X119750000Y-134650000D03*
X119750000Y-131350000D03*
X122500000Y-131150000D03*
X122500000Y-127850000D03*
X120000000Y-128150000D03*
X120000000Y-124850000D03*
X122000000Y-116150000D03*
X122000000Y-112850000D03*
X119750000Y-114150000D03*
X119750000Y-110850000D03*
X122500000Y-159150000D03*
X122500000Y-155850000D03*
X119750000Y-155650000D03*
X119750000Y-152350000D03*
X122500000Y-151900000D03*
X122500000Y-148600000D03*
X119750000Y-147650000D03*
X119750000Y-144350000D03*
X122500000Y-144900000D03*
X122500000Y-141600000D03*
X119750000Y-139900000D03*
X119750000Y-136600000D03*
X122000000Y-110650000D03*
X122000000Y-107350000D03*
X119750000Y-106100000D03*
X119750000Y-109400000D03*
X122000000Y-105400000D03*
X122000000Y-102100000D03*
X119750000Y-101900000D03*
X119750000Y-98600000D03*
X122000000Y-97900000D03*
X122000000Y-94600000D03*
X119750000Y-93900000D03*
X119750000Y-90600000D03*
D22*
X63250000Y-127000000D03*
X65790000Y-127000000D03*
X60710000Y-127000000D03*
D12*
X114750000Y-87930000D03*
X114750000Y-91890000D03*
X114750000Y-95850000D03*
X114750000Y-99810000D03*
X114750000Y-103770000D03*
X114750000Y-107730000D03*
X114750000Y-111690000D03*
X114750000Y-115650000D03*
X114750000Y-119610000D03*
X114750000Y-123570000D03*
X114750000Y-128430000D03*
X114750000Y-132390000D03*
X114750000Y-136350000D03*
X114750000Y-140310000D03*
X114750000Y-144270000D03*
X114750000Y-148230000D03*
X114750000Y-152190000D03*
X114750000Y-156150000D03*
X114750000Y-160110000D03*
X114750000Y-164070000D03*
D23*
X95240000Y-165550000D03*
X90160000Y-165550000D03*
X95540000Y-158650000D03*
X90460000Y-158650000D03*
X95540000Y-151650000D03*
X90460000Y-151650000D03*
X95540000Y-144650000D03*
X90460000Y-144650000D03*
X95540000Y-137650000D03*
X90460000Y-137650000D03*
X95540000Y-130650000D03*
X90460000Y-130650000D03*
X95540000Y-123650000D03*
X90460000Y-123650000D03*
X94540000Y-116650000D03*
X89460000Y-116650000D03*
X95540000Y-109150000D03*
X90460000Y-109150000D03*
X95540000Y-102150000D03*
X90460000Y-102150000D03*
X95540000Y-95150000D03*
X90460000Y-95150000D03*
X95540000Y-88150000D03*
X90460000Y-88150000D03*
X95540000Y-81150000D03*
X90460000Y-81150000D03*
X95540000Y-74150000D03*
X90460000Y-74150000D03*
X95540000Y-67150000D03*
X90460000Y-67150000D03*
X95540000Y-60150000D03*
X90460000Y-60150000D03*
X95590000Y-53150000D03*
X90510000Y-53150000D03*
X95540000Y-46150000D03*
X90460000Y-46150000D03*
D13*
X128250000Y-80300000D03*
X128250000Y-76700000D03*
X128250000Y-77900000D03*
X128250000Y-79100000D03*
D12*
X133500000Y-37000000D03*
D24*
X52946303Y-65844102D03*
X55400000Y-67250000D03*
X76350000Y-87600000D03*
X61950000Y-158250000D03*
X56500000Y-68479690D03*
X53999992Y-59250000D03*
X60550000Y-53800000D03*
X53500000Y-56000000D03*
X65500000Y-72750000D03*
X70750000Y-86250000D03*
X73500000Y-81500000D03*
X73000000Y-74250000D03*
X73250000Y-66750000D03*
X71750000Y-60500000D03*
X69000000Y-59750000D03*
X68250000Y-54000000D03*
X68250000Y-52500000D03*
X67250000Y-51000000D03*
X67250000Y-49500000D03*
X56300000Y-112050000D03*
X75500000Y-130400000D03*
X73000000Y-130479690D03*
X57900000Y-95650000D03*
X66550000Y-112000000D03*
X67250000Y-94750000D03*
X68000000Y-96250000D03*
X68750000Y-98000000D03*
X68500000Y-102250000D03*
X54000000Y-102500000D03*
X54000000Y-109250000D03*
X71750000Y-123250000D03*
X73000000Y-116000000D03*
X72750000Y-109000000D03*
X73000000Y-101500000D03*
X53500000Y-99500000D03*
X56643316Y-137770568D03*
X54000000Y-157249986D03*
X53122721Y-144000000D03*
X74270310Y-150850000D03*
X74350000Y-144000000D03*
X74000000Y-157750000D03*
X64550000Y-155400000D03*
X65900000Y-136600000D03*
X74500000Y-172250000D03*
X73000000Y-172000000D03*
X73000000Y-165000000D03*
X61250000Y-157250000D03*
X57000000Y-157250000D03*
X53645199Y-62784936D03*
X53317055Y-63732933D03*
X52077543Y-64250000D03*
X65750000Y-147450000D03*
X64353430Y-157772711D03*
X67420310Y-139750000D03*
X62450000Y-163350000D03*
X62750000Y-76250000D03*
X57000000Y-69750000D03*
X52840023Y-63033231D03*
X57550000Y-120850000D03*
X54850000Y-115000000D03*
X56411374Y-120111374D03*
X56900000Y-122200000D03*
X58813619Y-72563619D03*
X61850000Y-72400000D03*
X53122721Y-133550000D03*
X53480942Y-132792189D03*
X55250000Y-134300000D03*
X54100000Y-95400000D03*
X54600000Y-94700000D03*
X56325000Y-92775000D03*
X53122721Y-145500000D03*
X53122721Y-156994545D03*
X54000000Y-139250006D03*
X60900000Y-136250000D03*
X63000000Y-85950000D03*
X53950000Y-105200000D03*
X61188619Y-115038619D03*
X55500000Y-101000000D03*
X54250000Y-141500000D03*
X61500000Y-138500000D03*
X64000000Y-95999998D03*
X55652351Y-97597649D03*
X54374490Y-66541914D03*
X64000000Y-55000000D03*
X55022650Y-142522650D03*
X62250000Y-142250000D03*
X66000000Y-99750000D03*
X56250000Y-98250000D03*
X64973186Y-159573186D03*
X66550002Y-163050000D03*
X52900000Y-68350000D03*
X53007108Y-67518659D03*
X53001999Y-66680462D03*
X52200000Y-60100000D03*
X66800000Y-141250000D03*
D25*
X52946303Y-65844102D02*
X53194102Y-65844102D01*
X53650000Y-67150000D02*
X54700000Y-68200000D01*
X53650000Y-66300000D02*
X53650000Y-67150000D01*
X53194102Y-65844102D02*
X53650000Y-66300000D01*
X63930000Y-153620000D02*
X63930000Y-155020000D01*
X61950000Y-157000000D02*
X61950000Y-157765067D01*
X63930000Y-155020000D02*
X61950000Y-157000000D01*
X61950000Y-157765067D02*
X61950000Y-158250000D01*
X117750000Y-90500000D02*
X119650000Y-90500000D01*
X119650000Y-90500000D02*
X119750000Y-90600000D01*
X117750000Y-111250000D02*
X119350000Y-111250000D01*
X119350000Y-111250000D02*
X119750000Y-110850000D01*
X117750000Y-111250000D02*
X115190000Y-111250000D01*
X115190000Y-111250000D02*
X114750000Y-111690000D01*
X55500000Y-72150000D02*
X55500000Y-83700000D01*
X55500000Y-70900000D02*
X55500000Y-72150000D01*
X113880000Y-111250000D02*
X113700000Y-111430000D01*
X117750000Y-114000000D02*
X117750000Y-111250000D01*
X122000000Y-110650000D02*
X119800000Y-110900000D01*
X119800000Y-110900000D02*
X119750000Y-110850000D01*
X117500000Y-138750000D02*
X117500000Y-136500000D01*
X119750000Y-136600000D02*
X117600000Y-136600000D01*
X117600000Y-136600000D02*
X117500000Y-136500000D01*
X117310000Y-136690000D02*
X117500000Y-136500000D01*
X119650000Y-136500000D02*
X119750000Y-136600000D01*
X117500000Y-159750000D02*
X115110000Y-159750000D01*
X115110000Y-159750000D02*
X114750000Y-160110000D01*
X57000000Y-157250000D02*
X61250000Y-157250000D01*
X117450000Y-159700000D02*
X117500000Y-159750000D01*
X117500000Y-159750000D02*
X122400000Y-159250000D01*
X122400000Y-159250000D02*
X122500000Y-159150000D01*
X52828593Y-65129699D02*
X53988098Y-63970194D01*
X69470000Y-153620000D02*
X69470000Y-155953624D01*
X65183268Y-160240356D02*
X53416730Y-160240356D01*
X52757443Y-65129699D02*
X52828593Y-65129699D01*
X53988098Y-63970194D02*
X53988098Y-63127835D01*
X51059644Y-157883270D02*
X51059644Y-66827498D01*
X53416730Y-160240356D02*
X51059644Y-157883270D01*
X51059644Y-66827498D02*
X52757443Y-65129699D01*
X53988098Y-63127835D02*
X53645199Y-62784936D01*
X69470000Y-155953624D02*
X65183268Y-160240356D01*
X71347410Y-151992410D02*
X71347410Y-154645308D01*
X52974156Y-64075832D02*
X53317055Y-63732933D01*
X52974156Y-64343892D02*
X52974156Y-64075832D01*
X50657233Y-66660815D02*
X52974156Y-64343892D01*
X53250046Y-160642767D02*
X50657233Y-158049954D01*
X50657233Y-158049954D02*
X50657233Y-66660815D01*
X71347410Y-154645308D02*
X65349952Y-160642767D01*
X65349952Y-160642767D02*
X53250046Y-160642767D01*
X69470000Y-151080000D02*
X70435000Y-151080000D01*
X70435000Y-151080000D02*
X71347410Y-151992410D01*
X69470000Y-151080000D02*
X68505000Y-151080000D01*
X51734644Y-64592899D02*
X52077543Y-64250000D01*
X53083362Y-161045178D02*
X50254822Y-158216638D01*
X65516636Y-161045178D02*
X53083362Y-161045178D01*
X70435000Y-148540000D02*
X71790356Y-149895356D01*
X50254822Y-158216638D02*
X50254822Y-66072721D01*
X69470000Y-148540000D02*
X70435000Y-148540000D01*
X71790356Y-154771456D02*
X65516636Y-161045178D01*
X50254822Y-66072721D02*
X51734644Y-64592899D01*
X71790356Y-149895356D02*
X71790356Y-154771456D01*
X69470000Y-148540000D02*
X68505000Y-148540000D01*
X63930000Y-148540000D02*
X64660000Y-148540000D01*
X64660000Y-148540000D02*
X65750000Y-147450000D01*
X63930000Y-148540000D02*
X64895000Y-148540000D01*
X66250000Y-149895000D02*
X66250000Y-155876141D01*
X64696329Y-157429812D02*
X64353430Y-157772711D01*
X66250000Y-155876141D02*
X64696329Y-157429812D01*
X64895000Y-148540000D02*
X66250000Y-149895000D01*
X67420310Y-139835310D02*
X67420310Y-139750000D01*
X68505000Y-140920000D02*
X67420310Y-139835310D01*
X69470000Y-140920000D02*
X68505000Y-140920000D01*
X62934933Y-163350000D02*
X62450000Y-163350000D01*
X72997589Y-143482589D02*
X72997589Y-155702411D01*
X72997589Y-155702411D02*
X65350000Y-163350000D01*
X65350000Y-163350000D02*
X62934933Y-163350000D01*
X70435000Y-140920000D02*
X72997589Y-143482589D01*
X69470000Y-140920000D02*
X70435000Y-140920000D01*
X62750000Y-76250000D02*
X62750000Y-72381954D01*
X57484933Y-69750000D02*
X57000000Y-69750000D01*
X62750000Y-72381954D02*
X60118046Y-69750000D01*
X60118046Y-69750000D02*
X57484933Y-69750000D01*
D26*
X105980000Y-131730000D02*
X107000000Y-132750000D01*
X94540000Y-116650000D02*
X94540000Y-119140000D01*
X99150000Y-123750000D02*
X94540000Y-119140000D01*
X99150000Y-128150000D02*
X99150000Y-123750000D01*
X101750000Y-130750000D02*
X99150000Y-128150000D01*
X105000000Y-130750000D02*
X101750000Y-130750000D01*
X105980000Y-131730000D02*
X105000000Y-130750000D01*
X107000000Y-132750000D02*
X114390000Y-132750000D01*
X114390000Y-132750000D02*
X114750000Y-132390000D01*
D25*
X117500000Y-135000000D02*
X117500000Y-132250000D01*
X119750000Y-134650000D02*
X117850000Y-134650000D01*
X117850000Y-134650000D02*
X117500000Y-135000000D01*
X122500000Y-134100000D02*
X120300000Y-134100000D01*
X120300000Y-134100000D02*
X119750000Y-134650000D01*
X114750000Y-132390000D02*
X117360000Y-132390000D01*
X117360000Y-132390000D02*
X117500000Y-132250000D01*
X117500000Y-130750000D02*
X119150000Y-130750000D01*
X119150000Y-130750000D02*
X119750000Y-131350000D01*
X117500000Y-128500000D02*
X114820000Y-128500000D01*
X114820000Y-128500000D02*
X114750000Y-128430000D01*
X117500000Y-128500000D02*
X117500000Y-130750000D01*
X119750000Y-131350000D02*
X122050000Y-131600000D01*
X122050000Y-131600000D02*
X122500000Y-131150000D01*
D26*
X110210000Y-125300000D02*
X113020000Y-125300000D01*
X95540000Y-102190000D02*
X97700000Y-104350000D01*
X97700000Y-120100000D02*
X97700000Y-104350000D01*
X101800000Y-124200000D02*
X97700000Y-120100000D01*
X103800000Y-124200000D02*
X101800000Y-124200000D01*
X104900000Y-125300000D02*
X103800000Y-124200000D01*
X110210000Y-125300000D02*
X104900000Y-125300000D01*
X113020000Y-125300000D02*
X114750000Y-123570000D01*
D25*
X117500000Y-127000000D02*
X118850000Y-127000000D01*
X118850000Y-127000000D02*
X120000000Y-128150000D01*
X114890000Y-124500000D02*
X113700000Y-123310000D01*
D26*
X95540000Y-102190000D02*
X95540000Y-102150000D01*
D25*
X117500000Y-124500000D02*
X117500000Y-127000000D01*
X120000000Y-128150000D02*
X122300000Y-127650000D01*
X117500000Y-124500000D02*
X114890000Y-124500000D01*
X122300000Y-127650000D02*
X122500000Y-127850000D01*
X120000000Y-124850000D02*
X119350000Y-124850000D01*
X119350000Y-124850000D02*
X117500000Y-123000000D01*
X117250000Y-118750000D02*
X117250000Y-122750000D01*
X117250000Y-122750000D02*
X117500000Y-123000000D01*
X114750000Y-119610000D02*
X116390000Y-119610000D01*
X116390000Y-119610000D02*
X117250000Y-118750000D01*
X122000000Y-116150000D02*
X121100000Y-116150000D01*
X118500000Y-118750000D02*
X117250000Y-118750000D01*
X121100000Y-116150000D02*
X118500000Y-118750000D01*
D26*
X104000000Y-108500000D02*
X106000000Y-108500000D01*
X113150000Y-115650000D02*
X114750000Y-115650000D01*
X106000000Y-108500000D02*
X113150000Y-115650000D01*
D25*
X117750000Y-115500000D02*
X114900000Y-115500000D01*
X114900000Y-115500000D02*
X114750000Y-115650000D01*
X117250000Y-117250000D02*
X117250000Y-116000000D01*
X117250000Y-116000000D02*
X117750000Y-115500000D01*
X119750000Y-114150000D02*
X119100000Y-114150000D01*
X119100000Y-114150000D02*
X117750000Y-115500000D01*
D26*
X104310000Y-108500000D02*
X104000000Y-108500000D01*
X104000000Y-108500000D02*
X101500000Y-108500000D01*
X101500000Y-108500000D02*
X99500000Y-106500000D01*
X99500000Y-106500000D02*
X99500000Y-92150000D01*
X99500000Y-92150000D02*
X95540000Y-88190000D01*
X95540000Y-88190000D02*
X95540000Y-88150000D01*
D25*
X119750000Y-114150000D02*
X122000000Y-112850000D01*
X113840000Y-115250000D02*
X113700000Y-115390000D01*
D26*
X108490000Y-158700000D02*
X108800000Y-158700000D01*
X95590000Y-158700000D02*
X108490000Y-158700000D01*
X111350000Y-156150000D02*
X114750000Y-156150000D01*
X108800000Y-158700000D02*
X111350000Y-156150000D01*
D25*
X117500000Y-156000000D02*
X114900000Y-156000000D01*
X114900000Y-156000000D02*
X114750000Y-156150000D01*
X117500000Y-156000000D02*
X119400000Y-156000000D01*
X119400000Y-156000000D02*
X119750000Y-155650000D01*
D26*
X95540000Y-158650000D02*
X95590000Y-158700000D01*
D25*
X122500000Y-155850000D02*
X120050000Y-155350000D01*
X120050000Y-155350000D02*
X119750000Y-155650000D01*
X117500000Y-156000000D02*
X117500000Y-158250000D01*
X117500000Y-152000000D02*
X118750000Y-152000000D01*
X119100000Y-152350000D02*
X119750000Y-152350000D01*
X118750000Y-152000000D02*
X119100000Y-152350000D01*
X114750000Y-152190000D02*
X117310000Y-152190000D01*
X117310000Y-152190000D02*
X117500000Y-152000000D01*
X117500000Y-152000000D02*
X117500000Y-154500000D01*
X117280000Y-151780000D02*
X117500000Y-152000000D01*
X119750000Y-152350000D02*
X122300000Y-152100000D01*
X122300000Y-152100000D02*
X122500000Y-151900000D01*
D26*
X111630000Y-147500000D02*
X114020000Y-147500000D01*
X114020000Y-147500000D02*
X114750000Y-148230000D01*
D25*
X117500000Y-148000000D02*
X114980000Y-148000000D01*
X114980000Y-148000000D02*
X114750000Y-148230000D01*
X119750000Y-147650000D02*
X117850000Y-147650000D01*
X117850000Y-147650000D02*
X117500000Y-148000000D01*
D26*
X111700000Y-147570000D02*
X111630000Y-147500000D01*
X111630000Y-147500000D02*
X106250000Y-147500000D01*
D25*
X111880000Y-147750000D02*
X111700000Y-147570000D01*
D26*
X106250000Y-147500000D02*
X104150000Y-145400000D01*
X96290000Y-145400000D02*
X95540000Y-144650000D01*
X104150000Y-145400000D02*
X96290000Y-145400000D01*
D25*
X117500000Y-150500000D02*
X117500000Y-148000000D01*
X119750000Y-147650000D02*
X122300000Y-148400000D01*
X122300000Y-148400000D02*
X122500000Y-148600000D01*
X119750000Y-144350000D02*
X121950000Y-144350000D01*
X121950000Y-144350000D02*
X122500000Y-144900000D01*
X117500000Y-146500000D02*
X117500000Y-144000000D01*
X117500000Y-144000000D02*
X115020000Y-144000000D01*
X115020000Y-144000000D02*
X114750000Y-144270000D01*
X119750000Y-144350000D02*
X117850000Y-144350000D01*
X117850000Y-144350000D02*
X117500000Y-144000000D01*
X119600000Y-144500000D02*
X119750000Y-144350000D01*
X119750000Y-139900000D02*
X117850000Y-139900000D01*
X117850000Y-139900000D02*
X117500000Y-140250000D01*
X114750000Y-140310000D02*
X117440000Y-140310000D01*
X117440000Y-140310000D02*
X117500000Y-140250000D01*
X117500000Y-142500000D02*
X117500000Y-140250000D01*
X119400000Y-140250000D02*
X119750000Y-139900000D01*
X122500000Y-141600000D02*
X120200000Y-140350000D01*
X120200000Y-140350000D02*
X119750000Y-139900000D01*
D26*
X106250000Y-104000000D02*
X106250000Y-105750000D01*
X108230000Y-107730000D02*
X114750000Y-107730000D01*
X106250000Y-105750000D02*
X108230000Y-107730000D01*
D25*
X119750000Y-109400000D02*
X119950000Y-109400000D01*
X119950000Y-109400000D02*
X122000000Y-107350000D01*
X117750000Y-109750000D02*
X119400000Y-109750000D01*
X119400000Y-109750000D02*
X119750000Y-109400000D01*
X117750000Y-107750000D02*
X114770000Y-107750000D01*
X114770000Y-107750000D02*
X114750000Y-107730000D01*
D26*
X106250000Y-104007981D02*
X106250000Y-104000000D01*
X106250000Y-104000000D02*
X106250000Y-77900000D01*
X106250000Y-77900000D02*
X102500000Y-74150000D01*
X102500000Y-74150000D02*
X95540000Y-74150000D01*
D25*
X113730000Y-107500000D02*
X113700000Y-107470000D01*
X117750000Y-109750000D02*
X117750000Y-107750000D01*
X117750000Y-106250000D02*
X119600000Y-106250000D01*
X119600000Y-106250000D02*
X119750000Y-106100000D01*
X117750000Y-103750000D02*
X114770000Y-103750000D01*
X114770000Y-103750000D02*
X114750000Y-103770000D01*
X119750000Y-106100000D02*
X121550000Y-105850000D01*
X121550000Y-105850000D02*
X122000000Y-105400000D01*
X117750000Y-106250000D02*
X117750000Y-103750000D01*
X117510000Y-103510000D02*
X117750000Y-103750000D01*
D26*
X107750000Y-97850000D02*
X107750000Y-98000000D01*
X95540000Y-60150000D02*
X103450000Y-60150000D01*
X107750000Y-64450000D02*
X103450000Y-60150000D01*
X107750000Y-97850000D02*
X107750000Y-64450000D01*
X109560000Y-99810000D02*
X114750000Y-99810000D01*
X107750000Y-98000000D02*
X109560000Y-99810000D01*
D25*
X117750000Y-99750000D02*
X114810000Y-99750000D01*
X114810000Y-99750000D02*
X114750000Y-99810000D01*
X113900000Y-99750000D02*
X113700000Y-99550000D01*
X117750000Y-102250000D02*
X117750000Y-99750000D01*
X119750000Y-101900000D02*
X118100000Y-101900000D01*
X118100000Y-101900000D02*
X117750000Y-102250000D01*
X119750000Y-101900000D02*
X121700000Y-102400000D01*
X121700000Y-102400000D02*
X122000000Y-102100000D01*
X119750000Y-98600000D02*
X121300000Y-98600000D01*
X121300000Y-98600000D02*
X122000000Y-97900000D01*
X117750000Y-95750000D02*
X114850000Y-95750000D01*
X114850000Y-95750000D02*
X114750000Y-95850000D01*
X117750000Y-98250000D02*
X119400000Y-98250000D01*
X119400000Y-98250000D02*
X119750000Y-98600000D01*
X117750000Y-95750000D02*
X117750000Y-98250000D01*
D26*
X109250000Y-90550000D02*
X109250000Y-91000000D01*
X95540000Y-46150000D02*
X103650000Y-46150000D01*
X109250000Y-51750000D02*
X103650000Y-46150000D01*
X109250000Y-90550000D02*
X109250000Y-51750000D01*
X110140000Y-91890000D02*
X114750000Y-91890000D01*
X109250000Y-91000000D02*
X110140000Y-91890000D01*
D25*
X119750000Y-93900000D02*
X121300000Y-93900000D01*
X121300000Y-93900000D02*
X122000000Y-94600000D01*
X117750000Y-94250000D02*
X119400000Y-94250000D01*
X119400000Y-94250000D02*
X119750000Y-93900000D01*
X117750000Y-92000000D02*
X117750000Y-94250000D01*
X114750000Y-91890000D02*
X117640000Y-91890000D01*
X117640000Y-91890000D02*
X117750000Y-92000000D01*
X117630000Y-91880000D02*
X117750000Y-92000000D01*
X49852411Y-158383322D02*
X49852411Y-65535910D01*
X49852411Y-65535910D02*
X52355090Y-63033231D01*
X52355090Y-63033231D02*
X52840023Y-63033231D01*
X70435000Y-146000000D02*
X72192767Y-147757767D01*
X72192767Y-147757767D02*
X72192767Y-154938142D01*
X69470000Y-146000000D02*
X70435000Y-146000000D01*
X72192767Y-154938142D02*
X65683320Y-161447589D01*
X65683320Y-161447589D02*
X52916678Y-161447589D01*
X52916678Y-161447589D02*
X49852411Y-158383322D01*
X69470000Y-146000000D02*
X68505000Y-146000000D01*
X57550000Y-120365067D02*
X57550000Y-120850000D01*
X57550000Y-117700000D02*
X57550000Y-120365067D01*
X54850000Y-115000000D02*
X57550000Y-117700000D01*
X56754273Y-120454273D02*
X56411374Y-120111374D01*
X56900000Y-120600000D02*
X56754273Y-120454273D01*
X56900000Y-122200000D02*
X56900000Y-120600000D01*
X57000000Y-72150000D02*
X58400000Y-72150000D01*
X58400000Y-72150000D02*
X58813619Y-72563619D01*
X61507101Y-72057101D02*
X61850000Y-72400000D01*
X60350000Y-70900000D02*
X61507101Y-72057101D01*
X57000000Y-70900000D02*
X60350000Y-70900000D01*
X53607654Y-133550000D02*
X53122721Y-133550000D01*
X54750000Y-133150000D02*
X54007654Y-133150000D01*
X54007654Y-133150000D02*
X53607654Y-133550000D01*
X54750000Y-133150000D02*
X54450000Y-133150000D01*
X54750000Y-133150000D02*
X54750000Y-133150000D01*
X53400000Y-132711247D02*
X53480942Y-132792189D01*
X53400000Y-131600000D02*
X53400000Y-132711247D01*
X56200000Y-134300000D02*
X55250000Y-134300000D01*
X55200000Y-95950000D02*
X54650000Y-95950000D01*
X54650000Y-95950000D02*
X54100000Y-95400000D01*
X55300000Y-94050000D02*
X54850000Y-94450000D01*
X54850000Y-94450000D02*
X54600000Y-94700000D01*
X56325000Y-92775000D02*
X55425000Y-92775000D01*
X55425000Y-92775000D02*
X55350000Y-92850000D01*
X56325000Y-92775000D02*
X56350000Y-92750000D01*
X53122721Y-156509612D02*
X53122721Y-145500000D01*
X53122721Y-156994545D02*
X53122721Y-156509612D01*
X54000000Y-139250006D02*
X57899994Y-139250006D01*
X57899994Y-139250006D02*
X60900000Y-136250000D01*
X61188619Y-115038619D02*
X58288619Y-115038619D01*
X58288619Y-115038619D02*
X53000000Y-109750000D01*
X53000000Y-109750000D02*
X53000000Y-106150000D01*
X53000000Y-106150000D02*
X53950000Y-105200000D01*
X55500000Y-101000000D02*
X55032049Y-100532049D01*
X55032049Y-97299903D02*
X55452255Y-96879699D01*
X55452255Y-96879699D02*
X58170301Y-96879699D01*
X55032049Y-100532049D02*
X55032049Y-97299903D01*
X58170301Y-96879699D02*
X62950000Y-92100000D01*
X62950000Y-92100000D02*
X62950000Y-91650000D01*
X62950000Y-91650000D02*
X62984933Y-91650000D01*
X62984933Y-91650000D02*
X62992467Y-91642466D01*
X62992467Y-91642466D02*
X62992467Y-85957533D01*
X62992467Y-85957533D02*
X63000000Y-85950000D01*
X61500000Y-138500000D02*
X61500000Y-141250000D01*
X61500000Y-141250000D02*
X61000000Y-141750000D01*
X61000000Y-141750000D02*
X54500000Y-141750000D01*
X54500000Y-141750000D02*
X54250000Y-141500000D01*
X56137284Y-97597649D02*
X55652351Y-97597649D01*
X64000000Y-95999998D02*
X62402349Y-97597649D01*
X62402349Y-97597649D02*
X56137284Y-97597649D01*
X56700000Y-55000000D02*
X52750000Y-58950000D01*
X64000000Y-55000000D02*
X56700000Y-55000000D01*
X52750000Y-58950000D02*
X52750000Y-59250000D01*
X52750000Y-59250000D02*
X54717389Y-61217389D01*
X54717389Y-61217389D02*
X54717389Y-66199015D01*
X54717389Y-66199015D02*
X54374490Y-66541914D01*
X55295300Y-142250000D02*
X55022650Y-142522650D01*
X62250000Y-142250000D02*
X55295300Y-142250000D01*
X57750000Y-99750000D02*
X66000000Y-99750000D01*
X56250000Y-98250000D02*
X57750000Y-99750000D01*
X65316085Y-159230287D02*
X64973186Y-159573186D01*
X64895000Y-138380000D02*
X67550000Y-141035000D01*
X63930000Y-138380000D02*
X64895000Y-138380000D01*
X67550000Y-141035000D02*
X67550000Y-156996372D01*
X67550000Y-156996372D02*
X65316085Y-159230287D01*
X73400000Y-141345000D02*
X73400000Y-156200002D01*
X70435000Y-138380000D02*
X73400000Y-141345000D01*
X69470000Y-138380000D02*
X70435000Y-138380000D01*
X73400000Y-156200002D02*
X66892901Y-162707101D01*
X66892901Y-162707101D02*
X66550002Y-163050000D01*
X64895000Y-151080000D02*
X65807410Y-151992410D01*
X53916781Y-159033123D02*
X52266877Y-157383219D01*
X62185151Y-159033123D02*
X53916781Y-159033123D01*
X52266877Y-68983123D02*
X52557101Y-68692899D01*
X65807410Y-151992410D02*
X65807410Y-155410864D01*
X52266877Y-157383219D02*
X52266877Y-68983123D01*
X52557101Y-68692899D02*
X52900000Y-68350000D01*
X65807410Y-155410864D02*
X62185151Y-159033123D01*
X63930000Y-151080000D02*
X64895000Y-151080000D01*
X53007108Y-67518659D02*
X52522175Y-67518659D01*
X52522175Y-67518659D02*
X51864466Y-68176368D01*
X51864466Y-68176368D02*
X51864466Y-157549903D01*
X53750097Y-159435534D02*
X63608653Y-159435534D01*
X51864466Y-157549903D02*
X53750097Y-159435534D01*
X63608653Y-159435534D02*
X66637367Y-156406820D01*
X66637367Y-156406820D02*
X66652411Y-156406820D01*
X66652411Y-156406820D02*
X66652411Y-147052411D01*
X66652411Y-147052411D02*
X65600000Y-146000000D01*
X65600000Y-146000000D02*
X63930000Y-146000000D01*
X53001999Y-66680462D02*
X52517066Y-66680462D01*
X53583414Y-159837945D02*
X63812055Y-159837945D01*
X52517066Y-66680462D02*
X51462055Y-67735473D01*
X51462055Y-67735473D02*
X51462055Y-157716586D01*
X51462055Y-157716586D02*
X53583414Y-159837945D01*
X63812055Y-159837945D02*
X67074158Y-156575842D01*
X67074158Y-156575842D02*
X67100000Y-156575842D01*
X67100000Y-156575842D02*
X67100000Y-145665000D01*
X67100000Y-145665000D02*
X64895000Y-143460000D01*
X64895000Y-143460000D02*
X63930000Y-143460000D01*
X49450000Y-158550006D02*
X49450000Y-65200000D01*
X52200000Y-60100000D02*
X52200000Y-62450000D01*
X52200000Y-62450000D02*
X49450000Y-65200000D01*
X52749994Y-161850000D02*
X49450000Y-158550006D01*
X65850004Y-161850000D02*
X52749994Y-161850000D01*
X72595178Y-155104826D02*
X65850004Y-161850000D01*
X72595178Y-145620178D02*
X72595178Y-155104826D01*
X69470000Y-143460000D02*
X70435000Y-143460000D01*
X70435000Y-143460000D02*
X72595178Y-145620178D01*
X65880000Y-140920000D02*
X66800000Y-141250000D01*
X63930000Y-140920000D02*
X65880000Y-140920000D01*
D27*
G36*
X126790000Y-111273000D02*
X123212407Y-111273000D01*
X123247440Y-111100000D01*
X123247440Y-110200000D01*
X123203162Y-109964683D01*
X123064090Y-109748559D01*
X122851890Y-109603569D01*
X122600000Y-109552560D01*
X121400000Y-109552560D01*
X121164683Y-109596838D01*
X120997440Y-109704456D01*
X120997440Y-109427362D01*
X121977362Y-108447440D01*
X122600000Y-108447440D01*
X122835317Y-108403162D01*
X123051441Y-108264090D01*
X123196431Y-108051890D01*
X123247440Y-107800000D01*
X123247440Y-106900000D01*
X123203162Y-106664683D01*
X123064090Y-106448559D01*
X122956603Y-106375116D01*
X123051441Y-106314090D01*
X123196431Y-106101890D01*
X123247440Y-105850000D01*
X123247440Y-104950000D01*
X123203162Y-104714683D01*
X123064090Y-104498559D01*
X122851890Y-104353569D01*
X122600000Y-104302560D01*
X121400000Y-104302560D01*
X121164683Y-104346838D01*
X120948559Y-104485910D01*
X120803569Y-104698110D01*
X120752560Y-104950000D01*
X120752560Y-105156517D01*
X120601890Y-105053569D01*
X120350000Y-105002560D01*
X119150000Y-105002560D01*
X118914683Y-105046838D01*
X118698559Y-105185910D01*
X118564665Y-105381870D01*
X118510000Y-105344519D01*
X118510000Y-104656844D01*
X118576441Y-104614090D01*
X118721431Y-104401890D01*
X118772440Y-104150000D01*
X118772440Y-103350000D01*
X118728162Y-103114683D01*
X118654380Y-103000022D01*
X118721431Y-102901890D01*
X118734982Y-102834971D01*
X118898110Y-102946431D01*
X119150000Y-102997440D01*
X120350000Y-102997440D01*
X120585317Y-102953162D01*
X120645760Y-102914268D01*
X120926064Y-102986141D01*
X120935910Y-103001441D01*
X121148110Y-103146431D01*
X121400000Y-103197440D01*
X122600000Y-103197440D01*
X122835317Y-103153162D01*
X123051441Y-103014090D01*
X123196431Y-102801890D01*
X123247440Y-102550000D01*
X123247440Y-101650000D01*
X123203162Y-101414683D01*
X123064090Y-101198559D01*
X122851890Y-101053569D01*
X122600000Y-101002560D01*
X121400000Y-101002560D01*
X121164683Y-101046838D01*
X120948559Y-101185910D01*
X120941394Y-101196396D01*
X120814090Y-100998559D01*
X120601890Y-100853569D01*
X120350000Y-100802560D01*
X119150000Y-100802560D01*
X118914683Y-100846838D01*
X118698559Y-100985910D01*
X118593274Y-101140000D01*
X118510000Y-101140000D01*
X118510000Y-100656844D01*
X118576441Y-100614090D01*
X118721431Y-100401890D01*
X118772440Y-100150000D01*
X118772440Y-99560564D01*
X118898110Y-99646431D01*
X119150000Y-99697440D01*
X120350000Y-99697440D01*
X120585317Y-99653162D01*
X120801441Y-99514090D01*
X120906726Y-99360000D01*
X121300000Y-99360000D01*
X121590839Y-99302148D01*
X121837401Y-99137401D01*
X121977362Y-98997440D01*
X122600000Y-98997440D01*
X122835317Y-98953162D01*
X123051441Y-98814090D01*
X123196431Y-98601890D01*
X123247440Y-98350000D01*
X123247440Y-97450000D01*
X123203162Y-97214683D01*
X123064090Y-96998559D01*
X122851890Y-96853569D01*
X122600000Y-96802560D01*
X121400000Y-96802560D01*
X121164683Y-96846838D01*
X120948559Y-96985910D01*
X120803569Y-97198110D01*
X120752560Y-97450000D01*
X120752560Y-97656517D01*
X120601890Y-97553569D01*
X120350000Y-97502560D01*
X119463143Y-97502560D01*
X119400000Y-97490000D01*
X118647931Y-97490000D01*
X118589090Y-97398559D01*
X118510000Y-97344519D01*
X118510000Y-96656844D01*
X118576441Y-96614090D01*
X118721431Y-96401890D01*
X118772440Y-96150000D01*
X118772440Y-95350000D01*
X118728162Y-95114683D01*
X118660800Y-95010000D01*
X119400000Y-95010000D01*
X119463143Y-94997440D01*
X120350000Y-94997440D01*
X120585317Y-94953162D01*
X120752560Y-94845544D01*
X120752560Y-95050000D01*
X120796838Y-95285317D01*
X120935910Y-95501441D01*
X121148110Y-95646431D01*
X121400000Y-95697440D01*
X122600000Y-95697440D01*
X122835317Y-95653162D01*
X123051441Y-95514090D01*
X123196431Y-95301890D01*
X123247440Y-95050000D01*
X123247440Y-94150000D01*
X123203162Y-93914683D01*
X123064090Y-93698559D01*
X122851890Y-93553569D01*
X122600000Y-93502560D01*
X121977362Y-93502560D01*
X121837401Y-93362599D01*
X121590839Y-93197852D01*
X121300000Y-93140000D01*
X120905105Y-93140000D01*
X120814090Y-92998559D01*
X120601890Y-92853569D01*
X120350000Y-92802560D01*
X119150000Y-92802560D01*
X118914683Y-92846838D01*
X118698559Y-92985910D01*
X118553569Y-93198110D01*
X118522228Y-93352874D01*
X118510000Y-93344519D01*
X118510000Y-92906844D01*
X118576441Y-92864090D01*
X118721431Y-92651890D01*
X118772440Y-92400000D01*
X118772440Y-91600000D01*
X118765595Y-91563621D01*
X118790301Y-91588327D01*
X119023690Y-91685000D01*
X119464250Y-91685000D01*
X119623000Y-91526250D01*
X119623000Y-90727000D01*
X119877000Y-90727000D01*
X119877000Y-91526250D01*
X120035750Y-91685000D01*
X120476310Y-91685000D01*
X120709699Y-91588327D01*
X120888327Y-91409698D01*
X120985000Y-91176309D01*
X120985000Y-90885750D01*
X120826250Y-90727000D01*
X119877000Y-90727000D01*
X119623000Y-90727000D01*
X118701250Y-90727000D01*
X118601250Y-90627000D01*
X117877000Y-90627000D01*
X117877000Y-90647000D01*
X117623000Y-90647000D01*
X117623000Y-90627000D01*
X116898750Y-90627000D01*
X116740000Y-90785750D01*
X116740000Y-91026309D01*
X116782950Y-91130000D01*
X116746048Y-91130000D01*
X116561020Y-90682200D01*
X115960959Y-90081091D01*
X115702312Y-89973691D01*
X116740000Y-89973691D01*
X116740000Y-90214250D01*
X116898750Y-90373000D01*
X117623000Y-90373000D01*
X117623000Y-89623750D01*
X117877000Y-89623750D01*
X117877000Y-90373000D01*
X118573750Y-90373000D01*
X118673750Y-90473000D01*
X119623000Y-90473000D01*
X119623000Y-89673750D01*
X119877000Y-89673750D01*
X119877000Y-90473000D01*
X120826250Y-90473000D01*
X120985000Y-90314250D01*
X120985000Y-90023691D01*
X120888327Y-89790302D01*
X120709699Y-89611673D01*
X120476310Y-89515000D01*
X120035750Y-89515000D01*
X119877000Y-89673750D01*
X119623000Y-89673750D01*
X119464250Y-89515000D01*
X119023690Y-89515000D01*
X118790301Y-89611673D01*
X118662500Y-89739475D01*
X118484699Y-89561673D01*
X118251310Y-89465000D01*
X118035750Y-89465000D01*
X117877000Y-89623750D01*
X117623000Y-89623750D01*
X117464250Y-89465000D01*
X117248690Y-89465000D01*
X117015301Y-89561673D01*
X116836673Y-89740302D01*
X116740000Y-89973691D01*
X115702312Y-89973691D01*
X115558982Y-89914175D01*
X115924582Y-89762739D01*
X116084365Y-89443970D01*
X114750000Y-88109605D01*
X113415635Y-89443970D01*
X113575418Y-89762739D01*
X113951122Y-89910016D01*
X113542200Y-90078980D01*
X112965174Y-90655000D01*
X110651554Y-90655000D01*
X110485000Y-90488446D01*
X110485000Y-87546187D01*
X112607277Y-87546187D01*
X112623503Y-88395387D01*
X112917261Y-89104582D01*
X113236030Y-89264365D01*
X114570395Y-87930000D01*
X114929605Y-87930000D01*
X116263970Y-89264365D01*
X116582739Y-89104582D01*
X116892723Y-88313813D01*
X116876497Y-87464613D01*
X116582739Y-86755418D01*
X116263970Y-86595635D01*
X114929605Y-87930000D01*
X114570395Y-87930000D01*
X113236030Y-86595635D01*
X112917261Y-86755418D01*
X112607277Y-87546187D01*
X110485000Y-87546187D01*
X110485000Y-86416030D01*
X113415635Y-86416030D01*
X114750000Y-87750395D01*
X116084365Y-86416030D01*
X115924582Y-86097261D01*
X115133813Y-85787277D01*
X114284613Y-85803503D01*
X113575418Y-86097261D01*
X113415635Y-86416030D01*
X110485000Y-86416030D01*
X110485000Y-76191874D01*
X118134370Y-76191874D01*
X118686600Y-77528372D01*
X119708249Y-78551806D01*
X121043782Y-79106368D01*
X122489874Y-79107630D01*
X123826372Y-78555400D01*
X124849806Y-77533751D01*
X125404368Y-76198218D01*
X125405630Y-74752126D01*
X124853400Y-73415628D01*
X123831751Y-72392194D01*
X122496218Y-71837632D01*
X121050126Y-71836370D01*
X119713628Y-72388600D01*
X118690194Y-73410249D01*
X118135632Y-74745782D01*
X118134370Y-76191874D01*
X110485000Y-76191874D01*
X110485000Y-51750000D01*
X110390991Y-51277386D01*
X110123277Y-50876723D01*
X104523277Y-45276723D01*
X104122614Y-45009009D01*
X103650000Y-44915000D01*
X96476079Y-44915000D01*
X96410643Y-44849449D01*
X95846670Y-44615267D01*
X95236009Y-44614735D01*
X94671629Y-44847932D01*
X94239449Y-45279357D01*
X94005267Y-45843330D01*
X94004735Y-46453991D01*
X94237932Y-47018371D01*
X94669357Y-47450551D01*
X95233330Y-47684733D01*
X95843991Y-47685265D01*
X96408371Y-47452068D01*
X96475556Y-47385000D01*
X101175868Y-47385000D01*
X100682200Y-47588980D01*
X100081091Y-48189041D01*
X99755372Y-48973459D01*
X99754630Y-49822815D01*
X100078980Y-50607800D01*
X100679041Y-51208909D01*
X101463459Y-51534628D01*
X102312815Y-51535370D01*
X103097800Y-51211020D01*
X103698909Y-50610959D01*
X104024628Y-49826541D01*
X104025370Y-48977185D01*
X103701020Y-48192200D01*
X103100959Y-47591091D01*
X102604637Y-47385000D01*
X103138446Y-47385000D01*
X108015000Y-52261554D01*
X108015000Y-62968446D01*
X104323277Y-59276723D01*
X103922614Y-59009009D01*
X103450000Y-58915000D01*
X96476079Y-58915000D01*
X96410643Y-58849449D01*
X95846670Y-58615267D01*
X95236009Y-58614735D01*
X94671629Y-58847932D01*
X94239449Y-59279357D01*
X94005267Y-59843330D01*
X94004735Y-60453991D01*
X94237932Y-61018371D01*
X94669357Y-61450551D01*
X95233330Y-61684733D01*
X95843991Y-61685265D01*
X96408371Y-61452068D01*
X96475556Y-61385000D01*
X101175868Y-61385000D01*
X100682200Y-61588980D01*
X100081091Y-62189041D01*
X99755372Y-62973459D01*
X99754630Y-63822815D01*
X100078980Y-64607800D01*
X100679041Y-65208909D01*
X101463459Y-65534628D01*
X102312815Y-65535370D01*
X103097800Y-65211020D01*
X103698909Y-64610959D01*
X104024628Y-63826541D01*
X104025370Y-62977185D01*
X103701020Y-62192200D01*
X103100959Y-61591091D01*
X102604637Y-61385000D01*
X102938446Y-61385000D01*
X106515000Y-64961554D01*
X106515000Y-76418446D01*
X103373277Y-73276723D01*
X102972614Y-73009009D01*
X102500000Y-72915000D01*
X96476079Y-72915000D01*
X96410643Y-72849449D01*
X95846670Y-72615267D01*
X95236009Y-72614735D01*
X94671629Y-72847932D01*
X94239449Y-73279357D01*
X94005267Y-73843330D01*
X94004735Y-74453991D01*
X94237932Y-75018371D01*
X94669357Y-75450551D01*
X95233330Y-75684733D01*
X95843991Y-75685265D01*
X96408371Y-75452068D01*
X96475556Y-75385000D01*
X101175868Y-75385000D01*
X100682200Y-75588980D01*
X100081091Y-76189041D01*
X99755372Y-76973459D01*
X99754630Y-77822815D01*
X100078980Y-78607800D01*
X100679041Y-79208909D01*
X101463459Y-79534628D01*
X102312815Y-79535370D01*
X103097800Y-79211020D01*
X103698909Y-78610959D01*
X104024628Y-77826541D01*
X104024982Y-77421536D01*
X105015000Y-78411554D01*
X105015000Y-82935394D01*
X103289803Y-81210197D01*
X103247789Y-81182334D01*
X103200000Y-81173000D01*
X97074980Y-81173000D01*
X97075265Y-80846009D01*
X96842068Y-80281629D01*
X96410643Y-79849449D01*
X95846670Y-79615267D01*
X95236009Y-79614735D01*
X94671629Y-79847932D01*
X94239449Y-80279357D01*
X94005267Y-80843330D01*
X94004980Y-81173000D01*
X93200000Y-81173000D01*
X93150590Y-81183006D01*
X93110865Y-81209535D01*
X86347809Y-87873134D01*
X67177000Y-87922671D01*
X67177000Y-84822815D01*
X81974630Y-84822815D01*
X82298980Y-85607800D01*
X82899041Y-86208909D01*
X83683459Y-86534628D01*
X84532815Y-86535370D01*
X85317800Y-86211020D01*
X85918909Y-85610959D01*
X86244628Y-84826541D01*
X86245370Y-83977185D01*
X85921020Y-83192200D01*
X85320959Y-82591091D01*
X84536541Y-82265372D01*
X83687185Y-82264630D01*
X82902200Y-82588980D01*
X82301091Y-83189041D01*
X81975372Y-83973459D01*
X81974630Y-84822815D01*
X67177000Y-84822815D01*
X67177000Y-81700000D01*
X67166994Y-81650590D01*
X67138553Y-81608965D01*
X67096159Y-81581685D01*
X67050000Y-81573000D01*
X64960000Y-81573000D01*
X64960000Y-81535750D01*
X64878241Y-81453991D01*
X88924735Y-81453991D01*
X89157932Y-82018371D01*
X89589357Y-82450551D01*
X90153330Y-82684733D01*
X90763991Y-82685265D01*
X91328371Y-82452068D01*
X91760551Y-82020643D01*
X91994733Y-81456670D01*
X91995265Y-80846009D01*
X91762068Y-80281629D01*
X91330643Y-79849449D01*
X90766670Y-79615267D01*
X90156009Y-79614735D01*
X89591629Y-79847932D01*
X89159449Y-80279357D01*
X88925267Y-80843330D01*
X88924735Y-81453991D01*
X64878241Y-81453991D01*
X64801250Y-81377000D01*
X64077000Y-81377000D01*
X64077000Y-81397000D01*
X63823000Y-81397000D01*
X63823000Y-81377000D01*
X63098750Y-81377000D01*
X62940000Y-81535750D01*
X62940000Y-81573000D01*
X56260000Y-81573000D01*
X56260000Y-80723691D01*
X62940000Y-80723691D01*
X62940000Y-80964250D01*
X63098750Y-81123000D01*
X63823000Y-81123000D01*
X63823000Y-80373750D01*
X64077000Y-80373750D01*
X64077000Y-81123000D01*
X64801250Y-81123000D01*
X64960000Y-80964250D01*
X64960000Y-80723691D01*
X64863327Y-80490302D01*
X64684699Y-80311673D01*
X64451310Y-80215000D01*
X64235750Y-80215000D01*
X64077000Y-80373750D01*
X63823000Y-80373750D01*
X63664250Y-80215000D01*
X63448690Y-80215000D01*
X63215301Y-80311673D01*
X63036673Y-80490302D01*
X62940000Y-80723691D01*
X56260000Y-80723691D01*
X56260000Y-77822815D01*
X81974630Y-77822815D01*
X82298980Y-78607800D01*
X82899041Y-79208909D01*
X83683459Y-79534628D01*
X84532815Y-79535370D01*
X85317800Y-79211020D01*
X85918909Y-78610959D01*
X86244628Y-77826541D01*
X86245370Y-76977185D01*
X85921020Y-76192200D01*
X85320959Y-75591091D01*
X84536541Y-75265372D01*
X83687185Y-75264630D01*
X82902200Y-75588980D01*
X82301091Y-76189041D01*
X81975372Y-76973459D01*
X81974630Y-77822815D01*
X56260000Y-77822815D01*
X56260000Y-73061228D01*
X56348110Y-73121431D01*
X56600000Y-73172440D01*
X57400000Y-73172440D01*
X57635317Y-73128162D01*
X57851441Y-72989090D01*
X57901225Y-72916229D01*
X57984112Y-73116831D01*
X58258960Y-73392159D01*
X58618249Y-73541349D01*
X59007282Y-73541688D01*
X59366831Y-73393126D01*
X59642159Y-73118278D01*
X59791349Y-72758989D01*
X59791688Y-72369956D01*
X59643126Y-72010407D01*
X59368278Y-71735079D01*
X59187468Y-71660000D01*
X60035198Y-71660000D01*
X60872015Y-72496817D01*
X60871931Y-72593663D01*
X61020493Y-72953212D01*
X61295341Y-73228540D01*
X61654630Y-73377730D01*
X61990000Y-73378022D01*
X61990000Y-75626920D01*
X61921460Y-75695341D01*
X61772270Y-76054630D01*
X61771931Y-76443663D01*
X61920493Y-76803212D01*
X62195341Y-77078540D01*
X62554630Y-77227730D01*
X62943663Y-77228069D01*
X63303212Y-77079507D01*
X63578540Y-76804659D01*
X63727730Y-76445370D01*
X63728069Y-76056337D01*
X63579507Y-75696788D01*
X63510000Y-75627160D01*
X63510000Y-74453991D01*
X88924735Y-74453991D01*
X89157932Y-75018371D01*
X89589357Y-75450551D01*
X90153330Y-75684733D01*
X90763991Y-75685265D01*
X91328371Y-75452068D01*
X91760551Y-75020643D01*
X91994733Y-74456670D01*
X91995265Y-73846009D01*
X91762068Y-73281629D01*
X91330643Y-72849449D01*
X90766670Y-72615267D01*
X90156009Y-72614735D01*
X89591629Y-72847932D01*
X89159449Y-73279357D01*
X88925267Y-73843330D01*
X88924735Y-74453991D01*
X63510000Y-74453991D01*
X63510000Y-72381954D01*
X63452148Y-72091115D01*
X63287401Y-71844553D01*
X62265663Y-70822815D01*
X81974630Y-70822815D01*
X82298980Y-71607800D01*
X82899041Y-72208909D01*
X83683459Y-72534628D01*
X84532815Y-72535370D01*
X85317800Y-72211020D01*
X85918909Y-71610959D01*
X86244628Y-70826541D01*
X86244631Y-70822815D01*
X99754630Y-70822815D01*
X100078980Y-71607800D01*
X100679041Y-72208909D01*
X101463459Y-72534628D01*
X102312815Y-72535370D01*
X103097800Y-72211020D01*
X103698909Y-71610959D01*
X104024628Y-70826541D01*
X104025370Y-69977185D01*
X103701020Y-69192200D01*
X103100959Y-68591091D01*
X102316541Y-68265372D01*
X101467185Y-68264630D01*
X100682200Y-68588980D01*
X100081091Y-69189041D01*
X99755372Y-69973459D01*
X99754630Y-70822815D01*
X86244631Y-70822815D01*
X86245370Y-69977185D01*
X85921020Y-69192200D01*
X85320959Y-68591091D01*
X84536541Y-68265372D01*
X83687185Y-68264630D01*
X82902200Y-68588980D01*
X82301091Y-69189041D01*
X81975372Y-69973459D01*
X81974630Y-70822815D01*
X62265663Y-70822815D01*
X60655447Y-69212599D01*
X60408885Y-69047852D01*
X60118046Y-68990000D01*
X57623080Y-68990000D01*
X57554659Y-68921460D01*
X57195370Y-68772270D01*
X56806337Y-68771931D01*
X56446788Y-68920493D01*
X56171460Y-69195341D01*
X56022270Y-69554630D01*
X56021967Y-69902259D01*
X55900000Y-69877560D01*
X55100000Y-69877560D01*
X54864683Y-69921838D01*
X54648559Y-70060910D01*
X54503569Y-70273110D01*
X54452560Y-70525000D01*
X54452560Y-71275000D01*
X54496838Y-71510317D01*
X54504342Y-71521979D01*
X54503569Y-71523110D01*
X54452560Y-71775000D01*
X54452560Y-72525000D01*
X54496838Y-72760317D01*
X54635910Y-72976441D01*
X54740000Y-73047563D01*
X54740000Y-81573000D01*
X53026877Y-81573000D01*
X53026877Y-69328011D01*
X53093663Y-69328069D01*
X53453212Y-69179507D01*
X53728540Y-68904659D01*
X53877730Y-68545370D01*
X53878069Y-68156337D01*
X53839717Y-68063518D01*
X53984838Y-67714029D01*
X53985078Y-67439070D01*
X54179120Y-67519644D01*
X54568153Y-67519983D01*
X54727866Y-67453991D01*
X88924735Y-67453991D01*
X89157932Y-68018371D01*
X89589357Y-68450551D01*
X90153330Y-68684733D01*
X90763991Y-68685265D01*
X91328371Y-68452068D01*
X91760551Y-68020643D01*
X91994733Y-67456670D01*
X91994735Y-67453991D01*
X94004735Y-67453991D01*
X94237932Y-68018371D01*
X94669357Y-68450551D01*
X95233330Y-68684733D01*
X95843991Y-68685265D01*
X96408371Y-68452068D01*
X96840551Y-68020643D01*
X97074733Y-67456670D01*
X97075265Y-66846009D01*
X96842068Y-66281629D01*
X96410643Y-65849449D01*
X95846670Y-65615267D01*
X95236009Y-65614735D01*
X94671629Y-65847932D01*
X94239449Y-66279357D01*
X94005267Y-66843330D01*
X94004735Y-67453991D01*
X91994735Y-67453991D01*
X91995265Y-66846009D01*
X91762068Y-66281629D01*
X91330643Y-65849449D01*
X90766670Y-65615267D01*
X90156009Y-65614735D01*
X89591629Y-65847932D01*
X89159449Y-66279357D01*
X88925267Y-66843330D01*
X88924735Y-67453991D01*
X54727866Y-67453991D01*
X54927702Y-67371421D01*
X55203030Y-67096573D01*
X55352220Y-66737284D01*
X55352348Y-66590410D01*
X55419537Y-66489855D01*
X55443382Y-66369976D01*
X55477389Y-66199015D01*
X55477389Y-63822815D01*
X81974630Y-63822815D01*
X82298980Y-64607800D01*
X82899041Y-65208909D01*
X83683459Y-65534628D01*
X84532815Y-65535370D01*
X85317800Y-65211020D01*
X85918909Y-64610959D01*
X86244628Y-63826541D01*
X86245370Y-62977185D01*
X85921020Y-62192200D01*
X85320959Y-61591091D01*
X84536541Y-61265372D01*
X83687185Y-61264630D01*
X82902200Y-61588980D01*
X82301091Y-62189041D01*
X81975372Y-62973459D01*
X81974630Y-63822815D01*
X55477389Y-63822815D01*
X55477389Y-61217389D01*
X55449609Y-61077730D01*
X55419537Y-60926549D01*
X55254790Y-60679988D01*
X55028793Y-60453991D01*
X88924735Y-60453991D01*
X89157932Y-61018371D01*
X89589357Y-61450551D01*
X90153330Y-61684733D01*
X90763991Y-61685265D01*
X91328371Y-61452068D01*
X91760551Y-61020643D01*
X91994733Y-60456670D01*
X91995265Y-59846009D01*
X91762068Y-59281629D01*
X91330643Y-58849449D01*
X90766670Y-58615267D01*
X90156009Y-58614735D01*
X89591629Y-58847932D01*
X89159449Y-59279357D01*
X88925267Y-59843330D01*
X88924735Y-60453991D01*
X55028793Y-60453991D01*
X53674802Y-59100000D01*
X55951987Y-56822815D01*
X81974630Y-56822815D01*
X82298980Y-57607800D01*
X82899041Y-58208909D01*
X83683459Y-58534628D01*
X84532815Y-58535370D01*
X85317800Y-58211020D01*
X85918909Y-57610959D01*
X86244628Y-56826541D01*
X86244631Y-56822815D01*
X99754630Y-56822815D01*
X100078980Y-57607800D01*
X100679041Y-58208909D01*
X101463459Y-58534628D01*
X102312815Y-58535370D01*
X103097800Y-58211020D01*
X103698909Y-57610959D01*
X104024628Y-56826541D01*
X104025370Y-55977185D01*
X103701020Y-55192200D01*
X103100959Y-54591091D01*
X102316541Y-54265372D01*
X101467185Y-54264630D01*
X100682200Y-54588980D01*
X100081091Y-55189041D01*
X99755372Y-55973459D01*
X99754630Y-56822815D01*
X86244631Y-56822815D01*
X86245370Y-55977185D01*
X85921020Y-55192200D01*
X85320959Y-54591091D01*
X84536541Y-54265372D01*
X83687185Y-54264630D01*
X82902200Y-54588980D01*
X82301091Y-55189041D01*
X81975372Y-55973459D01*
X81974630Y-56822815D01*
X55951987Y-56822815D01*
X57014802Y-55760000D01*
X63376920Y-55760000D01*
X63445341Y-55828540D01*
X63804630Y-55977730D01*
X64193663Y-55978069D01*
X64553212Y-55829507D01*
X64828540Y-55554659D01*
X64977730Y-55195370D01*
X64978069Y-54806337D01*
X64829507Y-54446788D01*
X64554659Y-54171460D01*
X64195370Y-54022270D01*
X63806337Y-54021931D01*
X63446788Y-54170493D01*
X63377160Y-54240000D01*
X59750547Y-54240000D01*
X60329806Y-53661751D01*
X60416075Y-53453991D01*
X88974735Y-53453991D01*
X89207932Y-54018371D01*
X89639357Y-54450551D01*
X90203330Y-54684733D01*
X90813991Y-54685265D01*
X91378371Y-54452068D01*
X91810551Y-54020643D01*
X92044733Y-53456670D01*
X92044735Y-53453991D01*
X94054735Y-53453991D01*
X94287932Y-54018371D01*
X94719357Y-54450551D01*
X95283330Y-54684733D01*
X95893991Y-54685265D01*
X96458371Y-54452068D01*
X96890551Y-54020643D01*
X97124733Y-53456670D01*
X97125265Y-52846009D01*
X96892068Y-52281629D01*
X96460643Y-51849449D01*
X95896670Y-51615267D01*
X95286009Y-51614735D01*
X94721629Y-51847932D01*
X94289449Y-52279357D01*
X94055267Y-52843330D01*
X94054735Y-53453991D01*
X92044735Y-53453991D01*
X92045265Y-52846009D01*
X91812068Y-52281629D01*
X91380643Y-51849449D01*
X90816670Y-51615267D01*
X90206009Y-51614735D01*
X89641629Y-51847932D01*
X89209449Y-52279357D01*
X88975267Y-52843330D01*
X88974735Y-53453991D01*
X60416075Y-53453991D01*
X60884368Y-52326218D01*
X60885630Y-50880126D01*
X60448758Y-49822815D01*
X81974630Y-49822815D01*
X82298980Y-50607800D01*
X82899041Y-51208909D01*
X83683459Y-51534628D01*
X84532815Y-51535370D01*
X85317800Y-51211020D01*
X85918909Y-50610959D01*
X86244628Y-49826541D01*
X86245370Y-48977185D01*
X85921020Y-48192200D01*
X85320959Y-47591091D01*
X84536541Y-47265372D01*
X83687185Y-47264630D01*
X82902200Y-47588980D01*
X82301091Y-48189041D01*
X81975372Y-48973459D01*
X81974630Y-49822815D01*
X60448758Y-49822815D01*
X60333400Y-49543628D01*
X59311751Y-48520194D01*
X57976218Y-47965632D01*
X56530126Y-47964370D01*
X55193628Y-48516600D01*
X54170194Y-49538249D01*
X53615632Y-50873782D01*
X53614370Y-52319874D01*
X54166600Y-53656372D01*
X55188249Y-54679806D01*
X55723243Y-54901955D01*
X52212599Y-58412599D01*
X52047852Y-58659161D01*
X51990000Y-58950000D01*
X51990000Y-59128681D01*
X51646788Y-59270493D01*
X51371460Y-59545341D01*
X51222270Y-59904630D01*
X51221931Y-60293663D01*
X51370493Y-60653212D01*
X51440000Y-60722840D01*
X51440000Y-62135198D01*
X49210000Y-64365198D01*
X49210000Y-46453991D01*
X88924735Y-46453991D01*
X89157932Y-47018371D01*
X89589357Y-47450551D01*
X90153330Y-47684733D01*
X90763991Y-47685265D01*
X91328371Y-47452068D01*
X91760551Y-47020643D01*
X91994733Y-46456670D01*
X91995265Y-45846009D01*
X91762068Y-45281629D01*
X91330643Y-44849449D01*
X90766670Y-44615267D01*
X90156009Y-44614735D01*
X89591629Y-44847932D01*
X89159449Y-45279357D01*
X88925267Y-45843330D01*
X88924735Y-46453991D01*
X49210000Y-46453991D01*
X49210000Y-43710000D01*
X126790000Y-43710000D01*
X126790000Y-111273000D01*
X126790000Y-111273000D01*
G37*
X126790000Y-111273000D02*
X123212407Y-111273000D01*
X123247440Y-111100000D01*
X123247440Y-110200000D01*
X123203162Y-109964683D01*
X123064090Y-109748559D01*
X122851890Y-109603569D01*
X122600000Y-109552560D01*
X121400000Y-109552560D01*
X121164683Y-109596838D01*
X120997440Y-109704456D01*
X120997440Y-109427362D01*
X121977362Y-108447440D01*
X122600000Y-108447440D01*
X122835317Y-108403162D01*
X123051441Y-108264090D01*
X123196431Y-108051890D01*
X123247440Y-107800000D01*
X123247440Y-106900000D01*
X123203162Y-106664683D01*
X123064090Y-106448559D01*
X122956603Y-106375116D01*
X123051441Y-106314090D01*
X123196431Y-106101890D01*
X123247440Y-105850000D01*
X123247440Y-104950000D01*
X123203162Y-104714683D01*
X123064090Y-104498559D01*
X122851890Y-104353569D01*
X122600000Y-104302560D01*
X121400000Y-104302560D01*
X121164683Y-104346838D01*
X120948559Y-104485910D01*
X120803569Y-104698110D01*
X120752560Y-104950000D01*
X120752560Y-105156517D01*
X120601890Y-105053569D01*
X120350000Y-105002560D01*
X119150000Y-105002560D01*
X118914683Y-105046838D01*
X118698559Y-105185910D01*
X118564665Y-105381870D01*
X118510000Y-105344519D01*
X118510000Y-104656844D01*
X118576441Y-104614090D01*
X118721431Y-104401890D01*
X118772440Y-104150000D01*
X118772440Y-103350000D01*
X118728162Y-103114683D01*
X118654380Y-103000022D01*
X118721431Y-102901890D01*
X118734982Y-102834971D01*
X118898110Y-102946431D01*
X119150000Y-102997440D01*
X120350000Y-102997440D01*
X120585317Y-102953162D01*
X120645760Y-102914268D01*
X120926064Y-102986141D01*
X120935910Y-103001441D01*
X121148110Y-103146431D01*
X121400000Y-103197440D01*
X122600000Y-103197440D01*
X122835317Y-103153162D01*
X123051441Y-103014090D01*
X123196431Y-102801890D01*
X123247440Y-102550000D01*
X123247440Y-101650000D01*
X123203162Y-101414683D01*
X123064090Y-101198559D01*
X122851890Y-101053569D01*
X122600000Y-101002560D01*
X121400000Y-101002560D01*
X121164683Y-101046838D01*
X120948559Y-101185910D01*
X120941394Y-101196396D01*
X120814090Y-100998559D01*
X120601890Y-100853569D01*
X120350000Y-100802560D01*
X119150000Y-100802560D01*
X118914683Y-100846838D01*
X118698559Y-100985910D01*
X118593274Y-101140000D01*
X118510000Y-101140000D01*
X118510000Y-100656844D01*
X118576441Y-100614090D01*
X118721431Y-100401890D01*
X118772440Y-100150000D01*
X118772440Y-99560564D01*
X118898110Y-99646431D01*
X119150000Y-99697440D01*
X120350000Y-99697440D01*
X120585317Y-99653162D01*
X120801441Y-99514090D01*
X120906726Y-99360000D01*
X121300000Y-99360000D01*
X121590839Y-99302148D01*
X121837401Y-99137401D01*
X121977362Y-98997440D01*
X122600000Y-98997440D01*
X122835317Y-98953162D01*
X123051441Y-98814090D01*
X123196431Y-98601890D01*
X123247440Y-98350000D01*
X123247440Y-97450000D01*
X123203162Y-97214683D01*
X123064090Y-96998559D01*
X122851890Y-96853569D01*
X122600000Y-96802560D01*
X121400000Y-96802560D01*
X121164683Y-96846838D01*
X120948559Y-96985910D01*
X120803569Y-97198110D01*
X120752560Y-97450000D01*
X120752560Y-97656517D01*
X120601890Y-97553569D01*
X120350000Y-97502560D01*
X119463143Y-97502560D01*
X119400000Y-97490000D01*
X118647931Y-97490000D01*
X118589090Y-97398559D01*
X118510000Y-97344519D01*
X118510000Y-96656844D01*
X118576441Y-96614090D01*
X118721431Y-96401890D01*
X118772440Y-96150000D01*
X118772440Y-95350000D01*
X118728162Y-95114683D01*
X118660800Y-95010000D01*
X119400000Y-95010000D01*
X119463143Y-94997440D01*
X120350000Y-94997440D01*
X120585317Y-94953162D01*
X120752560Y-94845544D01*
X120752560Y-95050000D01*
X120796838Y-95285317D01*
X120935910Y-95501441D01*
X121148110Y-95646431D01*
X121400000Y-95697440D01*
X122600000Y-95697440D01*
X122835317Y-95653162D01*
X123051441Y-95514090D01*
X123196431Y-95301890D01*
X123247440Y-95050000D01*
X123247440Y-94150000D01*
X123203162Y-93914683D01*
X123064090Y-93698559D01*
X122851890Y-93553569D01*
X122600000Y-93502560D01*
X121977362Y-93502560D01*
X121837401Y-93362599D01*
X121590839Y-93197852D01*
X121300000Y-93140000D01*
X120905105Y-93140000D01*
X120814090Y-92998559D01*
X120601890Y-92853569D01*
X120350000Y-92802560D01*
X119150000Y-92802560D01*
X118914683Y-92846838D01*
X118698559Y-92985910D01*
X118553569Y-93198110D01*
X118522228Y-93352874D01*
X118510000Y-93344519D01*
X118510000Y-92906844D01*
X118576441Y-92864090D01*
X118721431Y-92651890D01*
X118772440Y-92400000D01*
X118772440Y-91600000D01*
X118765595Y-91563621D01*
X118790301Y-91588327D01*
X119023690Y-91685000D01*
X119464250Y-91685000D01*
X119623000Y-91526250D01*
X119623000Y-90727000D01*
X119877000Y-90727000D01*
X119877000Y-91526250D01*
X120035750Y-91685000D01*
X120476310Y-91685000D01*
X120709699Y-91588327D01*
X120888327Y-91409698D01*
X120985000Y-91176309D01*
X120985000Y-90885750D01*
X120826250Y-90727000D01*
X119877000Y-90727000D01*
X119623000Y-90727000D01*
X118701250Y-90727000D01*
X118601250Y-90627000D01*
X117877000Y-90627000D01*
X117877000Y-90647000D01*
X117623000Y-90647000D01*
X117623000Y-90627000D01*
X116898750Y-90627000D01*
X116740000Y-90785750D01*
X116740000Y-91026309D01*
X116782950Y-91130000D01*
X116746048Y-91130000D01*
X116561020Y-90682200D01*
X115960959Y-90081091D01*
X115702312Y-89973691D01*
X116740000Y-89973691D01*
X116740000Y-90214250D01*
X116898750Y-90373000D01*
X117623000Y-90373000D01*
X117623000Y-89623750D01*
X117877000Y-89623750D01*
X117877000Y-90373000D01*
X118573750Y-90373000D01*
X118673750Y-90473000D01*
X119623000Y-90473000D01*
X119623000Y-89673750D01*
X119877000Y-89673750D01*
X119877000Y-90473000D01*
X120826250Y-90473000D01*
X120985000Y-90314250D01*
X120985000Y-90023691D01*
X120888327Y-89790302D01*
X120709699Y-89611673D01*
X120476310Y-89515000D01*
X120035750Y-89515000D01*
X119877000Y-89673750D01*
X119623000Y-89673750D01*
X119464250Y-89515000D01*
X119023690Y-89515000D01*
X118790301Y-89611673D01*
X118662500Y-89739475D01*
X118484699Y-89561673D01*
X118251310Y-89465000D01*
X118035750Y-89465000D01*
X117877000Y-89623750D01*
X117623000Y-89623750D01*
X117464250Y-89465000D01*
X117248690Y-89465000D01*
X117015301Y-89561673D01*
X116836673Y-89740302D01*
X116740000Y-89973691D01*
X115702312Y-89973691D01*
X115558982Y-89914175D01*
X115924582Y-89762739D01*
X116084365Y-89443970D01*
X114750000Y-88109605D01*
X113415635Y-89443970D01*
X113575418Y-89762739D01*
X113951122Y-89910016D01*
X113542200Y-90078980D01*
X112965174Y-90655000D01*
X110651554Y-90655000D01*
X110485000Y-90488446D01*
X110485000Y-87546187D01*
X112607277Y-87546187D01*
X112623503Y-88395387D01*
X112917261Y-89104582D01*
X113236030Y-89264365D01*
X114570395Y-87930000D01*
X114929605Y-87930000D01*
X116263970Y-89264365D01*
X116582739Y-89104582D01*
X116892723Y-88313813D01*
X116876497Y-87464613D01*
X116582739Y-86755418D01*
X116263970Y-86595635D01*
X114929605Y-87930000D01*
X114570395Y-87930000D01*
X113236030Y-86595635D01*
X112917261Y-86755418D01*
X112607277Y-87546187D01*
X110485000Y-87546187D01*
X110485000Y-86416030D01*
X113415635Y-86416030D01*
X114750000Y-87750395D01*
X116084365Y-86416030D01*
X115924582Y-86097261D01*
X115133813Y-85787277D01*
X114284613Y-85803503D01*
X113575418Y-86097261D01*
X113415635Y-86416030D01*
X110485000Y-86416030D01*
X110485000Y-76191874D01*
X118134370Y-76191874D01*
X118686600Y-77528372D01*
X119708249Y-78551806D01*
X121043782Y-79106368D01*
X122489874Y-79107630D01*
X123826372Y-78555400D01*
X124849806Y-77533751D01*
X125404368Y-76198218D01*
X125405630Y-74752126D01*
X124853400Y-73415628D01*
X123831751Y-72392194D01*
X122496218Y-71837632D01*
X121050126Y-71836370D01*
X119713628Y-72388600D01*
X118690194Y-73410249D01*
X118135632Y-74745782D01*
X118134370Y-76191874D01*
X110485000Y-76191874D01*
X110485000Y-51750000D01*
X110390991Y-51277386D01*
X110123277Y-50876723D01*
X104523277Y-45276723D01*
X104122614Y-45009009D01*
X103650000Y-44915000D01*
X96476079Y-44915000D01*
X96410643Y-44849449D01*
X95846670Y-44615267D01*
X95236009Y-44614735D01*
X94671629Y-44847932D01*
X94239449Y-45279357D01*
X94005267Y-45843330D01*
X94004735Y-46453991D01*
X94237932Y-47018371D01*
X94669357Y-47450551D01*
X95233330Y-47684733D01*
X95843991Y-47685265D01*
X96408371Y-47452068D01*
X96475556Y-47385000D01*
X101175868Y-47385000D01*
X100682200Y-47588980D01*
X100081091Y-48189041D01*
X99755372Y-48973459D01*
X99754630Y-49822815D01*
X100078980Y-50607800D01*
X100679041Y-51208909D01*
X101463459Y-51534628D01*
X102312815Y-51535370D01*
X103097800Y-51211020D01*
X103698909Y-50610959D01*
X104024628Y-49826541D01*
X104025370Y-48977185D01*
X103701020Y-48192200D01*
X103100959Y-47591091D01*
X102604637Y-47385000D01*
X103138446Y-47385000D01*
X108015000Y-52261554D01*
X108015000Y-62968446D01*
X104323277Y-59276723D01*
X103922614Y-59009009D01*
X103450000Y-58915000D01*
X96476079Y-58915000D01*
X96410643Y-58849449D01*
X95846670Y-58615267D01*
X95236009Y-58614735D01*
X94671629Y-58847932D01*
X94239449Y-59279357D01*
X94005267Y-59843330D01*
X94004735Y-60453991D01*
X94237932Y-61018371D01*
X94669357Y-61450551D01*
X95233330Y-61684733D01*
X95843991Y-61685265D01*
X96408371Y-61452068D01*
X96475556Y-61385000D01*
X101175868Y-61385000D01*
X100682200Y-61588980D01*
X100081091Y-62189041D01*
X99755372Y-62973459D01*
X99754630Y-63822815D01*
X100078980Y-64607800D01*
X100679041Y-65208909D01*
X101463459Y-65534628D01*
X102312815Y-65535370D01*
X103097800Y-65211020D01*
X103698909Y-64610959D01*
X104024628Y-63826541D01*
X104025370Y-62977185D01*
X103701020Y-62192200D01*
X103100959Y-61591091D01*
X102604637Y-61385000D01*
X102938446Y-61385000D01*
X106515000Y-64961554D01*
X106515000Y-76418446D01*
X103373277Y-73276723D01*
X102972614Y-73009009D01*
X102500000Y-72915000D01*
X96476079Y-72915000D01*
X96410643Y-72849449D01*
X95846670Y-72615267D01*
X95236009Y-72614735D01*
X94671629Y-72847932D01*
X94239449Y-73279357D01*
X94005267Y-73843330D01*
X94004735Y-74453991D01*
X94237932Y-75018371D01*
X94669357Y-75450551D01*
X95233330Y-75684733D01*
X95843991Y-75685265D01*
X96408371Y-75452068D01*
X96475556Y-75385000D01*
X101175868Y-75385000D01*
X100682200Y-75588980D01*
X100081091Y-76189041D01*
X99755372Y-76973459D01*
X99754630Y-77822815D01*
X100078980Y-78607800D01*
X100679041Y-79208909D01*
X101463459Y-79534628D01*
X102312815Y-79535370D01*
X103097800Y-79211020D01*
X103698909Y-78610959D01*
X104024628Y-77826541D01*
X104024982Y-77421536D01*
X105015000Y-78411554D01*
X105015000Y-82935394D01*
X103289803Y-81210197D01*
X103247789Y-81182334D01*
X103200000Y-81173000D01*
X97074980Y-81173000D01*
X97075265Y-80846009D01*
X96842068Y-80281629D01*
X96410643Y-79849449D01*
X95846670Y-79615267D01*
X95236009Y-79614735D01*
X94671629Y-79847932D01*
X94239449Y-80279357D01*
X94005267Y-80843330D01*
X94004980Y-81173000D01*
X93200000Y-81173000D01*
X93150590Y-81183006D01*
X93110865Y-81209535D01*
X86347809Y-87873134D01*
X67177000Y-87922671D01*
X67177000Y-84822815D01*
X81974630Y-84822815D01*
X82298980Y-85607800D01*
X82899041Y-86208909D01*
X83683459Y-86534628D01*
X84532815Y-86535370D01*
X85317800Y-86211020D01*
X85918909Y-85610959D01*
X86244628Y-84826541D01*
X86245370Y-83977185D01*
X85921020Y-83192200D01*
X85320959Y-82591091D01*
X84536541Y-82265372D01*
X83687185Y-82264630D01*
X82902200Y-82588980D01*
X82301091Y-83189041D01*
X81975372Y-83973459D01*
X81974630Y-84822815D01*
X67177000Y-84822815D01*
X67177000Y-81700000D01*
X67166994Y-81650590D01*
X67138553Y-81608965D01*
X67096159Y-81581685D01*
X67050000Y-81573000D01*
X64960000Y-81573000D01*
X64960000Y-81535750D01*
X64878241Y-81453991D01*
X88924735Y-81453991D01*
X89157932Y-82018371D01*
X89589357Y-82450551D01*
X90153330Y-82684733D01*
X90763991Y-82685265D01*
X91328371Y-82452068D01*
X91760551Y-82020643D01*
X91994733Y-81456670D01*
X91995265Y-80846009D01*
X91762068Y-80281629D01*
X91330643Y-79849449D01*
X90766670Y-79615267D01*
X90156009Y-79614735D01*
X89591629Y-79847932D01*
X89159449Y-80279357D01*
X88925267Y-80843330D01*
X88924735Y-81453991D01*
X64878241Y-81453991D01*
X64801250Y-81377000D01*
X64077000Y-81377000D01*
X64077000Y-81397000D01*
X63823000Y-81397000D01*
X63823000Y-81377000D01*
X63098750Y-81377000D01*
X62940000Y-81535750D01*
X62940000Y-81573000D01*
X56260000Y-81573000D01*
X56260000Y-80723691D01*
X62940000Y-80723691D01*
X62940000Y-80964250D01*
X63098750Y-81123000D01*
X63823000Y-81123000D01*
X63823000Y-80373750D01*
X64077000Y-80373750D01*
X64077000Y-81123000D01*
X64801250Y-81123000D01*
X64960000Y-80964250D01*
X64960000Y-80723691D01*
X64863327Y-80490302D01*
X64684699Y-80311673D01*
X64451310Y-80215000D01*
X64235750Y-80215000D01*
X64077000Y-80373750D01*
X63823000Y-80373750D01*
X63664250Y-80215000D01*
X63448690Y-80215000D01*
X63215301Y-80311673D01*
X63036673Y-80490302D01*
X62940000Y-80723691D01*
X56260000Y-80723691D01*
X56260000Y-77822815D01*
X81974630Y-77822815D01*
X82298980Y-78607800D01*
X82899041Y-79208909D01*
X83683459Y-79534628D01*
X84532815Y-79535370D01*
X85317800Y-79211020D01*
X85918909Y-78610959D01*
X86244628Y-77826541D01*
X86245370Y-76977185D01*
X85921020Y-76192200D01*
X85320959Y-75591091D01*
X84536541Y-75265372D01*
X83687185Y-75264630D01*
X82902200Y-75588980D01*
X82301091Y-76189041D01*
X81975372Y-76973459D01*
X81974630Y-77822815D01*
X56260000Y-77822815D01*
X56260000Y-73061228D01*
X56348110Y-73121431D01*
X56600000Y-73172440D01*
X57400000Y-73172440D01*
X57635317Y-73128162D01*
X57851441Y-72989090D01*
X57901225Y-72916229D01*
X57984112Y-73116831D01*
X58258960Y-73392159D01*
X58618249Y-73541349D01*
X59007282Y-73541688D01*
X59366831Y-73393126D01*
X59642159Y-73118278D01*
X59791349Y-72758989D01*
X59791688Y-72369956D01*
X59643126Y-72010407D01*
X59368278Y-71735079D01*
X59187468Y-71660000D01*
X60035198Y-71660000D01*
X60872015Y-72496817D01*
X60871931Y-72593663D01*
X61020493Y-72953212D01*
X61295341Y-73228540D01*
X61654630Y-73377730D01*
X61990000Y-73378022D01*
X61990000Y-75626920D01*
X61921460Y-75695341D01*
X61772270Y-76054630D01*
X61771931Y-76443663D01*
X61920493Y-76803212D01*
X62195341Y-77078540D01*
X62554630Y-77227730D01*
X62943663Y-77228069D01*
X63303212Y-77079507D01*
X63578540Y-76804659D01*
X63727730Y-76445370D01*
X63728069Y-76056337D01*
X63579507Y-75696788D01*
X63510000Y-75627160D01*
X63510000Y-74453991D01*
X88924735Y-74453991D01*
X89157932Y-75018371D01*
X89589357Y-75450551D01*
X90153330Y-75684733D01*
X90763991Y-75685265D01*
X91328371Y-75452068D01*
X91760551Y-75020643D01*
X91994733Y-74456670D01*
X91995265Y-73846009D01*
X91762068Y-73281629D01*
X91330643Y-72849449D01*
X90766670Y-72615267D01*
X90156009Y-72614735D01*
X89591629Y-72847932D01*
X89159449Y-73279357D01*
X88925267Y-73843330D01*
X88924735Y-74453991D01*
X63510000Y-74453991D01*
X63510000Y-72381954D01*
X63452148Y-72091115D01*
X63287401Y-71844553D01*
X62265663Y-70822815D01*
X81974630Y-70822815D01*
X82298980Y-71607800D01*
X82899041Y-72208909D01*
X83683459Y-72534628D01*
X84532815Y-72535370D01*
X85317800Y-72211020D01*
X85918909Y-71610959D01*
X86244628Y-70826541D01*
X86244631Y-70822815D01*
X99754630Y-70822815D01*
X100078980Y-71607800D01*
X100679041Y-72208909D01*
X101463459Y-72534628D01*
X102312815Y-72535370D01*
X103097800Y-72211020D01*
X103698909Y-71610959D01*
X104024628Y-70826541D01*
X104025370Y-69977185D01*
X103701020Y-69192200D01*
X103100959Y-68591091D01*
X102316541Y-68265372D01*
X101467185Y-68264630D01*
X100682200Y-68588980D01*
X100081091Y-69189041D01*
X99755372Y-69973459D01*
X99754630Y-70822815D01*
X86244631Y-70822815D01*
X86245370Y-69977185D01*
X85921020Y-69192200D01*
X85320959Y-68591091D01*
X84536541Y-68265372D01*
X83687185Y-68264630D01*
X82902200Y-68588980D01*
X82301091Y-69189041D01*
X81975372Y-69973459D01*
X81974630Y-70822815D01*
X62265663Y-70822815D01*
X60655447Y-69212599D01*
X60408885Y-69047852D01*
X60118046Y-68990000D01*
X57623080Y-68990000D01*
X57554659Y-68921460D01*
X57195370Y-68772270D01*
X56806337Y-68771931D01*
X56446788Y-68920493D01*
X56171460Y-69195341D01*
X56022270Y-69554630D01*
X56021967Y-69902259D01*
X55900000Y-69877560D01*
X55100000Y-69877560D01*
X54864683Y-69921838D01*
X54648559Y-70060910D01*
X54503569Y-70273110D01*
X54452560Y-70525000D01*
X54452560Y-71275000D01*
X54496838Y-71510317D01*
X54504342Y-71521979D01*
X54503569Y-71523110D01*
X54452560Y-71775000D01*
X54452560Y-72525000D01*
X54496838Y-72760317D01*
X54635910Y-72976441D01*
X54740000Y-73047563D01*
X54740000Y-81573000D01*
X53026877Y-81573000D01*
X53026877Y-69328011D01*
X53093663Y-69328069D01*
X53453212Y-69179507D01*
X53728540Y-68904659D01*
X53877730Y-68545370D01*
X53878069Y-68156337D01*
X53839717Y-68063518D01*
X53984838Y-67714029D01*
X53985078Y-67439070D01*
X54179120Y-67519644D01*
X54568153Y-67519983D01*
X54727866Y-67453991D01*
X88924735Y-67453991D01*
X89157932Y-68018371D01*
X89589357Y-68450551D01*
X90153330Y-68684733D01*
X90763991Y-68685265D01*
X91328371Y-68452068D01*
X91760551Y-68020643D01*
X91994733Y-67456670D01*
X91994735Y-67453991D01*
X94004735Y-67453991D01*
X94237932Y-68018371D01*
X94669357Y-68450551D01*
X95233330Y-68684733D01*
X95843991Y-68685265D01*
X96408371Y-68452068D01*
X96840551Y-68020643D01*
X97074733Y-67456670D01*
X97075265Y-66846009D01*
X96842068Y-66281629D01*
X96410643Y-65849449D01*
X95846670Y-65615267D01*
X95236009Y-65614735D01*
X94671629Y-65847932D01*
X94239449Y-66279357D01*
X94005267Y-66843330D01*
X94004735Y-67453991D01*
X91994735Y-67453991D01*
X91995265Y-66846009D01*
X91762068Y-66281629D01*
X91330643Y-65849449D01*
X90766670Y-65615267D01*
X90156009Y-65614735D01*
X89591629Y-65847932D01*
X89159449Y-66279357D01*
X88925267Y-66843330D01*
X88924735Y-67453991D01*
X54727866Y-67453991D01*
X54927702Y-67371421D01*
X55203030Y-67096573D01*
X55352220Y-66737284D01*
X55352348Y-66590410D01*
X55419537Y-66489855D01*
X55443382Y-66369976D01*
X55477389Y-66199015D01*
X55477389Y-63822815D01*
X81974630Y-63822815D01*
X82298980Y-64607800D01*
X82899041Y-65208909D01*
X83683459Y-65534628D01*
X84532815Y-65535370D01*
X85317800Y-65211020D01*
X85918909Y-64610959D01*
X86244628Y-63826541D01*
X86245370Y-62977185D01*
X85921020Y-62192200D01*
X85320959Y-61591091D01*
X84536541Y-61265372D01*
X83687185Y-61264630D01*
X82902200Y-61588980D01*
X82301091Y-62189041D01*
X81975372Y-62973459D01*
X81974630Y-63822815D01*
X55477389Y-63822815D01*
X55477389Y-61217389D01*
X55449609Y-61077730D01*
X55419537Y-60926549D01*
X55254790Y-60679988D01*
X55028793Y-60453991D01*
X88924735Y-60453991D01*
X89157932Y-61018371D01*
X89589357Y-61450551D01*
X90153330Y-61684733D01*
X90763991Y-61685265D01*
X91328371Y-61452068D01*
X91760551Y-61020643D01*
X91994733Y-60456670D01*
X91995265Y-59846009D01*
X91762068Y-59281629D01*
X91330643Y-58849449D01*
X90766670Y-58615267D01*
X90156009Y-58614735D01*
X89591629Y-58847932D01*
X89159449Y-59279357D01*
X88925267Y-59843330D01*
X88924735Y-60453991D01*
X55028793Y-60453991D01*
X53674802Y-59100000D01*
X55951987Y-56822815D01*
X81974630Y-56822815D01*
X82298980Y-57607800D01*
X82899041Y-58208909D01*
X83683459Y-58534628D01*
X84532815Y-58535370D01*
X85317800Y-58211020D01*
X85918909Y-57610959D01*
X86244628Y-56826541D01*
X86244631Y-56822815D01*
X99754630Y-56822815D01*
X100078980Y-57607800D01*
X100679041Y-58208909D01*
X101463459Y-58534628D01*
X102312815Y-58535370D01*
X103097800Y-58211020D01*
X103698909Y-57610959D01*
X104024628Y-56826541D01*
X104025370Y-55977185D01*
X103701020Y-55192200D01*
X103100959Y-54591091D01*
X102316541Y-54265372D01*
X101467185Y-54264630D01*
X100682200Y-54588980D01*
X100081091Y-55189041D01*
X99755372Y-55973459D01*
X99754630Y-56822815D01*
X86244631Y-56822815D01*
X86245370Y-55977185D01*
X85921020Y-55192200D01*
X85320959Y-54591091D01*
X84536541Y-54265372D01*
X83687185Y-54264630D01*
X82902200Y-54588980D01*
X82301091Y-55189041D01*
X81975372Y-55973459D01*
X81974630Y-56822815D01*
X55951987Y-56822815D01*
X57014802Y-55760000D01*
X63376920Y-55760000D01*
X63445341Y-55828540D01*
X63804630Y-55977730D01*
X64193663Y-55978069D01*
X64553212Y-55829507D01*
X64828540Y-55554659D01*
X64977730Y-55195370D01*
X64978069Y-54806337D01*
X64829507Y-54446788D01*
X64554659Y-54171460D01*
X64195370Y-54022270D01*
X63806337Y-54021931D01*
X63446788Y-54170493D01*
X63377160Y-54240000D01*
X59750547Y-54240000D01*
X60329806Y-53661751D01*
X60416075Y-53453991D01*
X88974735Y-53453991D01*
X89207932Y-54018371D01*
X89639357Y-54450551D01*
X90203330Y-54684733D01*
X90813991Y-54685265D01*
X91378371Y-54452068D01*
X91810551Y-54020643D01*
X92044733Y-53456670D01*
X92044735Y-53453991D01*
X94054735Y-53453991D01*
X94287932Y-54018371D01*
X94719357Y-54450551D01*
X95283330Y-54684733D01*
X95893991Y-54685265D01*
X96458371Y-54452068D01*
X96890551Y-54020643D01*
X97124733Y-53456670D01*
X97125265Y-52846009D01*
X96892068Y-52281629D01*
X96460643Y-51849449D01*
X95896670Y-51615267D01*
X95286009Y-51614735D01*
X94721629Y-51847932D01*
X94289449Y-52279357D01*
X94055267Y-52843330D01*
X94054735Y-53453991D01*
X92044735Y-53453991D01*
X92045265Y-52846009D01*
X91812068Y-52281629D01*
X91380643Y-51849449D01*
X90816670Y-51615267D01*
X90206009Y-51614735D01*
X89641629Y-51847932D01*
X89209449Y-52279357D01*
X88975267Y-52843330D01*
X88974735Y-53453991D01*
X60416075Y-53453991D01*
X60884368Y-52326218D01*
X60885630Y-50880126D01*
X60448758Y-49822815D01*
X81974630Y-49822815D01*
X82298980Y-50607800D01*
X82899041Y-51208909D01*
X83683459Y-51534628D01*
X84532815Y-51535370D01*
X85317800Y-51211020D01*
X85918909Y-50610959D01*
X86244628Y-49826541D01*
X86245370Y-48977185D01*
X85921020Y-48192200D01*
X85320959Y-47591091D01*
X84536541Y-47265372D01*
X83687185Y-47264630D01*
X82902200Y-47588980D01*
X82301091Y-48189041D01*
X81975372Y-48973459D01*
X81974630Y-49822815D01*
X60448758Y-49822815D01*
X60333400Y-49543628D01*
X59311751Y-48520194D01*
X57976218Y-47965632D01*
X56530126Y-47964370D01*
X55193628Y-48516600D01*
X54170194Y-49538249D01*
X53615632Y-50873782D01*
X53614370Y-52319874D01*
X54166600Y-53656372D01*
X55188249Y-54679806D01*
X55723243Y-54901955D01*
X52212599Y-58412599D01*
X52047852Y-58659161D01*
X51990000Y-58950000D01*
X51990000Y-59128681D01*
X51646788Y-59270493D01*
X51371460Y-59545341D01*
X51222270Y-59904630D01*
X51221931Y-60293663D01*
X51370493Y-60653212D01*
X51440000Y-60722840D01*
X51440000Y-62135198D01*
X49210000Y-64365198D01*
X49210000Y-46453991D01*
X88924735Y-46453991D01*
X89157932Y-47018371D01*
X89589357Y-47450551D01*
X90153330Y-47684733D01*
X90763991Y-47685265D01*
X91328371Y-47452068D01*
X91760551Y-47020643D01*
X91994733Y-46456670D01*
X91995265Y-45846009D01*
X91762068Y-45281629D01*
X91330643Y-44849449D01*
X90766670Y-44615267D01*
X90156009Y-44614735D01*
X89591629Y-44847932D01*
X89159449Y-45279357D01*
X88925267Y-45843330D01*
X88924735Y-46453991D01*
X49210000Y-46453991D01*
X49210000Y-43710000D01*
X126790000Y-43710000D01*
X126790000Y-111273000D01*
G36*
X94524890Y-82344718D02*
X94542608Y-82327000D01*
X94672070Y-82327000D01*
X94725852Y-82486643D01*
X95299336Y-82696458D01*
X95909460Y-82670839D01*
X96354148Y-82486643D01*
X96407930Y-82327000D01*
X96537392Y-82327000D01*
X96555110Y-82344718D01*
X96572828Y-82327000D01*
X101316238Y-82327000D01*
X100682200Y-82588980D01*
X100081091Y-83189041D01*
X99755372Y-83973459D01*
X99754630Y-84822815D01*
X100078980Y-85607800D01*
X100679041Y-86208909D01*
X101463459Y-86534628D01*
X102312815Y-86535370D01*
X103097800Y-86211020D01*
X103698909Y-85610959D01*
X104024628Y-84826541D01*
X104025370Y-83977185D01*
X103701020Y-83192200D01*
X103100959Y-82591091D01*
X102464958Y-82327000D01*
X102847394Y-82327000D01*
X104973000Y-84452606D01*
X104973000Y-107265000D01*
X102967159Y-107265000D01*
X103097800Y-107211020D01*
X103698909Y-106610959D01*
X104024628Y-105826541D01*
X104025370Y-104977185D01*
X103701020Y-104192200D01*
X103100959Y-103591091D01*
X102316541Y-103265372D01*
X101467185Y-103264630D01*
X100735000Y-103567163D01*
X100735000Y-100232145D01*
X101463459Y-100534628D01*
X102312815Y-100535370D01*
X103097800Y-100211020D01*
X103698909Y-99610959D01*
X104024628Y-98826541D01*
X104025370Y-97977185D01*
X103701020Y-97192200D01*
X103100959Y-96591091D01*
X102316541Y-96265372D01*
X101467185Y-96264630D01*
X100735000Y-96567163D01*
X100735000Y-93232145D01*
X101463459Y-93534628D01*
X102312815Y-93535370D01*
X103097800Y-93211020D01*
X103698909Y-92610959D01*
X104024628Y-91826541D01*
X104025370Y-90977185D01*
X103701020Y-90192200D01*
X103100959Y-89591091D01*
X102316541Y-89265372D01*
X101467185Y-89264630D01*
X100682200Y-89588980D01*
X100081091Y-90189041D01*
X99847689Y-90751135D01*
X97075149Y-87978595D01*
X97075265Y-87846009D01*
X96842068Y-87281629D01*
X96410643Y-86849449D01*
X95846670Y-86615267D01*
X95236009Y-86614735D01*
X94671629Y-86847932D01*
X94239449Y-87279357D01*
X94005267Y-87843330D01*
X94004735Y-88453991D01*
X94237932Y-89018371D01*
X94669357Y-89450551D01*
X95233330Y-89684733D01*
X95288227Y-89684781D01*
X98265000Y-92661554D01*
X98265000Y-103168446D01*
X97075149Y-101978595D01*
X97075265Y-101846009D01*
X96842068Y-101281629D01*
X96410643Y-100849449D01*
X95846670Y-100615267D01*
X95236009Y-100614735D01*
X94671629Y-100847932D01*
X94239449Y-101279357D01*
X94005267Y-101843330D01*
X94004735Y-102453991D01*
X94237932Y-103018371D01*
X94669357Y-103450551D01*
X95233330Y-103684733D01*
X95288227Y-103684781D01*
X96465000Y-104861554D01*
X96465000Y-107903901D01*
X96410643Y-107849449D01*
X95846670Y-107615267D01*
X95236009Y-107614735D01*
X94671629Y-107847932D01*
X94239449Y-108279357D01*
X94005267Y-108843330D01*
X94004735Y-109453991D01*
X94237932Y-110018371D01*
X94669357Y-110450551D01*
X95233330Y-110684733D01*
X95843991Y-110685265D01*
X96408371Y-110452068D01*
X96465000Y-110395538D01*
X96465000Y-119318446D01*
X95775000Y-118628446D01*
X95775000Y-117586079D01*
X95840551Y-117520643D01*
X96074733Y-116956670D01*
X96075265Y-116346009D01*
X95842068Y-115781629D01*
X95410643Y-115349449D01*
X94846670Y-115115267D01*
X94236009Y-115114735D01*
X93671629Y-115347932D01*
X93239449Y-115779357D01*
X93005267Y-116343330D01*
X93004735Y-116953991D01*
X93237932Y-117518371D01*
X93305000Y-117585556D01*
X93305000Y-119140000D01*
X93399009Y-119612614D01*
X93666723Y-120013277D01*
X95768645Y-122115199D01*
X95236009Y-122114735D01*
X94671629Y-122347932D01*
X94239449Y-122779357D01*
X94005267Y-123343330D01*
X94005067Y-123573000D01*
X93100000Y-123573000D01*
X93050590Y-123583006D01*
X93010197Y-123610197D01*
X86447394Y-130173000D01*
X79400000Y-130173000D01*
X79350590Y-130183006D01*
X79313858Y-130206680D01*
X78050345Y-131373000D01*
X70177000Y-131373000D01*
X70177000Y-127322815D01*
X81974630Y-127322815D01*
X82298980Y-128107800D01*
X82899041Y-128708909D01*
X83683459Y-129034628D01*
X84532815Y-129035370D01*
X85317800Y-128711020D01*
X85918909Y-128110959D01*
X86244628Y-127326541D01*
X86245370Y-126477185D01*
X85921020Y-125692200D01*
X85320959Y-125091091D01*
X84536541Y-124765372D01*
X83687185Y-124764630D01*
X82902200Y-125088980D01*
X82301091Y-125689041D01*
X81975372Y-126473459D01*
X81974630Y-127322815D01*
X70177000Y-127322815D01*
X70177000Y-126250000D01*
X70166994Y-126200590D01*
X70139803Y-126160197D01*
X68427000Y-124447394D01*
X68427000Y-123953991D01*
X88924735Y-123953991D01*
X89157932Y-124518371D01*
X89589357Y-124950551D01*
X90153330Y-125184733D01*
X90763991Y-125185265D01*
X91328371Y-124952068D01*
X91760551Y-124520643D01*
X91994733Y-123956670D01*
X91995265Y-123346009D01*
X91762068Y-122781629D01*
X91330643Y-122349449D01*
X90766670Y-122115267D01*
X90156009Y-122114735D01*
X89591629Y-122347932D01*
X89159449Y-122779357D01*
X88925267Y-123343330D01*
X88924735Y-123953991D01*
X68427000Y-123953991D01*
X68427000Y-122750000D01*
X68416994Y-122700590D01*
X68388553Y-122658965D01*
X68346159Y-122631685D01*
X68300000Y-122623000D01*
X67649665Y-122623000D01*
X65703000Y-122628136D01*
X65703000Y-122423000D01*
X65723000Y-122423000D01*
X65723000Y-121673750D01*
X65977000Y-121673750D01*
X65977000Y-122423000D01*
X66701250Y-122423000D01*
X66860000Y-122264250D01*
X66860000Y-122023691D01*
X66763327Y-121790302D01*
X66584699Y-121611673D01*
X66351310Y-121515000D01*
X66135750Y-121515000D01*
X65977000Y-121673750D01*
X65723000Y-121673750D01*
X65564250Y-121515000D01*
X65384552Y-121515000D01*
X65385592Y-120322815D01*
X80974630Y-120322815D01*
X81298980Y-121107800D01*
X81899041Y-121708909D01*
X82683459Y-122034628D01*
X83532815Y-122035370D01*
X84317800Y-121711020D01*
X84918909Y-121110959D01*
X85244628Y-120326541D01*
X85245370Y-119477185D01*
X84921020Y-118692200D01*
X84320959Y-118091091D01*
X83536541Y-117765372D01*
X82687185Y-117764630D01*
X81902200Y-118088980D01*
X81301091Y-118689041D01*
X80975372Y-119473459D01*
X80974630Y-120322815D01*
X65385592Y-120322815D01*
X65385630Y-120280126D01*
X64833400Y-118943628D01*
X63811751Y-117920194D01*
X62476218Y-117365632D01*
X61030126Y-117364370D01*
X59693628Y-117916600D01*
X58670194Y-118938249D01*
X58310000Y-119805692D01*
X58310000Y-117700000D01*
X58252148Y-117409161D01*
X58087401Y-117162599D01*
X57878793Y-116953991D01*
X87924735Y-116953991D01*
X88157932Y-117518371D01*
X88589357Y-117950551D01*
X89153330Y-118184733D01*
X89763991Y-118185265D01*
X90328371Y-117952068D01*
X90760551Y-117520643D01*
X90994733Y-116956670D01*
X90995265Y-116346009D01*
X90762068Y-115781629D01*
X90330643Y-115349449D01*
X89766670Y-115115267D01*
X89156009Y-115114735D01*
X88591629Y-115347932D01*
X88159449Y-115779357D01*
X87925267Y-116343330D01*
X87924735Y-116953991D01*
X57878793Y-116953991D01*
X55827985Y-114903183D01*
X55828069Y-114806337D01*
X55679507Y-114446788D01*
X55404659Y-114171460D01*
X55045370Y-114022270D01*
X54656337Y-114021931D01*
X54296788Y-114170493D01*
X54021460Y-114445341D01*
X53872270Y-114804630D01*
X53871931Y-115193663D01*
X54020493Y-115553212D01*
X54295341Y-115828540D01*
X54654630Y-115977730D01*
X54753014Y-115977816D01*
X56790000Y-118014802D01*
X56790000Y-119209739D01*
X56606744Y-119133644D01*
X56217711Y-119133305D01*
X55858162Y-119281867D01*
X55582834Y-119556715D01*
X55433644Y-119916004D01*
X55433305Y-120305037D01*
X55581867Y-120664586D01*
X55856715Y-120939914D01*
X56140000Y-121057544D01*
X56140000Y-121576920D01*
X56071460Y-121645341D01*
X55922270Y-122004630D01*
X55921931Y-122393663D01*
X56029359Y-122653660D01*
X53026877Y-122661583D01*
X53026877Y-110851679D01*
X57751218Y-115576020D01*
X57997780Y-115740767D01*
X58288619Y-115798619D01*
X60565539Y-115798619D01*
X60633960Y-115867159D01*
X60993249Y-116016349D01*
X61382282Y-116016688D01*
X61741831Y-115868126D01*
X62017159Y-115593278D01*
X62166349Y-115233989D01*
X62166688Y-114844956D01*
X62018126Y-114485407D01*
X61743278Y-114210079D01*
X61383989Y-114060889D01*
X60994956Y-114060550D01*
X60635407Y-114209112D01*
X60565779Y-114278619D01*
X58603421Y-114278619D01*
X57147617Y-112822815D01*
X81974630Y-112822815D01*
X82298980Y-113607800D01*
X82899041Y-114208909D01*
X83683459Y-114534628D01*
X84532815Y-114535370D01*
X85317800Y-114211020D01*
X85918909Y-113610959D01*
X86244628Y-112826541D01*
X86245370Y-111977185D01*
X85921020Y-111192200D01*
X85320959Y-110591091D01*
X84536541Y-110265372D01*
X83687185Y-110264630D01*
X82902200Y-110588980D01*
X82301091Y-111189041D01*
X81975372Y-111973459D01*
X81974630Y-112822815D01*
X57147617Y-112822815D01*
X53778793Y-109453991D01*
X88924735Y-109453991D01*
X89157932Y-110018371D01*
X89589357Y-110450551D01*
X90153330Y-110684733D01*
X90763991Y-110685265D01*
X91328371Y-110452068D01*
X91760551Y-110020643D01*
X91994733Y-109456670D01*
X91995265Y-108846009D01*
X91762068Y-108281629D01*
X91330643Y-107849449D01*
X90766670Y-107615267D01*
X90156009Y-107614735D01*
X89591629Y-107847932D01*
X89159449Y-108279357D01*
X88925267Y-108843330D01*
X88924735Y-109453991D01*
X53778793Y-109453991D01*
X53760000Y-109435198D01*
X53760000Y-106464802D01*
X54046817Y-106177985D01*
X54143663Y-106178069D01*
X54503212Y-106029507D01*
X54710264Y-105822815D01*
X81974630Y-105822815D01*
X82298980Y-106607800D01*
X82899041Y-107208909D01*
X83683459Y-107534628D01*
X84532815Y-107535370D01*
X85317800Y-107211020D01*
X85918909Y-106610959D01*
X86244628Y-105826541D01*
X86245370Y-104977185D01*
X85921020Y-104192200D01*
X85320959Y-103591091D01*
X84536541Y-103265372D01*
X83687185Y-103264630D01*
X82902200Y-103588980D01*
X82301091Y-104189041D01*
X81975372Y-104973459D01*
X81974630Y-105822815D01*
X54710264Y-105822815D01*
X54778540Y-105754659D01*
X54927730Y-105395370D01*
X54928069Y-105006337D01*
X54779507Y-104646788D01*
X54504659Y-104371460D01*
X54145370Y-104222270D01*
X53756337Y-104221931D01*
X53396788Y-104370493D01*
X53121460Y-104645341D01*
X53026877Y-104873122D01*
X53026877Y-102453991D01*
X88924735Y-102453991D01*
X89157932Y-103018371D01*
X89589357Y-103450551D01*
X90153330Y-103684733D01*
X90763991Y-103685265D01*
X91328371Y-103452068D01*
X91760551Y-103020643D01*
X91994733Y-102456670D01*
X91995265Y-101846009D01*
X91762068Y-101281629D01*
X91330643Y-100849449D01*
X90766670Y-100615267D01*
X90156009Y-100614735D01*
X89591629Y-100847932D01*
X89159449Y-101279357D01*
X88925267Y-101843330D01*
X88924735Y-102453991D01*
X53026877Y-102453991D01*
X53026877Y-95593663D01*
X53121931Y-95593663D01*
X53270493Y-95953212D01*
X53545341Y-96228540D01*
X53904630Y-96377730D01*
X54003014Y-96377816D01*
X54112599Y-96487401D01*
X54193259Y-96541296D01*
X54196838Y-96560317D01*
X54335910Y-96776441D01*
X54438498Y-96846536D01*
X54351511Y-96976723D01*
X54329901Y-97009064D01*
X54306497Y-97126723D01*
X54277546Y-97272270D01*
X54272049Y-97299903D01*
X54272049Y-100532049D01*
X54329901Y-100822888D01*
X54494648Y-101069450D01*
X54522015Y-101096817D01*
X54521931Y-101193663D01*
X54670493Y-101553212D01*
X54945341Y-101828540D01*
X55304630Y-101977730D01*
X55693663Y-101978069D01*
X56053212Y-101829507D01*
X56328540Y-101554659D01*
X56477730Y-101195370D01*
X56478069Y-100806337D01*
X56329507Y-100446788D01*
X56054659Y-100171460D01*
X55792049Y-100062415D01*
X55792049Y-99118697D01*
X56054630Y-99227730D01*
X56153014Y-99227816D01*
X57212599Y-100287401D01*
X57459160Y-100452148D01*
X57750000Y-100510000D01*
X65376920Y-100510000D01*
X65445341Y-100578540D01*
X65804630Y-100727730D01*
X66193663Y-100728069D01*
X66553212Y-100579507D01*
X66828540Y-100304659D01*
X66977730Y-99945370D01*
X66978069Y-99556337D01*
X66829507Y-99196788D01*
X66554659Y-98921460D01*
X66317096Y-98822815D01*
X81974630Y-98822815D01*
X82298980Y-99607800D01*
X82899041Y-100208909D01*
X83683459Y-100534628D01*
X84532815Y-100535370D01*
X85317800Y-100211020D01*
X85918909Y-99610959D01*
X86244628Y-98826541D01*
X86245370Y-97977185D01*
X85921020Y-97192200D01*
X85320959Y-96591091D01*
X84536541Y-96265372D01*
X83687185Y-96264630D01*
X82902200Y-96588980D01*
X82301091Y-97189041D01*
X81975372Y-97973459D01*
X81974630Y-98822815D01*
X66317096Y-98822815D01*
X66195370Y-98772270D01*
X65806337Y-98771931D01*
X65446788Y-98920493D01*
X65377160Y-98990000D01*
X58064802Y-98990000D01*
X57432451Y-98357649D01*
X62402349Y-98357649D01*
X62693188Y-98299797D01*
X62939750Y-98135050D01*
X64096817Y-96977983D01*
X64193663Y-96978067D01*
X64553212Y-96829505D01*
X64828540Y-96554657D01*
X64977730Y-96195368D01*
X64978069Y-95806335D01*
X64832485Y-95453991D01*
X88924735Y-95453991D01*
X89157932Y-96018371D01*
X89589357Y-96450551D01*
X90153330Y-96684733D01*
X90763991Y-96685265D01*
X91328371Y-96452068D01*
X91760551Y-96020643D01*
X91994733Y-95456670D01*
X91994735Y-95453991D01*
X94004735Y-95453991D01*
X94237932Y-96018371D01*
X94669357Y-96450551D01*
X95233330Y-96684733D01*
X95843991Y-96685265D01*
X96408371Y-96452068D01*
X96840551Y-96020643D01*
X97074733Y-95456670D01*
X97075265Y-94846009D01*
X96842068Y-94281629D01*
X96410643Y-93849449D01*
X95846670Y-93615267D01*
X95236009Y-93614735D01*
X94671629Y-93847932D01*
X94239449Y-94279357D01*
X94005267Y-94843330D01*
X94004735Y-95453991D01*
X91994735Y-95453991D01*
X91995265Y-94846009D01*
X91762068Y-94281629D01*
X91330643Y-93849449D01*
X90766670Y-93615267D01*
X90156009Y-93614735D01*
X89591629Y-93847932D01*
X89159449Y-94279357D01*
X88925267Y-94843330D01*
X88924735Y-95453991D01*
X64832485Y-95453991D01*
X64829507Y-95446786D01*
X64554659Y-95171458D01*
X64195370Y-95022268D01*
X63806337Y-95021929D01*
X63446788Y-95170491D01*
X63171460Y-95445339D01*
X63022270Y-95804628D01*
X63022184Y-95903012D01*
X62087547Y-96837649D01*
X59287153Y-96837649D01*
X63487401Y-92637401D01*
X63652148Y-92390839D01*
X63710000Y-92100000D01*
X63710000Y-91855960D01*
X63716593Y-91822815D01*
X81974630Y-91822815D01*
X82298980Y-92607800D01*
X82899041Y-93208909D01*
X83683459Y-93534628D01*
X84532815Y-93535370D01*
X85317800Y-93211020D01*
X85918909Y-92610959D01*
X86244628Y-91826541D01*
X86245370Y-90977185D01*
X85921020Y-90192200D01*
X85320959Y-89591091D01*
X84536541Y-89265372D01*
X83687185Y-89264630D01*
X82902200Y-89588980D01*
X82301091Y-90189041D01*
X81975372Y-90973459D01*
X81974630Y-91822815D01*
X63716593Y-91822815D01*
X63752467Y-91642466D01*
X63752467Y-86580599D01*
X63828540Y-86504659D01*
X63977730Y-86145370D01*
X63978069Y-85756337D01*
X63829507Y-85396788D01*
X63554659Y-85121460D01*
X63195370Y-84972270D01*
X62806337Y-84971931D01*
X62446788Y-85120493D01*
X62171460Y-85395341D01*
X62022270Y-85754630D01*
X62021931Y-86143663D01*
X62170493Y-86503212D01*
X62232467Y-86565294D01*
X62232467Y-91436506D01*
X62190000Y-91650000D01*
X62190000Y-91785198D01*
X57855499Y-96119699D01*
X57618949Y-96119699D01*
X57576250Y-96077000D01*
X56827000Y-96077000D01*
X56827000Y-96097000D01*
X56573000Y-96097000D01*
X56573000Y-96077000D01*
X56553000Y-96077000D01*
X56553000Y-95823000D01*
X56573000Y-95823000D01*
X56573000Y-95098750D01*
X56827000Y-95098750D01*
X56827000Y-95823000D01*
X57576250Y-95823000D01*
X57735000Y-95664250D01*
X57735000Y-95448690D01*
X57638327Y-95215301D01*
X57459698Y-95036673D01*
X57421162Y-95020711D01*
X57559698Y-94963327D01*
X57738327Y-94784699D01*
X57835000Y-94551310D01*
X57835000Y-94335750D01*
X57676250Y-94177000D01*
X56927000Y-94177000D01*
X56927000Y-94901250D01*
X56975750Y-94950000D01*
X56827000Y-95098750D01*
X56573000Y-95098750D01*
X56524250Y-95050000D01*
X56673000Y-94901250D01*
X56673000Y-94177000D01*
X56653000Y-94177000D01*
X56653000Y-93923000D01*
X56673000Y-93923000D01*
X56673000Y-93903000D01*
X56927000Y-93903000D01*
X56927000Y-93923000D01*
X57676250Y-93923000D01*
X57835000Y-93764250D01*
X57835000Y-93548690D01*
X57738327Y-93315301D01*
X57559698Y-93136673D01*
X57326309Y-93040000D01*
X57273817Y-93040000D01*
X57302730Y-92970370D01*
X57303069Y-92581337D01*
X57154507Y-92221788D01*
X56879659Y-91946460D01*
X56520370Y-91797270D01*
X56131337Y-91796931D01*
X55956166Y-91869310D01*
X55750000Y-91827560D01*
X54950000Y-91827560D01*
X54714683Y-91871838D01*
X54611354Y-91938329D01*
X54609698Y-91936673D01*
X54376309Y-91840000D01*
X54135750Y-91840000D01*
X53977000Y-91998750D01*
X53977000Y-92723000D01*
X53997000Y-92723000D01*
X53997000Y-92977000D01*
X53977000Y-92977000D01*
X53977000Y-93701250D01*
X54117164Y-93841414D01*
X54046788Y-93870493D01*
X53771460Y-94145341D01*
X53622270Y-94504630D01*
X53622240Y-94539317D01*
X53546788Y-94570493D01*
X53271460Y-94845341D01*
X53122270Y-95204630D01*
X53121931Y-95593663D01*
X53026877Y-95593663D01*
X53026877Y-93699902D01*
X53090302Y-93763327D01*
X53323691Y-93860000D01*
X53564250Y-93860000D01*
X53723000Y-93701250D01*
X53723000Y-92977000D01*
X53703000Y-92977000D01*
X53703000Y-92723000D01*
X53723000Y-92723000D01*
X53723000Y-91998750D01*
X53564250Y-91840000D01*
X53323691Y-91840000D01*
X53090302Y-91936673D01*
X53026877Y-92000098D01*
X53026877Y-83035750D01*
X62940000Y-83035750D01*
X62940000Y-83276309D01*
X63036673Y-83509698D01*
X63215301Y-83688327D01*
X63448690Y-83785000D01*
X63664250Y-83785000D01*
X63823000Y-83626250D01*
X63823000Y-82877000D01*
X64077000Y-82877000D01*
X64077000Y-83626250D01*
X64235750Y-83785000D01*
X64451310Y-83785000D01*
X64684699Y-83688327D01*
X64863327Y-83509698D01*
X64960000Y-83276309D01*
X64960000Y-83035750D01*
X64801250Y-82877000D01*
X64077000Y-82877000D01*
X63823000Y-82877000D01*
X63098750Y-82877000D01*
X62940000Y-83035750D01*
X53026877Y-83035750D01*
X53026877Y-82377000D01*
X62940000Y-82377000D01*
X62940000Y-82464250D01*
X63098750Y-82623000D01*
X63823000Y-82623000D01*
X63823000Y-82603000D01*
X64077000Y-82603000D01*
X64077000Y-82623000D01*
X64801250Y-82623000D01*
X64960000Y-82464250D01*
X64960000Y-82377000D01*
X66273000Y-82377000D01*
X66273000Y-88900000D01*
X66283006Y-88949410D01*
X66311447Y-88991035D01*
X66353841Y-89018315D01*
X66400000Y-89027000D01*
X86700000Y-89027000D01*
X86749410Y-89016994D01*
X86789135Y-88990465D01*
X87333616Y-88453991D01*
X88924735Y-88453991D01*
X89157932Y-89018371D01*
X89589357Y-89450551D01*
X90153330Y-89684733D01*
X90763991Y-89685265D01*
X91328371Y-89452068D01*
X91760551Y-89020643D01*
X91994733Y-88456670D01*
X91995265Y-87846009D01*
X91762068Y-87281629D01*
X91330643Y-86849449D01*
X90766670Y-86615267D01*
X90156009Y-86614735D01*
X89591629Y-86847932D01*
X89159449Y-87279357D01*
X88925267Y-87843330D01*
X88924735Y-88453991D01*
X87333616Y-88453991D01*
X93552055Y-82327000D01*
X94507172Y-82327000D01*
X94524890Y-82344718D01*
X94524890Y-82344718D01*
G37*
X94524890Y-82344718D02*
X94542608Y-82327000D01*
X94672070Y-82327000D01*
X94725852Y-82486643D01*
X95299336Y-82696458D01*
X95909460Y-82670839D01*
X96354148Y-82486643D01*
X96407930Y-82327000D01*
X96537392Y-82327000D01*
X96555110Y-82344718D01*
X96572828Y-82327000D01*
X101316238Y-82327000D01*
X100682200Y-82588980D01*
X100081091Y-83189041D01*
X99755372Y-83973459D01*
X99754630Y-84822815D01*
X100078980Y-85607800D01*
X100679041Y-86208909D01*
X101463459Y-86534628D01*
X102312815Y-86535370D01*
X103097800Y-86211020D01*
X103698909Y-85610959D01*
X104024628Y-84826541D01*
X104025370Y-83977185D01*
X103701020Y-83192200D01*
X103100959Y-82591091D01*
X102464958Y-82327000D01*
X102847394Y-82327000D01*
X104973000Y-84452606D01*
X104973000Y-107265000D01*
X102967159Y-107265000D01*
X103097800Y-107211020D01*
X103698909Y-106610959D01*
X104024628Y-105826541D01*
X104025370Y-104977185D01*
X103701020Y-104192200D01*
X103100959Y-103591091D01*
X102316541Y-103265372D01*
X101467185Y-103264630D01*
X100735000Y-103567163D01*
X100735000Y-100232145D01*
X101463459Y-100534628D01*
X102312815Y-100535370D01*
X103097800Y-100211020D01*
X103698909Y-99610959D01*
X104024628Y-98826541D01*
X104025370Y-97977185D01*
X103701020Y-97192200D01*
X103100959Y-96591091D01*
X102316541Y-96265372D01*
X101467185Y-96264630D01*
X100735000Y-96567163D01*
X100735000Y-93232145D01*
X101463459Y-93534628D01*
X102312815Y-93535370D01*
X103097800Y-93211020D01*
X103698909Y-92610959D01*
X104024628Y-91826541D01*
X104025370Y-90977185D01*
X103701020Y-90192200D01*
X103100959Y-89591091D01*
X102316541Y-89265372D01*
X101467185Y-89264630D01*
X100682200Y-89588980D01*
X100081091Y-90189041D01*
X99847689Y-90751135D01*
X97075149Y-87978595D01*
X97075265Y-87846009D01*
X96842068Y-87281629D01*
X96410643Y-86849449D01*
X95846670Y-86615267D01*
X95236009Y-86614735D01*
X94671629Y-86847932D01*
X94239449Y-87279357D01*
X94005267Y-87843330D01*
X94004735Y-88453991D01*
X94237932Y-89018371D01*
X94669357Y-89450551D01*
X95233330Y-89684733D01*
X95288227Y-89684781D01*
X98265000Y-92661554D01*
X98265000Y-103168446D01*
X97075149Y-101978595D01*
X97075265Y-101846009D01*
X96842068Y-101281629D01*
X96410643Y-100849449D01*
X95846670Y-100615267D01*
X95236009Y-100614735D01*
X94671629Y-100847932D01*
X94239449Y-101279357D01*
X94005267Y-101843330D01*
X94004735Y-102453991D01*
X94237932Y-103018371D01*
X94669357Y-103450551D01*
X95233330Y-103684733D01*
X95288227Y-103684781D01*
X96465000Y-104861554D01*
X96465000Y-107903901D01*
X96410643Y-107849449D01*
X95846670Y-107615267D01*
X95236009Y-107614735D01*
X94671629Y-107847932D01*
X94239449Y-108279357D01*
X94005267Y-108843330D01*
X94004735Y-109453991D01*
X94237932Y-110018371D01*
X94669357Y-110450551D01*
X95233330Y-110684733D01*
X95843991Y-110685265D01*
X96408371Y-110452068D01*
X96465000Y-110395538D01*
X96465000Y-119318446D01*
X95775000Y-118628446D01*
X95775000Y-117586079D01*
X95840551Y-117520643D01*
X96074733Y-116956670D01*
X96075265Y-116346009D01*
X95842068Y-115781629D01*
X95410643Y-115349449D01*
X94846670Y-115115267D01*
X94236009Y-115114735D01*
X93671629Y-115347932D01*
X93239449Y-115779357D01*
X93005267Y-116343330D01*
X93004735Y-116953991D01*
X93237932Y-117518371D01*
X93305000Y-117585556D01*
X93305000Y-119140000D01*
X93399009Y-119612614D01*
X93666723Y-120013277D01*
X95768645Y-122115199D01*
X95236009Y-122114735D01*
X94671629Y-122347932D01*
X94239449Y-122779357D01*
X94005267Y-123343330D01*
X94005067Y-123573000D01*
X93100000Y-123573000D01*
X93050590Y-123583006D01*
X93010197Y-123610197D01*
X86447394Y-130173000D01*
X79400000Y-130173000D01*
X79350590Y-130183006D01*
X79313858Y-130206680D01*
X78050345Y-131373000D01*
X70177000Y-131373000D01*
X70177000Y-127322815D01*
X81974630Y-127322815D01*
X82298980Y-128107800D01*
X82899041Y-128708909D01*
X83683459Y-129034628D01*
X84532815Y-129035370D01*
X85317800Y-128711020D01*
X85918909Y-128110959D01*
X86244628Y-127326541D01*
X86245370Y-126477185D01*
X85921020Y-125692200D01*
X85320959Y-125091091D01*
X84536541Y-124765372D01*
X83687185Y-124764630D01*
X82902200Y-125088980D01*
X82301091Y-125689041D01*
X81975372Y-126473459D01*
X81974630Y-127322815D01*
X70177000Y-127322815D01*
X70177000Y-126250000D01*
X70166994Y-126200590D01*
X70139803Y-126160197D01*
X68427000Y-124447394D01*
X68427000Y-123953991D01*
X88924735Y-123953991D01*
X89157932Y-124518371D01*
X89589357Y-124950551D01*
X90153330Y-125184733D01*
X90763991Y-125185265D01*
X91328371Y-124952068D01*
X91760551Y-124520643D01*
X91994733Y-123956670D01*
X91995265Y-123346009D01*
X91762068Y-122781629D01*
X91330643Y-122349449D01*
X90766670Y-122115267D01*
X90156009Y-122114735D01*
X89591629Y-122347932D01*
X89159449Y-122779357D01*
X88925267Y-123343330D01*
X88924735Y-123953991D01*
X68427000Y-123953991D01*
X68427000Y-122750000D01*
X68416994Y-122700590D01*
X68388553Y-122658965D01*
X68346159Y-122631685D01*
X68300000Y-122623000D01*
X67649665Y-122623000D01*
X65703000Y-122628136D01*
X65703000Y-122423000D01*
X65723000Y-122423000D01*
X65723000Y-121673750D01*
X65977000Y-121673750D01*
X65977000Y-122423000D01*
X66701250Y-122423000D01*
X66860000Y-122264250D01*
X66860000Y-122023691D01*
X66763327Y-121790302D01*
X66584699Y-121611673D01*
X66351310Y-121515000D01*
X66135750Y-121515000D01*
X65977000Y-121673750D01*
X65723000Y-121673750D01*
X65564250Y-121515000D01*
X65384552Y-121515000D01*
X65385592Y-120322815D01*
X80974630Y-120322815D01*
X81298980Y-121107800D01*
X81899041Y-121708909D01*
X82683459Y-122034628D01*
X83532815Y-122035370D01*
X84317800Y-121711020D01*
X84918909Y-121110959D01*
X85244628Y-120326541D01*
X85245370Y-119477185D01*
X84921020Y-118692200D01*
X84320959Y-118091091D01*
X83536541Y-117765372D01*
X82687185Y-117764630D01*
X81902200Y-118088980D01*
X81301091Y-118689041D01*
X80975372Y-119473459D01*
X80974630Y-120322815D01*
X65385592Y-120322815D01*
X65385630Y-120280126D01*
X64833400Y-118943628D01*
X63811751Y-117920194D01*
X62476218Y-117365632D01*
X61030126Y-117364370D01*
X59693628Y-117916600D01*
X58670194Y-118938249D01*
X58310000Y-119805692D01*
X58310000Y-117700000D01*
X58252148Y-117409161D01*
X58087401Y-117162599D01*
X57878793Y-116953991D01*
X87924735Y-116953991D01*
X88157932Y-117518371D01*
X88589357Y-117950551D01*
X89153330Y-118184733D01*
X89763991Y-118185265D01*
X90328371Y-117952068D01*
X90760551Y-117520643D01*
X90994733Y-116956670D01*
X90995265Y-116346009D01*
X90762068Y-115781629D01*
X90330643Y-115349449D01*
X89766670Y-115115267D01*
X89156009Y-115114735D01*
X88591629Y-115347932D01*
X88159449Y-115779357D01*
X87925267Y-116343330D01*
X87924735Y-116953991D01*
X57878793Y-116953991D01*
X55827985Y-114903183D01*
X55828069Y-114806337D01*
X55679507Y-114446788D01*
X55404659Y-114171460D01*
X55045370Y-114022270D01*
X54656337Y-114021931D01*
X54296788Y-114170493D01*
X54021460Y-114445341D01*
X53872270Y-114804630D01*
X53871931Y-115193663D01*
X54020493Y-115553212D01*
X54295341Y-115828540D01*
X54654630Y-115977730D01*
X54753014Y-115977816D01*
X56790000Y-118014802D01*
X56790000Y-119209739D01*
X56606744Y-119133644D01*
X56217711Y-119133305D01*
X55858162Y-119281867D01*
X55582834Y-119556715D01*
X55433644Y-119916004D01*
X55433305Y-120305037D01*
X55581867Y-120664586D01*
X55856715Y-120939914D01*
X56140000Y-121057544D01*
X56140000Y-121576920D01*
X56071460Y-121645341D01*
X55922270Y-122004630D01*
X55921931Y-122393663D01*
X56029359Y-122653660D01*
X53026877Y-122661583D01*
X53026877Y-110851679D01*
X57751218Y-115576020D01*
X57997780Y-115740767D01*
X58288619Y-115798619D01*
X60565539Y-115798619D01*
X60633960Y-115867159D01*
X60993249Y-116016349D01*
X61382282Y-116016688D01*
X61741831Y-115868126D01*
X62017159Y-115593278D01*
X62166349Y-115233989D01*
X62166688Y-114844956D01*
X62018126Y-114485407D01*
X61743278Y-114210079D01*
X61383989Y-114060889D01*
X60994956Y-114060550D01*
X60635407Y-114209112D01*
X60565779Y-114278619D01*
X58603421Y-114278619D01*
X57147617Y-112822815D01*
X81974630Y-112822815D01*
X82298980Y-113607800D01*
X82899041Y-114208909D01*
X83683459Y-114534628D01*
X84532815Y-114535370D01*
X85317800Y-114211020D01*
X85918909Y-113610959D01*
X86244628Y-112826541D01*
X86245370Y-111977185D01*
X85921020Y-111192200D01*
X85320959Y-110591091D01*
X84536541Y-110265372D01*
X83687185Y-110264630D01*
X82902200Y-110588980D01*
X82301091Y-111189041D01*
X81975372Y-111973459D01*
X81974630Y-112822815D01*
X57147617Y-112822815D01*
X53778793Y-109453991D01*
X88924735Y-109453991D01*
X89157932Y-110018371D01*
X89589357Y-110450551D01*
X90153330Y-110684733D01*
X90763991Y-110685265D01*
X91328371Y-110452068D01*
X91760551Y-110020643D01*
X91994733Y-109456670D01*
X91995265Y-108846009D01*
X91762068Y-108281629D01*
X91330643Y-107849449D01*
X90766670Y-107615267D01*
X90156009Y-107614735D01*
X89591629Y-107847932D01*
X89159449Y-108279357D01*
X88925267Y-108843330D01*
X88924735Y-109453991D01*
X53778793Y-109453991D01*
X53760000Y-109435198D01*
X53760000Y-106464802D01*
X54046817Y-106177985D01*
X54143663Y-106178069D01*
X54503212Y-106029507D01*
X54710264Y-105822815D01*
X81974630Y-105822815D01*
X82298980Y-106607800D01*
X82899041Y-107208909D01*
X83683459Y-107534628D01*
X84532815Y-107535370D01*
X85317800Y-107211020D01*
X85918909Y-106610959D01*
X86244628Y-105826541D01*
X86245370Y-104977185D01*
X85921020Y-104192200D01*
X85320959Y-103591091D01*
X84536541Y-103265372D01*
X83687185Y-103264630D01*
X82902200Y-103588980D01*
X82301091Y-104189041D01*
X81975372Y-104973459D01*
X81974630Y-105822815D01*
X54710264Y-105822815D01*
X54778540Y-105754659D01*
X54927730Y-105395370D01*
X54928069Y-105006337D01*
X54779507Y-104646788D01*
X54504659Y-104371460D01*
X54145370Y-104222270D01*
X53756337Y-104221931D01*
X53396788Y-104370493D01*
X53121460Y-104645341D01*
X53026877Y-104873122D01*
X53026877Y-102453991D01*
X88924735Y-102453991D01*
X89157932Y-103018371D01*
X89589357Y-103450551D01*
X90153330Y-103684733D01*
X90763991Y-103685265D01*
X91328371Y-103452068D01*
X91760551Y-103020643D01*
X91994733Y-102456670D01*
X91995265Y-101846009D01*
X91762068Y-101281629D01*
X91330643Y-100849449D01*
X90766670Y-100615267D01*
X90156009Y-100614735D01*
X89591629Y-100847932D01*
X89159449Y-101279357D01*
X88925267Y-101843330D01*
X88924735Y-102453991D01*
X53026877Y-102453991D01*
X53026877Y-95593663D01*
X53121931Y-95593663D01*
X53270493Y-95953212D01*
X53545341Y-96228540D01*
X53904630Y-96377730D01*
X54003014Y-96377816D01*
X54112599Y-96487401D01*
X54193259Y-96541296D01*
X54196838Y-96560317D01*
X54335910Y-96776441D01*
X54438498Y-96846536D01*
X54351511Y-96976723D01*
X54329901Y-97009064D01*
X54306497Y-97126723D01*
X54277546Y-97272270D01*
X54272049Y-97299903D01*
X54272049Y-100532049D01*
X54329901Y-100822888D01*
X54494648Y-101069450D01*
X54522015Y-101096817D01*
X54521931Y-101193663D01*
X54670493Y-101553212D01*
X54945341Y-101828540D01*
X55304630Y-101977730D01*
X55693663Y-101978069D01*
X56053212Y-101829507D01*
X56328540Y-101554659D01*
X56477730Y-101195370D01*
X56478069Y-100806337D01*
X56329507Y-100446788D01*
X56054659Y-100171460D01*
X55792049Y-100062415D01*
X55792049Y-99118697D01*
X56054630Y-99227730D01*
X56153014Y-99227816D01*
X57212599Y-100287401D01*
X57459160Y-100452148D01*
X57750000Y-100510000D01*
X65376920Y-100510000D01*
X65445341Y-100578540D01*
X65804630Y-100727730D01*
X66193663Y-100728069D01*
X66553212Y-100579507D01*
X66828540Y-100304659D01*
X66977730Y-99945370D01*
X66978069Y-99556337D01*
X66829507Y-99196788D01*
X66554659Y-98921460D01*
X66317096Y-98822815D01*
X81974630Y-98822815D01*
X82298980Y-99607800D01*
X82899041Y-100208909D01*
X83683459Y-100534628D01*
X84532815Y-100535370D01*
X85317800Y-100211020D01*
X85918909Y-99610959D01*
X86244628Y-98826541D01*
X86245370Y-97977185D01*
X85921020Y-97192200D01*
X85320959Y-96591091D01*
X84536541Y-96265372D01*
X83687185Y-96264630D01*
X82902200Y-96588980D01*
X82301091Y-97189041D01*
X81975372Y-97973459D01*
X81974630Y-98822815D01*
X66317096Y-98822815D01*
X66195370Y-98772270D01*
X65806337Y-98771931D01*
X65446788Y-98920493D01*
X65377160Y-98990000D01*
X58064802Y-98990000D01*
X57432451Y-98357649D01*
X62402349Y-98357649D01*
X62693188Y-98299797D01*
X62939750Y-98135050D01*
X64096817Y-96977983D01*
X64193663Y-96978067D01*
X64553212Y-96829505D01*
X64828540Y-96554657D01*
X64977730Y-96195368D01*
X64978069Y-95806335D01*
X64832485Y-95453991D01*
X88924735Y-95453991D01*
X89157932Y-96018371D01*
X89589357Y-96450551D01*
X90153330Y-96684733D01*
X90763991Y-96685265D01*
X91328371Y-96452068D01*
X91760551Y-96020643D01*
X91994733Y-95456670D01*
X91994735Y-95453991D01*
X94004735Y-95453991D01*
X94237932Y-96018371D01*
X94669357Y-96450551D01*
X95233330Y-96684733D01*
X95843991Y-96685265D01*
X96408371Y-96452068D01*
X96840551Y-96020643D01*
X97074733Y-95456670D01*
X97075265Y-94846009D01*
X96842068Y-94281629D01*
X96410643Y-93849449D01*
X95846670Y-93615267D01*
X95236009Y-93614735D01*
X94671629Y-93847932D01*
X94239449Y-94279357D01*
X94005267Y-94843330D01*
X94004735Y-95453991D01*
X91994735Y-95453991D01*
X91995265Y-94846009D01*
X91762068Y-94281629D01*
X91330643Y-93849449D01*
X90766670Y-93615267D01*
X90156009Y-93614735D01*
X89591629Y-93847932D01*
X89159449Y-94279357D01*
X88925267Y-94843330D01*
X88924735Y-95453991D01*
X64832485Y-95453991D01*
X64829507Y-95446786D01*
X64554659Y-95171458D01*
X64195370Y-95022268D01*
X63806337Y-95021929D01*
X63446788Y-95170491D01*
X63171460Y-95445339D01*
X63022270Y-95804628D01*
X63022184Y-95903012D01*
X62087547Y-96837649D01*
X59287153Y-96837649D01*
X63487401Y-92637401D01*
X63652148Y-92390839D01*
X63710000Y-92100000D01*
X63710000Y-91855960D01*
X63716593Y-91822815D01*
X81974630Y-91822815D01*
X82298980Y-92607800D01*
X82899041Y-93208909D01*
X83683459Y-93534628D01*
X84532815Y-93535370D01*
X85317800Y-93211020D01*
X85918909Y-92610959D01*
X86244628Y-91826541D01*
X86245370Y-90977185D01*
X85921020Y-90192200D01*
X85320959Y-89591091D01*
X84536541Y-89265372D01*
X83687185Y-89264630D01*
X82902200Y-89588980D01*
X82301091Y-90189041D01*
X81975372Y-90973459D01*
X81974630Y-91822815D01*
X63716593Y-91822815D01*
X63752467Y-91642466D01*
X63752467Y-86580599D01*
X63828540Y-86504659D01*
X63977730Y-86145370D01*
X63978069Y-85756337D01*
X63829507Y-85396788D01*
X63554659Y-85121460D01*
X63195370Y-84972270D01*
X62806337Y-84971931D01*
X62446788Y-85120493D01*
X62171460Y-85395341D01*
X62022270Y-85754630D01*
X62021931Y-86143663D01*
X62170493Y-86503212D01*
X62232467Y-86565294D01*
X62232467Y-91436506D01*
X62190000Y-91650000D01*
X62190000Y-91785198D01*
X57855499Y-96119699D01*
X57618949Y-96119699D01*
X57576250Y-96077000D01*
X56827000Y-96077000D01*
X56827000Y-96097000D01*
X56573000Y-96097000D01*
X56573000Y-96077000D01*
X56553000Y-96077000D01*
X56553000Y-95823000D01*
X56573000Y-95823000D01*
X56573000Y-95098750D01*
X56827000Y-95098750D01*
X56827000Y-95823000D01*
X57576250Y-95823000D01*
X57735000Y-95664250D01*
X57735000Y-95448690D01*
X57638327Y-95215301D01*
X57459698Y-95036673D01*
X57421162Y-95020711D01*
X57559698Y-94963327D01*
X57738327Y-94784699D01*
X57835000Y-94551310D01*
X57835000Y-94335750D01*
X57676250Y-94177000D01*
X56927000Y-94177000D01*
X56927000Y-94901250D01*
X56975750Y-94950000D01*
X56827000Y-95098750D01*
X56573000Y-95098750D01*
X56524250Y-95050000D01*
X56673000Y-94901250D01*
X56673000Y-94177000D01*
X56653000Y-94177000D01*
X56653000Y-93923000D01*
X56673000Y-93923000D01*
X56673000Y-93903000D01*
X56927000Y-93903000D01*
X56927000Y-93923000D01*
X57676250Y-93923000D01*
X57835000Y-93764250D01*
X57835000Y-93548690D01*
X57738327Y-93315301D01*
X57559698Y-93136673D01*
X57326309Y-93040000D01*
X57273817Y-93040000D01*
X57302730Y-92970370D01*
X57303069Y-92581337D01*
X57154507Y-92221788D01*
X56879659Y-91946460D01*
X56520370Y-91797270D01*
X56131337Y-91796931D01*
X55956166Y-91869310D01*
X55750000Y-91827560D01*
X54950000Y-91827560D01*
X54714683Y-91871838D01*
X54611354Y-91938329D01*
X54609698Y-91936673D01*
X54376309Y-91840000D01*
X54135750Y-91840000D01*
X53977000Y-91998750D01*
X53977000Y-92723000D01*
X53997000Y-92723000D01*
X53997000Y-92977000D01*
X53977000Y-92977000D01*
X53977000Y-93701250D01*
X54117164Y-93841414D01*
X54046788Y-93870493D01*
X53771460Y-94145341D01*
X53622270Y-94504630D01*
X53622240Y-94539317D01*
X53546788Y-94570493D01*
X53271460Y-94845341D01*
X53122270Y-95204630D01*
X53121931Y-95593663D01*
X53026877Y-95593663D01*
X53026877Y-93699902D01*
X53090302Y-93763327D01*
X53323691Y-93860000D01*
X53564250Y-93860000D01*
X53723000Y-93701250D01*
X53723000Y-92977000D01*
X53703000Y-92977000D01*
X53703000Y-92723000D01*
X53723000Y-92723000D01*
X53723000Y-91998750D01*
X53564250Y-91840000D01*
X53323691Y-91840000D01*
X53090302Y-91936673D01*
X53026877Y-92000098D01*
X53026877Y-83035750D01*
X62940000Y-83035750D01*
X62940000Y-83276309D01*
X63036673Y-83509698D01*
X63215301Y-83688327D01*
X63448690Y-83785000D01*
X63664250Y-83785000D01*
X63823000Y-83626250D01*
X63823000Y-82877000D01*
X64077000Y-82877000D01*
X64077000Y-83626250D01*
X64235750Y-83785000D01*
X64451310Y-83785000D01*
X64684699Y-83688327D01*
X64863327Y-83509698D01*
X64960000Y-83276309D01*
X64960000Y-83035750D01*
X64801250Y-82877000D01*
X64077000Y-82877000D01*
X63823000Y-82877000D01*
X63098750Y-82877000D01*
X62940000Y-83035750D01*
X53026877Y-83035750D01*
X53026877Y-82377000D01*
X62940000Y-82377000D01*
X62940000Y-82464250D01*
X63098750Y-82623000D01*
X63823000Y-82623000D01*
X63823000Y-82603000D01*
X64077000Y-82603000D01*
X64077000Y-82623000D01*
X64801250Y-82623000D01*
X64960000Y-82464250D01*
X64960000Y-82377000D01*
X66273000Y-82377000D01*
X66273000Y-88900000D01*
X66283006Y-88949410D01*
X66311447Y-88991035D01*
X66353841Y-89018315D01*
X66400000Y-89027000D01*
X86700000Y-89027000D01*
X86749410Y-89016994D01*
X86789135Y-88990465D01*
X87333616Y-88453991D01*
X88924735Y-88453991D01*
X89157932Y-89018371D01*
X89589357Y-89450551D01*
X90153330Y-89684733D01*
X90763991Y-89685265D01*
X91328371Y-89452068D01*
X91760551Y-89020643D01*
X91994733Y-88456670D01*
X91995265Y-87846009D01*
X91762068Y-87281629D01*
X91330643Y-86849449D01*
X90766670Y-86615267D01*
X90156009Y-86614735D01*
X89591629Y-86847932D01*
X89159449Y-87279357D01*
X88925267Y-87843330D01*
X88924735Y-88453991D01*
X87333616Y-88453991D01*
X93552055Y-82327000D01*
X94507172Y-82327000D01*
X94524890Y-82344718D01*
G36*
X116263970Y-113024365D02*
X116582739Y-112864582D01*
X116832673Y-112227000D01*
X117108666Y-112227000D01*
X117248690Y-112285000D01*
X117464250Y-112285000D01*
X117522250Y-112227000D01*
X117977750Y-112227000D01*
X118035750Y-112285000D01*
X118251310Y-112285000D01*
X118391334Y-112227000D01*
X120787593Y-112227000D01*
X120752560Y-112400000D01*
X120752560Y-112693009D01*
X120130260Y-113052560D01*
X119150000Y-113052560D01*
X118914683Y-113096838D01*
X118698559Y-113235910D01*
X118675492Y-113269670D01*
X118663327Y-113240302D01*
X118484699Y-113061673D01*
X118251310Y-112965000D01*
X118035750Y-112965000D01*
X117877000Y-113123750D01*
X117877000Y-113873000D01*
X117897000Y-113873000D01*
X117897000Y-114127000D01*
X117877000Y-114127000D01*
X117877000Y-114147000D01*
X117623000Y-114147000D01*
X117623000Y-114127000D01*
X116898750Y-114127000D01*
X116740000Y-114285750D01*
X116740000Y-114526309D01*
X116828514Y-114740000D01*
X116684069Y-114740000D01*
X116561020Y-114442200D01*
X115960959Y-113841091D01*
X115558982Y-113674175D01*
X115924582Y-113522739D01*
X115949167Y-113473691D01*
X116740000Y-113473691D01*
X116740000Y-113714250D01*
X116898750Y-113873000D01*
X117623000Y-113873000D01*
X117623000Y-113123750D01*
X117464250Y-112965000D01*
X117248690Y-112965000D01*
X117015301Y-113061673D01*
X116836673Y-113240302D01*
X116740000Y-113473691D01*
X115949167Y-113473691D01*
X116084365Y-113203970D01*
X115107395Y-112227000D01*
X115466605Y-112227000D01*
X116263970Y-113024365D01*
X116263970Y-113024365D01*
G37*
X116263970Y-113024365D02*
X116582739Y-112864582D01*
X116832673Y-112227000D01*
X117108666Y-112227000D01*
X117248690Y-112285000D01*
X117464250Y-112285000D01*
X117522250Y-112227000D01*
X117977750Y-112227000D01*
X118035750Y-112285000D01*
X118251310Y-112285000D01*
X118391334Y-112227000D01*
X120787593Y-112227000D01*
X120752560Y-112400000D01*
X120752560Y-112693009D01*
X120130260Y-113052560D01*
X119150000Y-113052560D01*
X118914683Y-113096838D01*
X118698559Y-113235910D01*
X118675492Y-113269670D01*
X118663327Y-113240302D01*
X118484699Y-113061673D01*
X118251310Y-112965000D01*
X118035750Y-112965000D01*
X117877000Y-113123750D01*
X117877000Y-113873000D01*
X117897000Y-113873000D01*
X117897000Y-114127000D01*
X117877000Y-114127000D01*
X117877000Y-114147000D01*
X117623000Y-114147000D01*
X117623000Y-114127000D01*
X116898750Y-114127000D01*
X116740000Y-114285750D01*
X116740000Y-114526309D01*
X116828514Y-114740000D01*
X116684069Y-114740000D01*
X116561020Y-114442200D01*
X115960959Y-113841091D01*
X115558982Y-113674175D01*
X115924582Y-113522739D01*
X115949167Y-113473691D01*
X116740000Y-113473691D01*
X116740000Y-113714250D01*
X116898750Y-113873000D01*
X117623000Y-113873000D01*
X117623000Y-113123750D01*
X117464250Y-112965000D01*
X117248690Y-112965000D01*
X117015301Y-113061673D01*
X116836673Y-113240302D01*
X116740000Y-113473691D01*
X115949167Y-113473691D01*
X116084365Y-113203970D01*
X115107395Y-112227000D01*
X115466605Y-112227000D01*
X116263970Y-113024365D01*
G36*
X59688249Y-124079806D02*
X61023782Y-124634368D01*
X62469874Y-124635630D01*
X63195638Y-124335750D01*
X64840000Y-124335750D01*
X64840000Y-124576309D01*
X64936673Y-124809698D01*
X65115301Y-124988327D01*
X65348690Y-125085000D01*
X65564250Y-125085000D01*
X65723000Y-124926250D01*
X65723000Y-124177000D01*
X65977000Y-124177000D01*
X65977000Y-124926250D01*
X66135750Y-125085000D01*
X66351310Y-125085000D01*
X66584699Y-124988327D01*
X66763327Y-124809698D01*
X66860000Y-124576309D01*
X66860000Y-124335750D01*
X66701250Y-124177000D01*
X65977000Y-124177000D01*
X65723000Y-124177000D01*
X64998750Y-124177000D01*
X64840000Y-124335750D01*
X63195638Y-124335750D01*
X63806372Y-124083400D01*
X64263569Y-123627000D01*
X64840000Y-123627000D01*
X64840000Y-123764250D01*
X64998750Y-123923000D01*
X65723000Y-123923000D01*
X65723000Y-123903000D01*
X65977000Y-123903000D01*
X65977000Y-123923000D01*
X66701250Y-123923000D01*
X66860000Y-123764250D01*
X66860000Y-123627000D01*
X67023000Y-123627000D01*
X67023000Y-124400000D01*
X67033006Y-124449410D01*
X67060197Y-124489803D01*
X69173000Y-126602606D01*
X69173000Y-132300000D01*
X69183006Y-132349410D01*
X69211447Y-132391035D01*
X69253841Y-132418315D01*
X69300000Y-132427000D01*
X78800000Y-132427000D01*
X78849410Y-132416994D01*
X78898293Y-132380421D01*
X79760884Y-131326143D01*
X86701814Y-131226987D01*
X86751076Y-131216276D01*
X86787723Y-131191835D01*
X87036715Y-130953991D01*
X88924735Y-130953991D01*
X89157932Y-131518371D01*
X89589357Y-131950551D01*
X90153330Y-132184733D01*
X90763991Y-132185265D01*
X91328371Y-131952068D01*
X91760551Y-131520643D01*
X91994733Y-130956670D01*
X91994735Y-130953991D01*
X94004735Y-130953991D01*
X94237932Y-131518371D01*
X94669357Y-131950551D01*
X95233330Y-132184733D01*
X95843991Y-132185265D01*
X96408371Y-131952068D01*
X96840551Y-131520643D01*
X97074733Y-130956670D01*
X97075265Y-130346009D01*
X96842068Y-129781629D01*
X96410643Y-129349449D01*
X95846670Y-129115267D01*
X95236009Y-129114735D01*
X94671629Y-129347932D01*
X94239449Y-129779357D01*
X94005267Y-130343330D01*
X94004735Y-130953991D01*
X91994735Y-130953991D01*
X91995265Y-130346009D01*
X91762068Y-129781629D01*
X91330643Y-129349449D01*
X90766670Y-129115267D01*
X90156009Y-129114735D01*
X89591629Y-129347932D01*
X89159449Y-129779357D01*
X88925267Y-130343330D01*
X88924735Y-130953991D01*
X87036715Y-130953991D01*
X93450910Y-124827000D01*
X94507172Y-124827000D01*
X94524890Y-124844718D01*
X94542608Y-124827000D01*
X94672070Y-124827000D01*
X94725852Y-124986643D01*
X95299336Y-125196458D01*
X95659612Y-125181330D01*
X97915000Y-127706594D01*
X97915000Y-128150000D01*
X98009009Y-128622614D01*
X98276723Y-129023277D01*
X100876723Y-131623277D01*
X101233056Y-131861370D01*
X100682200Y-132088980D01*
X100081091Y-132689041D01*
X99755372Y-133473459D01*
X99754630Y-134322815D01*
X100078980Y-135107800D01*
X100679041Y-135708909D01*
X101463459Y-136034628D01*
X102312815Y-136035370D01*
X103097800Y-135711020D01*
X103698909Y-135110959D01*
X104024628Y-134326541D01*
X104025370Y-133477185D01*
X103701020Y-132692200D01*
X103100959Y-132091091D01*
X102845464Y-131985000D01*
X104488446Y-131985000D01*
X106126723Y-133623277D01*
X106527386Y-133890991D01*
X107000000Y-133985000D01*
X107055394Y-133985000D01*
X110160197Y-137089803D01*
X110202211Y-137117666D01*
X110250000Y-137127000D01*
X112752577Y-137127000D01*
X112917261Y-137524582D01*
X113236030Y-137684365D01*
X113793395Y-137127000D01*
X114152605Y-137127000D01*
X113415635Y-137863970D01*
X113575418Y-138182739D01*
X113951122Y-138330016D01*
X113542200Y-138498980D01*
X112941091Y-139099041D01*
X112615372Y-139883459D01*
X112614630Y-140732815D01*
X112938980Y-141517800D01*
X113539041Y-142118909D01*
X113951118Y-142290018D01*
X113542200Y-142458980D01*
X112941091Y-143059041D01*
X112615372Y-143843459D01*
X112614630Y-144692815D01*
X112938980Y-145477800D01*
X113539041Y-146078909D01*
X113951118Y-146250018D01*
X113914859Y-146265000D01*
X106761554Y-146265000D01*
X105023277Y-144526723D01*
X104622614Y-144259009D01*
X104150000Y-144165000D01*
X97000474Y-144165000D01*
X96842068Y-143781629D01*
X96410643Y-143349449D01*
X95846670Y-143115267D01*
X95236009Y-143114735D01*
X94671629Y-143347932D01*
X94239449Y-143779357D01*
X94005267Y-144343330D01*
X94004735Y-144953991D01*
X94237932Y-145518371D01*
X94669357Y-145950551D01*
X95233330Y-146184733D01*
X95328262Y-146184816D01*
X95416723Y-146273277D01*
X95817386Y-146540991D01*
X96290000Y-146635000D01*
X100135226Y-146635000D01*
X100081091Y-146689041D01*
X99755372Y-147473459D01*
X99754630Y-148322815D01*
X100078980Y-149107800D01*
X100679041Y-149708909D01*
X101463459Y-150034628D01*
X102312815Y-150035370D01*
X103097800Y-149711020D01*
X103698909Y-149110959D01*
X104024628Y-148326541D01*
X104025370Y-147477185D01*
X103704804Y-146701358D01*
X105376723Y-148373277D01*
X105777386Y-148640991D01*
X106250000Y-148735000D01*
X111348087Y-148735000D01*
X111700000Y-148805000D01*
X112051913Y-148735000D01*
X112648588Y-148735000D01*
X112938980Y-149437800D01*
X113539041Y-150038909D01*
X113951118Y-150210018D01*
X113542200Y-150378980D01*
X112941091Y-150979041D01*
X112615372Y-151763459D01*
X112614630Y-152612815D01*
X112938980Y-153397800D01*
X113539041Y-153998909D01*
X113951118Y-154170018D01*
X113542200Y-154338980D01*
X112965174Y-154915000D01*
X111350000Y-154915000D01*
X110877386Y-155009009D01*
X110476723Y-155276723D01*
X108288446Y-157465000D01*
X96525992Y-157465000D01*
X96410643Y-157349449D01*
X95846670Y-157115267D01*
X95236009Y-157114735D01*
X94671629Y-157347932D01*
X94239449Y-157779357D01*
X94005267Y-158343330D01*
X94004735Y-158953991D01*
X94237932Y-159518371D01*
X94669357Y-159950551D01*
X95233330Y-160184733D01*
X95843991Y-160185265D01*
X96408371Y-159952068D01*
X96425469Y-159935000D01*
X101054859Y-159935000D01*
X100682200Y-160088980D01*
X100081091Y-160689041D01*
X99755372Y-161473459D01*
X99754630Y-162322815D01*
X100078980Y-163107800D01*
X100679041Y-163708909D01*
X101463459Y-164034628D01*
X102312815Y-164035370D01*
X103097800Y-163711020D01*
X103698909Y-163110959D01*
X104024628Y-162326541D01*
X104025370Y-161477185D01*
X103701020Y-160692200D01*
X103100959Y-160091091D01*
X102725050Y-159935000D01*
X108800000Y-159935000D01*
X109272614Y-159840991D01*
X109673277Y-159573277D01*
X111861554Y-157385000D01*
X112966133Y-157385000D01*
X113539041Y-157958909D01*
X113951118Y-158130018D01*
X113542200Y-158298980D01*
X112941091Y-158899041D01*
X112615372Y-159683459D01*
X112614630Y-160532815D01*
X112938980Y-161317800D01*
X113539041Y-161918909D01*
X113951118Y-162090018D01*
X113542200Y-162258980D01*
X112941091Y-162859041D01*
X112615372Y-163643459D01*
X112614630Y-164492815D01*
X112938980Y-165277800D01*
X113539041Y-165878909D01*
X114323459Y-166204628D01*
X115172815Y-166205370D01*
X115957800Y-165881020D01*
X116558909Y-165280959D01*
X116884628Y-164496541D01*
X116885370Y-163647185D01*
X116561020Y-162862200D01*
X115960959Y-162261091D01*
X115548882Y-162089982D01*
X115957800Y-161921020D01*
X116558909Y-161320959D01*
X116814191Y-160706173D01*
X116873110Y-160746431D01*
X117125000Y-160797440D01*
X117875000Y-160797440D01*
X118110317Y-160753162D01*
X118326441Y-160614090D01*
X118461934Y-160415790D01*
X121513436Y-160104412D01*
X121648110Y-160196431D01*
X121900000Y-160247440D01*
X123100000Y-160247440D01*
X123335317Y-160203162D01*
X123551441Y-160064090D01*
X123696431Y-159851890D01*
X123747440Y-159600000D01*
X123747440Y-158700000D01*
X123703162Y-158464683D01*
X123564090Y-158248559D01*
X123351890Y-158103569D01*
X123100000Y-158052560D01*
X121900000Y-158052560D01*
X121664683Y-158096838D01*
X121448559Y-158235910D01*
X121303569Y-158448110D01*
X121272589Y-158601095D01*
X118474525Y-158886612D01*
X118522440Y-158650000D01*
X118522440Y-157850000D01*
X118478162Y-157614683D01*
X118339090Y-157398559D01*
X118260000Y-157344519D01*
X118260000Y-156906844D01*
X118326441Y-156864090D01*
X118397563Y-156760000D01*
X119400000Y-156760000D01*
X119463143Y-156747440D01*
X120350000Y-156747440D01*
X120585317Y-156703162D01*
X120801441Y-156564090D01*
X120946431Y-156351890D01*
X120954848Y-156310328D01*
X121266470Y-156373924D01*
X121296838Y-156535317D01*
X121435910Y-156751441D01*
X121648110Y-156896431D01*
X121900000Y-156947440D01*
X123100000Y-156947440D01*
X123335317Y-156903162D01*
X123551441Y-156764090D01*
X123696431Y-156551890D01*
X123747440Y-156300000D01*
X123747440Y-155400000D01*
X123703162Y-155164683D01*
X123564090Y-154948559D01*
X123351890Y-154803569D01*
X123100000Y-154752560D01*
X121900000Y-154752560D01*
X121664683Y-154796838D01*
X121538411Y-154878092D01*
X120775926Y-154722483D01*
X120601890Y-154603569D01*
X120350000Y-154552560D01*
X119150000Y-154552560D01*
X118914683Y-154596838D01*
X118698559Y-154735910D01*
X118553569Y-154948110D01*
X118502560Y-155200000D01*
X118502560Y-155240000D01*
X118411228Y-155240000D01*
X118471431Y-155151890D01*
X118522440Y-154900000D01*
X118522440Y-154100000D01*
X118478162Y-153864683D01*
X118339090Y-153648559D01*
X118260000Y-153594519D01*
X118260000Y-152906844D01*
X118326441Y-152864090D01*
X118397563Y-152760000D01*
X118435198Y-152760000D01*
X118508902Y-152833704D01*
X118546838Y-153035317D01*
X118685910Y-153251441D01*
X118898110Y-153396431D01*
X119150000Y-153447440D01*
X120350000Y-153447440D01*
X120585317Y-153403162D01*
X120801441Y-153264090D01*
X120946431Y-153051890D01*
X120957907Y-152995222D01*
X121623950Y-152929923D01*
X121648110Y-152946431D01*
X121900000Y-152997440D01*
X123100000Y-152997440D01*
X123335317Y-152953162D01*
X123551441Y-152814090D01*
X123696431Y-152601890D01*
X123747440Y-152350000D01*
X123747440Y-151450000D01*
X123703162Y-151214683D01*
X123564090Y-150998559D01*
X123351890Y-150853569D01*
X123100000Y-150802560D01*
X121900000Y-150802560D01*
X121664683Y-150846838D01*
X121448559Y-150985910D01*
X121303569Y-151198110D01*
X121254823Y-151438824D01*
X120834352Y-151480047D01*
X120814090Y-151448559D01*
X120601890Y-151303569D01*
X120350000Y-151252560D01*
X119150000Y-151252560D01*
X118976893Y-151285132D01*
X118750000Y-151240000D01*
X118411228Y-151240000D01*
X118471431Y-151151890D01*
X118522440Y-150900000D01*
X118522440Y-150100000D01*
X118478162Y-149864683D01*
X118339090Y-149648559D01*
X118260000Y-149594519D01*
X118260000Y-148906844D01*
X118326441Y-148864090D01*
X118471431Y-148651890D01*
X118520415Y-148410000D01*
X118594895Y-148410000D01*
X118685910Y-148551441D01*
X118898110Y-148696431D01*
X119150000Y-148747440D01*
X120350000Y-148747440D01*
X120585317Y-148703162D01*
X120601625Y-148692668D01*
X121252560Y-148884120D01*
X121252560Y-149050000D01*
X121296838Y-149285317D01*
X121435910Y-149501441D01*
X121648110Y-149646431D01*
X121900000Y-149697440D01*
X123100000Y-149697440D01*
X123335317Y-149653162D01*
X123551441Y-149514090D01*
X123696431Y-149301890D01*
X123747440Y-149050000D01*
X123747440Y-148150000D01*
X123703162Y-147914683D01*
X123564090Y-147698559D01*
X123351890Y-147553569D01*
X123100000Y-147502560D01*
X121942152Y-147502560D01*
X120997440Y-147224704D01*
X120997440Y-147200000D01*
X120953162Y-146964683D01*
X120814090Y-146748559D01*
X120601890Y-146603569D01*
X120350000Y-146552560D01*
X119150000Y-146552560D01*
X118914683Y-146596838D01*
X118698559Y-146735910D01*
X118593274Y-146890000D01*
X118522440Y-146890000D01*
X118522440Y-146100000D01*
X118478162Y-145864683D01*
X118339090Y-145648559D01*
X118260000Y-145594519D01*
X118260000Y-145110000D01*
X118594895Y-145110000D01*
X118685910Y-145251441D01*
X118898110Y-145396431D01*
X119150000Y-145447440D01*
X120350000Y-145447440D01*
X120585317Y-145403162D01*
X120801441Y-145264090D01*
X120906726Y-145110000D01*
X121252560Y-145110000D01*
X121252560Y-145350000D01*
X121296838Y-145585317D01*
X121435910Y-145801441D01*
X121648110Y-145946431D01*
X121900000Y-145997440D01*
X123100000Y-145997440D01*
X123335317Y-145953162D01*
X123551441Y-145814090D01*
X123696431Y-145601890D01*
X123747440Y-145350000D01*
X123747440Y-144450000D01*
X123703162Y-144214683D01*
X123564090Y-143998559D01*
X123351890Y-143853569D01*
X123100000Y-143802560D01*
X122472377Y-143802560D01*
X122240839Y-143647852D01*
X121950000Y-143590000D01*
X120905105Y-143590000D01*
X120814090Y-143448559D01*
X120601890Y-143303569D01*
X120350000Y-143252560D01*
X119150000Y-143252560D01*
X118914683Y-143296838D01*
X118698559Y-143435910D01*
X118593274Y-143590000D01*
X118520558Y-143590000D01*
X118478162Y-143364683D01*
X118404380Y-143250022D01*
X118471431Y-143151890D01*
X118522440Y-142900000D01*
X118522440Y-142100000D01*
X118478162Y-141864683D01*
X118339090Y-141648559D01*
X118260000Y-141594519D01*
X118260000Y-141156844D01*
X118326441Y-141114090D01*
X118471431Y-140901890D01*
X118520415Y-140660000D01*
X118594895Y-140660000D01*
X118685910Y-140801441D01*
X118898110Y-140946431D01*
X119150000Y-140997440D01*
X119336857Y-140997440D01*
X119400000Y-141010000D01*
X119463143Y-140997440D01*
X119812684Y-140997440D01*
X119837090Y-141017755D01*
X121252560Y-141787032D01*
X121252560Y-142050000D01*
X121296838Y-142285317D01*
X121435910Y-142501441D01*
X121648110Y-142646431D01*
X121900000Y-142697440D01*
X123100000Y-142697440D01*
X123335317Y-142653162D01*
X123551441Y-142514090D01*
X123696431Y-142301890D01*
X123747440Y-142050000D01*
X123747440Y-141150000D01*
X123703162Y-140914683D01*
X123564090Y-140698559D01*
X123351890Y-140553569D01*
X123100000Y-140502560D01*
X122072290Y-140502560D01*
X120997440Y-139918403D01*
X120997440Y-139450000D01*
X120953162Y-139214683D01*
X120814090Y-138998559D01*
X120601890Y-138853569D01*
X120350000Y-138802560D01*
X119150000Y-138802560D01*
X118914683Y-138846838D01*
X118698559Y-138985910D01*
X118593274Y-139140000D01*
X118510000Y-139140000D01*
X118510000Y-139035750D01*
X118351250Y-138877000D01*
X117627000Y-138877000D01*
X117627000Y-138897000D01*
X117373000Y-138897000D01*
X117373000Y-138877000D01*
X116648750Y-138877000D01*
X116492345Y-139033405D01*
X115960959Y-138501091D01*
X115558982Y-138334175D01*
X115825714Y-138223691D01*
X116490000Y-138223691D01*
X116490000Y-138464250D01*
X116648750Y-138623000D01*
X117373000Y-138623000D01*
X117373000Y-137873750D01*
X117627000Y-137873750D01*
X117627000Y-138623000D01*
X118351250Y-138623000D01*
X118510000Y-138464250D01*
X118510000Y-138223691D01*
X118413327Y-137990302D01*
X118234699Y-137811673D01*
X118001310Y-137715000D01*
X117785750Y-137715000D01*
X117627000Y-137873750D01*
X117373000Y-137873750D01*
X117214250Y-137715000D01*
X116998690Y-137715000D01*
X116765301Y-137811673D01*
X116586673Y-137990302D01*
X116490000Y-138223691D01*
X115825714Y-138223691D01*
X115924582Y-138182739D01*
X116084365Y-137863970D01*
X115906145Y-137685750D01*
X121265000Y-137685750D01*
X121265000Y-137976309D01*
X121361673Y-138209698D01*
X121540301Y-138388327D01*
X121773690Y-138485000D01*
X122214250Y-138485000D01*
X122373000Y-138326250D01*
X122373000Y-137527000D01*
X122627000Y-137527000D01*
X122627000Y-138326250D01*
X122785750Y-138485000D01*
X123226310Y-138485000D01*
X123459699Y-138388327D01*
X123638327Y-138209698D01*
X123735000Y-137976309D01*
X123735000Y-137685750D01*
X123576250Y-137527000D01*
X122627000Y-137527000D01*
X122373000Y-137527000D01*
X121423750Y-137527000D01*
X121265000Y-137685750D01*
X115906145Y-137685750D01*
X115347395Y-137127000D01*
X115706605Y-137127000D01*
X116263970Y-137684365D01*
X116582739Y-137524582D01*
X116658441Y-137331466D01*
X116765301Y-137438327D01*
X116998690Y-137535000D01*
X117214250Y-137535000D01*
X117373000Y-137376250D01*
X117373000Y-137127000D01*
X117627000Y-137127000D01*
X117627000Y-137376250D01*
X117785750Y-137535000D01*
X118001310Y-137535000D01*
X118234699Y-137438327D01*
X118413327Y-137259698D01*
X118468292Y-137127000D01*
X118515000Y-137127000D01*
X118515000Y-137176309D01*
X118611673Y-137409698D01*
X118790301Y-137588327D01*
X119023690Y-137685000D01*
X119464250Y-137685000D01*
X119623000Y-137526250D01*
X119623000Y-137127000D01*
X119877000Y-137127000D01*
X119877000Y-137526250D01*
X120035750Y-137685000D01*
X120476310Y-137685000D01*
X120709699Y-137588327D01*
X120888327Y-137409698D01*
X120985000Y-137176309D01*
X120985000Y-137127000D01*
X121277750Y-137127000D01*
X121423750Y-137273000D01*
X122373000Y-137273000D01*
X122373000Y-137253000D01*
X122627000Y-137253000D01*
X122627000Y-137273000D01*
X123576250Y-137273000D01*
X123722250Y-137127000D01*
X126790000Y-137127000D01*
X126790000Y-175290000D01*
X56510000Y-175290000D01*
X56510000Y-171719874D01*
X58114370Y-171719874D01*
X58666600Y-173056372D01*
X59688249Y-174079806D01*
X61023782Y-174634368D01*
X62469874Y-174635630D01*
X63806372Y-174083400D01*
X64829806Y-173061751D01*
X65384368Y-171726218D01*
X65385630Y-170280126D01*
X64948758Y-169222815D01*
X81574630Y-169222815D01*
X81898980Y-170007800D01*
X82499041Y-170608909D01*
X83283459Y-170934628D01*
X84132815Y-170935370D01*
X84917800Y-170611020D01*
X85518909Y-170010959D01*
X85844628Y-169226541D01*
X85844631Y-169222815D01*
X99354630Y-169222815D01*
X99678980Y-170007800D01*
X100279041Y-170608909D01*
X101063459Y-170934628D01*
X101912815Y-170935370D01*
X102697800Y-170611020D01*
X103172274Y-170137373D01*
X103115632Y-170273782D01*
X103114370Y-171719874D01*
X103666600Y-173056372D01*
X104688249Y-174079806D01*
X106023782Y-174634368D01*
X107469874Y-174635630D01*
X108806372Y-174083400D01*
X109829806Y-173061751D01*
X110384368Y-171726218D01*
X110384373Y-171719874D01*
X118114370Y-171719874D01*
X118666600Y-173056372D01*
X119688249Y-174079806D01*
X121023782Y-174634368D01*
X122469874Y-174635630D01*
X123806372Y-174083400D01*
X124829806Y-173061751D01*
X125384368Y-171726218D01*
X125385630Y-170280126D01*
X124833400Y-168943628D01*
X123811751Y-167920194D01*
X122476218Y-167365632D01*
X121030126Y-167364370D01*
X119693628Y-167916600D01*
X118670194Y-168938249D01*
X118115632Y-170273782D01*
X118114370Y-171719874D01*
X110384373Y-171719874D01*
X110385630Y-170280126D01*
X109833400Y-168943628D01*
X108811751Y-167920194D01*
X107476218Y-167365632D01*
X106030126Y-167364370D01*
X104693628Y-167916600D01*
X103670194Y-168938249D01*
X103624784Y-169047608D01*
X103625370Y-168377185D01*
X103301020Y-167592200D01*
X102700959Y-166991091D01*
X101916541Y-166665372D01*
X101067185Y-166664630D01*
X100282200Y-166988980D01*
X99681091Y-167589041D01*
X99355372Y-168373459D01*
X99354630Y-169222815D01*
X85844631Y-169222815D01*
X85845370Y-168377185D01*
X85521020Y-167592200D01*
X84920959Y-166991091D01*
X84136541Y-166665372D01*
X83287185Y-166664630D01*
X82502200Y-166988980D01*
X81901091Y-167589041D01*
X81575372Y-168373459D01*
X81574630Y-169222815D01*
X64948758Y-169222815D01*
X64833400Y-168943628D01*
X63811751Y-167920194D01*
X62476218Y-167365632D01*
X61030126Y-167364370D01*
X59693628Y-167916600D01*
X58670194Y-168938249D01*
X58115632Y-170273782D01*
X58114370Y-171719874D01*
X56510000Y-171719874D01*
X56510000Y-165853991D01*
X88624735Y-165853991D01*
X88857932Y-166418371D01*
X89289357Y-166850551D01*
X89853330Y-167084733D01*
X90463991Y-167085265D01*
X91028371Y-166852068D01*
X91460551Y-166420643D01*
X91694733Y-165856670D01*
X91694735Y-165853991D01*
X93704735Y-165853991D01*
X93937932Y-166418371D01*
X94369357Y-166850551D01*
X94933330Y-167084733D01*
X95543991Y-167085265D01*
X96108371Y-166852068D01*
X96540551Y-166420643D01*
X96774733Y-165856670D01*
X96775265Y-165246009D01*
X96542068Y-164681629D01*
X96110643Y-164249449D01*
X95546670Y-164015267D01*
X94936009Y-164014735D01*
X94371629Y-164247932D01*
X93939449Y-164679357D01*
X93705267Y-165243330D01*
X93704735Y-165853991D01*
X91694735Y-165853991D01*
X91695265Y-165246009D01*
X91462068Y-164681629D01*
X91030643Y-164249449D01*
X90466670Y-164015267D01*
X89856009Y-164014735D01*
X89291629Y-164247932D01*
X88859449Y-164679357D01*
X88625267Y-165243330D01*
X88624735Y-165853991D01*
X56510000Y-165853991D01*
X56510000Y-164100000D01*
X56455954Y-163828295D01*
X56302046Y-163597954D01*
X56071705Y-163444046D01*
X55800000Y-163390000D01*
X49210000Y-163390000D01*
X49210000Y-159384808D01*
X52212593Y-162387401D01*
X52459154Y-162552148D01*
X52749994Y-162610000D01*
X61807125Y-162610000D01*
X61621460Y-162795341D01*
X61472270Y-163154630D01*
X61471931Y-163543663D01*
X61620493Y-163903212D01*
X61895341Y-164178540D01*
X62254630Y-164327730D01*
X62643663Y-164328069D01*
X63003212Y-164179507D01*
X63072840Y-164110000D01*
X65350000Y-164110000D01*
X65640839Y-164052148D01*
X65887401Y-163887401D01*
X65945846Y-163828956D01*
X65995343Y-163878540D01*
X66354632Y-164027730D01*
X66743665Y-164028069D01*
X67103214Y-163879507D01*
X67378542Y-163604659D01*
X67527732Y-163245370D01*
X67527818Y-163146986D01*
X68351989Y-162322815D01*
X81974630Y-162322815D01*
X82298980Y-163107800D01*
X82899041Y-163708909D01*
X83683459Y-164034628D01*
X84532815Y-164035370D01*
X85317800Y-163711020D01*
X85918909Y-163110959D01*
X86244628Y-162326541D01*
X86245370Y-161477185D01*
X85921020Y-160692200D01*
X85320959Y-160091091D01*
X84536541Y-159765372D01*
X83687185Y-159764630D01*
X82902200Y-160088980D01*
X82301091Y-160689041D01*
X81975372Y-161473459D01*
X81974630Y-162322815D01*
X68351989Y-162322815D01*
X71720813Y-158953991D01*
X88924735Y-158953991D01*
X89157932Y-159518371D01*
X89589357Y-159950551D01*
X90153330Y-160184733D01*
X90763991Y-160185265D01*
X91328371Y-159952068D01*
X91760551Y-159520643D01*
X91994733Y-158956670D01*
X91995265Y-158346009D01*
X91762068Y-157781629D01*
X91330643Y-157349449D01*
X90766670Y-157115267D01*
X90156009Y-157114735D01*
X89591629Y-157347932D01*
X89159449Y-157779357D01*
X88925267Y-158343330D01*
X88924735Y-158953991D01*
X71720813Y-158953991D01*
X73937401Y-156737403D01*
X74102148Y-156490841D01*
X74160000Y-156200002D01*
X74160000Y-155322815D01*
X81974630Y-155322815D01*
X82298980Y-156107800D01*
X82899041Y-156708909D01*
X83683459Y-157034628D01*
X84532815Y-157035370D01*
X85317800Y-156711020D01*
X85918909Y-156110959D01*
X86244628Y-155326541D01*
X86244631Y-155322815D01*
X99754630Y-155322815D01*
X100078980Y-156107800D01*
X100679041Y-156708909D01*
X101463459Y-157034628D01*
X102312815Y-157035370D01*
X103097800Y-156711020D01*
X103698909Y-156110959D01*
X104024628Y-155326541D01*
X104025370Y-154477185D01*
X103701020Y-153692200D01*
X103100959Y-153091091D01*
X102316541Y-152765372D01*
X101467185Y-152764630D01*
X100682200Y-153088980D01*
X100081091Y-153689041D01*
X99755372Y-154473459D01*
X99754630Y-155322815D01*
X86244631Y-155322815D01*
X86245370Y-154477185D01*
X85921020Y-153692200D01*
X85320959Y-153091091D01*
X84536541Y-152765372D01*
X83687185Y-152764630D01*
X82902200Y-153088980D01*
X82301091Y-153689041D01*
X81975372Y-154473459D01*
X81974630Y-155322815D01*
X74160000Y-155322815D01*
X74160000Y-151953991D01*
X88924735Y-151953991D01*
X89157932Y-152518371D01*
X89589357Y-152950551D01*
X90153330Y-153184733D01*
X90763991Y-153185265D01*
X91328371Y-152952068D01*
X91760551Y-152520643D01*
X91994733Y-151956670D01*
X91994735Y-151953991D01*
X94004735Y-151953991D01*
X94237932Y-152518371D01*
X94669357Y-152950551D01*
X95233330Y-153184733D01*
X95843991Y-153185265D01*
X96408371Y-152952068D01*
X96840551Y-152520643D01*
X97074733Y-151956670D01*
X97075265Y-151346009D01*
X96842068Y-150781629D01*
X96410643Y-150349449D01*
X95846670Y-150115267D01*
X95236009Y-150114735D01*
X94671629Y-150347932D01*
X94239449Y-150779357D01*
X94005267Y-151343330D01*
X94004735Y-151953991D01*
X91994735Y-151953991D01*
X91995265Y-151346009D01*
X91762068Y-150781629D01*
X91330643Y-150349449D01*
X90766670Y-150115267D01*
X90156009Y-150114735D01*
X89591629Y-150347932D01*
X89159449Y-150779357D01*
X88925267Y-151343330D01*
X88924735Y-151953991D01*
X74160000Y-151953991D01*
X74160000Y-148322815D01*
X81974630Y-148322815D01*
X82298980Y-149107800D01*
X82899041Y-149708909D01*
X83683459Y-150034628D01*
X84532815Y-150035370D01*
X85317800Y-149711020D01*
X85918909Y-149110959D01*
X86244628Y-148326541D01*
X86245370Y-147477185D01*
X85921020Y-146692200D01*
X85320959Y-146091091D01*
X84536541Y-145765372D01*
X83687185Y-145764630D01*
X82902200Y-146088980D01*
X82301091Y-146689041D01*
X81975372Y-147473459D01*
X81974630Y-148322815D01*
X74160000Y-148322815D01*
X74160000Y-144953991D01*
X88924735Y-144953991D01*
X89157932Y-145518371D01*
X89589357Y-145950551D01*
X90153330Y-146184733D01*
X90763991Y-146185265D01*
X91328371Y-145952068D01*
X91760551Y-145520643D01*
X91994733Y-144956670D01*
X91995265Y-144346009D01*
X91762068Y-143781629D01*
X91330643Y-143349449D01*
X90766670Y-143115267D01*
X90156009Y-143114735D01*
X89591629Y-143347932D01*
X89159449Y-143779357D01*
X88925267Y-144343330D01*
X88924735Y-144953991D01*
X74160000Y-144953991D01*
X74160000Y-141345000D01*
X74155588Y-141322815D01*
X81974630Y-141322815D01*
X82298980Y-142107800D01*
X82899041Y-142708909D01*
X83683459Y-143034628D01*
X84532815Y-143035370D01*
X85317800Y-142711020D01*
X85918909Y-142110959D01*
X86244628Y-141326541D01*
X86244631Y-141322815D01*
X99754630Y-141322815D01*
X100078980Y-142107800D01*
X100679041Y-142708909D01*
X101463459Y-143034628D01*
X102312815Y-143035370D01*
X103097800Y-142711020D01*
X103698909Y-142110959D01*
X104024628Y-141326541D01*
X104025370Y-140477185D01*
X103701020Y-139692200D01*
X103100959Y-139091091D01*
X102316541Y-138765372D01*
X101467185Y-138764630D01*
X100682200Y-139088980D01*
X100081091Y-139689041D01*
X99755372Y-140473459D01*
X99754630Y-141322815D01*
X86244631Y-141322815D01*
X86245370Y-140477185D01*
X85921020Y-139692200D01*
X85320959Y-139091091D01*
X84536541Y-138765372D01*
X83687185Y-138764630D01*
X82902200Y-139088980D01*
X82301091Y-139689041D01*
X81975372Y-140473459D01*
X81974630Y-141322815D01*
X74155588Y-141322815D01*
X74133664Y-141212599D01*
X74102148Y-141054160D01*
X73937401Y-140807599D01*
X71709136Y-138579334D01*
X71748786Y-138380000D01*
X71664048Y-137953991D01*
X88924735Y-137953991D01*
X89157932Y-138518371D01*
X89589357Y-138950551D01*
X90153330Y-139184733D01*
X90763991Y-139185265D01*
X91328371Y-138952068D01*
X91760551Y-138520643D01*
X91994733Y-137956670D01*
X91994735Y-137953991D01*
X94004735Y-137953991D01*
X94237932Y-138518371D01*
X94669357Y-138950551D01*
X95233330Y-139184733D01*
X95843991Y-139185265D01*
X96408371Y-138952068D01*
X96840551Y-138520643D01*
X97074733Y-137956670D01*
X97075265Y-137346009D01*
X96842068Y-136781629D01*
X96410643Y-136349449D01*
X95846670Y-136115267D01*
X95236009Y-136114735D01*
X94671629Y-136347932D01*
X94239449Y-136779357D01*
X94005267Y-137343330D01*
X94004735Y-137953991D01*
X91994735Y-137953991D01*
X91995265Y-137346009D01*
X91762068Y-136781629D01*
X91330643Y-136349449D01*
X90766670Y-136115267D01*
X90156009Y-136114735D01*
X89591629Y-136347932D01*
X89159449Y-136779357D01*
X88925267Y-137343330D01*
X88924735Y-137953991D01*
X71664048Y-137953991D01*
X71652113Y-137893992D01*
X71376812Y-137481974D01*
X70964794Y-137206673D01*
X70478786Y-137110000D01*
X68461214Y-137110000D01*
X67975206Y-137206673D01*
X67563188Y-137481974D01*
X67287887Y-137893992D01*
X67191214Y-138380000D01*
X67269181Y-138771968D01*
X67226647Y-138771931D01*
X66867098Y-138920493D01*
X66688541Y-139098739D01*
X66169136Y-138579334D01*
X66208786Y-138380000D01*
X66112113Y-137893992D01*
X65836812Y-137481974D01*
X65424794Y-137206673D01*
X64938786Y-137110000D01*
X62921214Y-137110000D01*
X62435206Y-137206673D01*
X62023188Y-137481974D01*
X61930912Y-137620076D01*
X61695370Y-137522270D01*
X61306337Y-137521931D01*
X60946788Y-137670493D01*
X60671460Y-137945341D01*
X60522270Y-138304630D01*
X60521931Y-138693663D01*
X60670493Y-139053212D01*
X60740000Y-139122840D01*
X60740000Y-140935198D01*
X60685198Y-140990000D01*
X55097362Y-140990000D01*
X55079507Y-140946788D01*
X54804659Y-140671460D01*
X54445370Y-140522270D01*
X54056337Y-140521931D01*
X53696788Y-140670493D01*
X53421460Y-140945341D01*
X53272270Y-141304630D01*
X53271931Y-141693663D01*
X53420493Y-142053212D01*
X53695341Y-142328540D01*
X54044792Y-142473645D01*
X54044581Y-142716313D01*
X54193143Y-143075862D01*
X54467991Y-143351190D01*
X54827280Y-143500380D01*
X55216313Y-143500719D01*
X55575862Y-143352157D01*
X55851190Y-143077309D01*
X55879139Y-143010000D01*
X61626920Y-143010000D01*
X61695341Y-143078540D01*
X61724669Y-143090718D01*
X61651214Y-143460000D01*
X61747887Y-143946008D01*
X62023188Y-144358026D01*
X62435206Y-144633327D01*
X62921214Y-144730000D01*
X62435206Y-144826673D01*
X62023188Y-145101974D01*
X61747887Y-145513992D01*
X61651214Y-146000000D01*
X61747887Y-146486008D01*
X62023188Y-146898026D01*
X62435206Y-147173327D01*
X62921214Y-147270000D01*
X62435206Y-147366673D01*
X62023188Y-147641974D01*
X61747887Y-148053992D01*
X61651214Y-148540000D01*
X61747887Y-149026008D01*
X62023188Y-149438026D01*
X62435206Y-149713327D01*
X62921214Y-149810000D01*
X62435206Y-149906673D01*
X62023188Y-150181974D01*
X61747887Y-150593992D01*
X61651214Y-151080000D01*
X61747887Y-151566008D01*
X62023188Y-151978026D01*
X62435206Y-152253327D01*
X62921214Y-152350000D01*
X62435206Y-152446673D01*
X62023188Y-152721974D01*
X61747887Y-153133992D01*
X61651214Y-153620000D01*
X61747887Y-154106008D01*
X62023188Y-154518026D01*
X62435206Y-154793327D01*
X62921214Y-154890000D01*
X62985198Y-154890000D01*
X61556700Y-156318498D01*
X61445370Y-156272270D01*
X61056337Y-156271931D01*
X60696788Y-156420493D01*
X60627160Y-156490000D01*
X57623080Y-156490000D01*
X57554659Y-156421460D01*
X57195370Y-156272270D01*
X56806337Y-156271931D01*
X56446788Y-156420493D01*
X56171460Y-156695341D01*
X56022270Y-157054630D01*
X56021931Y-157443663D01*
X56170493Y-157803212D01*
X56445341Y-158078540D01*
X56804630Y-158227730D01*
X57193663Y-158228069D01*
X57553212Y-158079507D01*
X57622840Y-158010000D01*
X60626920Y-158010000D01*
X60695341Y-158078540D01*
X60972149Y-158193481D01*
X60972080Y-158273123D01*
X54231583Y-158273123D01*
X53729269Y-157770809D01*
X53951261Y-157549204D01*
X54100451Y-157189915D01*
X54100790Y-156800882D01*
X53952228Y-156441333D01*
X53882721Y-156371705D01*
X53882721Y-146123080D01*
X53951261Y-146054659D01*
X54100451Y-145695370D01*
X54100790Y-145306337D01*
X53952228Y-144946788D01*
X53677380Y-144671460D01*
X53318091Y-144522270D01*
X53026877Y-144522016D01*
X53026877Y-139455639D01*
X53170493Y-139803218D01*
X53445341Y-140078546D01*
X53804630Y-140227736D01*
X54193663Y-140228075D01*
X54553212Y-140079513D01*
X54622840Y-140010006D01*
X57899994Y-140010006D01*
X58190833Y-139952154D01*
X58437395Y-139787407D01*
X60996817Y-137227985D01*
X61093663Y-137228069D01*
X61453212Y-137079507D01*
X61728540Y-136804659D01*
X61877730Y-136445370D01*
X61878069Y-136056337D01*
X61729507Y-135696788D01*
X61454659Y-135421460D01*
X61095370Y-135272270D01*
X60706337Y-135271931D01*
X60346788Y-135420493D01*
X60071460Y-135695341D01*
X59922270Y-136054630D01*
X59922184Y-136153014D01*
X57585192Y-138490006D01*
X54623080Y-138490006D01*
X54554659Y-138421466D01*
X54195370Y-138272276D01*
X53806337Y-138271937D01*
X53446788Y-138420499D01*
X53171460Y-138695347D01*
X53026877Y-139043541D01*
X53026877Y-134527817D01*
X53316384Y-134528069D01*
X53675933Y-134379507D01*
X53779879Y-134275742D01*
X53898493Y-134252148D01*
X54096140Y-134120085D01*
X54098110Y-134121431D01*
X54272225Y-134156690D01*
X54271931Y-134493663D01*
X54420493Y-134853212D01*
X54695341Y-135128540D01*
X55054630Y-135277730D01*
X55443663Y-135278069D01*
X55514804Y-135248674D01*
X55548110Y-135271431D01*
X55800000Y-135322440D01*
X56600000Y-135322440D01*
X56835317Y-135278162D01*
X56938646Y-135211671D01*
X56940302Y-135213327D01*
X57173691Y-135310000D01*
X57414250Y-135310000D01*
X57573000Y-135151250D01*
X57573000Y-134427000D01*
X57827000Y-134427000D01*
X57827000Y-135151250D01*
X57985750Y-135310000D01*
X58226309Y-135310000D01*
X58459698Y-135213327D01*
X58638327Y-135034699D01*
X58735000Y-134801310D01*
X58735000Y-134585750D01*
X58576250Y-134427000D01*
X57827000Y-134427000D01*
X57573000Y-134427000D01*
X57553000Y-134427000D01*
X57553000Y-134322815D01*
X81974630Y-134322815D01*
X82298980Y-135107800D01*
X82899041Y-135708909D01*
X83683459Y-136034628D01*
X84532815Y-136035370D01*
X85317800Y-135711020D01*
X85918909Y-135110959D01*
X86244628Y-134326541D01*
X86245370Y-133477185D01*
X85921020Y-132692200D01*
X85320959Y-132091091D01*
X84536541Y-131765372D01*
X83687185Y-131764630D01*
X82902200Y-132088980D01*
X82301091Y-132689041D01*
X81975372Y-133473459D01*
X81974630Y-134322815D01*
X57553000Y-134322815D01*
X57553000Y-134173000D01*
X57573000Y-134173000D01*
X57573000Y-133448750D01*
X57827000Y-133448750D01*
X57827000Y-134173000D01*
X58576250Y-134173000D01*
X58735000Y-134014250D01*
X58735000Y-133798690D01*
X58638327Y-133565301D01*
X58459698Y-133386673D01*
X58226309Y-133290000D01*
X57985750Y-133290000D01*
X57827000Y-133448750D01*
X57573000Y-133448750D01*
X57414250Y-133290000D01*
X57173691Y-133290000D01*
X57149338Y-133300088D01*
X57126250Y-133277000D01*
X56377000Y-133277000D01*
X56377000Y-133277560D01*
X56123000Y-133277560D01*
X56123000Y-133277000D01*
X56103000Y-133277000D01*
X56103000Y-133023000D01*
X56123000Y-133023000D01*
X56123000Y-132298750D01*
X56377000Y-132298750D01*
X56377000Y-133023000D01*
X57126250Y-133023000D01*
X57285000Y-132864250D01*
X57285000Y-132648690D01*
X57188327Y-132415301D01*
X57009698Y-132236673D01*
X56776309Y-132140000D01*
X56535750Y-132140000D01*
X56377000Y-132298750D01*
X56123000Y-132298750D01*
X55964250Y-132140000D01*
X55723691Y-132140000D01*
X55490302Y-132236673D01*
X55488932Y-132238043D01*
X55401890Y-132178569D01*
X55150000Y-132127560D01*
X54396608Y-132127560D01*
X54422440Y-132000000D01*
X54422440Y-131200000D01*
X54378162Y-130964683D01*
X54311671Y-130861354D01*
X54313327Y-130859698D01*
X54410000Y-130626309D01*
X54410000Y-130385750D01*
X54251250Y-130227000D01*
X53527000Y-130227000D01*
X53527000Y-130247000D01*
X53273000Y-130247000D01*
X53273000Y-130227000D01*
X53253000Y-130227000D01*
X53253000Y-129973000D01*
X53273000Y-129973000D01*
X53273000Y-129223750D01*
X53527000Y-129223750D01*
X53527000Y-129973000D01*
X54251250Y-129973000D01*
X54410000Y-129814250D01*
X54410000Y-129573691D01*
X54313327Y-129340302D01*
X54134699Y-129161673D01*
X53901310Y-129065000D01*
X53685750Y-129065000D01*
X53527000Y-129223750D01*
X53273000Y-129223750D01*
X53114250Y-129065000D01*
X53026877Y-129065000D01*
X53026877Y-127284187D01*
X59274752Y-127284187D01*
X59492757Y-127811800D01*
X59896077Y-128215824D01*
X60423309Y-128434750D01*
X60994187Y-128435248D01*
X61521800Y-128217243D01*
X61925824Y-127813923D01*
X61979862Y-127683785D01*
X62032757Y-127811800D01*
X62436077Y-128215824D01*
X62963309Y-128434750D01*
X63534187Y-128435248D01*
X64061800Y-128217243D01*
X64465824Y-127813923D01*
X64519862Y-127683785D01*
X64572757Y-127811800D01*
X64976077Y-128215824D01*
X65503309Y-128434750D01*
X66074187Y-128435248D01*
X66601800Y-128217243D01*
X67005824Y-127813923D01*
X67224750Y-127286691D01*
X67225248Y-126715813D01*
X67007243Y-126188200D01*
X66603923Y-125784176D01*
X66076691Y-125565250D01*
X65505813Y-125564752D01*
X64978200Y-125782757D01*
X64574176Y-126186077D01*
X64520138Y-126316215D01*
X64467243Y-126188200D01*
X64063923Y-125784176D01*
X63536691Y-125565250D01*
X62965813Y-125564752D01*
X62438200Y-125782757D01*
X62034176Y-126186077D01*
X61980138Y-126316215D01*
X61927243Y-126188200D01*
X61523923Y-125784176D01*
X60996691Y-125565250D01*
X60425813Y-125564752D01*
X59898200Y-125782757D01*
X59494176Y-126186077D01*
X59275250Y-126713309D01*
X59274752Y-127284187D01*
X53026877Y-127284187D01*
X53026877Y-123627000D01*
X59236233Y-123627000D01*
X59688249Y-124079806D01*
X59688249Y-124079806D01*
G37*
X59688249Y-124079806D02*
X61023782Y-124634368D01*
X62469874Y-124635630D01*
X63195638Y-124335750D01*
X64840000Y-124335750D01*
X64840000Y-124576309D01*
X64936673Y-124809698D01*
X65115301Y-124988327D01*
X65348690Y-125085000D01*
X65564250Y-125085000D01*
X65723000Y-124926250D01*
X65723000Y-124177000D01*
X65977000Y-124177000D01*
X65977000Y-124926250D01*
X66135750Y-125085000D01*
X66351310Y-125085000D01*
X66584699Y-124988327D01*
X66763327Y-124809698D01*
X66860000Y-124576309D01*
X66860000Y-124335750D01*
X66701250Y-124177000D01*
X65977000Y-124177000D01*
X65723000Y-124177000D01*
X64998750Y-124177000D01*
X64840000Y-124335750D01*
X63195638Y-124335750D01*
X63806372Y-124083400D01*
X64263569Y-123627000D01*
X64840000Y-123627000D01*
X64840000Y-123764250D01*
X64998750Y-123923000D01*
X65723000Y-123923000D01*
X65723000Y-123903000D01*
X65977000Y-123903000D01*
X65977000Y-123923000D01*
X66701250Y-123923000D01*
X66860000Y-123764250D01*
X66860000Y-123627000D01*
X67023000Y-123627000D01*
X67023000Y-124400000D01*
X67033006Y-124449410D01*
X67060197Y-124489803D01*
X69173000Y-126602606D01*
X69173000Y-132300000D01*
X69183006Y-132349410D01*
X69211447Y-132391035D01*
X69253841Y-132418315D01*
X69300000Y-132427000D01*
X78800000Y-132427000D01*
X78849410Y-132416994D01*
X78898293Y-132380421D01*
X79760884Y-131326143D01*
X86701814Y-131226987D01*
X86751076Y-131216276D01*
X86787723Y-131191835D01*
X87036715Y-130953991D01*
X88924735Y-130953991D01*
X89157932Y-131518371D01*
X89589357Y-131950551D01*
X90153330Y-132184733D01*
X90763991Y-132185265D01*
X91328371Y-131952068D01*
X91760551Y-131520643D01*
X91994733Y-130956670D01*
X91994735Y-130953991D01*
X94004735Y-130953991D01*
X94237932Y-131518371D01*
X94669357Y-131950551D01*
X95233330Y-132184733D01*
X95843991Y-132185265D01*
X96408371Y-131952068D01*
X96840551Y-131520643D01*
X97074733Y-130956670D01*
X97075265Y-130346009D01*
X96842068Y-129781629D01*
X96410643Y-129349449D01*
X95846670Y-129115267D01*
X95236009Y-129114735D01*
X94671629Y-129347932D01*
X94239449Y-129779357D01*
X94005267Y-130343330D01*
X94004735Y-130953991D01*
X91994735Y-130953991D01*
X91995265Y-130346009D01*
X91762068Y-129781629D01*
X91330643Y-129349449D01*
X90766670Y-129115267D01*
X90156009Y-129114735D01*
X89591629Y-129347932D01*
X89159449Y-129779357D01*
X88925267Y-130343330D01*
X88924735Y-130953991D01*
X87036715Y-130953991D01*
X93450910Y-124827000D01*
X94507172Y-124827000D01*
X94524890Y-124844718D01*
X94542608Y-124827000D01*
X94672070Y-124827000D01*
X94725852Y-124986643D01*
X95299336Y-125196458D01*
X95659612Y-125181330D01*
X97915000Y-127706594D01*
X97915000Y-128150000D01*
X98009009Y-128622614D01*
X98276723Y-129023277D01*
X100876723Y-131623277D01*
X101233056Y-131861370D01*
X100682200Y-132088980D01*
X100081091Y-132689041D01*
X99755372Y-133473459D01*
X99754630Y-134322815D01*
X100078980Y-135107800D01*
X100679041Y-135708909D01*
X101463459Y-136034628D01*
X102312815Y-136035370D01*
X103097800Y-135711020D01*
X103698909Y-135110959D01*
X104024628Y-134326541D01*
X104025370Y-133477185D01*
X103701020Y-132692200D01*
X103100959Y-132091091D01*
X102845464Y-131985000D01*
X104488446Y-131985000D01*
X106126723Y-133623277D01*
X106527386Y-133890991D01*
X107000000Y-133985000D01*
X107055394Y-133985000D01*
X110160197Y-137089803D01*
X110202211Y-137117666D01*
X110250000Y-137127000D01*
X112752577Y-137127000D01*
X112917261Y-137524582D01*
X113236030Y-137684365D01*
X113793395Y-137127000D01*
X114152605Y-137127000D01*
X113415635Y-137863970D01*
X113575418Y-138182739D01*
X113951122Y-138330016D01*
X113542200Y-138498980D01*
X112941091Y-139099041D01*
X112615372Y-139883459D01*
X112614630Y-140732815D01*
X112938980Y-141517800D01*
X113539041Y-142118909D01*
X113951118Y-142290018D01*
X113542200Y-142458980D01*
X112941091Y-143059041D01*
X112615372Y-143843459D01*
X112614630Y-144692815D01*
X112938980Y-145477800D01*
X113539041Y-146078909D01*
X113951118Y-146250018D01*
X113914859Y-146265000D01*
X106761554Y-146265000D01*
X105023277Y-144526723D01*
X104622614Y-144259009D01*
X104150000Y-144165000D01*
X97000474Y-144165000D01*
X96842068Y-143781629D01*
X96410643Y-143349449D01*
X95846670Y-143115267D01*
X95236009Y-143114735D01*
X94671629Y-143347932D01*
X94239449Y-143779357D01*
X94005267Y-144343330D01*
X94004735Y-144953991D01*
X94237932Y-145518371D01*
X94669357Y-145950551D01*
X95233330Y-146184733D01*
X95328262Y-146184816D01*
X95416723Y-146273277D01*
X95817386Y-146540991D01*
X96290000Y-146635000D01*
X100135226Y-146635000D01*
X100081091Y-146689041D01*
X99755372Y-147473459D01*
X99754630Y-148322815D01*
X100078980Y-149107800D01*
X100679041Y-149708909D01*
X101463459Y-150034628D01*
X102312815Y-150035370D01*
X103097800Y-149711020D01*
X103698909Y-149110959D01*
X104024628Y-148326541D01*
X104025370Y-147477185D01*
X103704804Y-146701358D01*
X105376723Y-148373277D01*
X105777386Y-148640991D01*
X106250000Y-148735000D01*
X111348087Y-148735000D01*
X111700000Y-148805000D01*
X112051913Y-148735000D01*
X112648588Y-148735000D01*
X112938980Y-149437800D01*
X113539041Y-150038909D01*
X113951118Y-150210018D01*
X113542200Y-150378980D01*
X112941091Y-150979041D01*
X112615372Y-151763459D01*
X112614630Y-152612815D01*
X112938980Y-153397800D01*
X113539041Y-153998909D01*
X113951118Y-154170018D01*
X113542200Y-154338980D01*
X112965174Y-154915000D01*
X111350000Y-154915000D01*
X110877386Y-155009009D01*
X110476723Y-155276723D01*
X108288446Y-157465000D01*
X96525992Y-157465000D01*
X96410643Y-157349449D01*
X95846670Y-157115267D01*
X95236009Y-157114735D01*
X94671629Y-157347932D01*
X94239449Y-157779357D01*
X94005267Y-158343330D01*
X94004735Y-158953991D01*
X94237932Y-159518371D01*
X94669357Y-159950551D01*
X95233330Y-160184733D01*
X95843991Y-160185265D01*
X96408371Y-159952068D01*
X96425469Y-159935000D01*
X101054859Y-159935000D01*
X100682200Y-160088980D01*
X100081091Y-160689041D01*
X99755372Y-161473459D01*
X99754630Y-162322815D01*
X100078980Y-163107800D01*
X100679041Y-163708909D01*
X101463459Y-164034628D01*
X102312815Y-164035370D01*
X103097800Y-163711020D01*
X103698909Y-163110959D01*
X104024628Y-162326541D01*
X104025370Y-161477185D01*
X103701020Y-160692200D01*
X103100959Y-160091091D01*
X102725050Y-159935000D01*
X108800000Y-159935000D01*
X109272614Y-159840991D01*
X109673277Y-159573277D01*
X111861554Y-157385000D01*
X112966133Y-157385000D01*
X113539041Y-157958909D01*
X113951118Y-158130018D01*
X113542200Y-158298980D01*
X112941091Y-158899041D01*
X112615372Y-159683459D01*
X112614630Y-160532815D01*
X112938980Y-161317800D01*
X113539041Y-161918909D01*
X113951118Y-162090018D01*
X113542200Y-162258980D01*
X112941091Y-162859041D01*
X112615372Y-163643459D01*
X112614630Y-164492815D01*
X112938980Y-165277800D01*
X113539041Y-165878909D01*
X114323459Y-166204628D01*
X115172815Y-166205370D01*
X115957800Y-165881020D01*
X116558909Y-165280959D01*
X116884628Y-164496541D01*
X116885370Y-163647185D01*
X116561020Y-162862200D01*
X115960959Y-162261091D01*
X115548882Y-162089982D01*
X115957800Y-161921020D01*
X116558909Y-161320959D01*
X116814191Y-160706173D01*
X116873110Y-160746431D01*
X117125000Y-160797440D01*
X117875000Y-160797440D01*
X118110317Y-160753162D01*
X118326441Y-160614090D01*
X118461934Y-160415790D01*
X121513436Y-160104412D01*
X121648110Y-160196431D01*
X121900000Y-160247440D01*
X123100000Y-160247440D01*
X123335317Y-160203162D01*
X123551441Y-160064090D01*
X123696431Y-159851890D01*
X123747440Y-159600000D01*
X123747440Y-158700000D01*
X123703162Y-158464683D01*
X123564090Y-158248559D01*
X123351890Y-158103569D01*
X123100000Y-158052560D01*
X121900000Y-158052560D01*
X121664683Y-158096838D01*
X121448559Y-158235910D01*
X121303569Y-158448110D01*
X121272589Y-158601095D01*
X118474525Y-158886612D01*
X118522440Y-158650000D01*
X118522440Y-157850000D01*
X118478162Y-157614683D01*
X118339090Y-157398559D01*
X118260000Y-157344519D01*
X118260000Y-156906844D01*
X118326441Y-156864090D01*
X118397563Y-156760000D01*
X119400000Y-156760000D01*
X119463143Y-156747440D01*
X120350000Y-156747440D01*
X120585317Y-156703162D01*
X120801441Y-156564090D01*
X120946431Y-156351890D01*
X120954848Y-156310328D01*
X121266470Y-156373924D01*
X121296838Y-156535317D01*
X121435910Y-156751441D01*
X121648110Y-156896431D01*
X121900000Y-156947440D01*
X123100000Y-156947440D01*
X123335317Y-156903162D01*
X123551441Y-156764090D01*
X123696431Y-156551890D01*
X123747440Y-156300000D01*
X123747440Y-155400000D01*
X123703162Y-155164683D01*
X123564090Y-154948559D01*
X123351890Y-154803569D01*
X123100000Y-154752560D01*
X121900000Y-154752560D01*
X121664683Y-154796838D01*
X121538411Y-154878092D01*
X120775926Y-154722483D01*
X120601890Y-154603569D01*
X120350000Y-154552560D01*
X119150000Y-154552560D01*
X118914683Y-154596838D01*
X118698559Y-154735910D01*
X118553569Y-154948110D01*
X118502560Y-155200000D01*
X118502560Y-155240000D01*
X118411228Y-155240000D01*
X118471431Y-155151890D01*
X118522440Y-154900000D01*
X118522440Y-154100000D01*
X118478162Y-153864683D01*
X118339090Y-153648559D01*
X118260000Y-153594519D01*
X118260000Y-152906844D01*
X118326441Y-152864090D01*
X118397563Y-152760000D01*
X118435198Y-152760000D01*
X118508902Y-152833704D01*
X118546838Y-153035317D01*
X118685910Y-153251441D01*
X118898110Y-153396431D01*
X119150000Y-153447440D01*
X120350000Y-153447440D01*
X120585317Y-153403162D01*
X120801441Y-153264090D01*
X120946431Y-153051890D01*
X120957907Y-152995222D01*
X121623950Y-152929923D01*
X121648110Y-152946431D01*
X121900000Y-152997440D01*
X123100000Y-152997440D01*
X123335317Y-152953162D01*
X123551441Y-152814090D01*
X123696431Y-152601890D01*
X123747440Y-152350000D01*
X123747440Y-151450000D01*
X123703162Y-151214683D01*
X123564090Y-150998559D01*
X123351890Y-150853569D01*
X123100000Y-150802560D01*
X121900000Y-150802560D01*
X121664683Y-150846838D01*
X121448559Y-150985910D01*
X121303569Y-151198110D01*
X121254823Y-151438824D01*
X120834352Y-151480047D01*
X120814090Y-151448559D01*
X120601890Y-151303569D01*
X120350000Y-151252560D01*
X119150000Y-151252560D01*
X118976893Y-151285132D01*
X118750000Y-151240000D01*
X118411228Y-151240000D01*
X118471431Y-151151890D01*
X118522440Y-150900000D01*
X118522440Y-150100000D01*
X118478162Y-149864683D01*
X118339090Y-149648559D01*
X118260000Y-149594519D01*
X118260000Y-148906844D01*
X118326441Y-148864090D01*
X118471431Y-148651890D01*
X118520415Y-148410000D01*
X118594895Y-148410000D01*
X118685910Y-148551441D01*
X118898110Y-148696431D01*
X119150000Y-148747440D01*
X120350000Y-148747440D01*
X120585317Y-148703162D01*
X120601625Y-148692668D01*
X121252560Y-148884120D01*
X121252560Y-149050000D01*
X121296838Y-149285317D01*
X121435910Y-149501441D01*
X121648110Y-149646431D01*
X121900000Y-149697440D01*
X123100000Y-149697440D01*
X123335317Y-149653162D01*
X123551441Y-149514090D01*
X123696431Y-149301890D01*
X123747440Y-149050000D01*
X123747440Y-148150000D01*
X123703162Y-147914683D01*
X123564090Y-147698559D01*
X123351890Y-147553569D01*
X123100000Y-147502560D01*
X121942152Y-147502560D01*
X120997440Y-147224704D01*
X120997440Y-147200000D01*
X120953162Y-146964683D01*
X120814090Y-146748559D01*
X120601890Y-146603569D01*
X120350000Y-146552560D01*
X119150000Y-146552560D01*
X118914683Y-146596838D01*
X118698559Y-146735910D01*
X118593274Y-146890000D01*
X118522440Y-146890000D01*
X118522440Y-146100000D01*
X118478162Y-145864683D01*
X118339090Y-145648559D01*
X118260000Y-145594519D01*
X118260000Y-145110000D01*
X118594895Y-145110000D01*
X118685910Y-145251441D01*
X118898110Y-145396431D01*
X119150000Y-145447440D01*
X120350000Y-145447440D01*
X120585317Y-145403162D01*
X120801441Y-145264090D01*
X120906726Y-145110000D01*
X121252560Y-145110000D01*
X121252560Y-145350000D01*
X121296838Y-145585317D01*
X121435910Y-145801441D01*
X121648110Y-145946431D01*
X121900000Y-145997440D01*
X123100000Y-145997440D01*
X123335317Y-145953162D01*
X123551441Y-145814090D01*
X123696431Y-145601890D01*
X123747440Y-145350000D01*
X123747440Y-144450000D01*
X123703162Y-144214683D01*
X123564090Y-143998559D01*
X123351890Y-143853569D01*
X123100000Y-143802560D01*
X122472377Y-143802560D01*
X122240839Y-143647852D01*
X121950000Y-143590000D01*
X120905105Y-143590000D01*
X120814090Y-143448559D01*
X120601890Y-143303569D01*
X120350000Y-143252560D01*
X119150000Y-143252560D01*
X118914683Y-143296838D01*
X118698559Y-143435910D01*
X118593274Y-143590000D01*
X118520558Y-143590000D01*
X118478162Y-143364683D01*
X118404380Y-143250022D01*
X118471431Y-143151890D01*
X118522440Y-142900000D01*
X118522440Y-142100000D01*
X118478162Y-141864683D01*
X118339090Y-141648559D01*
X118260000Y-141594519D01*
X118260000Y-141156844D01*
X118326441Y-141114090D01*
X118471431Y-140901890D01*
X118520415Y-140660000D01*
X118594895Y-140660000D01*
X118685910Y-140801441D01*
X118898110Y-140946431D01*
X119150000Y-140997440D01*
X119336857Y-140997440D01*
X119400000Y-141010000D01*
X119463143Y-140997440D01*
X119812684Y-140997440D01*
X119837090Y-141017755D01*
X121252560Y-141787032D01*
X121252560Y-142050000D01*
X121296838Y-142285317D01*
X121435910Y-142501441D01*
X121648110Y-142646431D01*
X121900000Y-142697440D01*
X123100000Y-142697440D01*
X123335317Y-142653162D01*
X123551441Y-142514090D01*
X123696431Y-142301890D01*
X123747440Y-142050000D01*
X123747440Y-141150000D01*
X123703162Y-140914683D01*
X123564090Y-140698559D01*
X123351890Y-140553569D01*
X123100000Y-140502560D01*
X122072290Y-140502560D01*
X120997440Y-139918403D01*
X120997440Y-139450000D01*
X120953162Y-139214683D01*
X120814090Y-138998559D01*
X120601890Y-138853569D01*
X120350000Y-138802560D01*
X119150000Y-138802560D01*
X118914683Y-138846838D01*
X118698559Y-138985910D01*
X118593274Y-139140000D01*
X118510000Y-139140000D01*
X118510000Y-139035750D01*
X118351250Y-138877000D01*
X117627000Y-138877000D01*
X117627000Y-138897000D01*
X117373000Y-138897000D01*
X117373000Y-138877000D01*
X116648750Y-138877000D01*
X116492345Y-139033405D01*
X115960959Y-138501091D01*
X115558982Y-138334175D01*
X115825714Y-138223691D01*
X116490000Y-138223691D01*
X116490000Y-138464250D01*
X116648750Y-138623000D01*
X117373000Y-138623000D01*
X117373000Y-137873750D01*
X117627000Y-137873750D01*
X117627000Y-138623000D01*
X118351250Y-138623000D01*
X118510000Y-138464250D01*
X118510000Y-138223691D01*
X118413327Y-137990302D01*
X118234699Y-137811673D01*
X118001310Y-137715000D01*
X117785750Y-137715000D01*
X117627000Y-137873750D01*
X117373000Y-137873750D01*
X117214250Y-137715000D01*
X116998690Y-137715000D01*
X116765301Y-137811673D01*
X116586673Y-137990302D01*
X116490000Y-138223691D01*
X115825714Y-138223691D01*
X115924582Y-138182739D01*
X116084365Y-137863970D01*
X115906145Y-137685750D01*
X121265000Y-137685750D01*
X121265000Y-137976309D01*
X121361673Y-138209698D01*
X121540301Y-138388327D01*
X121773690Y-138485000D01*
X122214250Y-138485000D01*
X122373000Y-138326250D01*
X122373000Y-137527000D01*
X122627000Y-137527000D01*
X122627000Y-138326250D01*
X122785750Y-138485000D01*
X123226310Y-138485000D01*
X123459699Y-138388327D01*
X123638327Y-138209698D01*
X123735000Y-137976309D01*
X123735000Y-137685750D01*
X123576250Y-137527000D01*
X122627000Y-137527000D01*
X122373000Y-137527000D01*
X121423750Y-137527000D01*
X121265000Y-137685750D01*
X115906145Y-137685750D01*
X115347395Y-137127000D01*
X115706605Y-137127000D01*
X116263970Y-137684365D01*
X116582739Y-137524582D01*
X116658441Y-137331466D01*
X116765301Y-137438327D01*
X116998690Y-137535000D01*
X117214250Y-137535000D01*
X117373000Y-137376250D01*
X117373000Y-137127000D01*
X117627000Y-137127000D01*
X117627000Y-137376250D01*
X117785750Y-137535000D01*
X118001310Y-137535000D01*
X118234699Y-137438327D01*
X118413327Y-137259698D01*
X118468292Y-137127000D01*
X118515000Y-137127000D01*
X118515000Y-137176309D01*
X118611673Y-137409698D01*
X118790301Y-137588327D01*
X119023690Y-137685000D01*
X119464250Y-137685000D01*
X119623000Y-137526250D01*
X119623000Y-137127000D01*
X119877000Y-137127000D01*
X119877000Y-137526250D01*
X120035750Y-137685000D01*
X120476310Y-137685000D01*
X120709699Y-137588327D01*
X120888327Y-137409698D01*
X120985000Y-137176309D01*
X120985000Y-137127000D01*
X121277750Y-137127000D01*
X121423750Y-137273000D01*
X122373000Y-137273000D01*
X122373000Y-137253000D01*
X122627000Y-137253000D01*
X122627000Y-137273000D01*
X123576250Y-137273000D01*
X123722250Y-137127000D01*
X126790000Y-137127000D01*
X126790000Y-175290000D01*
X56510000Y-175290000D01*
X56510000Y-171719874D01*
X58114370Y-171719874D01*
X58666600Y-173056372D01*
X59688249Y-174079806D01*
X61023782Y-174634368D01*
X62469874Y-174635630D01*
X63806372Y-174083400D01*
X64829806Y-173061751D01*
X65384368Y-171726218D01*
X65385630Y-170280126D01*
X64948758Y-169222815D01*
X81574630Y-169222815D01*
X81898980Y-170007800D01*
X82499041Y-170608909D01*
X83283459Y-170934628D01*
X84132815Y-170935370D01*
X84917800Y-170611020D01*
X85518909Y-170010959D01*
X85844628Y-169226541D01*
X85844631Y-169222815D01*
X99354630Y-169222815D01*
X99678980Y-170007800D01*
X100279041Y-170608909D01*
X101063459Y-170934628D01*
X101912815Y-170935370D01*
X102697800Y-170611020D01*
X103172274Y-170137373D01*
X103115632Y-170273782D01*
X103114370Y-171719874D01*
X103666600Y-173056372D01*
X104688249Y-174079806D01*
X106023782Y-174634368D01*
X107469874Y-174635630D01*
X108806372Y-174083400D01*
X109829806Y-173061751D01*
X110384368Y-171726218D01*
X110384373Y-171719874D01*
X118114370Y-171719874D01*
X118666600Y-173056372D01*
X119688249Y-174079806D01*
X121023782Y-174634368D01*
X122469874Y-174635630D01*
X123806372Y-174083400D01*
X124829806Y-173061751D01*
X125384368Y-171726218D01*
X125385630Y-170280126D01*
X124833400Y-168943628D01*
X123811751Y-167920194D01*
X122476218Y-167365632D01*
X121030126Y-167364370D01*
X119693628Y-167916600D01*
X118670194Y-168938249D01*
X118115632Y-170273782D01*
X118114370Y-171719874D01*
X110384373Y-171719874D01*
X110385630Y-170280126D01*
X109833400Y-168943628D01*
X108811751Y-167920194D01*
X107476218Y-167365632D01*
X106030126Y-167364370D01*
X104693628Y-167916600D01*
X103670194Y-168938249D01*
X103624784Y-169047608D01*
X103625370Y-168377185D01*
X103301020Y-167592200D01*
X102700959Y-166991091D01*
X101916541Y-166665372D01*
X101067185Y-166664630D01*
X100282200Y-166988980D01*
X99681091Y-167589041D01*
X99355372Y-168373459D01*
X99354630Y-169222815D01*
X85844631Y-169222815D01*
X85845370Y-168377185D01*
X85521020Y-167592200D01*
X84920959Y-166991091D01*
X84136541Y-166665372D01*
X83287185Y-166664630D01*
X82502200Y-166988980D01*
X81901091Y-167589041D01*
X81575372Y-168373459D01*
X81574630Y-169222815D01*
X64948758Y-169222815D01*
X64833400Y-168943628D01*
X63811751Y-167920194D01*
X62476218Y-167365632D01*
X61030126Y-167364370D01*
X59693628Y-167916600D01*
X58670194Y-168938249D01*
X58115632Y-170273782D01*
X58114370Y-171719874D01*
X56510000Y-171719874D01*
X56510000Y-165853991D01*
X88624735Y-165853991D01*
X88857932Y-166418371D01*
X89289357Y-166850551D01*
X89853330Y-167084733D01*
X90463991Y-167085265D01*
X91028371Y-166852068D01*
X91460551Y-166420643D01*
X91694733Y-165856670D01*
X91694735Y-165853991D01*
X93704735Y-165853991D01*
X93937932Y-166418371D01*
X94369357Y-166850551D01*
X94933330Y-167084733D01*
X95543991Y-167085265D01*
X96108371Y-166852068D01*
X96540551Y-166420643D01*
X96774733Y-165856670D01*
X96775265Y-165246009D01*
X96542068Y-164681629D01*
X96110643Y-164249449D01*
X95546670Y-164015267D01*
X94936009Y-164014735D01*
X94371629Y-164247932D01*
X93939449Y-164679357D01*
X93705267Y-165243330D01*
X93704735Y-165853991D01*
X91694735Y-165853991D01*
X91695265Y-165246009D01*
X91462068Y-164681629D01*
X91030643Y-164249449D01*
X90466670Y-164015267D01*
X89856009Y-164014735D01*
X89291629Y-164247932D01*
X88859449Y-164679357D01*
X88625267Y-165243330D01*
X88624735Y-165853991D01*
X56510000Y-165853991D01*
X56510000Y-164100000D01*
X56455954Y-163828295D01*
X56302046Y-163597954D01*
X56071705Y-163444046D01*
X55800000Y-163390000D01*
X49210000Y-163390000D01*
X49210000Y-159384808D01*
X52212593Y-162387401D01*
X52459154Y-162552148D01*
X52749994Y-162610000D01*
X61807125Y-162610000D01*
X61621460Y-162795341D01*
X61472270Y-163154630D01*
X61471931Y-163543663D01*
X61620493Y-163903212D01*
X61895341Y-164178540D01*
X62254630Y-164327730D01*
X62643663Y-164328069D01*
X63003212Y-164179507D01*
X63072840Y-164110000D01*
X65350000Y-164110000D01*
X65640839Y-164052148D01*
X65887401Y-163887401D01*
X65945846Y-163828956D01*
X65995343Y-163878540D01*
X66354632Y-164027730D01*
X66743665Y-164028069D01*
X67103214Y-163879507D01*
X67378542Y-163604659D01*
X67527732Y-163245370D01*
X67527818Y-163146986D01*
X68351989Y-162322815D01*
X81974630Y-162322815D01*
X82298980Y-163107800D01*
X82899041Y-163708909D01*
X83683459Y-164034628D01*
X84532815Y-164035370D01*
X85317800Y-163711020D01*
X85918909Y-163110959D01*
X86244628Y-162326541D01*
X86245370Y-161477185D01*
X85921020Y-160692200D01*
X85320959Y-160091091D01*
X84536541Y-159765372D01*
X83687185Y-159764630D01*
X82902200Y-160088980D01*
X82301091Y-160689041D01*
X81975372Y-161473459D01*
X81974630Y-162322815D01*
X68351989Y-162322815D01*
X71720813Y-158953991D01*
X88924735Y-158953991D01*
X89157932Y-159518371D01*
X89589357Y-159950551D01*
X90153330Y-160184733D01*
X90763991Y-160185265D01*
X91328371Y-159952068D01*
X91760551Y-159520643D01*
X91994733Y-158956670D01*
X91995265Y-158346009D01*
X91762068Y-157781629D01*
X91330643Y-157349449D01*
X90766670Y-157115267D01*
X90156009Y-157114735D01*
X89591629Y-157347932D01*
X89159449Y-157779357D01*
X88925267Y-158343330D01*
X88924735Y-158953991D01*
X71720813Y-158953991D01*
X73937401Y-156737403D01*
X74102148Y-156490841D01*
X74160000Y-156200002D01*
X74160000Y-155322815D01*
X81974630Y-155322815D01*
X82298980Y-156107800D01*
X82899041Y-156708909D01*
X83683459Y-157034628D01*
X84532815Y-157035370D01*
X85317800Y-156711020D01*
X85918909Y-156110959D01*
X86244628Y-155326541D01*
X86244631Y-155322815D01*
X99754630Y-155322815D01*
X100078980Y-156107800D01*
X100679041Y-156708909D01*
X101463459Y-157034628D01*
X102312815Y-157035370D01*
X103097800Y-156711020D01*
X103698909Y-156110959D01*
X104024628Y-155326541D01*
X104025370Y-154477185D01*
X103701020Y-153692200D01*
X103100959Y-153091091D01*
X102316541Y-152765372D01*
X101467185Y-152764630D01*
X100682200Y-153088980D01*
X100081091Y-153689041D01*
X99755372Y-154473459D01*
X99754630Y-155322815D01*
X86244631Y-155322815D01*
X86245370Y-154477185D01*
X85921020Y-153692200D01*
X85320959Y-153091091D01*
X84536541Y-152765372D01*
X83687185Y-152764630D01*
X82902200Y-153088980D01*
X82301091Y-153689041D01*
X81975372Y-154473459D01*
X81974630Y-155322815D01*
X74160000Y-155322815D01*
X74160000Y-151953991D01*
X88924735Y-151953991D01*
X89157932Y-152518371D01*
X89589357Y-152950551D01*
X90153330Y-153184733D01*
X90763991Y-153185265D01*
X91328371Y-152952068D01*
X91760551Y-152520643D01*
X91994733Y-151956670D01*
X91994735Y-151953991D01*
X94004735Y-151953991D01*
X94237932Y-152518371D01*
X94669357Y-152950551D01*
X95233330Y-153184733D01*
X95843991Y-153185265D01*
X96408371Y-152952068D01*
X96840551Y-152520643D01*
X97074733Y-151956670D01*
X97075265Y-151346009D01*
X96842068Y-150781629D01*
X96410643Y-150349449D01*
X95846670Y-150115267D01*
X95236009Y-150114735D01*
X94671629Y-150347932D01*
X94239449Y-150779357D01*
X94005267Y-151343330D01*
X94004735Y-151953991D01*
X91994735Y-151953991D01*
X91995265Y-151346009D01*
X91762068Y-150781629D01*
X91330643Y-150349449D01*
X90766670Y-150115267D01*
X90156009Y-150114735D01*
X89591629Y-150347932D01*
X89159449Y-150779357D01*
X88925267Y-151343330D01*
X88924735Y-151953991D01*
X74160000Y-151953991D01*
X74160000Y-148322815D01*
X81974630Y-148322815D01*
X82298980Y-149107800D01*
X82899041Y-149708909D01*
X83683459Y-150034628D01*
X84532815Y-150035370D01*
X85317800Y-149711020D01*
X85918909Y-149110959D01*
X86244628Y-148326541D01*
X86245370Y-147477185D01*
X85921020Y-146692200D01*
X85320959Y-146091091D01*
X84536541Y-145765372D01*
X83687185Y-145764630D01*
X82902200Y-146088980D01*
X82301091Y-146689041D01*
X81975372Y-147473459D01*
X81974630Y-148322815D01*
X74160000Y-148322815D01*
X74160000Y-144953991D01*
X88924735Y-144953991D01*
X89157932Y-145518371D01*
X89589357Y-145950551D01*
X90153330Y-146184733D01*
X90763991Y-146185265D01*
X91328371Y-145952068D01*
X91760551Y-145520643D01*
X91994733Y-144956670D01*
X91995265Y-144346009D01*
X91762068Y-143781629D01*
X91330643Y-143349449D01*
X90766670Y-143115267D01*
X90156009Y-143114735D01*
X89591629Y-143347932D01*
X89159449Y-143779357D01*
X88925267Y-144343330D01*
X88924735Y-144953991D01*
X74160000Y-144953991D01*
X74160000Y-141345000D01*
X74155588Y-141322815D01*
X81974630Y-141322815D01*
X82298980Y-142107800D01*
X82899041Y-142708909D01*
X83683459Y-143034628D01*
X84532815Y-143035370D01*
X85317800Y-142711020D01*
X85918909Y-142110959D01*
X86244628Y-141326541D01*
X86244631Y-141322815D01*
X99754630Y-141322815D01*
X100078980Y-142107800D01*
X100679041Y-142708909D01*
X101463459Y-143034628D01*
X102312815Y-143035370D01*
X103097800Y-142711020D01*
X103698909Y-142110959D01*
X104024628Y-141326541D01*
X104025370Y-140477185D01*
X103701020Y-139692200D01*
X103100959Y-139091091D01*
X102316541Y-138765372D01*
X101467185Y-138764630D01*
X100682200Y-139088980D01*
X100081091Y-139689041D01*
X99755372Y-140473459D01*
X99754630Y-141322815D01*
X86244631Y-141322815D01*
X86245370Y-140477185D01*
X85921020Y-139692200D01*
X85320959Y-139091091D01*
X84536541Y-138765372D01*
X83687185Y-138764630D01*
X82902200Y-139088980D01*
X82301091Y-139689041D01*
X81975372Y-140473459D01*
X81974630Y-141322815D01*
X74155588Y-141322815D01*
X74133664Y-141212599D01*
X74102148Y-141054160D01*
X73937401Y-140807599D01*
X71709136Y-138579334D01*
X71748786Y-138380000D01*
X71664048Y-137953991D01*
X88924735Y-137953991D01*
X89157932Y-138518371D01*
X89589357Y-138950551D01*
X90153330Y-139184733D01*
X90763991Y-139185265D01*
X91328371Y-138952068D01*
X91760551Y-138520643D01*
X91994733Y-137956670D01*
X91994735Y-137953991D01*
X94004735Y-137953991D01*
X94237932Y-138518371D01*
X94669357Y-138950551D01*
X95233330Y-139184733D01*
X95843991Y-139185265D01*
X96408371Y-138952068D01*
X96840551Y-138520643D01*
X97074733Y-137956670D01*
X97075265Y-137346009D01*
X96842068Y-136781629D01*
X96410643Y-136349449D01*
X95846670Y-136115267D01*
X95236009Y-136114735D01*
X94671629Y-136347932D01*
X94239449Y-136779357D01*
X94005267Y-137343330D01*
X94004735Y-137953991D01*
X91994735Y-137953991D01*
X91995265Y-137346009D01*
X91762068Y-136781629D01*
X91330643Y-136349449D01*
X90766670Y-136115267D01*
X90156009Y-136114735D01*
X89591629Y-136347932D01*
X89159449Y-136779357D01*
X88925267Y-137343330D01*
X88924735Y-137953991D01*
X71664048Y-137953991D01*
X71652113Y-137893992D01*
X71376812Y-137481974D01*
X70964794Y-137206673D01*
X70478786Y-137110000D01*
X68461214Y-137110000D01*
X67975206Y-137206673D01*
X67563188Y-137481974D01*
X67287887Y-137893992D01*
X67191214Y-138380000D01*
X67269181Y-138771968D01*
X67226647Y-138771931D01*
X66867098Y-138920493D01*
X66688541Y-139098739D01*
X66169136Y-138579334D01*
X66208786Y-138380000D01*
X66112113Y-137893992D01*
X65836812Y-137481974D01*
X65424794Y-137206673D01*
X64938786Y-137110000D01*
X62921214Y-137110000D01*
X62435206Y-137206673D01*
X62023188Y-137481974D01*
X61930912Y-137620076D01*
X61695370Y-137522270D01*
X61306337Y-137521931D01*
X60946788Y-137670493D01*
X60671460Y-137945341D01*
X60522270Y-138304630D01*
X60521931Y-138693663D01*
X60670493Y-139053212D01*
X60740000Y-139122840D01*
X60740000Y-140935198D01*
X60685198Y-140990000D01*
X55097362Y-140990000D01*
X55079507Y-140946788D01*
X54804659Y-140671460D01*
X54445370Y-140522270D01*
X54056337Y-140521931D01*
X53696788Y-140670493D01*
X53421460Y-140945341D01*
X53272270Y-141304630D01*
X53271931Y-141693663D01*
X53420493Y-142053212D01*
X53695341Y-142328540D01*
X54044792Y-142473645D01*
X54044581Y-142716313D01*
X54193143Y-143075862D01*
X54467991Y-143351190D01*
X54827280Y-143500380D01*
X55216313Y-143500719D01*
X55575862Y-143352157D01*
X55851190Y-143077309D01*
X55879139Y-143010000D01*
X61626920Y-143010000D01*
X61695341Y-143078540D01*
X61724669Y-143090718D01*
X61651214Y-143460000D01*
X61747887Y-143946008D01*
X62023188Y-144358026D01*
X62435206Y-144633327D01*
X62921214Y-144730000D01*
X62435206Y-144826673D01*
X62023188Y-145101974D01*
X61747887Y-145513992D01*
X61651214Y-146000000D01*
X61747887Y-146486008D01*
X62023188Y-146898026D01*
X62435206Y-147173327D01*
X62921214Y-147270000D01*
X62435206Y-147366673D01*
X62023188Y-147641974D01*
X61747887Y-148053992D01*
X61651214Y-148540000D01*
X61747887Y-149026008D01*
X62023188Y-149438026D01*
X62435206Y-149713327D01*
X62921214Y-149810000D01*
X62435206Y-149906673D01*
X62023188Y-150181974D01*
X61747887Y-150593992D01*
X61651214Y-151080000D01*
X61747887Y-151566008D01*
X62023188Y-151978026D01*
X62435206Y-152253327D01*
X62921214Y-152350000D01*
X62435206Y-152446673D01*
X62023188Y-152721974D01*
X61747887Y-153133992D01*
X61651214Y-153620000D01*
X61747887Y-154106008D01*
X62023188Y-154518026D01*
X62435206Y-154793327D01*
X62921214Y-154890000D01*
X62985198Y-154890000D01*
X61556700Y-156318498D01*
X61445370Y-156272270D01*
X61056337Y-156271931D01*
X60696788Y-156420493D01*
X60627160Y-156490000D01*
X57623080Y-156490000D01*
X57554659Y-156421460D01*
X57195370Y-156272270D01*
X56806337Y-156271931D01*
X56446788Y-156420493D01*
X56171460Y-156695341D01*
X56022270Y-157054630D01*
X56021931Y-157443663D01*
X56170493Y-157803212D01*
X56445341Y-158078540D01*
X56804630Y-158227730D01*
X57193663Y-158228069D01*
X57553212Y-158079507D01*
X57622840Y-158010000D01*
X60626920Y-158010000D01*
X60695341Y-158078540D01*
X60972149Y-158193481D01*
X60972080Y-158273123D01*
X54231583Y-158273123D01*
X53729269Y-157770809D01*
X53951261Y-157549204D01*
X54100451Y-157189915D01*
X54100790Y-156800882D01*
X53952228Y-156441333D01*
X53882721Y-156371705D01*
X53882721Y-146123080D01*
X53951261Y-146054659D01*
X54100451Y-145695370D01*
X54100790Y-145306337D01*
X53952228Y-144946788D01*
X53677380Y-144671460D01*
X53318091Y-144522270D01*
X53026877Y-144522016D01*
X53026877Y-139455639D01*
X53170493Y-139803218D01*
X53445341Y-140078546D01*
X53804630Y-140227736D01*
X54193663Y-140228075D01*
X54553212Y-140079513D01*
X54622840Y-140010006D01*
X57899994Y-140010006D01*
X58190833Y-139952154D01*
X58437395Y-139787407D01*
X60996817Y-137227985D01*
X61093663Y-137228069D01*
X61453212Y-137079507D01*
X61728540Y-136804659D01*
X61877730Y-136445370D01*
X61878069Y-136056337D01*
X61729507Y-135696788D01*
X61454659Y-135421460D01*
X61095370Y-135272270D01*
X60706337Y-135271931D01*
X60346788Y-135420493D01*
X60071460Y-135695341D01*
X59922270Y-136054630D01*
X59922184Y-136153014D01*
X57585192Y-138490006D01*
X54623080Y-138490006D01*
X54554659Y-138421466D01*
X54195370Y-138272276D01*
X53806337Y-138271937D01*
X53446788Y-138420499D01*
X53171460Y-138695347D01*
X53026877Y-139043541D01*
X53026877Y-134527817D01*
X53316384Y-134528069D01*
X53675933Y-134379507D01*
X53779879Y-134275742D01*
X53898493Y-134252148D01*
X54096140Y-134120085D01*
X54098110Y-134121431D01*
X54272225Y-134156690D01*
X54271931Y-134493663D01*
X54420493Y-134853212D01*
X54695341Y-135128540D01*
X55054630Y-135277730D01*
X55443663Y-135278069D01*
X55514804Y-135248674D01*
X55548110Y-135271431D01*
X55800000Y-135322440D01*
X56600000Y-135322440D01*
X56835317Y-135278162D01*
X56938646Y-135211671D01*
X56940302Y-135213327D01*
X57173691Y-135310000D01*
X57414250Y-135310000D01*
X57573000Y-135151250D01*
X57573000Y-134427000D01*
X57827000Y-134427000D01*
X57827000Y-135151250D01*
X57985750Y-135310000D01*
X58226309Y-135310000D01*
X58459698Y-135213327D01*
X58638327Y-135034699D01*
X58735000Y-134801310D01*
X58735000Y-134585750D01*
X58576250Y-134427000D01*
X57827000Y-134427000D01*
X57573000Y-134427000D01*
X57553000Y-134427000D01*
X57553000Y-134322815D01*
X81974630Y-134322815D01*
X82298980Y-135107800D01*
X82899041Y-135708909D01*
X83683459Y-136034628D01*
X84532815Y-136035370D01*
X85317800Y-135711020D01*
X85918909Y-135110959D01*
X86244628Y-134326541D01*
X86245370Y-133477185D01*
X85921020Y-132692200D01*
X85320959Y-132091091D01*
X84536541Y-131765372D01*
X83687185Y-131764630D01*
X82902200Y-132088980D01*
X82301091Y-132689041D01*
X81975372Y-133473459D01*
X81974630Y-134322815D01*
X57553000Y-134322815D01*
X57553000Y-134173000D01*
X57573000Y-134173000D01*
X57573000Y-133448750D01*
X57827000Y-133448750D01*
X57827000Y-134173000D01*
X58576250Y-134173000D01*
X58735000Y-134014250D01*
X58735000Y-133798690D01*
X58638327Y-133565301D01*
X58459698Y-133386673D01*
X58226309Y-133290000D01*
X57985750Y-133290000D01*
X57827000Y-133448750D01*
X57573000Y-133448750D01*
X57414250Y-133290000D01*
X57173691Y-133290000D01*
X57149338Y-133300088D01*
X57126250Y-133277000D01*
X56377000Y-133277000D01*
X56377000Y-133277560D01*
X56123000Y-133277560D01*
X56123000Y-133277000D01*
X56103000Y-133277000D01*
X56103000Y-133023000D01*
X56123000Y-133023000D01*
X56123000Y-132298750D01*
X56377000Y-132298750D01*
X56377000Y-133023000D01*
X57126250Y-133023000D01*
X57285000Y-132864250D01*
X57285000Y-132648690D01*
X57188327Y-132415301D01*
X57009698Y-132236673D01*
X56776309Y-132140000D01*
X56535750Y-132140000D01*
X56377000Y-132298750D01*
X56123000Y-132298750D01*
X55964250Y-132140000D01*
X55723691Y-132140000D01*
X55490302Y-132236673D01*
X55488932Y-132238043D01*
X55401890Y-132178569D01*
X55150000Y-132127560D01*
X54396608Y-132127560D01*
X54422440Y-132000000D01*
X54422440Y-131200000D01*
X54378162Y-130964683D01*
X54311671Y-130861354D01*
X54313327Y-130859698D01*
X54410000Y-130626309D01*
X54410000Y-130385750D01*
X54251250Y-130227000D01*
X53527000Y-130227000D01*
X53527000Y-130247000D01*
X53273000Y-130247000D01*
X53273000Y-130227000D01*
X53253000Y-130227000D01*
X53253000Y-129973000D01*
X53273000Y-129973000D01*
X53273000Y-129223750D01*
X53527000Y-129223750D01*
X53527000Y-129973000D01*
X54251250Y-129973000D01*
X54410000Y-129814250D01*
X54410000Y-129573691D01*
X54313327Y-129340302D01*
X54134699Y-129161673D01*
X53901310Y-129065000D01*
X53685750Y-129065000D01*
X53527000Y-129223750D01*
X53273000Y-129223750D01*
X53114250Y-129065000D01*
X53026877Y-129065000D01*
X53026877Y-127284187D01*
X59274752Y-127284187D01*
X59492757Y-127811800D01*
X59896077Y-128215824D01*
X60423309Y-128434750D01*
X60994187Y-128435248D01*
X61521800Y-128217243D01*
X61925824Y-127813923D01*
X61979862Y-127683785D01*
X62032757Y-127811800D01*
X62436077Y-128215824D01*
X62963309Y-128434750D01*
X63534187Y-128435248D01*
X64061800Y-128217243D01*
X64465824Y-127813923D01*
X64519862Y-127683785D01*
X64572757Y-127811800D01*
X64976077Y-128215824D01*
X65503309Y-128434750D01*
X66074187Y-128435248D01*
X66601800Y-128217243D01*
X67005824Y-127813923D01*
X67224750Y-127286691D01*
X67225248Y-126715813D01*
X67007243Y-126188200D01*
X66603923Y-125784176D01*
X66076691Y-125565250D01*
X65505813Y-125564752D01*
X64978200Y-125782757D01*
X64574176Y-126186077D01*
X64520138Y-126316215D01*
X64467243Y-126188200D01*
X64063923Y-125784176D01*
X63536691Y-125565250D01*
X62965813Y-125564752D01*
X62438200Y-125782757D01*
X62034176Y-126186077D01*
X61980138Y-126316215D01*
X61927243Y-126188200D01*
X61523923Y-125784176D01*
X60996691Y-125565250D01*
X60425813Y-125564752D01*
X59898200Y-125782757D01*
X59494176Y-126186077D01*
X59275250Y-126713309D01*
X59274752Y-127284187D01*
X53026877Y-127284187D01*
X53026877Y-123627000D01*
X59236233Y-123627000D01*
X59688249Y-124079806D01*
M02*
